<?xml version="1.0" encoding="iso-8859-1"?>
<!-- Generator: Adobe Illustrator 17.1.0, SVG Export Plug-In . SVG Version: 6.00 Build 0)  -->
<!DOCTYPE svg PUBLIC "-//W3C//DTD SVG 1.0//EN" "http://www.w3.org/TR/2001/REC-SVG-20010904/DTD/svg10.dtd">
<svg version="1.0" xmlns="http://www.w3.org/2000/svg" xmlns:xlink="http://www.w3.org/1999/xlink" x="0px" y="0px" width="110px"
	 height="110px" viewBox="0 0 110 110" style="enable-background:new 0 0 110 110;" xml:space="preserve">
<g id="Artboard" style="display:none;">
	<rect x="-1082" y="-74" style="display:inline;fill:#808080;" width="1364" height="731"/>
</g>
<g id="R-Multicolor" style="display:none;">
	<circle style="display:inline;fill:#FABC3D;" cx="55" cy="55" r="55"/>
	<g style="display:inline;">
		<polygon style="fill:#059BBF;" points="54.992,37 34.992,49 34.992,71 54.992,83 74.992,71 74.992,49 		"/>
		<polygon style="fill:#21B2D1;" points="54.992,61 34.992,49 54.992,37 74.992,49 		"/>
		<polygon style="fill:#0484AB;" points="74.992,49 74.992,71 54.992,83 54.992,61 		"/>
		<path style="fill:#FFFFFF;" d="M86.821,63.312c-0.39-0.59-1.69-0.793-6.513-2.401c-0.525-0.175-1.091,0.109-1.265,0.632
			c-0.175,0.524,0.108,1.09,0.632,1.265l3.963,1.321L55.992,81.074V30.803l5.419,3.87c0.448,0.321,1.073,0.218,1.395-0.232
			c0.321-0.449,0.217-1.074-0.233-1.395l-7.581-5.416l-7.581,5.416c-0.45,0.321-0.554,0.945-0.233,1.395s0.946,0.553,1.395,0.232
			l5.419-3.87v50.271L26.346,64.129l3.963-1.321c0.524-0.175,0.807-0.741,0.632-1.265c-0.174-0.523-0.74-0.808-1.265-0.632
			c-4.823,1.607-6.124,1.811-6.513,2.401c-0.444,0.691,0.081,2.139,0.843,6.712c0.091,0.547,0.608,0.913,1.151,0.822
			c0.544-0.091,0.913-0.606,0.822-1.15l-0.64-3.838c0.459,0.281,28.663,17.999,29.678,17.999S84.21,66.124,84.645,65.857
			l-0.639,3.838c-0.091,0.544,0.277,1.06,0.822,1.15c0.542,0.09,1.06-0.275,1.151-0.822C86.741,65.45,87.265,64.002,86.821,63.312z"
			/>
		<circle style="fill:#FA5655;" cx="54.992" cy="83" r="4"/>
	</g>
</g>
<g id="Multicolor_1_" style="display:none;">
	<g style="display:inline;">
		<polygon style="fill:#059BBF;" points="54.992,37 34.992,49 34.992,71 54.992,83 74.992,71 74.992,49 		"/>
		<polygon style="fill:#21B2D1;" points="54.992,61 34.992,49 54.992,37 74.992,49 		"/>
		<polygon style="fill:#0484AB;" points="74.992,49 74.992,71 54.992,83 54.992,61 		"/>
		<path style="fill:#FFFFFF;" d="M86.821,63.312c-0.39-0.59-1.69-0.793-6.513-2.401c-0.525-0.175-1.091,0.109-1.265,0.632
			c-0.175,0.524,0.108,1.09,0.632,1.265l3.963,1.321L55.992,81.074V30.803l5.419,3.87c0.448,0.321,1.073,0.218,1.395-0.232
			c0.321-0.449,0.217-1.074-0.233-1.395l-7.581-5.416l-7.581,5.416c-0.45,0.321-0.554,0.945-0.233,1.395s0.946,0.553,1.395,0.232
			l5.419-3.87v50.271L26.346,64.129l3.963-1.321c0.524-0.175,0.807-0.741,0.632-1.265c-0.174-0.523-0.74-0.808-1.265-0.632
			c-4.823,1.607-6.124,1.811-6.513,2.401c-0.444,0.691,0.081,2.139,0.843,6.712c0.091,0.547,0.608,0.913,1.151,0.822
			c0.544-0.091,0.913-0.606,0.822-1.15l-0.64-3.838c0.459,0.281,28.663,17.999,29.678,17.999S84.21,66.124,84.645,65.857
			l-0.639,3.838c-0.091,0.544,0.277,1.06,0.822,1.15c0.542,0.09,1.06-0.275,1.151-0.822C86.741,65.45,87.265,64.002,86.821,63.312z"
			/>
		<circle style="fill:#FA5655;" cx="54.992" cy="83" r="4"/>
	</g>
</g>
<g id="Blue">
	<g>
		<g>
			<polygon style="fill:#009FC7;" points="54.992,37 34.992,49 34.992,71 54.992,83 74.992,71 74.992,49 			"/>
		</g>
		<g>
			<polygon style="fill:#00B7E5;" points="54.992,61 34.992,49 54.992,37 74.992,49 			"/>
		</g>
		<g>
			<polygon style="fill:#0081A1;" points="74.992,49 74.992,71 54.992,83 54.992,61 			"/>
		</g>
		<g>
			<path style="fill:#FFFFFF;" d="M86.821,63.312c-0.39-0.59-1.69-0.793-6.513-2.401c-0.525-0.175-1.091,0.109-1.265,0.632
				c-0.175,0.524,0.108,1.09,0.632,1.265l3.963,1.321L55.992,81.074V30.803l5.418,3.87c0.448,0.321,1.074,0.218,1.396-0.233
				c0.321-0.449,0.217-1.074-0.233-1.395l-7.581-5.415l-7.582,5.415c-0.449,0.321-0.553,0.945-0.232,1.395
				c0.321,0.449,0.946,0.553,1.395,0.233l5.419-3.87v50.271L26.346,64.129l3.963-1.321c0.524-0.175,0.807-0.741,0.632-1.265
				c-0.174-0.523-0.74-0.808-1.265-0.632c-4.823,1.608-6.124,1.811-6.513,2.401c-0.444,0.691,0.081,2.139,0.843,6.712
				c0.091,0.547,0.608,0.912,1.151,0.822c0.545-0.091,0.913-0.606,0.822-1.15l-0.64-3.838c0.459,0.281,28.663,17.999,29.678,17.999
				s29.193-17.732,29.628-17.999l-0.639,3.838c-0.091,0.544,0.277,1.06,0.822,1.15c0.542,0.09,1.06-0.275,1.151-0.822
				C86.741,65.45,87.265,64.002,86.821,63.312z"/>
		</g>
		<g>
			<circle style="fill:#0C333D;" cx="54.992" cy="83" r="4"/>
		</g>
	</g>
</g>
<g id="R-Blue" style="display:none;">
	<g style="display:inline;">
		<circle style="fill:#81D2EB;" cx="55" cy="55" r="55"/>
	</g>
	<g style="display:inline;">
		<g>
			<polygon style="fill:#009FC7;" points="54.992,37 34.992,49 34.992,71 54.992,83 74.992,71 74.992,49 			"/>
		</g>
		<g>
			<polygon style="fill:#00B7E5;" points="54.992,61 34.992,49 54.992,37 74.992,49 			"/>
		</g>
		<g>
			<polygon style="fill:#0081A1;" points="74.992,49 74.992,71 54.992,83 54.992,61 			"/>
		</g>
		<g>
			<path style="fill:#FFFFFF;" d="M86.821,63.312c-0.39-0.59-1.69-0.793-6.513-2.401c-0.525-0.175-1.091,0.109-1.265,0.632
				c-0.175,0.524,0.108,1.09,0.632,1.265l3.963,1.321L55.992,81.074V30.803l5.418,3.87c0.448,0.321,1.074,0.218,1.396-0.233
				c0.321-0.449,0.217-1.074-0.233-1.395l-7.581-5.415l-7.582,5.415c-0.449,0.321-0.553,0.945-0.232,1.395
				c0.321,0.449,0.946,0.553,1.395,0.233l5.419-3.87v50.271L26.346,64.129l3.963-1.321c0.524-0.175,0.807-0.741,0.632-1.265
				c-0.174-0.523-0.74-0.808-1.265-0.632c-4.823,1.608-6.124,1.811-6.513,2.401c-0.444,0.691,0.081,2.139,0.843,6.712
				c0.091,0.547,0.608,0.912,1.151,0.822c0.545-0.091,0.913-0.606,0.822-1.15l-0.64-3.838c0.459,0.281,28.663,17.999,29.678,17.999
				S84.21,66.124,84.645,65.857l-0.639,3.838c-0.091,0.544,0.277,1.06,0.822,1.15c0.543,0.09,1.06-0.275,1.151-0.822
				C86.741,65.45,87.265,64.002,86.821,63.312z"/>
		</g>
		<g>
			<circle style="fill:#0C333D;" cx="54.992" cy="83" r="4"/>
		</g>
	</g>
</g>
<g id="Green" style="display:none;">
	<g style="display:inline;">
		<g>
			<polygon style="fill:#00B8A5;" points="54.992,37 34.992,49 34.992,71 54.992,83 74.992,71 74.992,49 			"/>
		</g>
		<g>
			<polygon style="fill:#00D6C1;" points="54.992,61 34.992,49 54.992,37 74.992,49 			"/>
		</g>
		<g>
			<polygon style="fill:#009687;" points="74.992,49 74.992,71 54.992,83 54.992,61 			"/>
		</g>
		<g>
			<path style="fill:#FFFFFF;" d="M86.821,63.312c-0.39-0.59-1.69-0.793-6.513-2.401c-0.525-0.175-1.091,0.109-1.265,0.632
				c-0.175,0.524,0.108,1.09,0.632,1.265l3.963,1.321L55.992,81.074V30.803l5.418,3.87c0.448,0.321,1.074,0.218,1.396-0.233
				c0.321-0.449,0.217-1.074-0.233-1.395l-7.581-5.415l-7.582,5.415c-0.449,0.321-0.553,0.945-0.232,1.395
				c0.321,0.449,0.946,0.553,1.395,0.233l5.419-3.87v50.271L26.346,64.129l3.963-1.321c0.524-0.175,0.807-0.741,0.632-1.265
				c-0.174-0.523-0.74-0.808-1.265-0.632c-4.823,1.608-6.124,1.811-6.513,2.401c-0.444,0.691,0.081,2.139,0.843,6.712
				c0.091,0.547,0.608,0.912,1.151,0.822c0.545-0.091,0.913-0.606,0.822-1.15l-0.64-3.838c0.459,0.281,28.663,17.999,29.678,17.999
				c1.015,0,29.193-17.732,29.628-17.999l-0.639,3.838c-0.091,0.544,0.277,1.06,0.822,1.15c0.542,0.09,1.06-0.275,1.151-0.822
				C86.741,65.45,87.265,64.003,86.821,63.312z"/>
		</g>
		<g>
			<circle style="fill:#0A3631;" cx="54.992" cy="83" r="4"/>
		</g>
	</g>
</g>
<g id="R-Green" style="display:none;">
	<g style="display:inline;">
		<circle style="fill:#87E0C8;" cx="55" cy="55" r="55"/>
	</g>
	<g style="display:inline;">
		<g>
			<polygon style="fill:#00B8A5;" points="54.992,37 34.992,49 34.992,71 54.992,83 74.992,71 74.992,49 			"/>
		</g>
		<g>
			<polygon style="fill:#00D6C1;" points="54.992,61 34.992,49 54.992,37 74.992,49 			"/>
		</g>
		<g>
			<polygon style="fill:#009687;" points="74.992,49 74.992,71 54.992,83 54.992,61 			"/>
		</g>
		<g>
			<path style="fill:#FFFFFF;" d="M86.821,63.312c-0.39-0.59-1.69-0.793-6.513-2.401c-0.525-0.175-1.091,0.109-1.265,0.632
				c-0.175,0.524,0.108,1.09,0.632,1.265l3.963,1.321L55.992,81.074V30.803l5.418,3.87c0.448,0.321,1.074,0.218,1.396-0.233
				c0.321-0.449,0.217-1.074-0.233-1.395l-7.581-5.415l-7.582,5.415c-0.449,0.321-0.553,0.945-0.232,1.395
				c0.321,0.449,0.946,0.553,1.395,0.233l5.419-3.87v50.271L26.346,64.129l3.963-1.321c0.524-0.175,0.807-0.741,0.632-1.265
				c-0.174-0.523-0.74-0.808-1.265-0.632c-4.823,1.608-6.124,1.811-6.513,2.401c-0.444,0.691,0.081,2.139,0.843,6.712
				c0.091,0.547,0.608,0.912,1.151,0.822c0.545-0.091,0.913-0.606,0.822-1.15l-0.64-3.838c0.459,0.281,28.663,17.999,29.678,17.999
				c1.015,0,29.193-17.732,29.628-17.999l-0.639,3.838c-0.091,0.544,0.277,1.06,0.822,1.15c0.543,0.09,1.06-0.275,1.151-0.822
				C86.741,65.45,87.265,64.002,86.821,63.312z"/>
		</g>
		<g>
			<circle style="fill:#0A3631;" cx="54.992" cy="83" r="4"/>
		</g>
	</g>
</g>
<g id="Red" style="display:none;">
	<g style="display:inline;">
		<g>
			<polygon style="fill:#E54B44;" points="54.992,37 34.992,49 34.992,71 54.992,83 74.992,71 74.992,49 			"/>
		</g>
		<g>
			<polygon style="fill:#FF6C5E;" points="54.992,61 34.992,49 54.992,37 74.992,49 			"/>
		</g>
		<g>
			<polygon style="fill:#C23023;" points="74.992,49 74.992,71 54.992,83 54.992,61 			"/>
		</g>
		<g>
			<path style="fill:#FFFFFF;" d="M86.821,63.312c-0.39-0.59-1.69-0.793-6.513-2.401c-0.525-0.175-1.091,0.109-1.265,0.632
				c-0.175,0.524,0.108,1.09,0.632,1.265l3.963,1.321L55.992,81.074V30.803l5.418,3.87c0.448,0.321,1.074,0.218,1.396-0.233
				c0.321-0.449,0.217-1.074-0.233-1.395l-7.581-5.415l-7.582,5.415c-0.449,0.321-0.553,0.945-0.232,1.395
				c0.321,0.449,0.946,0.553,1.395,0.233l5.419-3.87v50.271L26.346,64.129l3.963-1.321c0.524-0.175,0.807-0.741,0.632-1.265
				c-0.174-0.523-0.74-0.808-1.265-0.632c-4.823,1.608-6.124,1.811-6.513,2.401c-0.444,0.691,0.081,2.139,0.843,6.712
				c0.091,0.547,0.608,0.912,1.151,0.822c0.545-0.091,0.913-0.606,0.822-1.15l-0.64-3.838c0.459,0.281,28.663,17.999,29.678,17.999
				S84.21,66.124,84.645,65.857l-0.639,3.838c-0.091,0.544,0.277,1.06,0.822,1.15c0.543,0.09,1.06-0.275,1.151-0.822
				C86.741,65.45,87.265,64.002,86.821,63.312z"/>
		</g>
		<g>
			<circle style="fill:#4A1410;" cx="54.992" cy="83" r="4"/>
		</g>
	</g>
</g>
<g id="R-Red" style="display:none;">
	<g style="display:inline;">
		<circle style="fill:#FABBAF;" cx="55" cy="55" r="55"/>
	</g>
	<g style="display:inline;">
		<g>
			<polygon style="fill:#E54B44;" points="54.992,37 34.992,49 34.992,71 54.992,83 74.992,71 74.992,49 			"/>
		</g>
		<g>
			<polygon style="fill:#FF6C5E;" points="54.992,61 34.992,49 54.992,37 74.992,49 			"/>
		</g>
		<g>
			<polygon style="fill:#C23023;" points="74.992,49 74.992,71 54.992,83 54.992,61 			"/>
		</g>
		<g>
			<path style="fill:#FFFFFF;" d="M86.821,63.312c-0.39-0.59-1.69-0.793-6.513-2.401c-0.525-0.175-1.091,0.109-1.265,0.632
				c-0.175,0.524,0.108,1.09,0.632,1.265l3.963,1.321L55.992,81.074V30.803l5.418,3.87c0.448,0.321,1.074,0.218,1.396-0.233
				c0.321-0.449,0.217-1.074-0.233-1.395l-7.581-5.415l-7.582,5.415c-0.449,0.321-0.553,0.945-0.232,1.395
				c0.321,0.449,0.946,0.553,1.395,0.233l5.419-3.87v50.271L26.346,64.129l3.963-1.321c0.524-0.175,0.807-0.741,0.632-1.265
				c-0.174-0.523-0.74-0.808-1.265-0.632c-4.823,1.608-6.124,1.811-6.513,2.401c-0.444,0.691,0.081,2.139,0.843,6.712
				c0.091,0.547,0.608,0.912,1.151,0.822c0.545-0.091,0.913-0.606,0.822-1.15l-0.64-3.838c0.459,0.281,28.663,17.999,29.678,17.999
				S84.21,66.124,84.645,65.857l-0.639,3.838c-0.091,0.544,0.277,1.06,0.822,1.15c0.543,0.09,1.06-0.275,1.151-0.822
				C86.741,65.45,87.265,64.002,86.821,63.312z"/>
		</g>
		<g>
			<circle style="fill:#4A1410;" cx="54.992" cy="83" r="4"/>
		</g>
	</g>
</g>
<g id="Yellow" style="display:none;">
	<g style="display:inline;">
		<g>
			<polygon style="fill:#FA9200;" points="54.992,37 34.992,49 34.992,71 54.992,83 74.992,71 74.992,49 			"/>
		</g>
		<g>
			<polygon style="fill:#FFAA00;" points="54.992,61 34.992,49 54.992,37 74.992,49 			"/>
		</g>
		<g>
			<polygon style="fill:#E07000;" points="74.992,49 74.992,71 54.992,83 54.992,61 			"/>
		</g>
		<g>
			<path style="fill:#FFFFFF;" d="M86.821,63.312c-0.39-0.59-1.69-0.793-6.513-2.401c-0.525-0.175-1.091,0.109-1.265,0.632
				c-0.175,0.524,0.108,1.09,0.632,1.265l3.963,1.321L55.992,81.074V30.803l5.418,3.87c0.448,0.321,1.074,0.218,1.396-0.233
				c0.321-0.449,0.217-1.074-0.233-1.395l-7.581-5.415l-7.582,5.415c-0.449,0.321-0.553,0.945-0.232,1.395
				c0.321,0.449,0.946,0.553,1.395,0.233l5.419-3.87v50.271L26.346,64.129l3.963-1.321c0.524-0.175,0.807-0.741,0.632-1.265
				c-0.174-0.523-0.74-0.808-1.265-0.632c-4.823,1.608-6.124,1.811-6.513,2.401c-0.444,0.691,0.081,2.139,0.843,6.712
				c0.091,0.547,0.608,0.912,1.151,0.822c0.545-0.091,0.913-0.606,0.822-1.15l-0.64-3.838c0.459,0.281,28.663,17.999,29.678,17.999
				S84.21,66.124,84.645,65.857l-0.639,3.838c-0.091,0.544,0.277,1.06,0.822,1.15c0.543,0.09,1.06-0.275,1.151-0.822
				C86.741,65.45,87.265,64.002,86.821,63.312z"/>
		</g>
		<g>
			<circle style="fill:#3D320C;" cx="54.992" cy="83" r="4"/>
		</g>
	</g>
</g>
<g id="R-Yellow" style="display:none;">
	<g style="display:inline;">
		<circle style="fill:#FFD75E;" cx="55" cy="55" r="55"/>
	</g>
	<g style="display:inline;">
		<g>
			<polygon style="fill:#FA9200;" points="54.992,37 34.992,49 34.992,71 54.992,83 74.992,71 74.992,49 			"/>
		</g>
		<g>
			<polygon style="fill:#FFAA00;" points="54.992,61 34.992,49 54.992,37 74.992,49 			"/>
		</g>
		<g>
			<polygon style="fill:#E07000;" points="74.992,49 74.992,71 54.992,83 54.992,61 			"/>
		</g>
		<g>
			<path style="fill:#FFFFFF;" d="M86.821,63.312c-0.39-0.59-1.69-0.793-6.513-2.401c-0.525-0.175-1.091,0.109-1.265,0.632
				c-0.175,0.524,0.108,1.09,0.632,1.265l3.963,1.321L55.992,81.074V30.803l5.418,3.87c0.448,0.321,1.074,0.218,1.396-0.233
				c0.321-0.449,0.217-1.074-0.233-1.395l-7.581-5.415l-7.582,5.415c-0.449,0.321-0.553,0.945-0.232,1.395
				c0.321,0.449,0.946,0.553,1.395,0.233l5.419-3.87v50.271L26.346,64.129l3.963-1.321c0.524-0.175,0.807-0.741,0.632-1.265
				c-0.174-0.523-0.74-0.808-1.265-0.632c-4.823,1.608-6.124,1.811-6.513,2.401c-0.444,0.691,0.081,2.139,0.843,6.712
				c0.091,0.547,0.608,0.912,1.151,0.822c0.545-0.091,0.913-0.606,0.822-1.15l-0.64-3.838c0.459,0.281,28.663,17.999,29.678,17.999
				s29.193-17.732,29.628-17.999l-0.639,3.838c-0.091,0.544,0.277,1.06,0.822,1.15c0.542,0.09,1.06-0.275,1.151-0.822
				C86.741,65.45,87.265,64.002,86.821,63.312z"/>
		</g>
		<g>
			<circle style="fill:#3D320C;" cx="54.992" cy="83" r="4"/>
		</g>
	</g>
</g>
</svg>
