<?xml version="1.0" encoding="iso-8859-1"?>
<!-- Generator: Adobe Illustrator 17.1.0, SVG Export Plug-In . SVG Version: 6.00 Build 0)  -->
<!DOCTYPE svg PUBLIC "-//W3C//DTD SVG 1.0//EN" "http://www.w3.org/TR/2001/REC-SVG-20010904/DTD/svg10.dtd">
<svg version="1.0" xmlns="http://www.w3.org/2000/svg" xmlns:xlink="http://www.w3.org/1999/xlink" x="0px" y="0px" width="110px"
	 height="110px" viewBox="0 0 110 110" style="enable-background:new 0 0 110 110;" xml:space="preserve">
<g id="Artboard">
</g>
<g id="Multicolor">
	<circle style="fill:#FABC3D;" cx="55" cy="55" r="55"/>
	<g>
		<polygon style="fill:#059BBF;" points="54.992,37 34.992,49 34.992,71 54.992,83 74.992,71 74.992,49 		"/>
		<polygon style="fill:#21B2D1;" points="54.992,61 34.992,49 54.992,37 74.992,49 		"/>
		<polygon style="fill:#0484AB;" points="74.992,49 74.992,71 54.992,83 54.992,61 		"/>
		<path style="fill:#FFFFFF;" d="M86.821,63.312c-0.39-0.59-1.69-0.793-6.513-2.401c-0.525-0.175-1.091,0.109-1.265,0.632
			c-0.175,0.524,0.108,1.09,0.632,1.265l3.963,1.321L55.992,81.074V30.803l5.419,3.87c0.448,0.321,1.073,0.218,1.395-0.232
			c0.321-0.449,0.217-1.074-0.233-1.395l-7.581-5.416l-7.581,5.416c-0.45,0.321-0.554,0.945-0.233,1.395s0.946,0.553,1.395,0.232
			l5.419-3.87v50.271L26.346,64.129l3.963-1.321c0.524-0.175,0.807-0.741,0.632-1.265c-0.174-0.523-0.74-0.808-1.265-0.632
			c-4.823,1.607-6.124,1.811-6.513,2.401c-0.444,0.691,0.081,2.139,0.843,6.712c0.091,0.547,0.608,0.913,1.151,0.822
			c0.544-0.091,0.913-0.606,0.822-1.15l-0.64-3.838c0.459,0.281,28.663,17.999,29.678,17.999S84.21,66.124,84.645,65.857
			l-0.639,3.838c-0.091,0.544,0.277,1.06,0.822,1.15c0.542,0.09,1.06-0.275,1.151-0.822C86.741,65.45,87.265,64.002,86.821,63.312z"
			/>
		<circle style="fill:#FA5655;" cx="54.992" cy="83" r="4"/>
	</g>
</g>
</svg>
