<?xml version="1.0" encoding="iso-8859-1"?>
<!-- Generator: Adobe Illustrator 17.1.0, SVG Export Plug-In . SVG Version: 6.00 Build 0)  -->
<!DOCTYPE svg PUBLIC "-//W3C//DTD SVG 1.0//EN" "http://www.w3.org/TR/2001/REC-SVG-20010904/DTD/svg10.dtd">
<svg version="1.0" xmlns="http://www.w3.org/2000/svg" xmlns:xlink="http://www.w3.org/1999/xlink" x="0px" y="0px" width="110px"
	 height="110px" viewBox="0 0 110 110" style="enable-background:new 0 0 110 110;" xml:space="preserve">
<g id="Artboard" style="display:none;">
	<rect x="-954" y="-45" style="display:inline;fill:#808080;" width="1347" height="333"/>
</g>
<g id="R-Multicolor" style="display:none;">
	<circle style="display:inline;fill:#E04F5F;" cx="55" cy="55" r="55"/>
	<g style="display:inline;">
		<path style="fill:#FACB1B;" d="M56,39h-2c-1.094,0-2.117-0.737-3-1.833V71h8V37.167C58.117,38.263,57.094,39,56,39z"/>
		<path style="fill:#3E3E3F;" d="M27.775,58L33,37.971L38.225,58h1.511c0-0.063,0.006-0.125-0.01-0.189l-6-23
			C33.64,34.48,33.341,34.25,33,34.25s-0.64,0.23-0.726,0.561l-6,23c-0.017,0.064-0.011,0.126-0.01,0.189H27.775z"/>
		<path style="fill:#3E3E3F;" d="M71.775,58L77,37.971L82.225,58h1.511c0-0.063,0.006-0.125-0.01-0.189l-6-23
			C77.64,34.48,77.341,34.25,77,34.25s-0.64,0.23-0.726,0.561l-6,23c-0.017,0.064-0.011,0.126-0.01,0.189H71.775z"/>
		<path style="fill:#FACB1B;" d="M87,58c0,4.418-3.582,8-8,8h-4c-4.418,0-8-3.582-8-8H87z"/>
		<path style="fill:#FBE158;" d="M77,58H67c0,4.418,3.582,8,8,8h2V58z"/>
		<path style="fill:#FACB1B;" d="M43,58c0,4.418-3.582,8-8,8h-4c-4.418,0-8-3.582-8-8H43z"/>
		<path style="fill:#FBE158;" d="M33,58H23c0,4.418,3.582,8,8,8h2V58z"/>
		<g>
			<path style="fill:#FBE158;" d="M77,36.886C70.344,33.036,62.736,31,55,31s-15.343,2.035-21.998,5.885
				c-0.956,0.554-2.18,0.226-2.733-0.729c-0.553-0.956-0.227-2.18,0.729-2.732C38.262,29.221,46.562,27,55,27
				s16.739,2.221,24.004,6.424c0.956,0.553,1.282,1.776,0.729,2.732C79.182,37.109,77.96,37.442,77,36.886z"/>
		</g>
		<path style="fill:#F3B607;" d="M59,71h-8c-0.469,16.256-12,7.129-12,16h32C71,78.113,59.463,87.056,59,71z"/>
		<path style="fill:#FACB1B;" d="M51,71c-0.469,16.256-12,7.129-12,16h16V71H51z"/>
		<path style="fill:#FBE158;" d="M54,39c-1.094,0-2.117-0.737-3-1.833V71h4V39H54z"/>
		<path style="fill:#FACB1B;" d="M55,23L55,23l-7,6c0,3.314,2.686,10,6,10h2c3.314,0,6-6.686,6-10L55,23z"/>
		<path style="fill:#F3B607;" d="M55,23v16h1c3.314,0,6-6.686,6-10L55,23z"/>
	</g>
</g>
<g id="Multicolor_1_" style="display:none;">
	<g style="display:inline;">
		<path style="fill:#FACB1B;" d="M56,39h-2c-1.094,0-2.117-0.737-3-1.833V71h8V37.167C58.117,38.263,57.094,39,56,39z"/>
		<path style="fill:#3E3E3F;" d="M27.775,58L33,37.971L38.225,58h1.511c0-0.063,0.006-0.125-0.01-0.189l-6-23
			C33.64,34.48,33.341,34.25,33,34.25s-0.64,0.23-0.726,0.561l-6,23c-0.017,0.064-0.011,0.126-0.01,0.189H27.775z"/>
		<path style="fill:#3E3E3F;" d="M71.775,58L77,37.971L82.225,58h1.511c0-0.063,0.006-0.125-0.01-0.189l-6-23
			C77.64,34.48,77.341,34.25,77,34.25s-0.64,0.23-0.726,0.561l-6,23c-0.017,0.064-0.011,0.126-0.01,0.189H71.775z"/>
		<path style="fill:#FACB1B;" d="M87,58c0,4.418-3.582,8-8,8h-4c-4.418,0-8-3.582-8-8H87z"/>
		<path style="fill:#FBE158;" d="M77,58H67c0,4.418,3.582,8,8,8h2V58z"/>
		<path style="fill:#FACB1B;" d="M43,58c0,4.418-3.582,8-8,8h-4c-4.418,0-8-3.582-8-8H43z"/>
		<path style="fill:#FBE158;" d="M33,58H23c0,4.418,3.582,8,8,8h2V58z"/>
		<g>
			<path style="fill:#FBE158;" d="M77,36.886C70.344,33.036,62.736,31,55,31s-15.343,2.035-21.998,5.885
				c-0.956,0.554-2.18,0.226-2.733-0.729c-0.553-0.956-0.227-2.18,0.729-2.732C38.262,29.221,46.562,27,55,27
				s16.739,2.221,24.004,6.424c0.956,0.553,1.282,1.776,0.729,2.732C79.182,37.109,77.96,37.442,77,36.886z"/>
		</g>
		<path style="fill:#F3B607;" d="M59,71h-8c-0.469,16.256-12,7.129-12,16h32C71,78.113,59.463,87.056,59,71z"/>
		<path style="fill:#FACB1B;" d="M51,71c-0.469,16.256-12,7.129-12,16h16V71H51z"/>
		<path style="fill:#FBE158;" d="M54,39c-1.094,0-2.117-0.737-3-1.833V71h4V39H54z"/>
		<path style="fill:#FACB1B;" d="M55,23L55,23l-7,6c0,3.314,2.686,10,6,10h2c3.314,0,6-6.686,6-10L55,23z"/>
		<path style="fill:#F3B607;" d="M55,23v16h1c3.314,0,6-6.686,6-10L55,23z"/>
	</g>
</g>
<g id="Blue" style="display:none;">
	<g style="display:inline;">
		<g>
			<path style="fill:#BBE7F2;" d="M56,39h-2c-1.094,0-2.117-0.737-3-1.832V71h8V37.168C58.117,38.263,57.094,39,56,39z"/>
		</g>
		<g>
			<path style="fill:#0C333D;" d="M27.775,58L33,37.971L38.225,58h1.511c0-0.063,0.006-0.125-0.011-0.189l-6-23
				C33.64,34.481,33.341,34.25,33,34.25c-0.341,0-0.64,0.231-0.726,0.561l-6,23c-0.017,0.064-0.011,0.126-0.011,0.189H27.775z"/>
		</g>
		<g>
			<path style="fill:#0C333D;" d="M71.775,58L77,37.971L82.225,58h1.511c0-0.063,0.006-0.125-0.011-0.189l-6-23
				C77.64,34.481,77.341,34.25,77,34.25c-0.341,0-0.64,0.231-0.726,0.561l-6,23c-0.017,0.064-0.011,0.126-0.011,0.189H71.775z"/>
		</g>
		<g>
			<path style="fill:#E1F5FA;" d="M87,58c0,4.419-3.582,8-8,8h-4c-4.419,0-8-3.581-8-8H87z"/>
		</g>
		<g>
			<path style="fill:#FFFFFF;" d="M77,58H67c0,4.418,3.582,8,8,8h2V58z"/>
		</g>
		<g>
			<path style="fill:#E1F5FA;" d="M43,58c0,4.419-3.582,8-8,8h-4c-4.418,0-8-3.581-8-8H43z"/>
		</g>
		<g>
			<path style="fill:#FFFFFF;" d="M33,58H23c0,4.418,3.582,8,8,8h2V58z"/>
		</g>
		<g>
			<g>
				<path style="fill:#BBE7F2;" d="M77,36.886C70.344,33.036,62.736,31,55,31s-15.343,2.035-21.998,5.886
					c-0.956,0.553-2.18,0.226-2.733-0.73c-0.553-0.956-0.227-2.18,0.729-2.732C38.262,29.221,46.561,27,55,27
					s16.739,2.221,24.004,6.424c0.956,0.553,1.282,1.776,0.729,2.732C79.182,37.108,77.96,37.442,77,36.886z"/>
			</g>
		</g>
		<g>
			<path style="fill:#E1F5FA;" d="M59,71h-8c-0.469,16.256-12,7.129-12,16h32C71,78.113,59.463,87.056,59,71z"/>
		</g>
		<g>
			<path style="fill:#FFFFFF;" d="M51,71c-0.469,16.256-12,7.129-12,16h16V71H51z"/>
		</g>
		<g>
			<path style="fill:#E1F5FA;" d="M54,39c-1.094,0-2.117-0.737-3-1.832V71h4V39H54z"/>
		</g>
		<g>
			<path style="fill:#009FC7;" d="M55,23L55,23l-7,6c0,3.314,2.687,10,6,10h2c3.313,0,6-6.686,6-10L55,23z"/>
		</g>
		<g>
			<path style="fill:#0081A1;" d="M55,23v16h1c3.313,0,6-6.686,6-10L55,23z"/>
		</g>
	</g>
</g>
<g id="R-Blue" style="display:none;">
	<g style="display:inline;">
		<circle style="fill:#81D2EB;" cx="55" cy="55" r="55"/>
	</g>
	<g style="display:inline;">
		<g>
			<path style="fill:#BBE7F2;" d="M56,39h-2c-1.094,0-2.117-0.737-3-1.832V71h8V37.168C58.117,38.263,57.094,39,56,39z"/>
		</g>
		<g>
			<path style="fill:#0C333D;" d="M27.775,58L33,37.971L38.225,58h1.511c0-0.063,0.006-0.125-0.011-0.189l-6-23
				C33.64,34.481,33.341,34.25,33,34.25c-0.341,0-0.64,0.231-0.726,0.561l-6,23c-0.017,0.064-0.011,0.126-0.011,0.189H27.775z"/>
		</g>
		<g>
			<path style="fill:#0C333D;" d="M71.775,58L77,37.971L82.225,58h1.511c0-0.063,0.006-0.125-0.011-0.189l-6-23
				C77.64,34.481,77.341,34.25,77,34.25c-0.341,0-0.64,0.231-0.726,0.561l-6,23c-0.017,0.064-0.011,0.126-0.011,0.189H71.775z"/>
		</g>
		<g>
			<path style="fill:#E1F5FA;" d="M87,58c0,4.419-3.582,8-8,8h-4c-4.419,0-8-3.581-8-8H87z"/>
		</g>
		<g>
			<path style="fill:#FFFFFF;" d="M77,58H67c0,4.418,3.582,8,8,8h2V58z"/>
		</g>
		<g>
			<path style="fill:#E1F5FA;" d="M43,58c0,4.419-3.582,8-8,8h-4c-4.418,0-8-3.581-8-8H43z"/>
		</g>
		<g>
			<path style="fill:#FFFFFF;" d="M33,58H23c0,4.418,3.582,8,8,8h2V58z"/>
		</g>
		<g>
			<g>
				<path style="fill:#BBE7F2;" d="M77,36.886C70.344,33.036,62.736,31,55,31s-15.343,2.035-21.998,5.886
					c-0.956,0.553-2.18,0.226-2.733-0.73c-0.553-0.956-0.227-2.18,0.729-2.732C38.262,29.221,46.561,27,55,27
					s16.739,2.221,24.004,6.424c0.956,0.553,1.282,1.776,0.729,2.732C79.182,37.108,77.96,37.442,77,36.886z"/>
			</g>
		</g>
		<g>
			<path style="fill:#E1F5FA;" d="M59,71h-8c-0.469,16.256-12,7.129-12,16h32C71,78.113,59.463,87.056,59,71z"/>
		</g>
		<g>
			<path style="fill:#FFFFFF;" d="M51,71c-0.469,16.256-12,7.129-12,16h16V71H51z"/>
		</g>
		<g>
			<path style="fill:#E1F5FA;" d="M54,39c-1.094,0-2.117-0.737-3-1.832V71h4V39H54z"/>
		</g>
		<g>
			<path style="fill:#009FC7;" d="M55,23L55,23l-7,6c0,3.314,2.687,10,6,10h2c3.313,0,6-6.686,6-10L55,23z"/>
		</g>
		<g>
			<path style="fill:#0081A1;" d="M55,23v16h1c3.313,0,6-6.686,6-10L55,23z"/>
		</g>
	</g>
</g>
<g id="Green" style="display:none;">
	<g style="display:inline;">
		<g>
			<path style="fill:#AAF0E9;" d="M56,39h-2c-1.094,0-2.117-0.737-3-1.832V71h8V37.168C58.117,38.263,57.094,39,56,39z"/>
		</g>
		<g>
			<path style="fill:#0A3631;" d="M27.775,58L33,37.971L38.225,58h1.511c0-0.063,0.006-0.125-0.011-0.189l-6-23
				C33.64,34.481,33.341,34.25,33,34.25c-0.341,0-0.64,0.231-0.726,0.561l-6,23c-0.017,0.064-0.011,0.126-0.011,0.189H27.775z"/>
		</g>
		<g>
			<path style="fill:#0A3631;" d="M71.775,58L77,37.971L82.225,58h1.511c0-0.063,0.006-0.125-0.011-0.189l-6-23
				C77.64,34.481,77.341,34.25,77,34.25s-0.64,0.231-0.726,0.561l-6,23c-0.017,0.064-0.011,0.126-0.011,0.189H71.775z"/>
		</g>
		<g>
			<path style="fill:#D7FCF9;" d="M87,58c0,4.419-3.581,8-8,8h-4c-4.419,0-8-3.581-8-8H87z"/>
		</g>
		<g>
			<path style="fill:#FFFFFF;" d="M77,58H67c0,4.418,3.582,8,8,8h2V58z"/>
		</g>
		<g>
			<path style="fill:#D7FCF9;" d="M43,58c0,4.419-3.582,8-8,8h-4c-4.418,0-8-3.581-8-8H43z"/>
		</g>
		<g>
			<path style="fill:#FFFFFF;" d="M33,58H23c0,4.418,3.582,8,8,8h2V58z"/>
		</g>
		<g>
			<g>
				<path style="fill:#AAF0E9;" d="M77,36.886C70.344,33.036,62.736,31,55,31s-15.343,2.035-21.998,5.886
					c-0.956,0.553-2.18,0.226-2.733-0.73c-0.553-0.956-0.227-2.18,0.729-2.732C38.262,29.221,46.562,27,55,27
					s16.739,2.221,24.004,6.424c0.956,0.553,1.282,1.776,0.729,2.732C79.182,37.108,77.96,37.442,77,36.886z"/>
			</g>
		</g>
		<g>
			<path style="fill:#D7FCF9;" d="M59,71h-8c-0.469,16.256-12,7.129-12,16h32C71,78.113,59.463,87.056,59,71z"/>
		</g>
		<g>
			<path style="fill:#FFFFFF;" d="M51,71c-0.469,16.256-12,7.129-12,16h16V71H51z"/>
		</g>
		<g>
			<path style="fill:#D7FCF9;" d="M54,39c-1.094,0-2.117-0.737-3-1.832V71h4V39H54z"/>
		</g>
		<g>
			<path style="fill:#00B8A5;" d="M55,23L55,23l-7,6c0,3.314,2.687,10,6,10h2c3.313,0,6-6.686,6-10L55,23z"/>
		</g>
		<g>
			<path style="fill:#009687;" d="M55,23v16h1c3.313,0,6-6.686,6-10L55,23z"/>
		</g>
	</g>
</g>
<g id="R-Green" style="display:none;">
	<g style="display:inline;">
		<circle style="fill:#87E0C8;" cx="55" cy="55" r="55"/>
	</g>
	<g style="display:inline;">
		<g>
			<path style="fill:#AAF0E9;" d="M56,39h-2c-1.094,0-2.117-0.737-3-1.832V71h8V37.168C58.117,38.263,57.094,39,56,39z"/>
		</g>
		<g>
			<path style="fill:#0A3631;" d="M27.775,58L33,37.971L38.225,58h1.511c0-0.063,0.006-0.125-0.011-0.189l-6-23
				C33.64,34.481,33.341,34.25,33,34.25c-0.341,0-0.64,0.231-0.726,0.561l-6,23c-0.017,0.064-0.011,0.126-0.011,0.189H27.775z"/>
		</g>
		<g>
			<path style="fill:#0A3631;" d="M71.775,58L77,37.971L82.225,58h1.511c0-0.063,0.006-0.125-0.011-0.189l-6-23
				C77.64,34.481,77.341,34.25,77,34.25s-0.64,0.231-0.726,0.561l-6,23c-0.017,0.064-0.011,0.126-0.011,0.189H71.775z"/>
		</g>
		<g>
			<path style="fill:#D7FCF9;" d="M87,58c0,4.419-3.581,8-8,8h-4c-4.419,0-8-3.581-8-8H87z"/>
		</g>
		<g>
			<path style="fill:#FFFFFF;" d="M77,58H67c0,4.418,3.582,8,8,8h2V58z"/>
		</g>
		<g>
			<path style="fill:#D7FCF9;" d="M43,58c0,4.419-3.582,8-8,8h-4c-4.418,0-8-3.581-8-8H43z"/>
		</g>
		<g>
			<path style="fill:#FFFFFF;" d="M33,58H23c0,4.418,3.582,8,8,8h2V58z"/>
		</g>
		<g>
			<g>
				<path style="fill:#AAF0E9;" d="M77,36.886C70.344,33.036,62.736,31,55,31s-15.343,2.035-21.998,5.886
					c-0.956,0.553-2.18,0.226-2.733-0.73c-0.553-0.956-0.227-2.18,0.729-2.732C38.262,29.221,46.562,27,55,27
					s16.739,2.221,24.004,6.424c0.956,0.553,1.282,1.776,0.729,2.732C79.182,37.108,77.96,37.442,77,36.886z"/>
			</g>
		</g>
		<g>
			<path style="fill:#D7FCF9;" d="M59,71h-8c-0.469,16.256-12,7.129-12,16h32C71,78.113,59.463,87.056,59,71z"/>
		</g>
		<g>
			<path style="fill:#FFFFFF;" d="M51,71c-0.469,16.256-12,7.129-12,16h16V71H51z"/>
		</g>
		<g>
			<path style="fill:#D7FCF9;" d="M54,39c-1.094,0-2.117-0.737-3-1.832V71h4V39H54z"/>
		</g>
		<g>
			<path style="fill:#00B8A5;" d="M55,23L55,23l-7,6c0,3.314,2.687,10,6,10h2c3.313,0,6-6.686,6-10L55,23z"/>
		</g>
		<g>
			<path style="fill:#009687;" d="M55,23v16h1c3.313,0,6-6.686,6-10L55,23z"/>
		</g>
	</g>
</g>
<g id="Red">
	<g>
		<g>
			<path style="fill:#FFD7D4;" d="M56,39h-2c-1.094,0-2.117-0.737-3-1.832V71h8V37.168C58.117,38.263,57.094,39,56,39z"/>
		</g>
		<g>
			<path style="fill:#4A1410;" d="M27.775,58L33,37.971L38.225,58h1.511c0-0.063,0.006-0.125-0.011-0.189l-6-23
				C33.64,34.481,33.341,34.25,33,34.25c-0.341,0-0.64,0.231-0.726,0.561l-6,23c-0.017,0.064-0.011,0.126-0.011,0.189H27.775z"/>
		</g>
		<g>
			<path style="fill:#4A1410;" d="M71.775,58L77,37.971L82.225,58h1.511c0-0.063,0.006-0.125-0.011-0.189l-6-23
				C77.64,34.481,77.341,34.25,77,34.25s-0.64,0.231-0.726,0.561l-6,23c-0.017,0.064-0.011,0.126-0.011,0.189H71.775z"/>
		</g>
		<g>
			<path style="fill:#FFEFED;" d="M87,58c0,4.419-3.581,8-8,8h-4c-4.419,0-8-3.581-8-8H87z"/>
		</g>
		<g>
			<path style="fill:#FFFFFF;" d="M77,58H67c0,4.418,3.582,8,8,8h2V58z"/>
		</g>
		<g>
			<path style="fill:#FFEFED;" d="M43,58c0,4.419-3.582,8-8,8h-4c-4.418,0-8-3.581-8-8H43z"/>
		</g>
		<g>
			<path style="fill:#FFFFFF;" d="M33,58H23c0,4.418,3.582,8,8,8h2V58z"/>
		</g>
		<g>
			<g>
				<path style="fill:#FFD7D4;" d="M77,36.886C70.344,33.036,62.736,31,55,31s-15.343,2.035-21.998,5.886
					c-0.956,0.553-2.18,0.226-2.733-0.73c-0.553-0.956-0.227-2.18,0.729-2.732C38.262,29.221,46.562,27,55,27
					s16.739,2.221,24.004,6.424c0.956,0.553,1.282,1.776,0.729,2.732C79.182,37.108,77.96,37.442,77,36.886z"/>
			</g>
		</g>
		<g>
			<path style="fill:#FFEFED;" d="M59,71h-8c-0.469,16.256-12,7.129-12,16h32C71,78.113,59.463,87.056,59,71z"/>
		</g>
		<g>
			<path style="fill:#FFFFFF;" d="M51,71c-0.469,16.256-12,7.129-12,16h16V71H51z"/>
		</g>
		<g>
			<path style="fill:#FFEFED;" d="M54,39c-1.094,0-2.117-0.737-3-1.832V71h4V39H54z"/>
		</g>
		<g>
			<path style="fill:#E54B44;" d="M55,23L55,23l-7,6c0,3.314,2.687,10,6,10h2c3.313,0,6-6.686,6-10L55,23z"/>
		</g>
		<g>
			<path style="fill:#C23023;" d="M55,23v16h1c3.313,0,6-6.686,6-10L55,23z"/>
		</g>
	</g>
</g>
<g id="R-Red" style="display:none;">
	<g style="display:inline;">
		<circle style="fill:#FABBAF;" cx="55" cy="55" r="55"/>
	</g>
	<g style="display:inline;">
		<g>
			<path style="fill:#FFD7D4;" d="M56,39h-2c-1.094,0-2.117-0.737-3-1.832V71h8V37.168C58.117,38.263,57.094,39,56,39z"/>
		</g>
		<g>
			<path style="fill:#4A1410;" d="M27.775,58L33,37.971L38.225,58h1.511c0-0.063,0.006-0.125-0.011-0.189l-6-23
				C33.64,34.481,33.341,34.25,33,34.25s-0.64,0.231-0.726,0.561l-6,23c-0.017,0.064-0.011,0.126-0.011,0.189H27.775z"/>
		</g>
		<g>
			<path style="fill:#4A1410;" d="M71.775,58L77,37.971L82.225,58h1.511c0-0.063,0.006-0.125-0.011-0.189l-6-23
				C77.64,34.481,77.341,34.25,77,34.25s-0.64,0.231-0.726,0.561l-6,23c-0.017,0.064-0.011,0.126-0.011,0.189H71.775z"/>
		</g>
		<g>
			<path style="fill:#FFEFED;" d="M87,58c0,4.419-3.581,8-8,8h-4c-4.419,0-8-3.581-8-8H87z"/>
		</g>
		<g>
			<path style="fill:#FFFFFF;" d="M77,58H67c0,4.418,3.582,8,8,8h2V58z"/>
		</g>
		<g>
			<path style="fill:#FFEFED;" d="M43,58c0,4.419-3.582,8-8,8h-4c-4.419,0-8-3.581-8-8H43z"/>
		</g>
		<g>
			<path style="fill:#FFFFFF;" d="M33,58H23c0,4.418,3.582,8,8,8h2V58z"/>
		</g>
		<g>
			<g>
				<path style="fill:#FFD7D4;" d="M77,36.886C70.344,33.036,62.736,31,55,31s-15.343,2.035-21.998,5.886
					c-0.956,0.553-2.18,0.226-2.733-0.73c-0.553-0.956-0.227-2.18,0.729-2.732C38.262,29.221,46.562,27,55,27
					s16.739,2.221,24.004,6.424c0.956,0.553,1.282,1.776,0.729,2.732C79.182,37.108,77.96,37.442,77,36.886z"/>
			</g>
		</g>
		<g>
			<path style="fill:#FFEFED;" d="M59,71h-8c-0.469,16.256-12,7.129-12,16h32C71,78.113,59.463,87.056,59,71z"/>
		</g>
		<g>
			<path style="fill:#FFFFFF;" d="M51,71c-0.469,16.256-12,7.129-12,16h16V71H51z"/>
		</g>
		<g>
			<path style="fill:#FFEFED;" d="M54,39c-1.094,0-2.117-0.737-3-1.832V71h4V39H54z"/>
		</g>
		<g>
			<path style="fill:#E54B44;" d="M55,23L55,23l-7,6c0,3.314,2.687,10,6,10h2c3.313,0,6-6.686,6-10L55,23z"/>
		</g>
		<g>
			<path style="fill:#C23023;" d="M55,23v16h1c3.313,0,6-6.686,6-10L55,23z"/>
		</g>
	</g>
</g>
<g id="Yellow" style="display:none;">
	<g style="display:inline;">
		<g>
			<path style="fill:#FFE9A1;" d="M56,39h-2c-1.094,0-2.117-0.737-3-1.832V71h8V37.168C58.117,38.263,57.094,39,56,39z"/>
		</g>
		<g>
			<path style="fill:#3D320C;" d="M27.775,58L33,37.971L38.225,58h1.511c0-0.063,0.006-0.125-0.011-0.189l-6-23
				C33.64,34.481,33.341,34.25,33,34.25s-0.64,0.231-0.726,0.561l-6,23c-0.017,0.064-0.011,0.126-0.011,0.189H27.775z"/>
		</g>
		<g>
			<path style="fill:#3D320C;" d="M71.775,58L77,37.971L82.225,58h1.511c0-0.063,0.006-0.125-0.011-0.189l-6-23
				C77.64,34.481,77.341,34.25,77,34.25s-0.64,0.231-0.726,0.561l-6,23c-0.017,0.064-0.011,0.126-0.011,0.189H71.775z"/>
		</g>
		<g>
			<path style="fill:#FFF5D9;" d="M87,58c0,4.419-3.581,8-8,8h-4c-4.419,0-8-3.581-8-8H87z"/>
		</g>
		<g>
			<path style="fill:#FFFFFF;" d="M77,58H67c0,4.418,3.582,8,8,8h2V58z"/>
		</g>
		<g>
			<path style="fill:#FFF5D9;" d="M43,58c0,4.419-3.582,8-8,8h-4c-4.419,0-8-3.581-8-8H43z"/>
		</g>
		<g>
			<path style="fill:#FFFFFF;" d="M33,58H23c0,4.418,3.582,8,8,8h2V58z"/>
		</g>
		<g>
			<g>
				<path style="fill:#FFE9A1;" d="M77,36.886C70.344,33.036,62.736,31,55,31s-15.343,2.035-21.998,5.886
					c-0.956,0.553-2.18,0.226-2.733-0.73c-0.553-0.956-0.227-2.18,0.729-2.732C38.262,29.221,46.562,27,55,27
					s16.739,2.221,24.004,6.424c0.956,0.553,1.282,1.776,0.729,2.732C79.182,37.108,77.96,37.442,77,36.886z"/>
			</g>
		</g>
		<g>
			<path style="fill:#FFF5D9;" d="M59,71h-8c-0.469,16.256-12,7.129-12,16h32C71,78.113,59.463,87.056,59,71z"/>
		</g>
		<g>
			<path style="fill:#FFFFFF;" d="M51,71c-0.469,16.256-12,7.129-12,16h16V71H51z"/>
		</g>
		<g>
			<path style="fill:#FFF5D9;" d="M54,39c-1.094,0-2.117-0.737-3-1.832V71h4V39H54z"/>
		</g>
		<g>
			<path style="fill:#FA9200;" d="M55,23L55,23l-7,6c0,3.314,2.687,10,6,10h2c3.313,0,6-6.686,6-10L55,23z"/>
		</g>
		<g>
			<path style="fill:#E07000;" d="M55,23v16h1c3.313,0,6-6.686,6-10L55,23z"/>
		</g>
	</g>
</g>
<g id="R-Yellow" style="display:none;">
	<g style="display:inline;">
		<circle style="fill:#FFD75E;" cx="55" cy="55" r="55"/>
	</g>
	<g style="display:inline;">
		<g>
			<path style="fill:#FFE9A1;" d="M56,39h-2c-1.094,0-2.117-0.737-3-1.832V71h8V37.168C58.117,38.263,57.094,39,56,39z"/>
		</g>
		<g>
			<path style="fill:#3D320C;" d="M27.775,58L33,37.971L38.225,58h1.511c0-0.063,0.006-0.125-0.011-0.189l-6-23
				C33.64,34.481,33.341,34.25,33,34.25c-0.341,0-0.64,0.231-0.726,0.561l-6,23c-0.017,0.064-0.011,0.126-0.011,0.189H27.775z"/>
		</g>
		<g>
			<path style="fill:#3D320C;" d="M71.775,58L77,37.971L82.225,58h1.511c0-0.063,0.006-0.125-0.011-0.189l-6-23
				C77.64,34.481,77.341,34.25,77,34.25c-0.341,0-0.64,0.231-0.726,0.561l-6,23c-0.017,0.064-0.011,0.126-0.011,0.189H71.775z"/>
		</g>
		<g>
			<path style="fill:#FFF5D9;" d="M87,58c0,4.419-3.582,8-8,8h-4c-4.419,0-8-3.581-8-8H87z"/>
		</g>
		<g>
			<path style="fill:#FFFFFF;" d="M77,58H67c0,4.418,3.582,8,8,8h2V58z"/>
		</g>
		<g>
			<path style="fill:#FFF5D9;" d="M43,58c0,4.419-3.582,8-8,8h-4c-4.418,0-8-3.581-8-8H43z"/>
		</g>
		<g>
			<path style="fill:#FFFFFF;" d="M33,58H23c0,4.418,3.582,8,8,8h2V58z"/>
		</g>
		<g>
			<g>
				<path style="fill:#FFE9A1;" d="M77,36.886C70.344,33.036,62.736,31,55,31s-15.343,2.035-21.998,5.886
					c-0.956,0.553-2.18,0.226-2.733-0.73c-0.553-0.956-0.227-2.18,0.729-2.732C38.262,29.221,46.561,27,55,27
					s16.739,2.221,24.004,6.424c0.956,0.553,1.282,1.776,0.729,2.732C79.182,37.108,77.96,37.442,77,36.886z"/>
			</g>
		</g>
		<g>
			<path style="fill:#FFF5D9;" d="M59,71h-8c-0.469,16.256-12,7.129-12,16h32C71,78.113,59.463,87.056,59,71z"/>
		</g>
		<g>
			<path style="fill:#FFFFFF;" d="M51,71c-0.469,16.256-12,7.129-12,16h16V71H51z"/>
		</g>
		<g>
			<path style="fill:#FFF5D9;" d="M54,39c-1.094,0-2.117-0.737-3-1.832V71h4V39H54z"/>
		</g>
		<g>
			<path style="fill:#FA9200;" d="M55,23L55,23l-7,6c0,3.314,2.687,10,6,10h2c3.313,0,6-6.686,6-10L55,23z"/>
		</g>
		<g>
			<path style="fill:#E07000;" d="M55,23v16h1c3.313,0,6-6.686,6-10L55,23z"/>
		</g>
	</g>
</g>
</svg>
