<?xml version="1.0" encoding="iso-8859-1"?>
<!-- Generator: Adobe Illustrator 17.1.0, SVG Export Plug-In . SVG Version: 6.00 Build 0)  -->
<!DOCTYPE svg PUBLIC "-//W3C//DTD SVG 1.0//EN" "http://www.w3.org/TR/2001/REC-SVG-20010904/DTD/svg10.dtd">
<svg version="1.0" xmlns="http://www.w3.org/2000/svg" xmlns:xlink="http://www.w3.org/1999/xlink" x="0px" y="0px" width="110px"
	 height="110px" viewBox="0 0 110 110" style="enable-background:new 0 0 110 110;" xml:space="preserve">
<g id="Artboard" style="display:none;">
	<rect x="-479" y="-327" style="display:inline;fill:#8C8C8C;" width="1412" height="743"/>
</g>
<g id="R-Multicolor" style="display:none;">
	<circle style="display:inline;fill:#FABC3D;" cx="55" cy="55" r="55"/>
	<g style="display:inline;">
		<path style="fill:#DF2C2C;" d="M29,87c-2.079,0-4.011-1.077-5.104-2.846c-1.093-1.769-1.193-3.978-0.263-5.838l26-48
			C50.65,28.284,52.727,27,55,27s4.35,1.284,5.367,3.317l26,48c0.93,1.86,0.831,4.069-0.263,5.838S83.079,87,81,87H29z"/>
		<path style="fill:#FA5655;" d="M55,27c-2.272,0-4.35,1.284-5.367,3.317l-26,48c-0.93,1.86-0.831,4.069,0.263,5.837
			C24.989,85.923,26.92,87,29,87h26V27z"/>
		<g>
			<path style="fill:#FFFFFF;" d="M51.108,45.795c-0.109-1.306,0.653-2.341,1.906-2.341h3.92c1.252,0,2.069,1.035,1.96,2.341
				l-0.344,18.213c-0.109,1.198-2.487,1.96-3.576,1.96c-1.089,0-3.316-0.763-3.424-1.96L51.108,45.795z M54.973,69.942
				c2.232,0,3.866,1.634,3.866,3.757v0.544c0,2.123-1.633,3.757-3.866,3.757c-2.178,0-3.866-1.633-3.866-3.757v-0.544
				C51.108,71.576,52.795,69.942,54.973,69.942z"/>
		</g>
	</g>
</g>
<g id="Multicolor" style="display:none;">
	<g style="display:inline;">
		<path style="fill:#DF2C2C;" d="M29,87c-2.079,0-4.011-1.077-5.104-2.846c-1.093-1.769-1.193-3.978-0.263-5.838l26-48
			C50.65,28.284,52.727,27,55,27s4.35,1.284,5.367,3.317l26,48c0.93,1.86,0.831,4.069-0.263,5.838S83.079,87,81,87H29z"/>
		<path style="fill:#FA5655;" d="M55,27c-2.272,0-4.35,1.284-5.367,3.317l-26,48c-0.93,1.86-0.831,4.069,0.263,5.837
			C24.989,85.923,26.92,87,29,87h26V27z"/>
		<g>
			<path style="fill:#FFFFFF;" d="M51.108,45.795c-0.109-1.306,0.653-2.341,1.906-2.341h3.92c1.252,0,2.069,1.035,1.96,2.341
				l-0.344,18.213c-0.109,1.198-2.487,1.96-3.576,1.96c-1.089,0-3.316-0.763-3.424-1.96L51.108,45.795z M54.973,69.942
				c2.232,0,3.866,1.634,3.866,3.757v0.544c0,2.123-1.633,3.757-3.866,3.757c-2.178,0-3.866-1.633-3.866-3.757v-0.544
				C51.108,71.576,52.795,69.942,54.973,69.942z"/>
		</g>
	</g>
</g>
<g id="Blue" style="display:none;">
	<g style="display:inline;">
		<g>
			<path style="fill:#0081A1;" d="M29.003,87c-2.08,0-4.011-1.077-5.104-2.846c-1.093-1.769-1.192-3.978-0.263-5.837l26-48
				C50.653,28.284,52.73,27,55.003,27s4.35,1.284,5.367,3.317l26,48c0.93,1.86,0.831,4.069-0.263,5.837
				C85.014,85.923,83.082,87,81.003,87H29.003z"/>
		</g>
		<g>
			<path style="fill:#009FC7;" d="M55.003,27c-2.272,0-4.35,1.284-5.367,3.317l-26,48c-0.93,1.86-0.831,4.069,0.262,5.837
				C24.992,85.923,26.923,87,29.003,87h26V27z"/>
		</g>
		<g>
			<g>
				<path style="fill:#FFFFFF;" d="M51.11,45.795c-0.109-1.307,0.653-2.341,1.906-2.341h3.92c1.252,0,2.069,1.035,1.959,2.341
					l-0.344,18.213c-0.109,1.198-2.487,1.961-3.576,1.961c-1.089,0-3.316-0.763-3.424-1.961L51.11,45.795z M54.976,69.942
					c2.232,0,3.865,1.634,3.865,3.757v0.545c0,2.123-1.633,3.756-3.865,3.756c-2.178,0-3.866-1.633-3.866-3.756v-0.545
					C51.11,71.576,52.798,69.942,54.976,69.942z"/>
			</g>
		</g>
	</g>
</g>
<g id="R-Blue" style="display:none;">
	<g style="display:inline;">
		<circle style="fill:#81D2EB;" cx="55" cy="55" r="55"/>
	</g>
	<g style="display:inline;">
		<g>
			<path style="fill:#0081A1;" d="M29,87c-2.08,0-4.011-1.077-5.104-2.846c-1.093-1.769-1.192-3.977-0.263-5.837l26-48
				C50.65,28.284,52.728,27,55,27s4.35,1.284,5.367,3.317l26,48c0.93,1.86,0.831,4.069-0.263,5.837C85.011,85.923,83.08,87,81,87H29
				z"/>
		</g>
		<g>
			<path style="fill:#009FC7;" d="M55,27c-2.272,0-4.35,1.284-5.367,3.317l-26,48c-0.93,1.86-0.831,4.069,0.262,5.837
				C24.989,85.923,26.92,87,29,87h26V27z"/>
		</g>
		<g>
			<g>
				<path style="fill:#FFFFFF;" d="M51.107,45.795c-0.109-1.307,0.653-2.341,1.906-2.341h3.92c1.252,0,2.069,1.035,1.959,2.341
					l-0.344,18.213c-0.109,1.198-2.487,1.961-3.576,1.961c-1.089,0-3.316-0.763-3.424-1.961L51.107,45.795z M54.973,69.942
					c2.232,0,3.865,1.634,3.865,3.757v0.544c0,2.123-1.633,3.756-3.865,3.756c-2.178,0-3.866-1.633-3.866-3.756v-0.544
					C51.107,71.576,52.795,69.942,54.973,69.942z"/>
			</g>
		</g>
	</g>
</g>
<g id="Green" style="display:none;">
	<g style="display:inline;">
		<g>
			<path style="fill:#009687;" d="M29.003,87c-2.08,0-4.011-1.077-5.104-2.846c-1.093-1.769-1.192-3.977-0.263-5.837l26-48
				C50.653,28.284,52.73,27,55.003,27s4.35,1.284,5.367,3.317l26,48c0.93,1.86,0.831,4.069-0.263,5.837
				C85.014,85.923,83.082,87,81.003,87H29.003z"/>
		</g>
		<g>
			<path style="fill:#00B8A5;" d="M55.003,27c-2.272,0-4.35,1.284-5.367,3.317l-26,48c-0.93,1.86-0.831,4.069,0.262,5.837
				C24.992,85.923,26.923,87,29.003,87h26V27z"/>
		</g>
		<g>
			<g>
				<path style="fill:#FFFFFF;" d="M51.11,45.795c-0.109-1.307,0.653-2.341,1.906-2.341h3.92c1.252,0,2.069,1.035,1.959,2.341
					l-0.344,18.213c-0.109,1.198-2.487,1.961-3.576,1.961c-1.089,0-3.316-0.763-3.424-1.961L51.11,45.795z M54.976,69.942
					c2.232,0,3.865,1.634,3.865,3.757v0.544c0,2.123-1.633,3.756-3.865,3.756c-2.178,0-3.866-1.633-3.866-3.756v-0.544
					C51.11,71.576,52.798,69.942,54.976,69.942z"/>
			</g>
		</g>
	</g>
</g>
<g id="R-Green" style="display:none;">
	<g style="display:inline;">
		<circle style="fill:#87E0C8;" cx="55" cy="55" r="55"/>
	</g>
	<g style="display:inline;">
		<g>
			<path style="fill:#009687;" d="M29,87c-2.08,0-4.011-1.077-5.104-2.846c-1.093-1.769-1.192-3.977-0.263-5.837l26-48
				C50.65,28.284,52.728,27,55,27s4.35,1.284,5.367,3.317l26,48c0.93,1.86,0.831,4.069-0.263,5.837C85.011,85.923,83.08,87,81,87H29
				z"/>
		</g>
		<g>
			<path style="fill:#00B8A5;" d="M55,27c-2.272,0-4.35,1.284-5.367,3.317l-26,48c-0.93,1.86-0.831,4.069,0.262,5.837
				C24.989,85.923,26.92,87,29,87h26V27z"/>
		</g>
		<g>
			<g>
				<path style="fill:#FFFFFF;" d="M51.107,45.795c-0.109-1.307,0.653-2.341,1.906-2.341h3.92c1.252,0,2.069,1.035,1.959,2.341
					l-0.344,18.213c-0.109,1.198-2.487,1.961-3.576,1.961c-1.089,0-3.316-0.763-3.424-1.961L51.107,45.795z M54.973,69.942
					c2.232,0,3.865,1.634,3.865,3.757v0.544c0,2.123-1.633,3.756-3.865,3.756c-2.178,0-3.866-1.633-3.866-3.756v-0.544
					C51.107,71.576,52.795,69.942,54.973,69.942z"/>
			</g>
		</g>
	</g>
</g>
<g id="Red">
	<g>
		<g>
			<path style="fill:#C23023;" d="M29,87c-2.08,0-4.011-1.077-5.104-2.846c-1.093-1.769-1.192-3.978-0.263-5.837l26-48
				C50.65,28.284,52.728,27,55,27s4.35,1.284,5.367,3.317l26,48c0.93,1.86,0.831,4.069-0.263,5.837C85.011,85.923,83.08,87,81,87H29
				z"/>
		</g>
		<g>
			<path style="fill:#E54B44;" d="M55,27c-2.272,0-4.35,1.284-5.367,3.317l-26,48c-0.93,1.86-0.831,4.069,0.262,5.837
				C24.989,85.923,26.92,87,29,87h26V27z"/>
		</g>
		<g>
			<g>
				<path style="fill:#FFFFFF;" d="M51.107,45.795c-0.109-1.307,0.653-2.341,1.906-2.341h3.92c1.252,0,2.069,1.035,1.959,2.341
					l-0.344,18.213c-0.109,1.198-2.487,1.961-3.576,1.961c-1.089,0-3.316-0.763-3.424-1.961L51.107,45.795z M54.973,69.942
					c2.232,0,3.865,1.634,3.865,3.757v0.545c0,2.123-1.633,3.756-3.865,3.756c-2.178,0-3.866-1.633-3.866-3.756v-0.545
					C51.107,71.576,52.795,69.942,54.973,69.942z"/>
			</g>
		</g>
	</g>
</g>
<g id="R-Red" style="display:none;">
	<g style="display:inline;">
		<circle style="fill:#FABBAF;" cx="55" cy="55" r="55"/>
	</g>
	<g style="display:inline;">
		<g>
			<path style="fill:#C23023;" d="M29,87c-2.08,0-4.011-1.077-5.104-2.846c-1.093-1.769-1.192-3.977-0.263-5.837l26-48
				C50.65,28.284,52.728,27,55,27s4.35,1.284,5.367,3.317l26,48c0.93,1.86,0.831,4.069-0.263,5.837C85.011,85.923,83.08,87,81,87H29
				z"/>
		</g>
		<g>
			<path style="fill:#E54B44;" d="M55,27c-2.272,0-4.35,1.284-5.367,3.317l-26,48c-0.93,1.86-0.831,4.069,0.262,5.837
				C24.989,85.923,26.92,87,29,87h26V27z"/>
		</g>
		<g>
			<g>
				<path style="fill:#FFFFFF;" d="M51.107,45.795c-0.109-1.307,0.653-2.341,1.906-2.341h3.92c1.252,0,2.069,1.035,1.959,2.341
					l-0.344,18.213c-0.109,1.198-2.487,1.961-3.576,1.961c-1.089,0-3.316-0.763-3.424-1.961L51.107,45.795z M54.973,69.942
					c2.232,0,3.865,1.634,3.865,3.757v0.544c0,2.123-1.633,3.756-3.865,3.756c-2.178,0-3.866-1.633-3.866-3.756v-0.544
					C51.107,71.576,52.795,69.942,54.973,69.942z"/>
			</g>
		</g>
	</g>
</g>
<g id="Yellow" style="display:none;">
	<g style="display:inline;">
		<g>
			<path style="fill:#E07000;" d="M29.003,87c-2.08,0-4.011-1.077-5.104-2.846c-1.093-1.769-1.192-3.978-0.263-5.837l26-48
				C50.653,28.284,52.73,27,55.003,27s4.35,1.284,5.367,3.317l26,48c0.93,1.86,0.831,4.069-0.263,5.837
				C85.014,85.923,83.082,87,81.003,87H29.003z"/>
		</g>
		<g>
			<path style="fill:#FA9200;" d="M55.003,27c-2.272,0-4.35,1.284-5.367,3.317l-26,48c-0.93,1.86-0.831,4.069,0.262,5.837
				C24.992,85.923,26.923,87,29.003,87h26V27z"/>
		</g>
		<g>
			<g>
				<path style="fill:#FFFFFF;" d="M51.11,45.795c-0.109-1.307,0.653-2.341,1.906-2.341h3.92c1.252,0,2.069,1.035,1.959,2.341
					l-0.344,18.213c-0.109,1.198-2.487,1.96-3.576,1.96c-1.089,0-3.316-0.763-3.424-1.96L51.11,45.795z M54.976,69.942
					c2.232,0,3.865,1.634,3.865,3.757v0.545c0,2.123-1.633,3.756-3.865,3.756c-2.178,0-3.866-1.633-3.866-3.756v-0.545
					C51.11,71.576,52.798,69.942,54.976,69.942z"/>
			</g>
		</g>
	</g>
</g>
<g id="R-Yellow" style="display:none;">
	<g style="display:inline;">
		<circle style="fill:#FFD75E;" cx="55" cy="55" r="55"/>
	</g>
	<g style="display:inline;">
		<g>
			<path style="fill:#E07000;" d="M29,87c-2.08,0-4.011-1.077-5.104-2.846c-1.093-1.769-1.192-3.977-0.263-5.837l26-48
				C50.65,28.284,52.728,27,55,27s4.35,1.284,5.367,3.317l26,48c0.93,1.86,0.831,4.069-0.263,5.837C85.011,85.923,83.08,87,81,87H29
				z"/>
		</g>
		<g>
			<path style="fill:#FA9200;" d="M55,27c-2.272,0-4.35,1.284-5.367,3.317l-26,48c-0.93,1.86-0.831,4.069,0.262,5.837
				C24.989,85.923,26.92,87,29,87h26V27z"/>
		</g>
		<g>
			<g>
				<path style="fill:#FFFFFF;" d="M51.107,45.795c-0.109-1.307,0.653-2.341,1.906-2.341h3.92c1.252,0,2.069,1.035,1.959,2.341
					l-0.344,18.213c-0.109,1.198-2.487,1.961-3.576,1.961c-1.089,0-3.316-0.763-3.424-1.961L51.107,45.795z M54.973,69.942
					c2.232,0,3.865,1.634,3.865,3.757v0.544c0,2.123-1.633,3.756-3.865,3.756c-2.178,0-3.866-1.633-3.866-3.756v-0.544
					C51.107,71.576,52.795,69.942,54.973,69.942z"/>
			</g>
		</g>
	</g>
</g>
</svg>
