<?xml version="1.0" encoding="iso-8859-1"?>
<!-- Generator: Adobe Illustrator 17.1.0, SVG Export Plug-In . SVG Version: 6.00 Build 0)  -->
<!DOCTYPE svg PUBLIC "-//W3C//DTD SVG 1.0//EN" "http://www.w3.org/TR/2001/REC-SVG-20010904/DTD/svg10.dtd">
<svg version="1.0" xmlns="http://www.w3.org/2000/svg" xmlns:xlink="http://www.w3.org/1999/xlink" x="0px" y="0px" width="110px"
	 height="110px" viewBox="0 0 110 110" style="enable-background:new 0 0 110 110;" xml:space="preserve">
<g id="Artboard">
</g>
<g id="Multicolor">
	<circle style="fill:#FABC3D;" cx="55" cy="55" r="55"/>
	<g>
		<path style="fill:#3E3E3F;" d="M87,73.727c0,1.607-1.302,2.909-2.909,2.909H25.909c-1.607,0-2.909-1.302-2.909-2.909V33
			c0-1.607,1.302-2.909,2.909-2.909h58.182C85.698,30.091,87,31.393,87,33V73.727z"/>
		<rect x="46.273" y="76.636" style="fill:#E2E4E5;" width="17.455" height="7.455"/>
		<path style="fill:#F0F1F1;" d="M69.545,85.545c0,0.803-0.651,1.455-1.455,1.455H41.909c-0.803,0-1.455-0.651-1.455-1.455
			s0.651-1.455,1.455-1.455h26.182C68.894,84.091,69.545,84.742,69.545,85.545z"/>
		<path style="fill:#FFFFFF;" d="M87,73.727V65H23v8.727c0,1.607,1.303,2.909,2.909,2.909h58.182C85.697,76.636,87,75.334,87,73.727
			z"/>
		<path style="fill:#CFD3D4;" d="M55,74.909c-2.156,0-3.909-1.753-3.909-3.909c0-2.155,1.754-3.909,3.909-3.909
			s3.909,1.753,3.909,3.909C58.909,73.156,57.156,74.909,55,74.909z M55,69.091c-1.053,0-1.909,0.856-1.909,1.909
			c0,1.053,0.856,1.909,1.909,1.909s1.909-0.856,1.909-1.909C56.909,69.948,56.053,69.091,55,69.091z"/>
		<path style="fill:#5B5C5F;" d="M23,33v32h19.724l34.909-34.909H25.909C24.303,30.091,23,31.393,23,33z"/>
		<g>
			<path style="fill:#F0F1F1;" d="M31.398,39.502c0-1.544,0.528-2.411,1.544-2.411s1.544,0.867,1.544,2.411
				c0,1.551-0.528,2.418-1.544,2.418S31.398,41.052,31.398,39.502z M33.843,39.502c0-1.361-0.332-1.917-0.901-1.917
				c-0.562,0-0.901,0.555-0.901,1.917c0,1.368,0.339,1.924,0.901,1.924C33.511,41.425,33.843,40.87,33.843,39.502z M32.942,39.061
				c0.257,0,0.447,0.197,0.447,0.44c0,0.25-0.19,0.447-0.447,0.447c-0.25,0-0.44-0.197-0.44-0.447
				C32.502,39.258,32.691,39.061,32.942,39.061z"/>
			<path style="fill:#F0F1F1;" d="M36.984,37.856l-1.117,0.677L35.569,38.1l1.49-0.928h0.548v4.165h0.955v0.501H35.84v-0.501h1.144
				V37.856z"/>
			<path style="fill:#F0F1F1;" d="M39.523,39.502c0-1.544,0.528-2.411,1.544-2.411s1.544,0.867,1.544,2.411
				c0,1.551-0.528,2.418-1.544,2.418S39.523,41.052,39.523,39.502z M41.968,39.502c0-1.361-0.332-1.917-0.901-1.917
				c-0.562,0-0.901,0.555-0.901,1.917c0,1.368,0.339,1.924,0.901,1.924C41.636,41.425,41.968,40.87,41.968,39.502z M41.067,39.061
				c0.257,0,0.447,0.197,0.447,0.44c0,0.25-0.19,0.447-0.447,0.447c-0.25,0-0.44-0.197-0.44-0.447
				C40.627,39.258,40.817,39.061,41.067,39.061z"/>
			<path style="fill:#F0F1F1;" d="M45.109,37.856l-1.117,0.677L43.694,38.1l1.49-0.928h0.548v4.165h0.955v0.501h-2.722v-0.501h1.144
				V37.856z"/>
			<path style="fill:#F0F1F1;" d="M49.172,37.856l-1.117,0.677L47.756,38.1l1.49-0.928h0.548v4.165h0.955v0.501h-2.722v-0.501h1.144
				V37.856z"/>
			<path style="fill:#F0F1F1;" d="M51.711,39.502c0-1.544,0.528-2.411,1.544-2.411s1.544,0.867,1.544,2.411
				c0,1.551-0.528,2.418-1.544,2.418S51.711,41.052,51.711,39.502z M54.155,39.502c0-1.361-0.332-1.917-0.901-1.917
				c-0.562,0-0.901,0.555-0.901,1.917c0,1.368,0.339,1.924,0.901,1.924C53.824,41.425,54.155,40.87,54.155,39.502z M53.255,39.061
				c0.257,0,0.447,0.197,0.447,0.44c0,0.25-0.19,0.447-0.447,0.447c-0.25,0-0.44-0.197-0.44-0.447
				C52.815,39.258,53.004,39.061,53.255,39.061z"/>
			<path style="fill:#F0F1F1;" d="M57.297,37.856l-1.117,0.677L55.882,38.1l1.49-0.928h0.548v4.165h0.955v0.501h-2.722v-0.501h1.144
				V37.856z"/>
			<path style="fill:#F0F1F1;" d="M59.836,39.502c0-1.544,0.528-2.411,1.544-2.411s1.544,0.867,1.544,2.411
				c0,1.551-0.528,2.418-1.544,2.418S59.836,41.052,59.836,39.502z M62.281,39.502c0-1.361-0.332-1.917-0.901-1.917
				c-0.562,0-0.901,0.555-0.901,1.917c0,1.368,0.339,1.924,0.901,1.924C61.949,41.425,62.281,40.87,62.281,39.502z M61.38,39.061
				c0.257,0,0.447,0.197,0.447,0.44c0,0.25-0.19,0.447-0.447,0.447c-0.25,0-0.44-0.197-0.44-0.447
				C60.94,39.258,61.129,39.061,61.38,39.061z"/>
			<path style="fill:#F0F1F1;" d="M65.422,37.856l-1.117,0.677L64.007,38.1l1.49-0.928h0.548v4.165H67v0.501h-2.722v-0.501h1.144
				V37.856z"/>
			<path style="fill:#F0F1F1;" d="M31.398,47.627c0-1.544,0.528-2.411,1.544-2.411s1.544,0.867,1.544,2.411
				c0,1.551-0.528,2.418-1.544,2.418S31.398,49.178,31.398,47.627z M33.843,47.627c0-1.361-0.332-1.917-0.901-1.917
				c-0.562,0-0.901,0.555-0.901,1.917c0,1.368,0.339,1.924,0.901,1.924C33.511,49.551,33.843,48.995,33.843,47.627z M32.942,47.187
				c0.257,0,0.447,0.197,0.447,0.44c0,0.25-0.19,0.447-0.447,0.447c-0.25,0-0.44-0.197-0.44-0.447
				C32.502,47.383,32.691,47.187,32.942,47.187z"/>
			<path style="fill:#F0F1F1;" d="M36.984,45.981l-1.117,0.677l-0.298-0.433l1.49-0.928h0.548v4.165h0.955v0.501H35.84v-0.501h1.144
				V45.981z"/>
			<path style="fill:#F0F1F1;" d="M39.523,47.627c0-1.544,0.528-2.411,1.544-2.411s1.544,0.867,1.544,2.411
				c0,1.551-0.528,2.418-1.544,2.418S39.523,49.178,39.523,47.627z M41.968,47.627c0-1.361-0.332-1.917-0.901-1.917
				c-0.562,0-0.901,0.555-0.901,1.917c0,1.368,0.339,1.924,0.901,1.924C41.636,49.551,41.968,48.995,41.968,47.627z M41.067,47.187
				c0.257,0,0.447,0.197,0.447,0.44c0,0.25-0.19,0.447-0.447,0.447c-0.25,0-0.44-0.197-0.44-0.447
				C40.627,47.383,40.817,47.187,41.067,47.187z"/>
			<path style="fill:#F0F1F1;" d="M45.109,45.981l-1.117,0.677l-0.298-0.433l1.49-0.928h0.548v4.165h0.955v0.501h-2.722v-0.501
				h1.144V45.981z"/>
			<path style="fill:#F0F1F1;" d="M47.648,47.627c0-1.544,0.528-2.411,1.544-2.411s1.544,0.867,1.544,2.411
				c0,1.551-0.528,2.418-1.544,2.418S47.648,49.178,47.648,47.627z M50.093,47.627c0-1.361-0.332-1.917-0.901-1.917
				c-0.562,0-0.901,0.555-0.901,1.917c0,1.368,0.339,1.924,0.901,1.924C49.761,49.551,50.093,48.995,50.093,47.627z M49.192,47.187
				c0.257,0,0.447,0.197,0.447,0.44c0,0.25-0.19,0.447-0.447,0.447c-0.25,0-0.44-0.197-0.44-0.447
				C48.752,47.383,48.942,47.187,49.192,47.187z"/>
			<path style="fill:#F0F1F1;" d="M51.711,47.627c0-1.544,0.528-2.411,1.544-2.411s1.544,0.867,1.544,2.411
				c0,1.551-0.528,2.418-1.544,2.418S51.711,49.178,51.711,47.627z M54.155,47.627c0-1.361-0.332-1.917-0.901-1.917
				c-0.562,0-0.901,0.555-0.901,1.917c0,1.368,0.339,1.924,0.901,1.924C53.824,49.551,54.155,48.995,54.155,47.627z M53.255,47.187
				c0.257,0,0.447,0.197,0.447,0.44c0,0.25-0.19,0.447-0.447,0.447c-0.25,0-0.44-0.197-0.44-0.447
				C52.815,47.383,53.004,47.187,53.255,47.187z"/>
			<path style="fill:#F0F1F1;" d="M57.297,45.981l-1.117,0.677l-0.298-0.433l1.49-0.928h0.548v4.165h0.955v0.501h-2.722v-0.501
				h1.144V45.981z"/>
			<path style="fill:#F0F1F1;" d="M59.836,47.627c0-1.544,0.528-2.411,1.544-2.411s1.544,0.867,1.544,2.411
				c0,1.551-0.528,2.418-1.544,2.418S59.836,49.178,59.836,47.627z M62.281,47.627c0-1.361-0.332-1.917-0.901-1.917
				c-0.562,0-0.901,0.555-0.901,1.917c0,1.368,0.339,1.924,0.901,1.924C61.949,49.551,62.281,48.995,62.281,47.627z M61.38,47.187
				c0.257,0,0.447,0.197,0.447,0.44c0,0.25-0.19,0.447-0.447,0.447c-0.25,0-0.44-0.197-0.44-0.447
				C60.94,47.383,61.129,47.187,61.38,47.187z"/>
			<path style="fill:#F0F1F1;" d="M32.922,54.107l-1.117,0.677l-0.298-0.433l1.49-0.928h0.548v4.165H34.5v0.501h-2.722v-0.501h1.144
				V54.107z"/>
			<path style="fill:#F0F1F1;" d="M35.46,55.752c0-1.544,0.528-2.411,1.544-2.411c1.016,0,1.544,0.867,1.544,2.411
				c0,1.551-0.528,2.418-1.544,2.418C35.989,58.17,35.46,57.303,35.46,55.752z M37.905,55.752c0-1.361-0.332-1.917-0.901-1.917
				c-0.562,0-0.901,0.555-0.901,1.917c0,1.368,0.339,1.924,0.901,1.924C37.573,57.676,37.905,57.12,37.905,55.752z M37.004,55.312
				c0.257,0,0.447,0.197,0.447,0.44c0,0.25-0.19,0.447-0.447,0.447c-0.25,0-0.44-0.197-0.44-0.447
				C36.564,55.509,36.754,55.312,37.004,55.312z"/>
			<path style="fill:#F0F1F1;" d="M41.047,54.107l-1.117,0.677l-0.298-0.433l1.49-0.928h0.548v4.165h0.955v0.501h-2.722v-0.501
				h1.144V54.107z"/>
			<path style="fill:#F0F1F1;" d="M43.585,55.752c0-1.544,0.528-2.411,1.544-2.411s1.544,0.867,1.544,2.411
				c0,1.551-0.528,2.418-1.544,2.418S43.585,57.303,43.585,55.752z M46.03,55.752c0-1.361-0.332-1.917-0.901-1.917
				c-0.562,0-0.901,0.555-0.901,1.917c0,1.368,0.339,1.924,0.901,1.924C45.698,57.676,46.03,57.12,46.03,55.752z M45.129,55.312
				c0.257,0,0.447,0.197,0.447,0.44c0,0.25-0.19,0.447-0.447,0.447c-0.25,0-0.44-0.197-0.44-0.447
				C44.689,55.509,44.879,55.312,45.129,55.312z"/>
			<path style="fill:#F0F1F1;" d="M47.648,55.752c0-1.544,0.528-2.411,1.544-2.411s1.544,0.867,1.544,2.411
				c0,1.551-0.528,2.418-1.544,2.418S47.648,57.303,47.648,55.752z M50.093,55.752c0-1.361-0.332-1.917-0.901-1.917
				c-0.562,0-0.901,0.555-0.901,1.917c0,1.368,0.339,1.924,0.901,1.924C49.761,57.676,50.093,57.12,50.093,55.752z M49.192,55.312
				c0.257,0,0.447,0.197,0.447,0.44c0,0.25-0.19,0.447-0.447,0.447c-0.25,0-0.44-0.197-0.44-0.447
				C48.752,55.509,48.942,55.312,49.192,55.312z"/>
			<path style="fill:#F0F1F1;" d="M53.234,54.107l-1.117,0.677l-0.298-0.433l1.49-0.928h0.548v4.165h0.955v0.501H52.09v-0.501h1.144
				V54.107z"/>
		</g>
	</g>
</g>
</svg>
