<?xml version="1.0" encoding="iso-8859-1"?>
<!-- Generator: Adobe Illustrator 17.1.0, SVG Export Plug-In . SVG Version: 6.00 Build 0)  -->
<!DOCTYPE svg PUBLIC "-//W3C//DTD SVG 1.0//EN" "http://www.w3.org/TR/2001/REC-SVG-20010904/DTD/svg10.dtd">
<svg version="1.0" xmlns="http://www.w3.org/2000/svg" xmlns:xlink="http://www.w3.org/1999/xlink" x="0px" y="0px" width="110px"
	 height="110px" viewBox="0 0 110 110" style="enable-background:new 0 0 110 110;" xml:space="preserve">
<g id="Artboard" style="display:none;">
	<rect x="-73" y="-83" style="display:inline;fill:#848484;" width="1422" height="538"/>
</g>
<g id="R-Multicolor" style="display:none;">
	<circle style="display:inline;fill:#E04F5F;" cx="55" cy="54.848" r="55"/>
	<g style="display:inline;">
		<circle style="fill:#059BBF;" cx="55" cy="54.848" r="32"/>
		<path style="fill:#21B2D1;" d="M55,22.848c-17.673,0-32,14.327-32,32s14.327,32,32,32V22.848z"/>
		<path style="fill:#40C9E7;" d="M74.687,64.901c2.205-3.22,4.04-6.653,5.513-10.502c0-0.002,0.001-0.003,0.001-0.005
			c2.193,0.115,4.498,0.107,6.789-0.075c-0.01-0.97-0.07-1.93-0.17-2.87c-2.123,0.179-3.958,0.218-5.669,0.166
			c1.137-3.617,1.906-7.403,2.208-11.596c-0.83-1.59-1.79-3.11-2.88-4.53c0.076,5.15-0.687,10.747-2.416,15.93
			c-0.001,0-0.002,0-0.004,0c-7.897-0.759-15.356-3.789-20.76-7.72c-3.369-2.333-6.617-5.401-9.333-8.572
			c1.303,0.111,2.61,0.181,3.923,0.181c7.94,0,15.74-2.081,22.69-5.77c-0.85-0.67-1.73-1.28-2.65-1.85
			c-8.275,4.138-17.277,5.668-26.506,4.23c-1.417-1.9-2.767-3.975-4.003-6.061c-0.91,0.43-1.79,0.9-2.65,1.41
			c0.755,1.294,1.541,2.548,2.356,3.762c-1.805-0.46-3.614-1.021-5.426-1.712c-0.9,0.68-1.75,1.4-2.57,2.16
			c3.426,1.412,6.952,2.443,10.537,3.082c0.004,0.006,0.009,0.012,0.013,0.018c3.452,4.421,7.359,8.364,12.05,11.57
			c5.114,3.767,13.207,7.088,21.33,7.99c-0.573,1.718-3.401,7.791-7.813,12.962c-3.163,1.083-6.394,1.857-9.678,2.344
			c-1.518-5.672-4.126-10.514-7.839-14.477c-8.37-8.91-20.06-11.07-26.63-11.54c-0.37,0.97-0.7,1.96-0.97,2.97
			c5.92,0.36,17.51,2.18,25.43,10.64c3.266,3.488,5.602,7.759,7.003,12.775c-5.886,0.56-11.914,0.248-17.983-0.815
			c-2.49-0.356-8.1-1.615-13.78-3.53c0.44,1.26,0.96,2.48,1.55,3.66c6.316,1.96,10.57,2.62,11.57,2.82
			c6.562,1.116,13.029,1.426,19.33,0.791c0.302,1.527,0.534,3.11,0.68,4.76c-4.15,2.97-8.652,5.534-13.2,7.669
			c1.44,0.49,2.92,0.87,4.44,1.15c3.066-1.576,6.069-3.332,8.943-5.282c0.039,1.827,0.002,3.712-0.133,5.672
			c1.03-0.09,2.04-0.24,3.04-0.43c0.153-2.552,0.16-4.999,0.027-7.342c3.645-2.739,7.03-5.818,10.002-9.278
			c0.003-0.003,0.006-0.007,0.008-0.01c2.543-0.914,5.046-2.016,7.502-3.33c2.92-1.57,5.51-3.3,7.8-5.06v-0.01
			c0.29-1.42,0.48-2.87,0.58-4.36c-2.71,2.35-5.97,4.72-9.8,6.78C76.329,64.104,75.51,64.512,74.687,64.901z M60.719,75.392
			c-0.129-1.031-0.281-2.046-0.471-3.032c1.704-0.258,3.393-0.589,5.068-0.996C63.867,72.773,62.327,74.114,60.719,75.392z"/>
		<path style="fill:#6FDAF1;" d="M55,35.198v-2.851c-3.15,0.209-6.35,0.073-9.577-0.427c-1.415-1.897-2.763-3.969-3.997-6.051
			c-0.899,0.422-1.624,0.796-2.654,1.403c0.754,1.292,1.539,2.545,2.353,3.759c-1.801-0.458-3.608-1.018-5.417-1.709
			c-0.984,0.743-1.779,1.427-2.562,2.163c3.421,1.409,6.941,2.438,10.521,3.076c0.005,0.006,0.009,0.012,0.014,0.018
			c3.269,4.187,6.956,7.937,11.32,11.046v-3.659c-2.532-2.029-4.93-4.403-7.021-6.838c1.299,0.11,2.602,0.181,3.911,0.181
			C52.93,35.308,53.967,35.268,55,35.198z"/>
		<g>
			<circle style="fill:#FFFFFF;" cx="44" cy="32.848" r="3"/>
		</g>
		<path style="fill:#6FDAF1;" d="M55,65.411V59.12c-0.977-1.474-2.062-2.862-3.27-4.152c-3.979-4.236-8.708-6.935-13.281-8.663
			c-2.203-4.405-5.23-8.24-8.659-11.177c-0.61,0.78-1.18,1.59-1.72,2.42c2.529,2.115,4.71,4.667,6.456,7.48
			c-3.578-0.978-6.882-1.418-9.42-1.6c-0.469,1.254-0.708,2.008-0.97,2.97c3.057,0.186,7.625,0.771,12.416,2.448
			c1.193,2.669,2.012,5.486,2.388,8.332c0.58,3.899,0.381,7.893-0.362,11.819c-2.489-0.356-8.089-1.613-13.764-3.525
			c0.396,1.133,0.951,2.455,1.552,3.66c6.3,1.954,10.544,2.614,11.55,2.814c-0.709,2.74-1.659,5.427-2.776,8.001
			c0.8,0.63,1.62,1.22,2.48,1.77c1.307-2.933,2.427-6.093,3.233-9.332c4.781,0.637,9.506,0.838,14.146,0.537v-2.986
			c-4.442,0.304-8.959,0.12-13.508-0.495c0.656-3.558,0.893-7.159,0.528-10.615c-0.247-2.953-0.893-5.805-1.851-8.502
			c3.314,1.561,6.583,3.713,9.391,6.712C51.823,59.455,53.631,62.255,55,65.411z"/>
		<g>
			<circle style="fill:#C9F2F8;" cx="58.083" cy="70.848" r="3"/>
		</g>
		<g>
			<circle style="fill:#C9F2F8;" cx="59.417" cy="78.515" r="3"/>
		</g>
		<g>
			<circle style="fill:#FFFFFF;" cx="37.75" cy="47.848" r="3"/>
		</g>
		<g>
			<circle style="fill:#FFFFFF;" cx="40" cy="57.848" r="3"/>
		</g>
		<g>
			<circle style="fill:#FFFFFF;" cx="40" cy="70.848" r="3"/>
		</g>
		<g>
			<circle style="fill:#C9F2F8;" cx="61" cy="32.848" r="3"/>
		</g>
		<g>
			<circle style="fill:#C9F2F8;" cx="79" cy="52.848" r="3"/>
		</g>
		<g>
			<circle style="fill:#C9F2F8;" cx="70" cy="68.848" r="3"/>
		</g>
		<g>
			<circle style="fill:#C9F2F8;" cx="55" cy="43.848" r="3"/>
		</g>
		<path style="fill:#FFFFFF;" d="M52,43.848c0,1.657,1.343,3,3,3v-6C53.343,40.848,52,42.191,52,43.848z"/>
	</g>
</g>
<g id="Multicolor" style="display:none;">
	<g style="display:inline;">
		<circle style="fill:#059BBF;" cx="55" cy="54.848" r="32"/>
		<path style="fill:#21B2D1;" d="M55,22.848c-17.673,0-32,14.327-32,32s14.327,32,32,32V22.848z"/>
		<path style="fill:#40C9E7;" d="M74.687,64.901c2.205-3.22,4.04-6.653,5.513-10.502c0-0.002,0.001-0.003,0.001-0.005
			c2.193,0.115,4.498,0.107,6.789-0.075c-0.01-0.97-0.07-1.93-0.17-2.87c-2.123,0.179-3.958,0.218-5.669,0.166
			c1.137-3.617,1.906-7.403,2.208-11.596c-0.83-1.59-1.79-3.11-2.88-4.53c0.076,5.15-0.687,10.747-2.416,15.93
			c-0.001,0-0.002,0-0.004,0c-7.897-0.759-15.356-3.789-20.76-7.72c-3.369-2.333-6.617-5.401-9.333-8.572
			c1.303,0.111,2.61,0.181,3.923,0.181c7.94,0,15.74-2.081,22.69-5.77c-0.85-0.67-1.73-1.28-2.65-1.85
			c-8.275,4.138-17.277,5.668-26.506,4.23c-1.417-1.9-2.767-3.975-4.003-6.061c-0.91,0.43-1.79,0.9-2.65,1.41
			c0.755,1.294,1.541,2.548,2.356,3.762c-1.805-0.46-3.614-1.021-5.426-1.712c-0.9,0.68-1.75,1.4-2.57,2.16
			c3.426,1.412,6.952,2.443,10.537,3.082c0.004,0.006,0.009,0.012,0.013,0.018c3.452,4.421,7.359,8.364,12.05,11.57
			c5.114,3.767,13.207,7.088,21.33,7.99c-0.573,1.718-3.401,7.791-7.813,12.962c-3.163,1.083-6.394,1.857-9.678,2.344
			c-1.518-5.672-4.126-10.514-7.839-14.477c-8.37-8.91-20.06-11.07-26.63-11.54c-0.37,0.97-0.7,1.96-0.97,2.97
			c5.92,0.36,17.51,2.18,25.43,10.64c3.266,3.488,5.602,7.759,7.003,12.775c-5.886,0.56-11.914,0.248-17.983-0.815
			c-2.49-0.356-8.1-1.615-13.78-3.53c0.44,1.26,0.96,2.48,1.55,3.66c6.316,1.96,10.57,2.62,11.57,2.82
			c6.562,1.116,13.029,1.426,19.33,0.791c0.302,1.527,0.534,3.11,0.68,4.76c-4.15,2.97-8.652,5.534-13.2,7.669
			c1.44,0.49,2.92,0.87,4.44,1.15c3.066-1.576,6.069-3.332,8.943-5.282c0.039,1.827,0.002,3.712-0.133,5.672
			c1.03-0.09,2.04-0.24,3.04-0.43c0.153-2.552,0.16-4.999,0.027-7.342c3.645-2.739,7.03-5.818,10.002-9.278
			c0.003-0.003,0.006-0.007,0.008-0.01c2.543-0.914,5.046-2.016,7.502-3.33c2.92-1.57,5.51-3.3,7.8-5.06v-0.01
			c0.29-1.42,0.48-2.87,0.58-4.36c-2.71,2.35-5.97,4.72-9.8,6.78C76.329,64.104,75.51,64.512,74.687,64.901z M60.719,75.392
			c-0.129-1.031-0.281-2.046-0.471-3.032c1.704-0.258,3.393-0.589,5.068-0.996C63.867,72.773,62.327,74.114,60.719,75.392z"/>
		<path style="fill:#6FDAF1;" d="M55,35.198v-2.851c-3.15,0.209-6.35,0.073-9.577-0.427c-1.415-1.897-2.763-3.969-3.997-6.051
			c-0.899,0.422-1.624,0.796-2.654,1.403c0.754,1.292,1.539,2.545,2.353,3.759c-1.801-0.458-3.608-1.018-5.417-1.709
			c-0.984,0.743-1.779,1.427-2.562,2.163c3.421,1.409,6.941,2.438,10.521,3.076c0.005,0.006,0.009,0.012,0.014,0.018
			c3.269,4.187,6.956,7.937,11.32,11.046v-3.659c-2.532-2.029-4.93-4.403-7.021-6.838c1.299,0.11,2.602,0.181,3.911,0.181
			C52.93,35.308,53.967,35.268,55,35.198z"/>
		<g>
			<circle style="fill:#FFFFFF;" cx="44" cy="32.848" r="3"/>
		</g>
		<path style="fill:#6FDAF1;" d="M55,65.411V59.12c-0.977-1.474-2.062-2.862-3.27-4.152c-3.979-4.236-8.708-6.935-13.281-8.663
			c-2.203-4.405-5.23-8.24-8.659-11.177c-0.61,0.78-1.18,1.59-1.72,2.42c2.529,2.115,4.71,4.667,6.456,7.48
			c-3.578-0.978-6.882-1.418-9.42-1.6c-0.469,1.254-0.708,2.008-0.97,2.97c3.057,0.186,7.625,0.771,12.416,2.448
			c1.193,2.669,2.012,5.486,2.388,8.332c0.58,3.899,0.381,7.893-0.362,11.819c-2.489-0.356-8.089-1.613-13.764-3.525
			c0.396,1.133,0.951,2.455,1.552,3.66c6.3,1.954,10.544,2.614,11.55,2.814c-0.709,2.74-1.659,5.427-2.776,8.001
			c0.8,0.63,1.62,1.22,2.48,1.77c1.307-2.933,2.427-6.093,3.233-9.332c4.781,0.637,9.506,0.838,14.146,0.537v-2.986
			c-4.442,0.304-8.959,0.12-13.508-0.495c0.656-3.558,0.893-7.159,0.528-10.615c-0.247-2.953-0.893-5.805-1.851-8.502
			c3.314,1.561,6.583,3.713,9.391,6.712C51.823,59.455,53.631,62.255,55,65.411z"/>
		<g>
			<circle style="fill:#C9F2F8;" cx="58.083" cy="70.848" r="3"/>
		</g>
		<g>
			<circle style="fill:#C9F2F8;" cx="59.417" cy="78.515" r="3"/>
		</g>
		<g>
			<circle style="fill:#FFFFFF;" cx="37.75" cy="47.848" r="3"/>
		</g>
		<g>
			<circle style="fill:#FFFFFF;" cx="40" cy="57.848" r="3"/>
		</g>
		<g>
			<circle style="fill:#FFFFFF;" cx="40" cy="70.848" r="3"/>
		</g>
		<g>
			<circle style="fill:#C9F2F8;" cx="61" cy="32.848" r="3"/>
		</g>
		<g>
			<circle style="fill:#C9F2F8;" cx="79" cy="52.848" r="3"/>
		</g>
		<g>
			<circle style="fill:#C9F2F8;" cx="70" cy="68.848" r="3"/>
		</g>
		<g>
			<circle style="fill:#C9F2F8;" cx="55" cy="43.848" r="3"/>
		</g>
		<path style="fill:#FFFFFF;" d="M52,43.848c0,1.657,1.343,3,3,3v-6C53.343,40.848,52,42.191,52,43.848z"/>
	</g>
</g>
<g id="Blue" style="display:none;">
	<g style="display:inline;">
		<g>
			<circle style="fill:#0081A1;" cx="55" cy="55" r="32"/>
		</g>
		<g>
			<path style="fill:#009FC7;" d="M55,23c-17.673,0-32,14.327-32,32s14.327,32,32,32V23z"/>
		</g>
		<g>
			<path style="fill:#BBE7F2;" d="M74.687,65.053c2.205-3.221,4.04-6.653,5.514-10.503c0-0.002,0.001-0.003,0.001-0.005
				c2.193,0.115,4.498,0.107,6.789-0.075c-0.01-0.97-0.07-1.93-0.17-2.87c-2.122,0.179-3.957,0.218-5.669,0.165
				c1.137-3.617,1.906-7.403,2.209-11.596c-0.83-1.59-1.79-3.11-2.88-4.53c0.076,5.15-0.687,10.747-2.417,15.93c0,0-0.002,0-0.003,0
				c-7.898-0.76-15.357-3.789-20.76-7.72c-3.369-2.332-6.617-5.401-9.333-8.571c1.303,0.111,2.61,0.181,3.923,0.181
				c7.94,0,15.74-2.081,22.69-5.77c-0.85-0.67-1.73-1.28-2.65-1.85c-8.275,4.138-17.277,5.668-26.506,4.231
				c-1.417-1.9-2.767-3.976-4.003-6.061c-0.91,0.43-1.79,0.9-2.65,1.41c0.755,1.294,1.541,2.548,2.355,3.763
				c-1.804-0.46-3.613-1.021-5.425-1.713c-0.9,0.68-1.75,1.4-2.57,2.16c3.426,1.412,6.952,2.443,10.537,3.082
				c0.004,0.006,0.009,0.012,0.013,0.018c3.452,4.422,7.359,8.364,12.05,11.57c5.114,3.767,13.207,7.088,21.33,7.99
				c-0.573,1.718-3.401,7.791-7.814,12.962c-3.163,1.084-6.394,1.858-9.678,2.344c-1.518-5.672-4.126-10.514-7.839-14.477
				c-8.37-8.91-20.06-11.07-26.63-11.54c-0.37,0.97-0.7,1.96-0.97,2.97c5.92,0.36,17.51,2.18,25.43,10.64
				c3.266,3.488,5.602,7.759,7.003,12.775c-5.886,0.56-11.914,0.248-17.983-0.815c-2.49-0.356-8.1-1.615-13.78-3.53
				c0.44,1.26,0.96,2.48,1.55,3.66c6.315,1.96,10.57,2.62,11.57,2.82c6.562,1.116,13.029,1.426,19.33,0.791
				c0.302,1.527,0.534,3.11,0.68,4.76c-4.15,2.97-8.652,5.534-13.2,7.669c1.44,0.49,2.92,0.87,4.44,1.15
				c3.066-1.576,6.069-3.332,8.943-5.282c0.039,1.827,0.002,3.712-0.133,5.672c1.03-0.09,2.04-0.24,3.04-0.43
				c0.153-2.552,0.16-4.999,0.027-7.342c3.645-2.738,7.03-5.818,10.002-9.278c0.003-0.004,0.006-0.007,0.008-0.01
				c2.544-0.914,5.046-2.016,7.502-3.33c2.92-1.57,5.51-3.3,7.8-5.06V61.4c0.29-1.42,0.48-2.87,0.58-4.36
				c-2.71,2.35-5.97,4.72-9.8,6.78C76.329,64.256,75.51,64.664,74.687,65.053z M60.719,75.544c-0.129-1.031-0.281-2.046-0.471-3.032
				c1.704-0.258,3.394-0.589,5.068-0.996C63.867,72.925,62.327,74.266,60.719,75.544z"/>
		</g>
		<g>
			<path style="fill:#E1F5FA;" d="M55,35.35v-2.852c-3.15,0.209-6.35,0.073-9.577-0.427c-1.415-1.897-2.763-3.969-3.997-6.051
				c-0.899,0.421-1.624,0.795-2.655,1.403c0.754,1.292,1.539,2.545,2.353,3.758c-1.801-0.458-3.607-1.018-5.417-1.708
				c-0.984,0.743-1.779,1.427-2.562,2.163c3.421,1.409,6.941,2.438,10.52,3.076c0.005,0.006,0.009,0.012,0.014,0.018
				c3.268,4.187,6.956,7.937,11.32,11.046v-3.659c-2.532-2.029-4.93-4.402-7.021-6.838c1.299,0.11,2.603,0.181,3.912,0.181
				C52.93,35.46,53.967,35.42,55,35.35z"/>
		</g>
		<g>
			<path style="fill:#FFFFFF;" d="M55,65.563v-6.291c-0.977-1.473-2.062-2.862-3.27-4.152c-3.979-4.236-8.708-6.935-13.281-8.663
				c-2.203-4.405-5.23-8.239-8.659-11.177c-0.61,0.78-1.18,1.59-1.72,2.42c2.529,2.115,4.71,4.667,6.456,7.48
				c-3.578-0.978-6.882-1.418-9.42-1.6c-0.469,1.254-0.708,2.008-0.97,2.97c3.057,0.187,7.625,0.771,12.416,2.447
				c1.193,2.67,2.012,5.486,2.388,8.333c0.58,3.899,0.381,7.893-0.362,11.819c-2.489-0.356-8.089-1.613-13.764-3.525
				c0.396,1.133,0.952,2.455,1.553,3.66c6.299,1.954,10.544,2.614,11.549,2.815c-0.709,2.74-1.658,5.427-2.775,8
				c0.8,0.63,1.62,1.22,2.48,1.77c1.307-2.933,2.427-6.093,3.233-9.331c4.781,0.637,9.506,0.837,14.146,0.537V70.09
				c-4.442,0.305-8.959,0.12-13.508-0.496c0.656-3.558,0.893-7.159,0.528-10.615c-0.247-2.953-0.894-5.805-1.851-8.502
				c3.314,1.562,6.583,3.713,9.391,6.712C51.823,59.607,53.631,62.407,55,65.563z"/>
		</g>
		<g>
			<g>
				<g>
					<circle style="fill:#FFFFFF;" cx="44" cy="33" r="3"/>
				</g>
			</g>
			<g>
				<g>
					<circle style="fill:#FFFFFF;" cx="58.084" cy="71" r="3"/>
				</g>
			</g>
			<g>
				<g>
					<circle style="fill:#FFFFFF;" cx="59.417" cy="78.667" r="3"/>
				</g>
			</g>
			<g>
				<g>
					<circle style="fill:#FFFFFF;" cx="37.75" cy="48" r="3"/>
				</g>
			</g>
			<g>
				<g>
					<circle style="fill:#FFFFFF;" cx="40" cy="58" r="3"/>
				</g>
			</g>
			<g>
				<g>
					<circle style="fill:#FFFFFF;" cx="40" cy="71" r="3"/>
				</g>
			</g>
			<g>
				<g>
					<circle style="fill:#FFFFFF;" cx="61" cy="33" r="3"/>
				</g>
			</g>
			<g>
				<g>
					<circle style="fill:#FFFFFF;" cx="79" cy="53" r="3"/>
				</g>
			</g>
			<g>
				<g>
					<circle style="fill:#FFFFFF;" cx="70" cy="69" r="3"/>
				</g>
			</g>
			<g>
				<g>
					<circle style="fill:#FFFFFF;" cx="55" cy="44" r="3"/>
				</g>
			</g>
		</g>
	</g>
</g>
<g id="R-Blue" style="display:none;">
	<g style="display:inline;">
		<circle style="fill:#81D2EB;" cx="55" cy="55" r="55"/>
	</g>
	<g style="display:inline;">
		<g>
			<circle style="fill:#0081A1;" cx="55" cy="55" r="32"/>
		</g>
		<g>
			<path style="fill:#009FC7;" d="M55,23c-17.673,0-32,14.327-32,32s14.327,32,32,32V23z"/>
		</g>
		<g>
			<path style="fill:#BBE7F2;" d="M74.687,65.052c2.205-3.221,4.04-6.653,5.514-10.503c0-0.002,0.001-0.003,0.001-0.005
				c2.193,0.115,4.498,0.107,6.789-0.075c-0.01-0.97-0.07-1.93-0.17-2.87c-2.122,0.179-3.957,0.218-5.669,0.165
				c1.137-3.617,1.906-7.403,2.209-11.596c-0.83-1.59-1.79-3.11-2.88-4.53c0.076,5.15-0.687,10.747-2.417,15.93c0,0-0.002,0-0.003,0
				c-7.898-0.76-15.357-3.79-20.76-7.72c-3.369-2.332-6.617-5.401-9.333-8.571c1.303,0.111,2.61,0.181,3.923,0.181
				c7.94,0,15.74-2.081,22.69-5.77c-0.85-0.67-1.73-1.28-2.65-1.85c-8.275,4.138-17.277,5.668-26.506,4.231
				c-1.417-1.9-2.767-3.976-4.003-6.061c-0.91,0.43-1.79,0.9-2.65,1.41c0.755,1.294,1.541,2.548,2.355,3.763
				c-1.804-0.46-3.613-1.021-5.425-1.713c-0.9,0.68-1.75,1.4-2.57,2.16c3.426,1.412,6.952,2.443,10.537,3.082
				c0.004,0.006,0.009,0.012,0.013,0.018c3.452,4.422,7.359,8.364,12.05,11.57c5.114,3.767,13.207,7.088,21.33,7.99
				c-0.573,1.718-3.401,7.791-7.814,12.962c-3.163,1.084-6.394,1.858-9.678,2.344c-1.518-5.672-4.126-10.514-7.839-14.477
				c-8.37-8.91-20.06-11.07-26.63-11.54c-0.37,0.97-0.7,1.96-0.97,2.97c5.92,0.36,17.51,2.18,25.43,10.64
				c3.266,3.488,5.602,7.759,7.003,12.775c-5.886,0.56-11.914,0.248-17.983-0.815c-2.49-0.356-8.1-1.615-13.78-3.53
				c0.44,1.26,0.96,2.48,1.55,3.66c6.315,1.96,10.57,2.62,11.57,2.82c6.562,1.116,13.029,1.426,19.33,0.79
				c0.302,1.527,0.534,3.11,0.68,4.76c-4.15,2.97-8.652,5.534-13.2,7.669c1.44,0.49,2.92,0.87,4.44,1.15
				c3.066-1.576,6.069-3.332,8.943-5.282c0.039,1.827,0.002,3.712-0.133,5.672c1.03-0.09,2.04-0.24,3.04-0.43
				c0.153-2.552,0.16-4.998,0.027-7.342c3.645-2.739,7.03-5.818,10.002-9.278c0.003-0.004,0.006-0.007,0.008-0.01
				c2.544-0.914,5.046-2.016,7.502-3.33c2.92-1.57,5.51-3.3,7.8-5.06V61.4c0.29-1.42,0.48-2.87,0.58-4.36
				c-2.71,2.35-5.97,4.72-9.8,6.78C76.329,64.256,75.51,64.664,74.687,65.052z M60.719,75.544c-0.129-1.031-0.281-2.046-0.471-3.032
				c1.704-0.258,3.394-0.589,5.068-0.996C63.867,72.925,62.327,74.266,60.719,75.544z"/>
		</g>
		<g>
			<path style="fill:#E1F5FA;" d="M55,35.35v-2.852c-3.15,0.209-6.35,0.073-9.577-0.427c-1.415-1.897-2.763-3.969-3.997-6.051
				c-0.899,0.421-1.624,0.795-2.655,1.403c0.754,1.292,1.539,2.545,2.353,3.758c-1.801-0.458-3.607-1.018-5.417-1.708
				c-0.984,0.743-1.779,1.427-2.562,2.163c3.421,1.409,6.941,2.438,10.52,3.076c0.005,0.006,0.009,0.012,0.014,0.018
				c3.268,4.187,6.956,7.937,11.32,11.046v-3.659c-2.532-2.029-4.93-4.402-7.021-6.838c1.299,0.11,2.603,0.181,3.912,0.181
				C52.93,35.46,53.967,35.42,55,35.35z"/>
		</g>
		<g>
			<path style="fill:#FFFFFF;" d="M55,65.562v-6.291c-0.977-1.473-2.062-2.862-3.27-4.152c-3.979-4.236-8.708-6.935-13.281-8.663
				c-2.203-4.405-5.23-8.239-8.659-11.177c-0.61,0.78-1.18,1.59-1.72,2.42c2.529,2.115,4.71,4.667,6.456,7.48
				c-3.578-0.978-6.882-1.418-9.42-1.6c-0.469,1.254-0.708,2.008-0.97,2.97c3.057,0.187,7.625,0.771,12.416,2.447
				c1.193,2.67,2.012,5.486,2.388,8.333c0.58,3.899,0.381,7.893-0.362,11.819c-2.489-0.356-8.089-1.613-13.764-3.525
				c0.396,1.133,0.952,2.455,1.553,3.66c6.299,1.954,10.544,2.614,11.549,2.815c-0.709,2.74-1.658,5.427-2.775,8.001
				c0.8,0.63,1.62,1.22,2.48,1.77c1.307-2.933,2.427-6.093,3.233-9.331c4.781,0.637,9.506,0.837,14.146,0.537V70.09
				c-4.442,0.305-8.959,0.12-13.508-0.496c0.656-3.558,0.893-7.159,0.528-10.615c-0.247-2.953-0.894-5.805-1.851-8.502
				c3.314,1.562,6.583,3.713,9.391,6.712C51.823,59.607,53.631,62.407,55,65.562z"/>
		</g>
		<g>
			<g>
				<g>
					<circle style="fill:#FFFFFF;" cx="44" cy="33" r="3"/>
				</g>
			</g>
			<g>
				<g>
					<circle style="fill:#FFFFFF;" cx="58.084" cy="71" r="3"/>
				</g>
			</g>
			<g>
				<g>
					<circle style="fill:#FFFFFF;" cx="59.417" cy="78.667" r="3"/>
				</g>
			</g>
			<g>
				<g>
					<circle style="fill:#FFFFFF;" cx="37.75" cy="48" r="3"/>
				</g>
			</g>
			<g>
				<g>
					<circle style="fill:#FFFFFF;" cx="40" cy="58" r="3"/>
				</g>
			</g>
			<g>
				<g>
					<circle style="fill:#FFFFFF;" cx="40" cy="71" r="3"/>
				</g>
			</g>
			<g>
				<g>
					<circle style="fill:#FFFFFF;" cx="61" cy="33" r="3"/>
				</g>
			</g>
			<g>
				<g>
					<circle style="fill:#FFFFFF;" cx="79" cy="53" r="3"/>
				</g>
			</g>
			<g>
				<g>
					<circle style="fill:#FFFFFF;" cx="70" cy="69" r="3"/>
				</g>
			</g>
			<g>
				<g>
					<circle style="fill:#FFFFFF;" cx="55" cy="44" r="3"/>
				</g>
			</g>
		</g>
	</g>
</g>
<g id="Green">
	<g>
		<g>
			<circle style="fill:#009687;" cx="55" cy="55" r="32"/>
		</g>
		<g>
			<path style="fill:#00B8A5;" d="M55,23c-17.673,0-32,14.327-32,32s14.327,32,32,32V23z"/>
		</g>
		<g>
			<path style="fill:#AAF0E9;" d="M74.687,65.053c2.205-3.221,4.04-6.653,5.514-10.503c0-0.002,0.001-0.003,0.001-0.005
				c2.193,0.115,4.498,0.107,6.788-0.075c-0.01-0.97-0.07-1.93-0.17-2.87c-2.122,0.179-3.957,0.218-5.669,0.165
				c1.137-3.617,1.906-7.403,2.209-11.596c-0.83-1.59-1.79-3.11-2.88-4.53c0.076,5.15-0.687,10.747-2.417,15.93c0,0-0.002,0-0.003,0
				c-7.897-0.76-15.356-3.789-20.76-7.72c-3.369-2.332-6.617-5.401-9.333-8.571c1.303,0.111,2.61,0.181,3.923,0.181
				c7.941,0,15.74-2.081,22.69-5.77c-0.85-0.67-1.73-1.28-2.65-1.85c-8.275,4.138-17.277,5.668-26.506,4.231
				c-1.417-1.9-2.767-3.976-4.003-6.061c-0.91,0.43-1.79,0.9-2.65,1.41c0.755,1.294,1.541,2.548,2.355,3.763
				c-1.804-0.46-3.613-1.021-5.425-1.713c-0.9,0.68-1.75,1.4-2.57,2.16c3.426,1.412,6.952,2.443,10.537,3.082
				c0.004,0.006,0.009,0.012,0.013,0.018c3.452,4.422,7.359,8.364,12.05,11.57c5.114,3.767,13.207,7.088,21.33,7.99
				c-0.573,1.718-3.401,7.791-7.813,12.962c-3.163,1.084-6.394,1.858-9.678,2.344c-1.518-5.672-4.126-10.514-7.839-14.477
				c-8.37-8.91-20.06-11.07-26.63-11.54c-0.37,0.97-0.7,1.96-0.97,2.97c5.92,0.36,17.51,2.18,25.43,10.64
				c3.266,3.488,5.601,7.759,7.003,12.775c-5.886,0.56-11.914,0.248-17.983-0.815c-2.49-0.356-8.1-1.615-13.78-3.53
				c0.44,1.26,0.96,2.48,1.55,3.66c6.315,1.96,10.57,2.62,11.57,2.82c6.562,1.116,13.029,1.426,19.33,0.791
				c0.302,1.527,0.534,3.11,0.68,4.76c-4.15,2.97-8.652,5.534-13.2,7.669c1.44,0.49,2.92,0.87,4.44,1.15
				c3.066-1.576,6.069-3.332,8.943-5.282c0.039,1.827,0.002,3.712-0.133,5.672c1.03-0.09,2.04-0.24,3.04-0.43
				c0.153-2.552,0.16-4.999,0.027-7.342c3.645-2.738,7.03-5.818,10.002-9.278c0.003-0.004,0.006-0.007,0.008-0.01
				c2.544-0.914,5.046-2.016,7.502-3.33c2.92-1.57,5.51-3.3,7.8-5.06V61.4c0.29-1.42,0.48-2.87,0.58-4.36
				c-2.71,2.35-5.97,4.72-9.8,6.78C76.329,64.256,75.51,64.664,74.687,65.053z M60.719,75.544c-0.129-1.031-0.281-2.046-0.471-3.032
				c1.704-0.258,3.394-0.589,5.068-0.996C63.867,72.925,62.327,74.266,60.719,75.544z"/>
		</g>
		<g>
			<path style="fill:#D7FCF9;" d="M55,35.35v-2.852c-3.15,0.209-6.35,0.073-9.577-0.427c-1.415-1.897-2.763-3.969-3.997-6.051
				c-0.899,0.421-1.624,0.795-2.655,1.403c0.754,1.292,1.539,2.545,2.353,3.758c-1.801-0.458-3.607-1.018-5.417-1.708
				c-0.984,0.743-1.779,1.427-2.562,2.163c3.421,1.409,6.941,2.438,10.52,3.076c0.005,0.006,0.009,0.012,0.014,0.018
				c3.269,4.187,6.956,7.937,11.32,11.046v-3.659c-2.532-2.029-4.93-4.402-7.021-6.838c1.299,0.11,2.603,0.181,3.912,0.181
				C52.93,35.46,53.967,35.42,55,35.35z"/>
		</g>
		<g>
			<path style="fill:#FFFFFF;" d="M55,65.563v-6.291c-0.977-1.473-2.062-2.862-3.27-4.152c-3.979-4.236-8.708-6.935-13.281-8.663
				c-2.203-4.405-5.23-8.239-8.659-11.177c-0.61,0.78-1.18,1.59-1.72,2.42c2.529,2.115,4.711,4.667,6.456,7.48
				c-3.578-0.978-6.882-1.418-9.42-1.6c-0.469,1.254-0.708,2.008-0.97,2.97c3.057,0.187,7.625,0.771,12.416,2.447
				c1.193,2.67,2.012,5.486,2.388,8.333c0.58,3.899,0.381,7.893-0.362,11.819c-2.489-0.356-8.089-1.613-13.764-3.525
				c0.396,1.133,0.952,2.455,1.553,3.66c6.299,1.954,10.544,2.614,11.549,2.815c-0.709,2.74-1.658,5.427-2.775,8
				c0.8,0.63,1.62,1.22,2.48,1.77c1.307-2.933,2.427-6.093,3.233-9.331c4.781,0.637,9.506,0.837,14.146,0.537V70.09
				c-4.442,0.305-8.959,0.12-13.508-0.496c0.656-3.558,0.893-7.159,0.528-10.615c-0.247-2.953-0.894-5.805-1.851-8.502
				c3.314,1.562,6.583,3.713,9.391,6.712C51.823,59.607,53.631,62.407,55,65.563z"/>
		</g>
		<g>
			<g>
				<g>
					<circle style="fill:#FFFFFF;" cx="44" cy="33" r="3"/>
				</g>
			</g>
			<g>
				<g>
					<circle style="fill:#FFFFFF;" cx="58.084" cy="71" r="3"/>
				</g>
			</g>
			<g>
				<g>
					<circle style="fill:#FFFFFF;" cx="59.416" cy="78.667" r="3"/>
				</g>
			</g>
			<g>
				<g>
					<circle style="fill:#FFFFFF;" cx="37.75" cy="48" r="3"/>
				</g>
			</g>
			<g>
				<g>
					<circle style="fill:#FFFFFF;" cx="40" cy="58" r="3"/>
				</g>
			</g>
			<g>
				<g>
					<circle style="fill:#FFFFFF;" cx="40" cy="71" r="3"/>
				</g>
			</g>
			<g>
				<g>
					<circle style="fill:#FFFFFF;" cx="61" cy="33" r="3"/>
				</g>
			</g>
			<g>
				<g>
					<circle style="fill:#FFFFFF;" cx="79" cy="53" r="3"/>
				</g>
			</g>
			<g>
				<g>
					<circle style="fill:#FFFFFF;" cx="70" cy="69" r="3"/>
				</g>
			</g>
			<g>
				<g>
					<circle style="fill:#FFFFFF;" cx="55" cy="44" r="3"/>
				</g>
			</g>
		</g>
	</g>
</g>
<g id="R-Green" style="display:none;">
	<g style="display:inline;">
		<circle style="fill:#87E0C8;" cx="55" cy="55" r="55"/>
	</g>
	<g style="display:inline;">
		<g>
			<circle style="fill:#009687;" cx="55" cy="55" r="32"/>
		</g>
		<g>
			<path style="fill:#00B8A5;" d="M55,23c-17.673,0-32,14.327-32,32s14.327,32,32,32V23z"/>
		</g>
		<g>
			<path style="fill:#AAF0E9;" d="M74.687,65.053c2.205-3.221,4.04-6.653,5.514-10.503c0.001-0.002,0.001-0.003,0.002-0.005
				c2.193,0.115,4.498,0.107,6.788-0.075c-0.01-0.97-0.07-1.93-0.17-2.87c-2.122,0.179-3.957,0.218-5.669,0.165
				c1.137-3.617,1.906-7.403,2.208-11.596c-0.83-1.59-1.79-3.11-2.88-4.53c0.076,5.15-0.687,10.747-2.416,15.93c0,0-0.002,0-0.003,0
				c-7.897-0.76-15.356-3.789-20.76-7.72c-3.369-2.332-6.617-5.401-9.333-8.571c1.303,0.111,2.61,0.181,3.923,0.181
				c7.94,0,15.74-2.081,22.69-5.77c-0.85-0.67-1.73-1.28-2.65-1.85c-8.275,4.138-17.277,5.668-26.506,4.231
				c-1.417-1.9-2.767-3.976-4.003-6.061c-0.91,0.43-1.79,0.9-2.65,1.41c0.755,1.294,1.541,2.548,2.355,3.763
				c-1.804-0.46-3.613-1.021-5.425-1.713c-0.9,0.68-1.75,1.4-2.57,2.16c3.426,1.412,6.952,2.443,10.537,3.082
				c0.004,0.006,0.009,0.012,0.013,0.018c3.452,4.422,7.359,8.364,12.05,11.57c5.114,3.767,13.207,7.088,21.33,7.99
				c-0.573,1.718-3.401,7.791-7.813,12.962c-3.163,1.084-6.394,1.858-9.678,2.344c-1.518-5.672-4.126-10.514-7.839-14.477
				c-8.37-8.91-20.06-11.07-26.63-11.54c-0.37,0.97-0.7,1.96-0.97,2.97c5.92,0.36,17.51,2.18,25.43,10.64
				c3.266,3.488,5.602,7.759,7.003,12.775c-5.886,0.56-11.914,0.248-17.983-0.815c-2.49-0.356-8.1-1.615-13.78-3.53
				c0.44,1.26,0.96,2.48,1.55,3.66c6.315,1.96,10.57,2.62,11.57,2.82c6.562,1.116,13.029,1.426,19.33,0.791
				c0.302,1.527,0.534,3.11,0.68,4.76c-4.15,2.97-8.652,5.534-13.2,7.669c1.44,0.49,2.92,0.87,4.44,1.15
				c3.066-1.576,6.069-3.332,8.943-5.282c0.039,1.827,0.002,3.712-0.133,5.672c1.03-0.09,2.04-0.24,3.04-0.43
				c0.153-2.552,0.16-4.999,0.027-7.342c3.644-2.738,7.03-5.818,10.002-9.278c0.003-0.004,0.006-0.007,0.008-0.01
				c2.544-0.914,5.046-2.016,7.502-3.33c2.92-1.57,5.51-3.3,7.8-5.06V61.4c0.29-1.42,0.48-2.87,0.58-4.36
				c-2.71,2.35-5.97,4.72-9.8,6.78C76.329,64.256,75.51,64.664,74.687,65.053z M60.719,75.544c-0.129-1.031-0.281-2.046-0.471-3.032
				c1.704-0.258,3.394-0.589,5.068-0.996C63.867,72.925,62.327,74.266,60.719,75.544z"/>
		</g>
		<g>
			<path style="fill:#D7FCF9;" d="M55,35.35v-2.852c-3.15,0.209-6.35,0.073-9.577-0.427c-1.415-1.897-2.763-3.969-3.997-6.051
				c-0.899,0.421-1.624,0.795-2.655,1.403c0.754,1.292,1.539,2.545,2.353,3.758c-1.801-0.458-3.607-1.018-5.417-1.708
				c-0.984,0.743-1.779,1.427-2.562,2.163c3.421,1.409,6.941,2.438,10.52,3.076c0.005,0.006,0.009,0.012,0.014,0.018
				c3.268,4.187,6.956,7.937,11.32,11.046v-3.659c-2.532-2.029-4.93-4.402-7.021-6.838c1.299,0.11,2.603,0.181,3.912,0.181
				C52.93,35.46,53.967,35.42,55,35.35z"/>
		</g>
		<g>
			<path style="fill:#FFFFFF;" d="M55,65.563v-6.291c-0.977-1.473-2.062-2.862-3.27-4.152c-3.979-4.236-8.708-6.935-13.281-8.663
				c-2.203-4.405-5.23-8.239-8.659-11.177c-0.61,0.78-1.18,1.59-1.72,2.42c2.529,2.115,4.71,4.667,6.456,7.48
				c-3.578-0.978-6.882-1.418-9.42-1.6c-0.469,1.254-0.708,2.008-0.97,2.97c3.057,0.187,7.625,0.771,12.416,2.447
				c1.193,2.67,2.012,5.486,2.388,8.333c0.58,3.899,0.381,7.893-0.362,11.819c-2.489-0.356-8.089-1.613-13.764-3.525
				c0.396,1.133,0.952,2.455,1.553,3.66c6.299,1.954,10.544,2.614,11.549,2.815c-0.709,2.74-1.658,5.427-2.775,8
				c0.8,0.63,1.62,1.22,2.48,1.77c1.307-2.933,2.427-6.093,3.233-9.331c4.781,0.637,9.506,0.837,14.146,0.537V70.09
				c-4.442,0.305-8.959,0.12-13.508-0.496c0.656-3.558,0.893-7.159,0.528-10.615c-0.247-2.953-0.894-5.805-1.851-8.502
				c3.314,1.562,6.583,3.713,9.391,6.712C51.823,59.607,53.631,62.407,55,65.563z"/>
		</g>
		<g>
			<g>
				<g>
					<circle style="fill:#FFFFFF;" cx="44" cy="33" r="3"/>
				</g>
			</g>
			<g>
				<g>
					<circle style="fill:#FFFFFF;" cx="58.083" cy="71" r="3"/>
				</g>
			</g>
			<g>
				<g>
					<circle style="fill:#FFFFFF;" cx="59.416" cy="78.667" r="3"/>
				</g>
			</g>
			<g>
				<g>
					<circle style="fill:#FFFFFF;" cx="37.75" cy="48" r="3"/>
				</g>
			</g>
			<g>
				<g>
					<circle style="fill:#FFFFFF;" cx="40" cy="58" r="3"/>
				</g>
			</g>
			<g>
				<g>
					<circle style="fill:#FFFFFF;" cx="40" cy="71" r="3"/>
				</g>
			</g>
			<g>
				<g>
					<circle style="fill:#FFFFFF;" cx="61" cy="33" r="3"/>
				</g>
			</g>
			<g>
				<g>
					<circle style="fill:#FFFFFF;" cx="79" cy="53" r="3"/>
				</g>
			</g>
			<g>
				<g>
					<circle style="fill:#FFFFFF;" cx="70" cy="69" r="3"/>
				</g>
			</g>
			<g>
				<g>
					<circle style="fill:#FFFFFF;" cx="55" cy="44" r="3"/>
				</g>
			</g>
		</g>
	</g>
</g>
<g id="Red" style="display:none;">
	<g style="display:inline;">
		<g>
			<circle style="fill:#C23023;" cx="55" cy="55" r="32"/>
		</g>
		<g>
			<path style="fill:#E54B44;" d="M55,23c-17.673,0-32,14.327-32,32s14.327,32,32,32V23z"/>
		</g>
		<g>
			<path style="fill:#FFD7D4;" d="M74.687,65.053c2.205-3.221,4.04-6.653,5.514-10.503c0-0.002,0.001-0.003,0.001-0.005
				c2.193,0.115,4.498,0.107,6.789-0.075c-0.01-0.97-0.07-1.93-0.17-2.87c-2.122,0.179-3.957,0.218-5.669,0.165
				c1.137-3.617,1.906-7.403,2.209-11.596c-0.83-1.59-1.79-3.11-2.88-4.53c0.076,5.15-0.687,10.747-2.417,15.93c0,0-0.002,0-0.003,0
				c-7.898-0.76-15.357-3.789-20.76-7.72c-3.369-2.332-6.617-5.401-9.333-8.571c1.303,0.111,2.61,0.181,3.923,0.181
				c7.94,0,15.74-2.081,22.69-5.77c-0.85-0.67-1.73-1.28-2.65-1.85c-8.275,4.138-17.277,5.668-26.506,4.231
				c-1.417-1.9-2.767-3.976-4.003-6.061c-0.91,0.43-1.79,0.9-2.65,1.41c0.755,1.294,1.541,2.548,2.355,3.763
				c-1.804-0.46-3.613-1.021-5.425-1.713c-0.9,0.68-1.75,1.4-2.57,2.16c3.426,1.412,6.952,2.443,10.537,3.082
				c0.004,0.006,0.009,0.012,0.013,0.018c3.452,4.422,7.359,8.364,12.05,11.57c5.114,3.767,13.207,7.088,21.33,7.99
				c-0.573,1.718-3.401,7.791-7.814,12.962c-3.163,1.084-6.394,1.858-9.678,2.344c-1.518-5.672-4.126-10.514-7.839-14.477
				c-8.37-8.91-20.06-11.07-26.63-11.54c-0.37,0.97-0.7,1.96-0.97,2.97c5.92,0.36,17.51,2.18,25.43,10.64
				c3.266,3.488,5.602,7.759,7.003,12.775c-5.886,0.56-11.914,0.248-17.983-0.815c-2.49-0.356-8.1-1.615-13.78-3.53
				c0.44,1.26,0.96,2.48,1.55,3.66c6.315,1.96,10.57,2.62,11.57,2.82c6.562,1.116,13.029,1.426,19.33,0.791
				c0.302,1.527,0.534,3.11,0.68,4.76c-4.15,2.97-8.652,5.534-13.2,7.669c1.44,0.49,2.92,0.87,4.44,1.15
				c3.066-1.576,6.069-3.332,8.943-5.282c0.039,1.827,0.002,3.712-0.133,5.672c1.03-0.09,2.04-0.24,3.04-0.43
				c0.153-2.552,0.16-4.999,0.027-7.342c3.645-2.738,7.03-5.818,10.002-9.278c0.003-0.004,0.006-0.007,0.008-0.01
				c2.544-0.914,5.046-2.016,7.502-3.33c2.92-1.57,5.51-3.3,7.8-5.06V61.4c0.29-1.42,0.48-2.87,0.58-4.36
				c-2.71,2.35-5.97,4.72-9.8,6.78C76.329,64.256,75.51,64.664,74.687,65.053z M60.719,75.544c-0.129-1.031-0.281-2.046-0.471-3.032
				c1.704-0.258,3.394-0.589,5.068-0.996C63.867,72.925,62.327,74.266,60.719,75.544z"/>
		</g>
		<g>
			<path style="fill:#FFEFED;" d="M55,35.35v-2.852c-3.15,0.209-6.35,0.073-9.577-0.427c-1.415-1.897-2.763-3.969-3.997-6.051
				c-0.899,0.421-1.624,0.795-2.655,1.403c0.754,1.292,1.539,2.545,2.353,3.758c-1.801-0.458-3.607-1.018-5.417-1.708
				c-0.984,0.743-1.779,1.427-2.562,2.163c3.421,1.409,6.941,2.438,10.52,3.076c0.005,0.006,0.009,0.012,0.014,0.018
				c3.268,4.187,6.956,7.937,11.32,11.046v-3.659c-2.532-2.029-4.93-4.402-7.021-6.838c1.299,0.11,2.603,0.181,3.912,0.181
				C52.93,35.46,53.967,35.42,55,35.35z"/>
		</g>
		<g>
			<path style="fill:#FFFFFF;" d="M55,65.563v-6.291c-0.977-1.473-2.062-2.862-3.27-4.152c-3.979-4.236-8.708-6.935-13.281-8.663
				c-2.203-4.405-5.23-8.239-8.659-11.177c-0.61,0.78-1.18,1.59-1.72,2.42c2.529,2.115,4.71,4.667,6.456,7.48
				c-3.578-0.978-6.882-1.418-9.42-1.6c-0.469,1.254-0.708,2.008-0.97,2.97c3.057,0.187,7.625,0.771,12.416,2.447
				c1.193,2.67,2.012,5.486,2.388,8.333c0.58,3.899,0.381,7.893-0.362,11.819c-2.489-0.356-8.089-1.613-13.764-3.525
				c0.396,1.133,0.952,2.455,1.553,3.66c6.299,1.954,10.544,2.614,11.549,2.815c-0.709,2.74-1.658,5.427-2.775,8
				c0.8,0.63,1.62,1.22,2.48,1.77c1.307-2.933,2.427-6.093,3.233-9.331c4.781,0.637,9.506,0.837,14.146,0.537V70.09
				c-4.442,0.305-8.959,0.12-13.508-0.496c0.656-3.558,0.893-7.159,0.528-10.615c-0.247-2.953-0.894-5.805-1.851-8.502
				c3.314,1.562,6.583,3.713,9.391,6.712C51.823,59.607,53.631,62.407,55,65.563z"/>
		</g>
		<g>
			<g>
				<g>
					<circle style="fill:#FFFFFF;" cx="44" cy="33" r="3"/>
				</g>
			</g>
			<g>
				<g>
					<circle style="fill:#FFFFFF;" cx="58.084" cy="71" r="3"/>
				</g>
			</g>
			<g>
				<g>
					<circle style="fill:#FFFFFF;" cx="59.417" cy="78.667" r="3"/>
				</g>
			</g>
			<g>
				<g>
					<circle style="fill:#FFFFFF;" cx="37.75" cy="48" r="3"/>
				</g>
			</g>
			<g>
				<g>
					<circle style="fill:#FFFFFF;" cx="40" cy="58" r="3"/>
				</g>
			</g>
			<g>
				<g>
					<circle style="fill:#FFFFFF;" cx="40" cy="71" r="3"/>
				</g>
			</g>
			<g>
				<g>
					<circle style="fill:#FFFFFF;" cx="61" cy="33" r="3"/>
				</g>
			</g>
			<g>
				<g>
					<circle style="fill:#FFFFFF;" cx="79" cy="53" r="3"/>
				</g>
			</g>
			<g>
				<g>
					<circle style="fill:#FFFFFF;" cx="70" cy="69" r="3"/>
				</g>
			</g>
			<g>
				<g>
					<circle style="fill:#FFFFFF;" cx="55" cy="44" r="3"/>
				</g>
			</g>
		</g>
	</g>
</g>
<g id="R-Red" style="display:none;">
	<g style="display:inline;">
		<circle style="fill:#FABBAF;" cx="55" cy="55" r="55"/>
	</g>
	<g style="display:inline;">
		<g>
			<circle style="fill:#C23023;" cx="55" cy="55" r="32"/>
		</g>
		<g>
			<path style="fill:#E54B44;" d="M55,23c-17.673,0-32,14.327-32,32s14.327,32,32,32V23z"/>
		</g>
		<g>
			<path style="fill:#FFD7D4;" d="M74.687,65.052c2.205-3.221,4.04-6.653,5.514-10.502c0-0.002,0.001-0.003,0.001-0.005
				c2.193,0.115,4.498,0.107,6.789-0.075c-0.01-0.97-0.07-1.93-0.17-2.87c-2.122,0.179-3.957,0.218-5.669,0.165
				c1.137-3.617,1.906-7.403,2.209-11.596c-0.83-1.59-1.79-3.11-2.88-4.53c0.076,5.15-0.687,10.747-2.417,15.93c0,0-0.002,0-0.003,0
				c-7.898-0.76-15.357-3.79-20.76-7.72c-3.369-2.332-6.617-5.401-9.333-8.571c1.303,0.111,2.61,0.181,3.923,0.181
				c7.94,0,15.74-2.081,22.69-5.77c-0.85-0.67-1.73-1.28-2.65-1.85c-8.275,4.138-17.277,5.668-26.506,4.231
				c-1.417-1.9-2.767-3.976-4.003-6.061c-0.91,0.43-1.79,0.9-2.65,1.41c0.755,1.294,1.541,2.548,2.355,3.763
				c-1.804-0.46-3.613-1.021-5.425-1.713c-0.9,0.68-1.75,1.4-2.57,2.16c3.426,1.412,6.952,2.443,10.537,3.082
				c0.004,0.006,0.009,0.012,0.013,0.018c3.452,4.422,7.359,8.364,12.05,11.57c5.114,3.767,13.207,7.088,21.33,7.99
				c-0.573,1.718-3.401,7.791-7.814,12.962c-3.163,1.083-6.394,1.858-9.678,2.344c-1.518-5.672-4.126-10.514-7.839-14.477
				c-8.37-8.91-20.06-11.07-26.63-11.54c-0.37,0.97-0.7,1.96-0.97,2.97c5.92,0.36,17.51,2.18,25.43,10.64
				c3.266,3.488,5.602,7.759,7.003,12.775c-5.886,0.56-11.914,0.248-17.983-0.815c-2.49-0.356-8.1-1.615-13.78-3.53
				c0.44,1.26,0.96,2.48,1.55,3.66c6.315,1.96,10.57,2.62,11.57,2.82c6.562,1.116,13.029,1.426,19.33,0.791
				c0.302,1.527,0.534,3.11,0.68,4.76c-4.15,2.97-8.652,5.534-13.2,7.669c1.44,0.49,2.92,0.87,4.44,1.15
				c3.066-1.576,6.069-3.332,8.943-5.282c0.039,1.827,0.002,3.712-0.133,5.672c1.03-0.09,2.04-0.24,3.04-0.43
				c0.153-2.552,0.16-4.999,0.027-7.342c3.645-2.738,7.03-5.818,10.002-9.278c0.003-0.004,0.006-0.007,0.008-0.01
				c2.544-0.914,5.046-2.016,7.502-3.33c2.92-1.57,5.51-3.3,7.8-5.06V61.4c0.29-1.42,0.48-2.87,0.58-4.36
				c-2.71,2.35-5.97,4.72-9.8,6.78C76.329,64.256,75.51,64.664,74.687,65.052z M60.719,75.544c-0.129-1.031-0.281-2.046-0.471-3.032
				c1.704-0.258,3.394-0.589,5.068-0.996C63.867,72.925,62.327,74.266,60.719,75.544z"/>
		</g>
		<g>
			<path style="fill:#FFEFED;" d="M55,35.35v-2.852c-3.15,0.209-6.35,0.073-9.577-0.427c-1.415-1.897-2.763-3.969-3.997-6.051
				c-0.899,0.421-1.624,0.795-2.655,1.403c0.754,1.292,1.539,2.545,2.353,3.758c-1.801-0.458-3.607-1.018-5.417-1.708
				c-0.984,0.743-1.779,1.427-2.562,2.163c3.421,1.409,6.941,2.438,10.52,3.076c0.005,0.006,0.009,0.012,0.014,0.018
				c3.268,4.187,6.956,7.937,11.32,11.046v-3.659c-2.532-2.029-4.93-4.402-7.021-6.838c1.299,0.11,2.603,0.181,3.912,0.181
				C52.93,35.46,53.967,35.42,55,35.35z"/>
		</g>
		<g>
			<path style="fill:#FFFFFF;" d="M55,65.562v-6.291c-0.977-1.473-2.062-2.862-3.27-4.152c-3.979-4.236-8.708-6.935-13.281-8.663
				c-2.203-4.405-5.23-8.239-8.659-11.177c-0.61,0.78-1.18,1.59-1.72,2.42c2.529,2.115,4.71,4.667,6.456,7.48
				c-3.578-0.978-6.882-1.418-9.42-1.6c-0.469,1.254-0.708,2.008-0.97,2.97c3.057,0.187,7.625,0.771,12.416,2.447
				c1.193,2.67,2.012,5.486,2.388,8.333c0.58,3.899,0.381,7.893-0.362,11.819c-2.489-0.356-8.089-1.613-13.764-3.525
				c0.396,1.133,0.952,2.455,1.553,3.66c6.299,1.954,10.544,2.614,11.549,2.815c-0.709,2.74-1.658,5.427-2.775,8
				c0.8,0.63,1.62,1.22,2.48,1.77c1.307-2.933,2.427-6.093,3.233-9.331c4.781,0.637,9.506,0.837,14.146,0.537V70.09
				c-4.442,0.305-8.959,0.12-13.508-0.496c0.656-3.558,0.893-7.159,0.528-10.615c-0.247-2.953-0.894-5.805-1.851-8.502
				c3.314,1.562,6.583,3.713,9.391,6.712C51.823,59.607,53.631,62.407,55,65.562z"/>
		</g>
		<g>
			<g>
				<g>
					<circle style="fill:#FFFFFF;" cx="44" cy="33" r="3"/>
				</g>
			</g>
			<g>
				<g>
					<circle style="fill:#FFFFFF;" cx="58.084" cy="71" r="3"/>
				</g>
			</g>
			<g>
				<g>
					<circle style="fill:#FFFFFF;" cx="59.417" cy="78.667" r="3"/>
				</g>
			</g>
			<g>
				<g>
					<circle style="fill:#FFFFFF;" cx="37.75" cy="48" r="3"/>
				</g>
			</g>
			<g>
				<g>
					<circle style="fill:#FFFFFF;" cx="40" cy="58" r="3"/>
				</g>
			</g>
			<g>
				<g>
					<circle style="fill:#FFFFFF;" cx="40" cy="71" r="3"/>
				</g>
			</g>
			<g>
				<g>
					<circle style="fill:#FFFFFF;" cx="61" cy="33" r="3"/>
				</g>
			</g>
			<g>
				<g>
					<circle style="fill:#FFFFFF;" cx="79" cy="53" r="3"/>
				</g>
			</g>
			<g>
				<g>
					<circle style="fill:#FFFFFF;" cx="70" cy="69" r="3"/>
				</g>
			</g>
			<g>
				<g>
					<circle style="fill:#FFFFFF;" cx="55" cy="44" r="3"/>
				</g>
			</g>
		</g>
	</g>
</g>
<g id="Yellow" style="display:none;">
	<g style="display:inline;">
		<g>
			<circle style="fill:#E07000;" cx="55" cy="55" r="32"/>
		</g>
		<g>
			<path style="fill:#FA9200;" d="M55,23c-17.673,0-32,14.327-32,32s14.327,32,32,32V23z"/>
		</g>
		<g>
			<path style="fill:#FFE9A1;" d="M74.687,65.053c2.205-3.221,4.04-6.653,5.514-10.503c0-0.002,0.001-0.003,0.001-0.005
				c2.193,0.115,4.498,0.107,6.789-0.075c-0.01-0.97-0.07-1.93-0.17-2.87c-2.122,0.179-3.957,0.218-5.669,0.165
				c1.137-3.617,1.906-7.403,2.209-11.596c-0.83-1.59-1.79-3.11-2.88-4.53c0.076,5.15-0.687,10.747-2.417,15.93c0,0-0.002,0-0.003,0
				c-7.898-0.76-15.357-3.789-20.76-7.72c-3.369-2.332-6.617-5.401-9.333-8.571c1.303,0.111,2.61,0.181,3.923,0.181
				c7.94,0,15.74-2.081,22.69-5.77c-0.85-0.67-1.73-1.28-2.65-1.85c-8.275,4.138-17.277,5.668-26.506,4.231
				c-1.417-1.9-2.767-3.976-4.003-6.061c-0.91,0.43-1.79,0.9-2.65,1.41c0.755,1.294,1.541,2.548,2.355,3.763
				c-1.804-0.46-3.613-1.021-5.425-1.713c-0.9,0.68-1.75,1.4-2.57,2.16c3.426,1.412,6.952,2.443,10.537,3.082
				c0.004,0.006,0.009,0.012,0.013,0.018c3.452,4.422,7.359,8.364,12.05,11.57c5.114,3.767,13.207,7.088,21.33,7.99
				c-0.573,1.718-3.401,7.791-7.814,12.962c-3.163,1.084-6.394,1.858-9.678,2.344c-1.518-5.672-4.126-10.514-7.839-14.477
				c-8.37-8.91-20.06-11.07-26.63-11.54c-0.37,0.97-0.7,1.96-0.97,2.97c5.92,0.36,17.51,2.18,25.43,10.64
				c3.266,3.488,5.602,7.759,7.003,12.775c-5.886,0.56-11.914,0.248-17.983-0.815c-2.49-0.356-8.1-1.615-13.78-3.53
				c0.44,1.26,0.96,2.48,1.55,3.66c6.315,1.96,10.57,2.62,11.57,2.82c6.562,1.116,13.029,1.426,19.33,0.791
				c0.302,1.527,0.534,3.11,0.68,4.76c-4.15,2.97-8.652,5.534-13.2,7.669c1.44,0.49,2.92,0.87,4.44,1.15
				c3.066-1.576,6.069-3.332,8.943-5.282c0.039,1.827,0.002,3.712-0.133,5.672c1.03-0.09,2.04-0.24,3.04-0.43
				c0.153-2.552,0.16-4.999,0.027-7.342c3.645-2.738,7.03-5.818,10.002-9.278c0.003-0.004,0.006-0.007,0.008-0.01
				c2.544-0.914,5.046-2.016,7.502-3.33c2.92-1.57,5.51-3.3,7.8-5.06V61.4c0.29-1.42,0.48-2.87,0.58-4.36
				c-2.71,2.35-5.97,4.72-9.8,6.78C76.329,64.256,75.51,64.664,74.687,65.053z M60.719,75.544c-0.129-1.031-0.281-2.046-0.471-3.032
				c1.704-0.258,3.394-0.589,5.068-0.996C63.867,72.925,62.327,74.266,60.719,75.544z"/>
		</g>
		<g>
			<path style="fill:#FFF5D9;" d="M55,35.35v-2.852c-3.15,0.209-6.35,0.073-9.577-0.427c-1.415-1.897-2.763-3.969-3.997-6.051
				c-0.899,0.421-1.624,0.795-2.655,1.403c0.754,1.292,1.539,2.545,2.353,3.758c-1.801-0.458-3.607-1.018-5.417-1.708
				c-0.984,0.743-1.779,1.427-2.562,2.163c3.421,1.409,6.941,2.438,10.52,3.076c0.005,0.006,0.009,0.012,0.014,0.018
				c3.268,4.187,6.956,7.937,11.32,11.046v-3.659c-2.532-2.029-4.93-4.402-7.021-6.838c1.299,0.11,2.603,0.181,3.912,0.181
				C52.93,35.46,53.967,35.42,55,35.35z"/>
		</g>
		<g>
			<path style="fill:#FFFFFF;" d="M55,65.563v-6.291c-0.977-1.473-2.062-2.862-3.27-4.152c-3.979-4.236-8.708-6.935-13.281-8.663
				c-2.203-4.405-5.23-8.239-8.659-11.177c-0.61,0.78-1.18,1.59-1.72,2.42c2.529,2.115,4.71,4.667,6.456,7.48
				c-3.578-0.978-6.882-1.418-9.42-1.6c-0.469,1.254-0.708,2.008-0.97,2.97c3.057,0.187,7.625,0.771,12.416,2.447
				c1.193,2.67,2.012,5.486,2.388,8.333c0.58,3.899,0.381,7.893-0.362,11.819c-2.489-0.356-8.089-1.613-13.764-3.525
				c0.396,1.133,0.952,2.455,1.553,3.66c6.299,1.954,10.544,2.614,11.549,2.815c-0.709,2.74-1.658,5.427-2.775,8
				c0.8,0.63,1.62,1.22,2.48,1.77c1.307-2.933,2.427-6.093,3.233-9.331c4.781,0.637,9.506,0.837,14.146,0.537V70.09
				c-4.442,0.305-8.959,0.12-13.508-0.496c0.656-3.558,0.893-7.159,0.528-10.615c-0.247-2.953-0.894-5.805-1.851-8.502
				c3.314,1.562,6.583,3.713,9.391,6.712C51.823,59.607,53.631,62.407,55,65.563z"/>
		</g>
		<g>
			<g>
				<g>
					<circle style="fill:#FFFFFF;" cx="44" cy="33" r="3"/>
				</g>
			</g>
			<g>
				<g>
					<circle style="fill:#FFFFFF;" cx="58.084" cy="71" r="3"/>
				</g>
			</g>
			<g>
				<g>
					<circle style="fill:#FFFFFF;" cx="59.417" cy="78.667" r="3"/>
				</g>
			</g>
			<g>
				<g>
					<circle style="fill:#FFFFFF;" cx="37.75" cy="48" r="3"/>
				</g>
			</g>
			<g>
				<g>
					<circle style="fill:#FFFFFF;" cx="40" cy="58" r="3"/>
				</g>
			</g>
			<g>
				<g>
					<circle style="fill:#FFFFFF;" cx="40" cy="71" r="3"/>
				</g>
			</g>
			<g>
				<g>
					<circle style="fill:#FFFFFF;" cx="61" cy="33" r="3"/>
				</g>
			</g>
			<g>
				<g>
					<circle style="fill:#FFFFFF;" cx="79" cy="53" r="3"/>
				</g>
			</g>
			<g>
				<g>
					<circle style="fill:#FFFFFF;" cx="70" cy="69" r="3"/>
				</g>
			</g>
			<g>
				<g>
					<circle style="fill:#FFFFFF;" cx="55" cy="44" r="3"/>
				</g>
			</g>
		</g>
	</g>
</g>
<g id="R-Yellow" style="display:none;">
	<g style="display:inline;">
		<circle style="fill:#FFD75E;" cx="55" cy="55" r="55"/>
	</g>
	<g style="display:inline;">
		<g>
			<circle style="fill:#E07000;" cx="55" cy="55" r="32"/>
		</g>
		<g>
			<path style="fill:#FA9200;" d="M55,23c-17.673,0-32,14.327-32,32s14.327,32,32,32V23z"/>
		</g>
		<g>
			<path style="fill:#FFE9A1;" d="M74.687,65.053c2.205-3.221,4.04-6.653,5.514-10.503c0-0.002,0.001-0.003,0.001-0.005
				c2.193,0.115,4.498,0.107,6.788-0.075c-0.01-0.97-0.07-1.93-0.17-2.87c-2.122,0.179-3.957,0.218-5.669,0.165
				c1.137-3.617,1.906-7.403,2.209-11.596c-0.83-1.59-1.79-3.11-2.88-4.53c0.076,5.15-0.687,10.747-2.417,15.93c0,0-0.002,0-0.003,0
				c-7.897-0.76-15.356-3.789-20.76-7.72c-3.369-2.332-6.617-5.401-9.333-8.571c1.303,0.111,2.61,0.181,3.923,0.181
				c7.941,0,15.74-2.081,22.69-5.77c-0.85-0.67-1.73-1.28-2.65-1.85c-8.275,4.138-17.277,5.668-26.506,4.231
				c-1.417-1.9-2.767-3.976-4.003-6.061c-0.91,0.43-1.79,0.9-2.65,1.41c0.755,1.294,1.541,2.548,2.355,3.763
				c-1.804-0.46-3.613-1.021-5.425-1.713c-0.9,0.68-1.75,1.4-2.57,2.16c3.426,1.412,6.952,2.443,10.537,3.082
				c0.004,0.006,0.009,0.012,0.013,0.018c3.452,4.422,7.359,8.364,12.05,11.57c5.114,3.767,13.207,7.088,21.33,7.99
				c-0.573,1.718-3.401,7.791-7.813,12.962c-3.163,1.084-6.394,1.858-9.678,2.344c-1.518-5.672-4.126-10.514-7.839-14.477
				c-8.37-8.91-20.06-11.07-26.63-11.54c-0.37,0.97-0.7,1.96-0.97,2.97c5.92,0.36,17.51,2.18,25.43,10.64
				c3.266,3.488,5.601,7.759,7.003,12.775c-5.886,0.56-11.914,0.248-17.983-0.815c-2.49-0.356-8.1-1.615-13.78-3.53
				c0.44,1.26,0.96,2.48,1.55,3.66c6.315,1.96,10.57,2.62,11.57,2.82c6.562,1.116,13.029,1.426,19.33,0.791
				c0.302,1.527,0.534,3.11,0.68,4.76c-4.15,2.97-8.652,5.534-13.2,7.669c1.44,0.49,2.92,0.87,4.44,1.15
				c3.066-1.576,6.069-3.332,8.943-5.282c0.039,1.827,0.002,3.712-0.133,5.672c1.03-0.09,2.04-0.24,3.04-0.43
				c0.153-2.552,0.16-4.999,0.027-7.342c3.645-2.738,7.03-5.818,10.002-9.278c0.003-0.004,0.006-0.007,0.008-0.01
				c2.544-0.914,5.046-2.016,7.502-3.33c2.92-1.57,5.51-3.3,7.8-5.06V61.4c0.29-1.42,0.48-2.87,0.58-4.36
				c-2.71,2.35-5.97,4.72-9.8,6.78C76.329,64.256,75.51,64.664,74.687,65.053z M60.719,75.544c-0.129-1.031-0.281-2.046-0.471-3.032
				c1.704-0.258,3.394-0.589,5.068-0.996C63.867,72.925,62.327,74.266,60.719,75.544z"/>
		</g>
		<g>
			<path style="fill:#FFF5D9;" d="M55,35.35v-2.852c-3.15,0.209-6.35,0.073-9.577-0.427c-1.415-1.897-2.763-3.969-3.997-6.051
				c-0.899,0.421-1.624,0.795-2.655,1.403c0.754,1.292,1.539,2.545,2.353,3.758c-1.801-0.458-3.607-1.018-5.417-1.708
				c-0.984,0.743-1.779,1.427-2.562,2.163c3.421,1.409,6.941,2.438,10.52,3.076c0.005,0.006,0.009,0.012,0.014,0.018
				c3.269,4.187,6.956,7.937,11.32,11.046v-3.659c-2.532-2.029-4.93-4.402-7.021-6.838c1.299,0.11,2.603,0.181,3.912,0.181
				C52.93,35.46,53.967,35.42,55,35.35z"/>
		</g>
		<g>
			<path style="fill:#FFFFFF;" d="M55,65.563v-6.291c-0.977-1.473-2.062-2.862-3.27-4.152c-3.979-4.236-8.708-6.935-13.281-8.663
				c-2.203-4.405-5.23-8.239-8.659-11.177c-0.61,0.78-1.18,1.59-1.72,2.42c2.529,2.115,4.711,4.667,6.456,7.48
				c-3.578-0.978-6.882-1.418-9.42-1.6c-0.469,1.254-0.708,2.008-0.97,2.97c3.057,0.187,7.625,0.771,12.416,2.447
				c1.193,2.67,2.012,5.486,2.388,8.333c0.58,3.899,0.381,7.893-0.362,11.819c-2.489-0.356-8.089-1.613-13.764-3.525
				c0.396,1.133,0.952,2.455,1.553,3.66c6.299,1.954,10.544,2.614,11.549,2.815c-0.709,2.74-1.658,5.427-2.775,8
				c0.8,0.63,1.62,1.22,2.48,1.77c1.307-2.933,2.427-6.093,3.233-9.331c4.781,0.637,9.506,0.837,14.146,0.537V70.09
				c-4.442,0.305-8.959,0.12-13.508-0.496c0.656-3.558,0.893-7.159,0.528-10.615c-0.247-2.953-0.894-5.805-1.851-8.502
				c3.314,1.562,6.583,3.713,9.391,6.712C51.823,59.607,53.631,62.407,55,65.563z"/>
		</g>
		<g>
			<g>
				<g>
					<circle style="fill:#FFFFFF;" cx="44" cy="33" r="3"/>
				</g>
			</g>
			<g>
				<g>
					<circle style="fill:#FFFFFF;" cx="58.084" cy="71" r="3"/>
				</g>
			</g>
			<g>
				<g>
					<circle style="fill:#FFFFFF;" cx="59.416" cy="78.667" r="3"/>
				</g>
			</g>
			<g>
				<g>
					<circle style="fill:#FFFFFF;" cx="37.75" cy="48" r="3"/>
				</g>
			</g>
			<g>
				<g>
					<circle style="fill:#FFFFFF;" cx="40" cy="58" r="3"/>
				</g>
			</g>
			<g>
				<g>
					<circle style="fill:#FFFFFF;" cx="40" cy="71" r="3"/>
				</g>
			</g>
			<g>
				<g>
					<circle style="fill:#FFFFFF;" cx="61" cy="33" r="3"/>
				</g>
			</g>
			<g>
				<g>
					<circle style="fill:#FFFFFF;" cx="79" cy="53" r="3"/>
				</g>
			</g>
			<g>
				<g>
					<circle style="fill:#FFFFFF;" cx="70" cy="69" r="3"/>
				</g>
			</g>
			<g>
				<g>
					<circle style="fill:#FFFFFF;" cx="55" cy="44" r="3"/>
				</g>
			</g>
		</g>
	</g>
</g>
</svg>
