<?xml version="1.0" encoding="iso-8859-1"?>
<!-- Generator: Adobe Illustrator 17.1.0, SVG Export Plug-In . SVG Version: 6.00 Build 0)  -->
<!DOCTYPE svg PUBLIC "-//W3C//DTD SVG 1.0//EN" "http://www.w3.org/TR/2001/REC-SVG-20010904/DTD/svg10.dtd">
<svg version="1.0" xmlns="http://www.w3.org/2000/svg" xmlns:xlink="http://www.w3.org/1999/xlink" x="0px" y="0px" width="110px"
	 height="110px" viewBox="0 0 110 110" style="enable-background:new 0 0 110 110;" xml:space="preserve">
<g id="Artboard" style="display:none;">
	
		<rect x="-459.5" y="-170.5" style="display:inline;fill:#808080;stroke:#000000;stroke-miterlimit:10;" width="1371" height="326"/>
</g>
<g id="R-Multicolor" style="display:none;">
	<circle style="display:inline;fill:#E04F5F;" cx="55" cy="55" r="55"/>
	<g style="display:inline;">
		<path style="fill:#3E3E3F;" d="M87,73.727c0,1.607-1.302,2.909-2.909,2.909H25.909c-1.607,0-2.909-1.302-2.909-2.909V33
			c0-1.607,1.302-2.909,2.909-2.909h58.182C85.698,30.091,87,31.393,87,33V73.727z"/>
		<rect x="46.273" y="76.636" style="fill:#E2E4E5;" width="17.455" height="7.455"/>
		<path style="fill:#F0F1F1;" d="M69.545,85.545c0,0.803-0.651,1.455-1.455,1.455H41.909c-0.803,0-1.455-0.651-1.455-1.455
			s0.651-1.455,1.455-1.455h26.182C68.894,84.091,69.545,84.742,69.545,85.545z"/>
		<path style="fill:#FFFFFF;" d="M87,73.727V65H23v8.727c0,1.607,1.303,2.909,2.909,2.909h58.182C85.697,76.636,87,75.334,87,73.727
			z"/>
		<path style="fill:#CFD3D4;" d="M55,74.909c-2.156,0-3.909-1.753-3.909-3.909c0-2.156,1.754-3.909,3.909-3.909
			s3.909,1.753,3.909,3.909C58.909,73.156,57.156,74.909,55,74.909z M55,69.091c-1.053,0-1.909,0.856-1.909,1.909
			c0,1.052,0.856,1.909,1.909,1.909s1.909-0.856,1.909-1.909C56.909,69.948,56.053,69.091,55,69.091z"/>
		<path style="fill:#5B5C5F;" d="M23,33v32h19.724l34.909-34.909H25.909C24.303,30.091,23,31.393,23,33z"/>
		<path style="fill:#FBE158;" d="M87,35.93c0-0.32-0.04-0.63-0.11-0.93l-8.792,10.144c-2.189-0.863-4.465,1.002-4.044,3.323
			l-9.106,5.199c-0.943-0.812-2.268-0.996-3.431-0.329l-9.724-8.331C52.565,43.001,51.07,40.93,49,40.93
			c-2.165,0-3.671,2.257-2.699,4.289L34.289,57.231c-1.009-0.483-2.119-0.369-2.985,0.227L23,51.42v2.48l7.135,5.186
			c-0.59,1.999,0.927,3.844,2.865,3.844c2.165,0,3.671-2.257,2.699-4.289l12.013-12.013c0.916,0.439,1.901,0.395,2.775-0.107
			l9.72,8.336C59.433,56.877,60.945,58.93,63,58.93c1.823,0,3.288-1.635,2.946-3.533l9.103-5.205
			c2.534,2.188,6.208-0.825,4.548-3.738L87,37.92V35.93z"/>
		<polygon style="fill:#17B198;" points="70,45 58.455,45 53,40 58.455,35 70,35 		"/>
		<polygon style="fill:#4AC3AF;" points="70,35 58.455,35 53,40 58.455,45 61.205,45 70,36.205 		"/>
		<path style="fill:#FBEC9A;" d="M33,62.93c2.166,0,3.671-2.257,2.699-4.289l12.013-12.013c0.917,0.439,1.901,0.395,2.775-0.107
			l4.951,4.246l1.422-1.422l-5.066-4.34C52.565,43.001,51.07,40.93,49,40.93c-2.166,0-3.671,2.257-2.699,4.289L34.289,57.231
			c-1.008-0.483-2.119-0.369-2.985,0.227L23,51.42v2.48l7.135,5.186C29.545,61.084,31.062,62.93,33,62.93z"/>
		<g>
			<path style="fill:#FFFFFF;" d="M63.695,36.204c0.216,0,0.387,0.171,0.387,0.387v0.198c0.531,0.063,0.981,0.234,1.395,0.495
				c0.144,0.081,0.27,0.216,0.27,0.432c0,0.279-0.225,0.495-0.504,0.495c-0.09,0-0.18-0.027-0.27-0.081
				c-0.315-0.189-0.621-0.324-0.927-0.396v1.729C65.415,39.805,66,40.354,66,41.317c0,0.99-0.774,1.647-1.917,1.755v0.54
				c0,0.216-0.171,0.387-0.387,0.387s-0.396-0.171-0.396-0.387v-0.558c-0.675-0.072-1.296-0.315-1.845-0.702
				c-0.153-0.099-0.243-0.243-0.243-0.432c0-0.279,0.216-0.495,0.495-0.495c0.108,0,0.216,0.036,0.297,0.099
				c0.423,0.306,0.837,0.513,1.333,0.603v-1.773c-1.314-0.342-1.927-0.837-1.927-1.854c0-0.963,0.765-1.629,1.89-1.72v-0.189
				C63.299,36.375,63.479,36.204,63.695,36.204z M63.335,39.273V37.68c-0.576,0.054-0.864,0.36-0.864,0.756
				C62.471,38.814,62.642,39.048,63.335,39.273z M64.046,40.525v1.639c0.576-0.063,0.891-0.351,0.891-0.783
				C64.938,40.984,64.74,40.741,64.046,40.525z"/>
		</g>
	</g>
</g>
<g id="Multicolor" style="display:none;">
	<g style="display:inline;">
		<path style="fill:#3E3E3F;" d="M87,73.727c0,1.607-1.302,2.909-2.909,2.909H25.909c-1.607,0-2.909-1.302-2.909-2.909V33
			c0-1.607,1.302-2.909,2.909-2.909h58.182C85.698,30.091,87,31.393,87,33V73.727z"/>
		<rect x="46.273" y="76.636" style="fill:#E2E4E5;" width="17.455" height="7.455"/>
		<path style="fill:#F0F1F1;" d="M69.545,85.545c0,0.803-0.651,1.455-1.455,1.455H41.909c-0.803,0-1.455-0.651-1.455-1.455
			s0.651-1.455,1.455-1.455h26.182C68.894,84.091,69.545,84.742,69.545,85.545z"/>
		<path style="fill:#FFFFFF;" d="M87,73.727V65H23v8.727c0,1.607,1.303,2.909,2.909,2.909h58.182C85.697,76.636,87,75.334,87,73.727
			z"/>
		<path style="fill:#CFD3D4;" d="M55,74.909c-2.156,0-3.909-1.753-3.909-3.909c0-2.156,1.754-3.909,3.909-3.909
			s3.909,1.753,3.909,3.909C58.909,73.156,57.156,74.909,55,74.909z M55,69.091c-1.053,0-1.909,0.856-1.909,1.909
			c0,1.052,0.856,1.909,1.909,1.909s1.909-0.856,1.909-1.909C56.909,69.948,56.053,69.091,55,69.091z"/>
		<path style="fill:#5B5C5F;" d="M23,33v32h19.724l34.909-34.909H25.909C24.303,30.091,23,31.393,23,33z"/>
		<path style="fill:#FBE158;" d="M87,35.93c0-0.32-0.04-0.63-0.11-0.93l-8.792,10.144c-2.189-0.863-4.465,1.002-4.044,3.323
			l-9.106,5.199c-0.943-0.812-2.268-0.996-3.431-0.329l-9.724-8.331C52.565,43.001,51.07,40.93,49,40.93
			c-2.165,0-3.671,2.257-2.699,4.289L34.289,57.231c-1.009-0.483-2.119-0.369-2.985,0.227L23,51.42v2.48l7.135,5.186
			c-0.59,1.999,0.927,3.844,2.865,3.844c2.165,0,3.671-2.257,2.699-4.289l12.013-12.013c0.916,0.439,1.901,0.395,2.775-0.107
			l9.72,8.336C59.433,56.877,60.945,58.93,63,58.93c1.823,0,3.288-1.635,2.946-3.533l9.103-5.205
			c2.534,2.188,6.208-0.825,4.548-3.738L87,37.92V35.93z"/>
		<polygon style="fill:#17B198;" points="70,45 58.455,45 53,40 58.455,35 70,35 		"/>
		<polygon style="fill:#4AC3AF;" points="70,35 58.455,35 53,40 58.455,45 61.205,45 70,36.205 		"/>
		<path style="fill:#FBEC9A;" d="M33,62.93c2.166,0,3.671-2.257,2.699-4.289l12.013-12.013c0.917,0.439,1.901,0.395,2.775-0.107
			l4.951,4.246l1.422-1.422l-5.066-4.34C52.565,43.001,51.07,40.93,49,40.93c-2.166,0-3.671,2.257-2.699,4.289L34.289,57.231
			c-1.008-0.483-2.119-0.369-2.985,0.227L23,51.42v2.48l7.135,5.186C29.545,61.084,31.062,62.93,33,62.93z"/>
		<g>
			<path style="fill:#FFFFFF;" d="M63.695,36.204c0.216,0,0.387,0.171,0.387,0.387v0.198c0.531,0.063,0.981,0.234,1.395,0.495
				c0.144,0.081,0.27,0.216,0.27,0.432c0,0.279-0.225,0.495-0.504,0.495c-0.09,0-0.18-0.027-0.27-0.081
				c-0.315-0.189-0.621-0.324-0.927-0.396v1.729C65.415,39.805,66,40.354,66,41.317c0,0.99-0.774,1.647-1.917,1.755v0.54
				c0,0.216-0.171,0.387-0.387,0.387s-0.396-0.171-0.396-0.387v-0.558c-0.675-0.072-1.296-0.315-1.845-0.702
				c-0.153-0.099-0.243-0.243-0.243-0.432c0-0.279,0.216-0.495,0.495-0.495c0.108,0,0.216,0.036,0.297,0.099
				c0.423,0.306,0.837,0.513,1.333,0.603v-1.773c-1.314-0.342-1.927-0.837-1.927-1.854c0-0.963,0.765-1.629,1.89-1.72v-0.189
				C63.299,36.375,63.479,36.204,63.695,36.204z M63.335,39.273V37.68c-0.576,0.054-0.864,0.36-0.864,0.756
				C62.471,38.814,62.642,39.048,63.335,39.273z M64.046,40.525v1.639c0.576-0.063,0.891-0.351,0.891-0.783
				C64.938,40.984,64.74,40.741,64.046,40.525z"/>
		</g>
	</g>
</g>
<g id="Blue" style="display:none;">
	<g style="display:inline;">
		<g>
			<path style="fill:#0C333D;" d="M87,73.728c0,1.606-1.303,2.909-2.909,2.909H25.909c-1.607,0-2.909-1.303-2.909-2.909V33
				c0-1.606,1.303-2.909,2.909-2.909h58.182C85.697,30.091,87,31.394,87,33V73.728z"/>
		</g>
		<g>
			<rect x="46.272" y="76.637" style="fill:#E1F5FA;" width="17.455" height="7.454"/>
		</g>
		<g>
			<path style="fill:#FFFFFF;" d="M69.545,85.546c0,0.803-0.651,1.454-1.455,1.454H41.909c-0.804,0-1.455-0.651-1.455-1.454
				c0-0.804,0.651-1.455,1.455-1.455h26.182C68.895,84.091,69.545,84.742,69.545,85.546z"/>
		</g>
		<g>
			<path style="fill:#FFFFFF;" d="M87,73.728V65H23v8.728c0,1.606,1.303,2.909,2.909,2.909h58.182
				C85.697,76.637,87,75.334,87,73.728z"/>
		</g>
		<g>
			<path style="fill:#BBE7F2;" d="M55,74.909c-2.155,0-3.909-1.754-3.909-3.909c0-2.155,1.754-3.909,3.909-3.909
				s3.909,1.753,3.909,3.909C58.909,73.155,57.155,74.909,55,74.909z M55,69.091c-1.053,0-1.909,0.856-1.909,1.909
				c0,1.053,0.856,1.909,1.909,1.909s1.909-0.856,1.909-1.909C56.909,69.947,56.053,69.091,55,69.091z"/>
		</g>
		<g>
			<path style="fill:#0F6175;" d="M23,33v32h19.724l34.909-34.909H25.909C24.303,30.091,23,31.394,23,33z"/>
		</g>
		<g>
			<path style="fill:#00B7E5;" d="M87,35.93c0-0.319-0.04-0.63-0.11-0.93l-8.792,10.144c-2.189-0.862-4.465,1.002-4.044,3.323
				l-9.106,5.199c-0.942-0.812-2.268-0.996-3.431-0.329l-9.724-8.331C52.565,43.002,51.07,40.93,49,40.93
				c-2.165,0-3.671,2.257-2.699,4.289L34.289,57.231c-1.008-0.483-2.12-0.369-2.985,0.227L23,51.42v2.48l7.135,5.186
				c-0.59,1.999,0.927,3.844,2.865,3.844c2.165,0,3.671-2.256,2.699-4.288l12.013-12.013c0.917,0.44,1.901,0.395,2.775-0.107
				l9.72,8.336c-0.773,2.02,0.739,4.072,2.794,4.072c1.822,0,3.288-1.635,2.946-3.533l9.102-5.205
				c2.534,2.188,6.208-0.825,4.548-3.738L87,37.92V35.93z"/>
		</g>
		<g>
			<polygon style="fill:#00B7E5;" points="70,45 58.455,45 53,40 58.455,35 70,35 			"/>
		</g>
		<g>
			<g>
				<path style="fill:#FFFFFF;" d="M63.695,36.204c0.216,0,0.387,0.171,0.387,0.387v0.198c0.531,0.063,0.981,0.234,1.395,0.495
					c0.145,0.081,0.271,0.216,0.271,0.432c0,0.279-0.225,0.495-0.504,0.495c-0.09,0-0.18-0.027-0.27-0.081
					c-0.315-0.189-0.621-0.324-0.927-0.396v1.729C65.415,39.805,66,40.354,66,41.317c0,0.99-0.774,1.647-1.917,1.756v0.54
					c0,0.216-0.171,0.387-0.387,0.387s-0.396-0.171-0.396-0.387v-0.558c-0.675-0.072-1.296-0.315-1.845-0.702
					c-0.153-0.099-0.243-0.243-0.243-0.432c0-0.279,0.216-0.495,0.495-0.495c0.108,0,0.216,0.036,0.297,0.099
					c0.423,0.306,0.837,0.513,1.332,0.603v-1.774c-1.314-0.342-1.926-0.837-1.926-1.854c0-0.963,0.765-1.629,1.89-1.72v-0.189
					C63.299,36.375,63.479,36.204,63.695,36.204z M63.335,39.273V37.68c-0.576,0.054-0.864,0.36-0.864,0.756
					C62.471,38.815,62.642,39.048,63.335,39.273z M64.046,40.525v1.639c0.576-0.063,0.891-0.351,0.891-0.783
					C64.938,40.984,64.739,40.741,64.046,40.525z"/>
			</g>
		</g>
	</g>
</g>
<g id="R-Blue" style="display:none;">
	<g style="display:inline;">
		<circle style="fill:#81D2EB;" cx="55" cy="55" r="55"/>
	</g>
	<g style="display:inline;">
		<g>
			<path style="fill:#0C333D;" d="M87,73.728c0,1.606-1.303,2.909-2.909,2.909H25.909c-1.607,0-2.909-1.303-2.909-2.909V33
				c0-1.606,1.303-2.909,2.909-2.909h58.182C85.697,30.091,87,31.394,87,33V73.728z"/>
		</g>
		<g>
			<rect x="46.272" y="76.637" style="fill:#E1F5FA;" width="17.455" height="7.454"/>
		</g>
		<g>
			<path style="fill:#FFFFFF;" d="M69.545,85.546c0,0.803-0.651,1.454-1.455,1.454H41.909c-0.804,0-1.455-0.651-1.455-1.454
				c0-0.804,0.651-1.455,1.455-1.455h26.182C68.895,84.091,69.545,84.742,69.545,85.546z"/>
		</g>
		<g>
			<path style="fill:#FFFFFF;" d="M87,73.728V65H23v8.728c0,1.606,1.303,2.909,2.909,2.909h58.182
				C85.697,76.637,87,75.334,87,73.728z"/>
		</g>
		<g>
			<path style="fill:#BBE7F2;" d="M55,74.909c-2.155,0-3.909-1.754-3.909-3.909c0-2.155,1.754-3.909,3.909-3.909
				s3.909,1.753,3.909,3.909C58.909,73.155,57.155,74.909,55,74.909z M55,69.091c-1.053,0-1.909,0.856-1.909,1.909
				c0,1.053,0.856,1.909,1.909,1.909s1.909-0.856,1.909-1.909C56.909,69.947,56.053,69.091,55,69.091z"/>
		</g>
		<g>
			<path style="fill:#0F6175;" d="M23,33v32h19.724l34.909-34.909H25.909C24.303,30.091,23,31.394,23,33z"/>
		</g>
		<g>
			<path style="fill:#00B7E5;" d="M87,35.93c0-0.319-0.04-0.63-0.11-0.93l-8.792,10.144c-2.189-0.862-4.465,1.002-4.044,3.323
				l-9.106,5.199c-0.942-0.812-2.268-0.996-3.431-0.329l-9.724-8.331C52.565,43.002,51.07,40.93,49,40.93
				c-2.165,0-3.671,2.257-2.699,4.289L34.289,57.231c-1.008-0.483-2.12-0.369-2.985,0.227L23,51.42v2.48l7.135,5.186
				c-0.59,1.999,0.927,3.844,2.865,3.844c2.165,0,3.671-2.256,2.699-4.288l12.013-12.013c0.917,0.44,1.901,0.395,2.775-0.107
				l9.72,8.336c-0.773,2.02,0.739,4.072,2.794,4.072c1.822,0,3.288-1.635,2.946-3.533l9.102-5.205
				c2.534,2.188,6.208-0.825,4.548-3.738L87,37.92V35.93z"/>
		</g>
		<g>
			<polygon style="fill:#00B7E5;" points="70,45 58.455,45 53,40 58.455,35 70,35 			"/>
		</g>
		<g>
			<g>
				<path style="fill:#FFFFFF;" d="M63.695,36.204c0.216,0,0.387,0.171,0.387,0.387v0.198c0.531,0.063,0.981,0.234,1.395,0.495
					c0.145,0.081,0.271,0.216,0.271,0.432c0,0.279-0.225,0.495-0.504,0.495c-0.09,0-0.18-0.027-0.27-0.081
					c-0.315-0.189-0.621-0.324-0.927-0.396v1.729C65.415,39.805,66,40.354,66,41.317c0,0.99-0.774,1.647-1.917,1.756v0.54
					c0,0.216-0.171,0.387-0.387,0.387s-0.396-0.171-0.396-0.387v-0.558c-0.675-0.072-1.296-0.315-1.845-0.702
					c-0.153-0.099-0.243-0.243-0.243-0.432c0-0.279,0.216-0.495,0.495-0.495c0.108,0,0.216,0.036,0.297,0.099
					c0.423,0.306,0.837,0.513,1.332,0.603v-1.774c-1.314-0.342-1.926-0.837-1.926-1.854c0-0.963,0.765-1.629,1.89-1.72v-0.189
					C63.299,36.375,63.479,36.204,63.695,36.204z M63.335,39.273V37.68c-0.576,0.054-0.864,0.36-0.864,0.756
					C62.471,38.815,62.642,39.048,63.335,39.273z M64.046,40.525v1.639c0.576-0.063,0.891-0.351,0.891-0.783
					C64.938,40.984,64.739,40.741,64.046,40.525z"/>
			</g>
		</g>
	</g>
</g>
<g id="Green" style="display:none;">
	<g style="display:inline;">
		<g>
			<path style="fill:#0A3631;" d="M87,73.728c0,1.606-1.303,2.909-2.909,2.909H25.909c-1.607,0-2.909-1.303-2.909-2.909V33
				c0-1.606,1.303-2.909,2.909-2.909h58.182C85.697,30.091,87,31.394,87,33V73.728z"/>
		</g>
		<g>
			<rect x="46.272" y="76.637" style="fill:#D7FCF9;" width="17.455" height="7.454"/>
		</g>
		<g>
			<path style="fill:#FFFFFF;" d="M69.545,85.546c0,0.803-0.651,1.454-1.455,1.454H41.909c-0.804,0-1.455-0.651-1.455-1.454
				c0-0.804,0.651-1.455,1.455-1.455h26.182C68.895,84.091,69.545,84.742,69.545,85.546z"/>
		</g>
		<g>
			<path style="fill:#FFFFFF;" d="M87,73.728V65H23v8.728c0,1.606,1.303,2.909,2.909,2.909h58.182
				C85.697,76.637,87,75.334,87,73.728z"/>
		</g>
		<g>
			<path style="fill:#AAF0E9;" d="M55,74.909c-2.155,0-3.909-1.754-3.909-3.909c0-2.155,1.754-3.909,3.909-3.909
				s3.909,1.753,3.909,3.909C58.909,73.155,57.155,74.909,55,74.909z M55,69.091c-1.053,0-1.909,0.856-1.909,1.909
				c0,1.053,0.856,1.909,1.909,1.909s1.909-0.856,1.909-1.909C56.909,69.947,56.053,69.091,55,69.091z"/>
		</g>
		<g>
			<path style="fill:#14635B;" d="M23,33v32h19.724l34.909-34.909H25.909C24.303,30.091,23,31.394,23,33z"/>
		</g>
		<g>
			<path style="fill:#00D6C1;" d="M87,35.93c0-0.319-0.04-0.63-0.11-0.93l-8.792,10.144c-2.189-0.862-4.465,1.002-4.044,3.323
				l-9.106,5.199c-0.942-0.812-2.268-0.996-3.431-0.329l-9.724-8.331C52.565,43.002,51.07,40.93,49,40.93
				c-2.165,0-3.671,2.257-2.699,4.289L34.289,57.231c-1.008-0.483-2.12-0.369-2.985,0.227L23,51.42v2.48l7.135,5.186
				c-0.59,1.999,0.927,3.844,2.865,3.844c2.165,0,3.671-2.256,2.699-4.288l12.013-12.013c0.917,0.44,1.901,0.395,2.775-0.107
				l9.72,8.336c-0.773,2.02,0.739,4.072,2.794,4.072c1.822,0,3.288-1.635,2.946-3.533l9.102-5.205
				c2.534,2.188,6.208-0.825,4.548-3.738L87,37.92V35.93z"/>
		</g>
		<g>
			<polygon style="fill:#00D6C1;" points="70,45 58.455,45 53,40 58.455,35 70,35 			"/>
		</g>
		<g>
			<g>
				<path style="fill:#FFFFFF;" d="M63.695,36.204c0.216,0,0.387,0.171,0.387,0.387v0.198c0.531,0.063,0.981,0.234,1.395,0.495
					c0.145,0.081,0.271,0.216,0.271,0.432c0,0.279-0.225,0.495-0.504,0.495c-0.09,0-0.18-0.027-0.27-0.081
					c-0.315-0.189-0.621-0.324-0.927-0.396v1.729C65.415,39.805,66,40.354,66,41.317c0,0.99-0.774,1.647-1.917,1.756v0.54
					c0,0.216-0.171,0.387-0.387,0.387s-0.396-0.171-0.396-0.387v-0.558c-0.675-0.072-1.296-0.315-1.845-0.702
					c-0.153-0.099-0.243-0.243-0.243-0.432c0-0.279,0.216-0.495,0.495-0.495c0.108,0,0.216,0.036,0.297,0.099
					c0.423,0.306,0.837,0.513,1.332,0.603v-1.774c-1.314-0.342-1.926-0.837-1.926-1.854c0-0.963,0.765-1.629,1.89-1.72v-0.189
					C63.299,36.375,63.479,36.204,63.695,36.204z M63.335,39.273V37.68c-0.576,0.054-0.864,0.36-0.864,0.756
					C62.471,38.815,62.642,39.048,63.335,39.273z M64.046,40.525v1.639c0.576-0.063,0.891-0.351,0.891-0.783
					C64.938,40.984,64.739,40.741,64.046,40.525z"/>
			</g>
		</g>
	</g>
</g>
<g id="R-Green" style="display:none;">
	<g style="display:inline;">
		<circle style="fill:#87E0C8;" cx="55" cy="55" r="55"/>
	</g>
	<g style="display:inline;">
		<g>
			<path style="fill:#0A3631;" d="M87,73.728c0,1.606-1.303,2.909-2.909,2.909H25.909c-1.607,0-2.909-1.303-2.909-2.909V33
				c0-1.606,1.303-2.909,2.909-2.909h58.182C85.697,30.091,87,31.394,87,33V73.728z"/>
		</g>
		<g>
			<rect x="46.272" y="76.637" style="fill:#D7FCF9;" width="17.455" height="7.454"/>
		</g>
		<g>
			<path style="fill:#FFFFFF;" d="M69.545,85.546c0,0.803-0.651,1.454-1.455,1.454H41.909c-0.804,0-1.455-0.651-1.455-1.454
				c0-0.804,0.651-1.455,1.455-1.455h26.182C68.895,84.091,69.545,84.742,69.545,85.546z"/>
		</g>
		<g>
			<path style="fill:#FFFFFF;" d="M87,73.728V65H23v8.728c0,1.606,1.303,2.909,2.909,2.909h58.182
				C85.697,76.637,87,75.334,87,73.728z"/>
		</g>
		<g>
			<path style="fill:#AAF0E9;" d="M55,74.909c-2.155,0-3.909-1.754-3.909-3.909c0-2.155,1.754-3.909,3.909-3.909
				s3.909,1.753,3.909,3.909C58.909,73.155,57.155,74.909,55,74.909z M55,69.091c-1.053,0-1.909,0.856-1.909,1.909
				c0,1.053,0.856,1.909,1.909,1.909s1.909-0.856,1.909-1.909C56.909,69.947,56.053,69.091,55,69.091z"/>
		</g>
		<g>
			<path style="fill:#14635B;" d="M23,33v32h19.724l34.909-34.909H25.909C24.303,30.091,23,31.394,23,33z"/>
		</g>
		<g>
			<path style="fill:#00D6C1;" d="M87,35.93c0-0.319-0.04-0.63-0.11-0.93l-8.792,10.144c-2.189-0.862-4.465,1.002-4.044,3.323
				l-9.106,5.199c-0.942-0.812-2.267-0.996-3.431-0.329l-9.724-8.331C52.565,43.002,51.07,40.93,49,40.93
				c-2.165,0-3.671,2.257-2.699,4.289L34.289,57.231c-1.008-0.483-2.12-0.369-2.985,0.227L23,51.42v2.48l7.135,5.186
				c-0.59,1.999,0.927,3.844,2.865,3.844c2.165,0,3.671-2.256,2.699-4.288l12.013-12.013c0.917,0.44,1.901,0.395,2.775-0.107
				l9.72,8.336c-0.774,2.02,0.739,4.072,2.794,4.072c1.822,0,3.288-1.635,2.946-3.533l9.103-5.205
				c2.534,2.188,6.208-0.825,4.548-3.738L87,37.92V35.93z"/>
		</g>
		<g>
			<polygon style="fill:#00D6C1;" points="70,45 58.455,45 53,40 58.455,35 70,35 			"/>
		</g>
		<g>
			<g>
				<path style="fill:#FFFFFF;" d="M63.695,36.204c0.216,0,0.387,0.171,0.387,0.387v0.198c0.531,0.063,0.981,0.234,1.395,0.495
					c0.145,0.081,0.271,0.216,0.271,0.432c0,0.279-0.225,0.495-0.504,0.495c-0.09,0-0.18-0.027-0.27-0.081
					c-0.315-0.189-0.621-0.324-0.927-0.396v1.729C65.415,39.805,66,40.354,66,41.317c0,0.99-0.774,1.647-1.918,1.756v0.54
					c0,0.216-0.171,0.387-0.387,0.387c-0.216,0-0.396-0.171-0.396-0.387v-0.558c-0.675-0.072-1.296-0.315-1.845-0.702
					c-0.153-0.099-0.243-0.243-0.243-0.432c0-0.279,0.216-0.495,0.495-0.495c0.108,0,0.216,0.036,0.297,0.099
					c0.423,0.306,0.837,0.513,1.332,0.603v-1.774c-1.314-0.342-1.926-0.837-1.926-1.854c0-0.963,0.765-1.629,1.89-1.72v-0.189
					C63.299,36.375,63.479,36.204,63.695,36.204z M63.335,39.273V37.68c-0.576,0.054-0.864,0.36-0.864,0.756
					C62.471,38.815,62.642,39.048,63.335,39.273z M64.046,40.525v1.639c0.576-0.063,0.891-0.351,0.891-0.783
					C64.938,40.984,64.739,40.741,64.046,40.525z"/>
			</g>
		</g>
	</g>
</g>
<g id="Red">
	<g>
		<g>
			<path style="fill:#4A1410;" d="M87,73.728c0,1.606-1.303,2.909-2.909,2.909H25.909c-1.607,0-2.909-1.303-2.909-2.909V33
				c0-1.606,1.303-2.909,2.909-2.909h58.182C85.697,30.091,87,31.394,87,33V73.728z"/>
		</g>
		<g>
			<rect x="46.272" y="76.637" style="fill:#FFEFED;" width="17.455" height="7.454"/>
		</g>
		<g>
			<path style="fill:#FFFFFF;" d="M69.545,85.546c0,0.803-0.651,1.454-1.455,1.454H41.909c-0.804,0-1.455-0.651-1.455-1.454
				c0-0.804,0.651-1.455,1.455-1.455h26.182C68.895,84.091,69.545,84.742,69.545,85.546z"/>
		</g>
		<g>
			<path style="fill:#FFFFFF;" d="M87,73.728V65H23v8.728c0,1.606,1.303,2.909,2.909,2.909h58.182
				C85.697,76.637,87,75.334,87,73.728z"/>
		</g>
		<g>
			<path style="fill:#FFD7D4;" d="M55,74.909c-2.155,0-3.909-1.754-3.909-3.909c0-2.155,1.754-3.909,3.909-3.909
				s3.909,1.753,3.909,3.909C58.909,73.155,57.155,74.909,55,74.909z M55,69.091c-1.053,0-1.909,0.856-1.909,1.909
				c0,1.053,0.856,1.909,1.909,1.909s1.909-0.856,1.909-1.909C56.909,69.947,56.053,69.091,55,69.091z"/>
		</g>
		<g>
			<path style="fill:#7D261E;" d="M23,33v32h19.724l34.909-34.909H25.909C24.303,30.091,23,31.394,23,33z"/>
		</g>
		<g>
			<path style="fill:#FF6C5E;" d="M87,35.93c0-0.319-0.04-0.63-0.11-0.93l-8.792,10.144c-2.189-0.862-4.465,1.002-4.044,3.323
				l-9.106,5.199c-0.942-0.812-2.267-0.996-3.431-0.329l-9.724-8.331C52.565,43.002,51.07,40.93,49,40.93
				c-2.165,0-3.671,2.257-2.699,4.289L34.289,57.231c-1.008-0.483-2.12-0.369-2.985,0.227L23,51.42v2.48l7.135,5.186
				c-0.59,1.999,0.927,3.844,2.865,3.844c2.165,0,3.671-2.256,2.699-4.288l12.013-12.013c0.917,0.44,1.901,0.395,2.775-0.107
				l9.72,8.336c-0.773,2.02,0.739,4.072,2.794,4.072c1.822,0,3.288-1.635,2.946-3.533l9.103-5.205
				c2.534,2.188,6.208-0.825,4.548-3.738L87,37.92V35.93z"/>
		</g>
		<g>
			<polygon style="fill:#FF6C5E;" points="70,45 58.455,45 53,40 58.455,35 70,35 			"/>
		</g>
		<g>
			<g>
				<path style="fill:#FFFFFF;" d="M63.695,36.204c0.216,0,0.387,0.171,0.387,0.387v0.198c0.531,0.063,0.981,0.234,1.395,0.495
					c0.145,0.081,0.271,0.216,0.271,0.432c0,0.279-0.225,0.495-0.504,0.495c-0.09,0-0.18-0.027-0.27-0.081
					c-0.315-0.189-0.621-0.324-0.927-0.396v1.729C65.415,39.805,66,40.354,66,41.317c0,0.99-0.774,1.647-1.918,1.756v0.54
					c0,0.216-0.171,0.387-0.387,0.387c-0.216,0-0.396-0.171-0.396-0.387v-0.558c-0.675-0.072-1.296-0.315-1.845-0.702
					c-0.153-0.099-0.243-0.243-0.243-0.432c0-0.279,0.216-0.495,0.495-0.495c0.108,0,0.216,0.036,0.297,0.099
					c0.423,0.306,0.837,0.513,1.332,0.603v-1.774c-1.314-0.342-1.926-0.837-1.926-1.854c0-0.963,0.765-1.629,1.89-1.72v-0.189
					C63.299,36.375,63.479,36.204,63.695,36.204z M63.335,39.273V37.68c-0.576,0.054-0.864,0.36-0.864,0.756
					C62.471,38.815,62.642,39.048,63.335,39.273z M64.046,40.525v1.639c0.576-0.063,0.891-0.351,0.891-0.783
					C64.938,40.984,64.739,40.741,64.046,40.525z"/>
			</g>
		</g>
	</g>
</g>
<g id="R-Red" style="display:none;">
	<g style="display:inline;">
		<circle style="fill:#FABBAF;" cx="55" cy="55" r="55"/>
	</g>
	<g style="display:inline;">
		<g>
			<path style="fill:#4A1410;" d="M87,73.728c0,1.606-1.303,2.909-2.909,2.909H25.909c-1.607,0-2.909-1.303-2.909-2.909V33
				c0-1.606,1.303-2.909,2.909-2.909h58.182C85.697,30.091,87,31.394,87,33V73.728z"/>
		</g>
		<g>
			<rect x="46.272" y="76.637" style="fill:#FFEFED;" width="17.455" height="7.454"/>
		</g>
		<g>
			<path style="fill:#FFFFFF;" d="M69.545,85.546c0,0.803-0.651,1.454-1.455,1.454H41.909c-0.804,0-1.455-0.651-1.455-1.454
				c0-0.804,0.651-1.455,1.455-1.455h26.182C68.895,84.091,69.545,84.742,69.545,85.546z"/>
		</g>
		<g>
			<path style="fill:#FFFFFF;" d="M87,73.728V65H23v8.728c0,1.606,1.303,2.909,2.909,2.909h58.182
				C85.697,76.637,87,75.334,87,73.728z"/>
		</g>
		<g>
			<path style="fill:#FFD7D4;" d="M55,74.909c-2.155,0-3.909-1.754-3.909-3.909c0-2.155,1.754-3.909,3.909-3.909
				s3.909,1.753,3.909,3.909C58.909,73.155,57.155,74.909,55,74.909z M55,69.091c-1.053,0-1.909,0.856-1.909,1.909
				c0,1.053,0.856,1.909,1.909,1.909s1.909-0.856,1.909-1.909C56.909,69.947,56.053,69.091,55,69.091z"/>
		</g>
		<g>
			<path style="fill:#7D261E;" d="M23,33v32h19.724l34.909-34.909H25.909C24.303,30.091,23,31.394,23,33z"/>
		</g>
		<g>
			<path style="fill:#FF6C5E;" d="M87,35.93c0-0.319-0.04-0.63-0.11-0.93l-8.792,10.144c-2.189-0.862-4.465,1.002-4.044,3.323
				l-9.106,5.199c-0.942-0.812-2.268-0.996-3.431-0.329l-9.724-8.331C52.565,43.002,51.07,40.93,49,40.93
				c-2.165,0-3.671,2.257-2.699,4.289L34.289,57.231c-1.008-0.483-2.12-0.369-2.985,0.227L23,51.42v2.48l7.135,5.186
				c-0.59,1.999,0.927,3.844,2.865,3.844c2.165,0,3.671-2.256,2.699-4.288l12.013-12.013c0.917,0.44,1.901,0.395,2.775-0.107
				l9.72,8.336c-0.773,2.02,0.739,4.072,2.794,4.072c1.822,0,3.288-1.635,2.946-3.533l9.102-5.205
				c2.534,2.188,6.208-0.825,4.548-3.738L87,37.92V35.93z"/>
		</g>
		<g>
			<polygon style="fill:#FF6C5E;" points="70,45 58.455,45 53,40 58.455,35 70,35 			"/>
		</g>
		<g>
			<g>
				<path style="fill:#FFFFFF;" d="M63.695,36.204c0.216,0,0.387,0.171,0.387,0.387v0.198c0.531,0.063,0.981,0.234,1.395,0.495
					c0.145,0.081,0.271,0.216,0.271,0.432c0,0.279-0.225,0.495-0.504,0.495c-0.09,0-0.18-0.027-0.27-0.081
					c-0.315-0.189-0.621-0.324-0.927-0.396v1.729C65.415,39.805,66,40.354,66,41.317c0,0.99-0.774,1.647-1.917,1.756v0.54
					c0,0.216-0.171,0.387-0.387,0.387s-0.396-0.171-0.396-0.387v-0.558c-0.675-0.072-1.296-0.315-1.845-0.702
					c-0.153-0.099-0.243-0.243-0.243-0.432c0-0.279,0.216-0.495,0.495-0.495c0.108,0,0.216,0.036,0.297,0.099
					c0.423,0.306,0.837,0.513,1.332,0.603v-1.774c-1.314-0.342-1.926-0.837-1.926-1.854c0-0.963,0.765-1.629,1.89-1.72v-0.189
					C63.299,36.375,63.479,36.204,63.695,36.204z M63.335,39.273V37.68c-0.576,0.054-0.864,0.36-0.864,0.756
					C62.471,38.815,62.642,39.048,63.335,39.273z M64.046,40.525v1.639c0.576-0.063,0.891-0.351,0.891-0.783
					C64.938,40.984,64.739,40.741,64.046,40.525z"/>
			</g>
		</g>
	</g>
</g>
<g id="Yellow" style="display:none;">
	<g style="display:inline;">
		<g>
			<path style="fill:#3D320C;" d="M87,73.728c0,1.606-1.303,2.909-2.909,2.909H25.909c-1.607,0-2.909-1.303-2.909-2.909V33
				c0-1.606,1.303-2.909,2.909-2.909h58.182C85.697,30.091,87,31.394,87,33V73.728z"/>
		</g>
		<g>
			<rect x="46.272" y="76.637" style="fill:#FFF5D9;" width="17.455" height="7.454"/>
		</g>
		<g>
			<path style="fill:#FFFFFF;" d="M69.545,85.546c0,0.803-0.651,1.454-1.455,1.454H41.909c-0.804,0-1.455-0.651-1.455-1.454
				c0-0.804,0.651-1.455,1.455-1.455h26.182C68.895,84.091,69.545,84.742,69.545,85.546z"/>
		</g>
		<g>
			<path style="fill:#FFFFFF;" d="M87,73.728V65H23v8.728c0,1.606,1.303,2.909,2.909,2.909h58.182
				C85.697,76.637,87,75.334,87,73.728z"/>
		</g>
		<g>
			<path style="fill:#FFE9A1;" d="M55,74.909c-2.155,0-3.909-1.754-3.909-3.909c0-2.155,1.754-3.909,3.909-3.909
				s3.909,1.753,3.909,3.909C58.909,73.155,57.155,74.909,55,74.909z M55,69.091c-1.053,0-1.909,0.856-1.909,1.909
				c0,1.053,0.856,1.909,1.909,1.909s1.909-0.856,1.909-1.909C56.909,69.947,56.053,69.091,55,69.091z"/>
		</g>
		<g>
			<path style="fill:#66510D;" d="M23,33v32h19.724l34.909-34.909H25.909C24.303,30.091,23,31.394,23,33z"/>
		</g>
		<g>
			<path style="fill:#FFAA00;" d="M87,35.93c0-0.319-0.04-0.63-0.11-0.93l-8.792,10.144c-2.189-0.862-4.465,1.002-4.044,3.323
				l-9.106,5.199c-0.942-0.812-2.268-0.996-3.431-0.329l-9.724-8.331C52.565,43.002,51.07,40.93,49,40.93
				c-2.165,0-3.671,2.257-2.699,4.289L34.289,57.231c-1.008-0.483-2.12-0.369-2.985,0.227L23,51.42v2.48l7.135,5.186
				c-0.59,1.999,0.927,3.844,2.865,3.844c2.165,0,3.671-2.256,2.699-4.288l12.013-12.013c0.917,0.44,1.901,0.395,2.775-0.107
				l9.72,8.336c-0.773,2.02,0.739,4.072,2.794,4.072c1.822,0,3.288-1.635,2.946-3.533l9.102-5.205
				c2.534,2.188,6.208-0.825,4.548-3.738L87,37.92V35.93z"/>
		</g>
		<g>
			<polygon style="fill:#FFAA00;" points="70,45 58.455,45 53,40 58.455,35 70,35 			"/>
		</g>
		<g>
			<g>
				<path style="fill:#FFFFFF;" d="M63.695,36.204c0.216,0,0.387,0.171,0.387,0.387v0.198c0.531,0.063,0.981,0.234,1.395,0.495
					c0.145,0.081,0.271,0.216,0.271,0.432c0,0.279-0.225,0.495-0.504,0.495c-0.09,0-0.18-0.027-0.27-0.081
					c-0.315-0.189-0.621-0.324-0.927-0.396v1.729C65.415,39.805,66,40.354,66,41.317c0,0.99-0.774,1.647-1.917,1.756v0.54
					c0,0.216-0.171,0.387-0.387,0.387s-0.396-0.171-0.396-0.387v-0.558c-0.675-0.072-1.296-0.315-1.845-0.702
					c-0.153-0.099-0.243-0.243-0.243-0.432c0-0.279,0.216-0.495,0.495-0.495c0.108,0,0.216,0.036,0.297,0.099
					c0.423,0.306,0.837,0.513,1.332,0.603v-1.774c-1.314-0.342-1.926-0.837-1.926-1.854c0-0.963,0.765-1.629,1.89-1.72v-0.189
					C63.299,36.375,63.479,36.204,63.695,36.204z M63.335,39.273V37.68c-0.576,0.054-0.864,0.36-0.864,0.756
					C62.471,38.815,62.642,39.048,63.335,39.273z M64.046,40.525v1.639c0.576-0.063,0.891-0.351,0.891-0.783
					C64.938,40.984,64.739,40.741,64.046,40.525z"/>
			</g>
		</g>
	</g>
</g>
<g id="R-Yellow" style="display:none;">
	<g style="display:inline;">
		<circle style="fill:#FFD75E;" cx="55" cy="55" r="55"/>
	</g>
	<g style="display:inline;">
		<g>
			<path style="fill:#3D320C;" d="M87,73.728c0,1.606-1.303,2.909-2.909,2.909H25.909c-1.607,0-2.909-1.303-2.909-2.909V33
				c0-1.606,1.303-2.909,2.909-2.909h58.182C85.697,30.091,87,31.394,87,33V73.728z"/>
		</g>
		<g>
			<rect x="46.272" y="76.637" style="fill:#FFF5D9;" width="17.455" height="7.454"/>
		</g>
		<g>
			<path style="fill:#FFFFFF;" d="M69.545,85.546c0,0.803-0.651,1.454-1.455,1.454H41.909c-0.804,0-1.455-0.651-1.455-1.454
				c0-0.804,0.651-1.455,1.455-1.455h26.182C68.895,84.091,69.545,84.742,69.545,85.546z"/>
		</g>
		<g>
			<path style="fill:#FFFFFF;" d="M87,73.728V65H23v8.728c0,1.606,1.303,2.909,2.909,2.909h58.182
				C85.697,76.637,87,75.334,87,73.728z"/>
		</g>
		<g>
			<path style="fill:#FFE9A1;" d="M55,74.909c-2.155,0-3.909-1.754-3.909-3.909c0-2.155,1.754-3.909,3.909-3.909
				s3.909,1.753,3.909,3.909C58.909,73.155,57.155,74.909,55,74.909z M55,69.091c-1.053,0-1.909,0.856-1.909,1.909
				c0,1.053,0.856,1.909,1.909,1.909s1.909-0.856,1.909-1.909C56.909,69.947,56.053,69.091,55,69.091z"/>
		</g>
		<g>
			<path style="fill:#66510D;" d="M23,33v32h19.724l34.909-34.909H25.909C24.303,30.091,23,31.394,23,33z"/>
		</g>
		<g>
			<path style="fill:#FFAA00;" d="M87,35.93c0-0.319-0.04-0.63-0.11-0.93l-8.792,10.144c-2.189-0.862-4.465,1.002-4.044,3.323
				l-9.106,5.199c-0.942-0.812-2.267-0.996-3.431-0.329l-9.724-8.331C52.565,43.002,51.07,40.93,49,40.93
				c-2.165,0-3.671,2.257-2.699,4.289L34.289,57.231c-1.008-0.483-2.12-0.369-2.985,0.227L23,51.42v2.48l7.135,5.186
				c-0.59,1.999,0.927,3.844,2.865,3.844c2.165,0,3.671-2.256,2.699-4.288l12.013-12.013c0.917,0.44,1.901,0.395,2.775-0.107
				l9.72,8.336c-0.773,2.02,0.739,4.072,2.794,4.072c1.822,0,3.288-1.635,2.946-3.533l9.103-5.205
				c2.534,2.188,6.208-0.825,4.548-3.738L87,37.92V35.93z"/>
		</g>
		<g>
			<polygon style="fill:#FFAA00;" points="70,45 58.455,45 53,40 58.455,35 70,35 			"/>
		</g>
		<g>
			<g>
				<path style="fill:#FFFFFF;" d="M63.695,36.204c0.216,0,0.387,0.171,0.387,0.387v0.198c0.531,0.063,0.981,0.234,1.395,0.495
					c0.145,0.081,0.271,0.216,0.271,0.432c0,0.279-0.225,0.495-0.504,0.495c-0.09,0-0.18-0.027-0.27-0.081
					c-0.315-0.189-0.621-0.324-0.927-0.396v1.729C65.415,39.805,66,40.354,66,41.317c0,0.99-0.774,1.647-1.918,1.756v0.54
					c0,0.216-0.171,0.387-0.387,0.387s-0.396-0.171-0.396-0.387v-0.558c-0.675-0.072-1.296-0.315-1.845-0.702
					c-0.153-0.099-0.243-0.243-0.243-0.432c0-0.279,0.216-0.495,0.495-0.495c0.108,0,0.216,0.036,0.297,0.099
					c0.423,0.306,0.837,0.513,1.332,0.603v-1.774c-1.314-0.342-1.926-0.837-1.926-1.854c0-0.963,0.765-1.629,1.89-1.72v-0.189
					C63.299,36.375,63.479,36.204,63.695,36.204z M63.335,39.273V37.68c-0.576,0.054-0.864,0.36-0.864,0.756
					C62.471,38.815,62.642,39.048,63.335,39.273z M64.046,40.525v1.639c0.576-0.063,0.891-0.351,0.891-0.783
					C64.938,40.984,64.739,40.741,64.046,40.525z"/>
			</g>
		</g>
	</g>
</g>
</svg>
