<?xml version="1.0" encoding="iso-8859-1"?>
<!-- Generator: Adobe Illustrator 17.1.0, SVG Export Plug-In . SVG Version: 6.00 Build 0)  -->
<!DOCTYPE svg PUBLIC "-//W3C//DTD SVG 1.0//EN" "http://www.w3.org/TR/2001/REC-SVG-20010904/DTD/svg10.dtd">
<svg version="1.0" xmlns="http://www.w3.org/2000/svg" xmlns:xlink="http://www.w3.org/1999/xlink" x="0px" y="0px" width="110px"
	 height="110px" viewBox="0 0 110 110" style="enable-background:new 0 0 110 110;" xml:space="preserve">
<g id="Artboard" style="display:none;">
	<rect x="-223" y="-455" style="display:inline;fill:#8C8C8C;" width="1412" height="743"/>
</g>
<g id="R-Multicolor" style="display:none;">
	<circle style="display:inline;fill:#E04F5F;" cx="55" cy="55" r="55"/>
	<g style="display:inline;">
		<circle style="fill:#40C9E7;" cx="55" cy="55" r="28"/>
		<path style="fill:#6FDAF1;" d="M55,27c-15.464,0-28,12.536-28,28c0,7.854,3.237,14.947,8.445,20.032l39.586-39.587
			C69.947,30.237,62.854,27,55,27z"/>
		<circle style="fill:#FA5655;" cx="55" cy="55" r="4"/>
		<path style="fill:#FFFFFF;" d="M55,23c-17.673,0-32,14.327-32,32s14.327,32,32,32c17.673,0,32-14.327,32-32S72.673,23,55,23z
			 M58,82.838V70.97c0-1.64-1.33-2.97-2.97-2.97h-0.06C53.33,68,52,69.33,52,70.97v11.868C38.933,81.446,28.554,71.067,27.162,58
			H39.03c1.64,0,2.97-1.33,2.97-2.97V54.97c0-1.64-1.33-2.97-2.97-2.97H27.162C28.554,38.933,38.933,28.554,52,27.162V39.03
			c0,1.64,1.33,2.97,2.97,2.97h0.06c1.64,0,2.97-1.33,2.97-2.97V27.162C71.067,28.554,81.446,38.933,82.838,52H70.97
			C69.33,52,68,53.33,68,54.97v0.061c0,1.64,1.33,2.97,2.97,2.97h11.868C81.446,71.067,71.067,81.446,58,82.838z"/>
	</g>
</g>
<g id="Multicolor" style="display:none;">
	<g style="display:inline;">
		<circle style="fill:#40C9E7;" cx="55" cy="55" r="28"/>
		<path style="fill:#6FDAF1;" d="M55,27c-15.464,0-28,12.536-28,28c0,7.854,3.237,14.947,8.445,20.032l39.586-39.587
			C69.947,30.237,62.854,27,55,27z"/>
		<circle style="fill:#FA5655;" cx="55" cy="55" r="4"/>
		<path style="fill:#FFFFFF;" d="M55,23c-17.673,0-32,14.327-32,32s14.327,32,32,32c17.673,0,32-14.327,32-32S72.673,23,55,23z
			 M58,82.838V70.97c0-1.64-1.33-2.97-2.97-2.97h-0.06C53.33,68,52,69.33,52,70.97v11.868C38.933,81.446,28.554,71.067,27.162,58
			H39.03c1.64,0,2.97-1.33,2.97-2.97V54.97c0-1.64-1.33-2.97-2.97-2.97H27.162C28.554,38.933,38.933,28.554,52,27.162V39.03
			c0,1.64,1.33,2.97,2.97,2.97h0.06c1.64,0,2.97-1.33,2.97-2.97V27.162C71.067,28.554,81.446,38.933,82.838,52H70.97
			C69.33,52,68,53.33,68,54.97v0.061c0,1.64,1.33,2.97,2.97,2.97h11.868C81.446,71.067,71.067,81.446,58,82.838z"/>
	</g>
</g>
<g id="Blue">
	<g>
		<g>
			<circle style="fill:#009FC7;" cx="55.003" cy="55" r="28"/>
		</g>
		<g>
			<path style="fill:#00B7E5;" d="M55.003,27c-15.464,0-28,12.536-28,28c0,7.854,3.237,14.947,8.445,20.032l39.586-39.587
				C69.95,30.237,62.856,27,55.003,27z"/>
		</g>
		<g>
			<circle style="fill:#FFFFFF;" cx="55.003" cy="55" r="4"/>
		</g>
		<g>
			<path style="fill:#FFFFFF;" d="M55.003,23c-17.673,0-32,14.327-32,32s14.327,32,32,32c17.673,0,32-14.327,32-32
				S72.676,23,55.003,23z M58.003,82.838V70.97c0-1.64-1.33-2.97-2.97-2.97h-0.06c-1.641,0-2.97,1.33-2.97,2.97v11.868
				C38.936,81.446,28.557,71.067,27.165,58h11.868c1.64,0,2.97-1.33,2.97-2.97V54.97c0-1.64-1.33-2.97-2.97-2.97H27.165
				c1.392-13.067,11.771-23.446,24.838-24.838V39.03c0,1.64,1.33,2.97,2.97,2.97h0.06c1.64,0,2.97-1.33,2.97-2.97V27.162
				C71.07,28.554,81.449,38.933,82.841,52H70.973c-1.641,0-2.97,1.33-2.97,2.97v0.061c0,1.64,1.33,2.97,2.97,2.97h11.868
				C81.449,71.067,71.07,81.446,58.003,82.838z"/>
		</g>
	</g>
</g>
<g id="R-Blue" style="display:none;">
	<g style="display:inline;">
		<circle style="fill:#81D2EB;" cx="55" cy="55" r="55"/>
	</g>
	<g style="display:inline;">
		<g>
			<circle style="fill:#009FC7;" cx="55" cy="55" r="28"/>
		</g>
		<g>
			<path style="fill:#00B7E5;" d="M55,27c-15.464,0-28,12.536-28,28c0,7.854,3.237,14.947,8.445,20.032l39.586-39.587
				C69.947,30.237,62.854,27,55,27z"/>
		</g>
		<g>
			<circle style="fill:#FFFFFF;" cx="55" cy="55" r="4"/>
		</g>
		<g>
			<path style="fill:#FFFFFF;" d="M55,23c-17.673,0-32,14.327-32,32s14.327,32,32,32c17.673,0,32-14.327,32-32S72.673,23,55,23z
				 M58,82.838V70.97c0-1.64-1.33-2.97-2.97-2.97h-0.06C53.33,68,52,69.33,52,70.97v11.868C38.933,81.446,28.554,71.067,27.162,58
				H39.03c1.64,0,2.97-1.33,2.97-2.97V54.97c0-1.64-1.33-2.97-2.97-2.97H27.162C28.554,38.933,38.933,28.554,52,27.162V39.03
				c0,1.64,1.33,2.97,2.97,2.97h0.06c1.64,0,2.97-1.33,2.97-2.97V27.162C71.067,28.554,81.446,38.933,82.838,52H70.97
				C69.33,52,68,53.33,68,54.97v0.061c0,1.64,1.33,2.97,2.97,2.97h11.868C81.446,71.067,71.067,81.446,58,82.838z"/>
		</g>
	</g>
</g>
<g id="Green" style="display:none;">
	<g style="display:inline;">
		<g>
			<circle style="fill:#00B8A5;" cx="55.003" cy="55" r="28"/>
		</g>
		<g>
			<path style="fill:#00D6C1;" d="M55.003,27c-15.464,0-28,12.536-28,28c0,7.854,3.237,14.947,8.445,20.032l39.586-39.587
				C69.95,30.237,62.856,27,55.003,27z"/>
		</g>
		<g>
			<circle style="fill:#FFFFFF;" cx="55.003" cy="55" r="4"/>
		</g>
		<g>
			<path style="fill:#FFFFFF;" d="M55.003,23c-17.673,0-32,14.327-32,32s14.327,32,32,32c17.673,0,32-14.327,32-32
				S72.676,23,55.003,23z M58.003,82.838V70.97c0-1.64-1.33-2.97-2.97-2.97h-0.06c-1.641,0-2.97,1.33-2.97,2.97v11.868
				C38.936,81.446,28.557,71.067,27.165,58h11.868c1.64,0,2.97-1.33,2.97-2.97V54.97c0-1.64-1.33-2.97-2.97-2.97H27.165
				c1.392-13.067,11.771-23.446,24.838-24.838V39.03c0,1.64,1.33,2.97,2.97,2.97h0.06c1.64,0,2.97-1.33,2.97-2.97V27.162
				C71.07,28.554,81.449,38.933,82.841,52H70.973c-1.641,0-2.97,1.33-2.97,2.97v0.061c0,1.64,1.33,2.97,2.97,2.97h11.868
				C81.449,71.067,71.07,81.446,58.003,82.838z"/>
		</g>
	</g>
</g>
<g id="R-Green" style="display:none;">
	<g style="display:inline;">
		<circle style="fill:#87E0C8;" cx="55" cy="55" r="55"/>
	</g>
	<g style="display:inline;">
		<g>
			<circle style="fill:#00B8A5;" cx="55" cy="55" r="28"/>
		</g>
		<g>
			<path style="fill:#00D6C1;" d="M55,27c-15.464,0-28,12.536-28,28c0,7.854,3.237,14.947,8.445,20.032l39.586-39.587
				C69.947,30.237,62.854,27,55,27z"/>
		</g>
		<g>
			<circle style="fill:#FFFFFF;" cx="55" cy="55" r="4"/>
		</g>
		<g>
			<path style="fill:#FFFFFF;" d="M55,23c-17.673,0-32,14.327-32,32s14.327,32,32,32c17.673,0,32-14.327,32-32S72.673,23,55,23z
				 M58,82.838V70.97c0-1.64-1.33-2.97-2.97-2.97h-0.06C53.33,68,52,69.33,52,70.97v11.868C38.933,81.446,28.554,71.067,27.162,58
				H39.03c1.64,0,2.97-1.33,2.97-2.97V54.97c0-1.64-1.33-2.97-2.97-2.97H27.162C28.554,38.933,38.933,28.554,52,27.162V39.03
				c0,1.64,1.33,2.97,2.97,2.97h0.06c1.64,0,2.97-1.33,2.97-2.97V27.162C71.067,28.554,81.446,38.933,82.838,52H70.97
				C69.33,52,68,53.33,68,54.97v0.061c0,1.64,1.33,2.97,2.97,2.97h11.868C81.446,71.067,71.067,81.446,58,82.838z"/>
		</g>
	</g>
</g>
<g id="Red" style="display:none;">
	<g style="display:inline;">
		<g>
			<circle style="fill:#E54B44;" cx="55" cy="55" r="28"/>
		</g>
		<g>
			<path style="fill:#FF6C5E;" d="M55,27c-15.464,0-28,12.536-28,28c0,7.854,3.237,14.947,8.445,20.032l39.586-39.587
				C69.947,30.237,62.854,27,55,27z"/>
		</g>
		<g>
			<circle style="fill:#FFFFFF;" cx="55" cy="55" r="4"/>
		</g>
		<g>
			<path style="fill:#FFFFFF;" d="M55,23c-17.673,0-32,14.327-32,32s14.327,32,32,32c17.673,0,32-14.327,32-32S72.673,23,55,23z
				 M58,82.838V70.97c0-1.64-1.33-2.97-2.97-2.97h-0.06C53.33,68,52,69.329,52,70.97v11.868C38.933,81.446,28.554,71.067,27.162,58
				H39.03c1.64,0,2.97-1.33,2.97-2.97V54.97c0-1.64-1.33-2.97-2.97-2.97H27.162C28.554,38.933,38.933,28.554,52,27.162V39.03
				c0,1.64,1.33,2.97,2.97,2.97h0.06c1.64,0,2.97-1.33,2.97-2.97V27.162C71.067,28.554,81.446,38.933,82.838,52H70.97
				C69.33,52,68,53.329,68,54.97v0.061c0,1.64,1.33,2.97,2.97,2.97h11.868C81.446,71.067,71.067,81.446,58,82.838z"/>
		</g>
	</g>
</g>
<g id="R-Red" style="display:none;">
	<g style="display:inline;">
		<circle style="fill:#FABBAF;" cx="55" cy="55" r="55"/>
	</g>
	<g style="display:inline;">
		<g>
			<circle style="fill:#E54B44;" cx="55" cy="55" r="28"/>
		</g>
		<g>
			<path style="fill:#FF6C5E;" d="M55,27c-15.464,0-28,12.536-28,28c0,7.854,3.237,14.947,8.445,20.032l39.586-39.587
				C69.947,30.237,62.854,27,55,27z"/>
		</g>
		<g>
			<circle style="fill:#FFFFFF;" cx="55" cy="55" r="4"/>
		</g>
		<g>
			<path style="fill:#FFFFFF;" d="M55,23c-17.673,0-32,14.327-32,32s14.327,32,32,32c17.673,0,32-14.327,32-32S72.673,23,55,23z
				 M58,82.838V70.97c0-1.64-1.33-2.97-2.97-2.97h-0.06C53.33,68,52,69.33,52,70.97v11.868C38.933,81.446,28.554,71.067,27.162,58
				H39.03c1.64,0,2.97-1.33,2.97-2.97V54.97c0-1.64-1.33-2.97-2.97-2.97H27.162C28.554,38.933,38.933,28.554,52,27.162V39.03
				c0,1.64,1.33,2.97,2.97,2.97h0.06c1.64,0,2.97-1.33,2.97-2.97V27.162C71.067,28.554,81.446,38.933,82.838,52H70.97
				C69.33,52,68,53.33,68,54.97v0.061c0,1.64,1.33,2.97,2.97,2.97h11.868C81.446,71.067,71.067,81.446,58,82.838z"/>
		</g>
	</g>
</g>
<g id="Yellow" style="display:none;">
	<g style="display:inline;">
		<g>
			<circle style="fill:#FA9200;" cx="55.003" cy="55" r="28"/>
		</g>
		<g>
			<path style="fill:#FFAA00;" d="M55.003,27c-15.464,0-28,12.536-28,28c0,7.854,3.237,14.947,8.445,20.032l39.586-39.587
				C69.95,30.237,62.856,27,55.003,27z"/>
		</g>
		<g>
			<circle style="fill:#FFFFFF;" cx="55.003" cy="55" r="4"/>
		</g>
		<g>
			<path style="fill:#FFFFFF;" d="M55.003,23c-17.673,0-32,14.327-32,32s14.327,32,32,32c17.673,0,32-14.327,32-32
				S72.676,23,55.003,23z M58.003,82.838V70.97c0-1.64-1.33-2.97-2.97-2.97h-0.06c-1.641,0-2.97,1.33-2.97,2.97v11.868
				C38.936,81.446,28.557,71.067,27.165,58h11.868c1.64,0,2.97-1.33,2.97-2.97V54.97c0-1.64-1.33-2.97-2.97-2.97H27.165
				c1.392-13.067,11.771-23.446,24.838-24.838V39.03c0,1.64,1.33,2.97,2.97,2.97h0.06c1.64,0,2.97-1.33,2.97-2.97V27.162
				C71.07,28.554,81.449,38.933,82.841,52H70.973c-1.641,0-2.97,1.33-2.97,2.97v0.061c0,1.64,1.33,2.97,2.97,2.97h11.868
				C81.449,71.067,71.07,81.446,58.003,82.838z"/>
		</g>
	</g>
</g>
<g id="R-Yellow" style="display:none;">
	<g style="display:inline;">
		<circle style="fill:#FFD75E;" cx="55" cy="55" r="55"/>
	</g>
	<g style="display:inline;">
		<g>
			<circle style="fill:#FA9200;" cx="55" cy="55" r="28"/>
		</g>
		<g>
			<path style="fill:#FFAA00;" d="M55,27c-15.464,0-28,12.536-28,28c0,7.854,3.237,14.947,8.445,20.032l39.586-39.587
				C69.947,30.237,62.854,27,55,27z"/>
		</g>
		<g>
			<circle style="fill:#FFFFFF;" cx="55" cy="55" r="4"/>
		</g>
		<g>
			<path style="fill:#FFFFFF;" d="M55,23c-17.673,0-32,14.327-32,32s14.327,32,32,32c17.673,0,32-14.327,32-32S72.673,23,55,23z
				 M58,82.838V70.97c0-1.64-1.33-2.97-2.97-2.97h-0.06C53.33,68,52,69.33,52,70.97v11.868C38.933,81.446,28.554,71.067,27.162,58
				H39.03c1.64,0,2.97-1.33,2.97-2.97V54.97c0-1.64-1.33-2.97-2.97-2.97H27.162C28.554,38.933,38.933,28.554,52,27.162V39.03
				c0,1.64,1.33,2.97,2.97,2.97h0.06c1.64,0,2.97-1.33,2.97-2.97V27.162C71.067,28.554,81.446,38.933,82.838,52H70.97
				C69.33,52,68,53.33,68,54.97v0.061c0,1.64,1.33,2.97,2.97,2.97h11.868C81.446,71.067,71.067,81.446,58,82.838z"/>
		</g>
	</g>
</g>
</svg>
