<?xml version="1.0" encoding="iso-8859-1"?>
<!-- Generator: Adobe Illustrator 17.1.0, SVG Export Plug-In . SVG Version: 6.00 Build 0)  -->
<!DOCTYPE svg PUBLIC "-//W3C//DTD SVG 1.0//EN" "http://www.w3.org/TR/2001/REC-SVG-20010904/DTD/svg10.dtd">
<svg version="1.0" xmlns="http://www.w3.org/2000/svg" xmlns:xlink="http://www.w3.org/1999/xlink" x="0px" y="0px" width="110px"
	 height="110px" viewBox="0 0 110 110" style="enable-background:new 0 0 110 110;" xml:space="preserve">
<g id="Artboard" style="display:none;">
	<rect x="-314" y="-45" style="display:inline;fill:#808080;" width="1347" height="333"/>
</g>
<g id="R-Multicolor" style="display:none;">
	<circle style="display:inline;fill:#FABC3D;" cx="55" cy="55" r="55"/>
	<g style="display:inline;">
		<path style="fill:#FFFFFF;" d="M72,52h-8.765c-0.094-0.171-0.203-0.334-0.347-0.479l-5.408-5.408
			c-0.145-0.144-0.308-0.254-0.479-0.347V37h-2v8.765c-0.171,0.094-0.334,0.203-0.479,0.347l-5.408,5.408
			c-0.144,0.145-0.254,0.308-0.347,0.479H40c-2.757,0-5,2.243-5,5v13h2V57c0-1.654,1.346-3,3-3h8.765
			c0.093,0.171,0.203,0.334,0.347,0.479l5.408,5.408c0.817,0.817,2.141,0.817,2.958,0l5.408-5.408
			c0.144-0.145,0.254-0.308,0.347-0.479H72c1.654,0,3,1.346,3,3v13h2V57C77,54.243,74.757,52,72,52z"/>
		<path style="fill:#0D9681;" d="M72,35c0,2.209-1.791,4-4,4H44c-2.209,0-4-1.791-4-4v-8c0-2.209,1.791-4,4-4h24
			c2.209,0,4,1.791,4,4V35z"/>
		<path style="fill:#0484AB;" d="M23,71c0-2.209,1.791-4,4-4h16c2.209,0,4,1.791,4,4v12c0,2.209-1.791,4-4,4H27
			c-2.209,0-4-1.791-4-4V71z"/>
		<circle style="fill:#DF2C2C;" cx="76" cy="77" r="10"/>
		<path style="fill:#17B198;" d="M56,23H44c-2.209,0-4,1.791-4,4v8c0,2.209,1.791,4,4,4h12V23z"/>
		<path style="fill:#FA5655;" d="M66,77c0,5.523,4.477,10,10,10V67C70.477,67,66,71.477,66,77z"/>
		<path style="fill:#059BBF;" d="M35,67h-8c-2.209,0-4,1.791-4,4v12c0,2.209,1.791,4,4,4h8V67z"/>
	</g>
</g>
<g id="Multicolor_1_">
	<g>
		<path style="fill:#FFFFFF;" d="M72,52h-8.765c-0.094-0.171-0.203-0.334-0.347-0.479l-5.408-5.408
			c-0.145-0.144-0.308-0.254-0.479-0.347V37h-2v8.765c-0.171,0.094-0.334,0.203-0.479,0.347l-5.408,5.408
			c-0.144,0.145-0.254,0.308-0.347,0.479H40c-2.757,0-5,2.243-5,5v13h2V57c0-1.654,1.346-3,3-3h8.765
			c0.093,0.171,0.203,0.334,0.347,0.479l5.408,5.408c0.817,0.817,2.141,0.817,2.958,0l5.408-5.408
			c0.144-0.145,0.254-0.308,0.347-0.479H72c1.654,0,3,1.346,3,3v13h2V57C77,54.243,74.757,52,72,52z"/>
		<path style="fill:#0D9681;" d="M72,35c0,2.209-1.791,4-4,4H44c-2.209,0-4-1.791-4-4v-8c0-2.209,1.791-4,4-4h24
			c2.209,0,4,1.791,4,4V35z"/>
		<path style="fill:#0484AB;" d="M23,71c0-2.209,1.791-4,4-4h16c2.209,0,4,1.791,4,4v12c0,2.209-1.791,4-4,4H27
			c-2.209,0-4-1.791-4-4V71z"/>
		<circle style="fill:#DF2C2C;" cx="76" cy="77" r="10"/>
		<path style="fill:#17B198;" d="M56,23H44c-2.209,0-4,1.791-4,4v8c0,2.209,1.791,4,4,4h12V23z"/>
		<path style="fill:#FA5655;" d="M66,77c0,5.523,4.477,10,10,10V67C70.477,67,66,71.477,66,77z"/>
		<path style="fill:#059BBF;" d="M35,67h-8c-2.209,0-4,1.791-4,4v12c0,2.209,1.791,4,4,4h8V67z"/>
	</g>
</g>
<g id="Blue" style="display:none;">
	<g style="display:inline;">
		<g>
			<path style="fill:#FFFFFF;" d="M72,52h-8.765c-0.093-0.171-0.203-0.334-0.347-0.479l-5.409-5.408
				c-0.145-0.144-0.308-0.254-0.479-0.347V37h-2v8.765c-0.171,0.093-0.334,0.203-0.479,0.347l-5.409,5.408
				c-0.144,0.145-0.254,0.309-0.347,0.479H40c-2.757,0-5,2.243-5,5v13h2V57c0-1.654,1.346-3,3-3h8.765
				c0.093,0.171,0.203,0.334,0.347,0.479l5.409,5.409c0.817,0.816,2.141,0.816,2.958,0l5.409-5.409
				c0.144-0.144,0.254-0.308,0.347-0.479H72c1.654,0,3,1.346,3,3v13h2V57C77,54.243,74.757,52,72,52z"/>
		</g>
		<g>
			<path style="fill:#BBE7F2;" d="M72,35c0,2.209-1.791,4-4,4H44c-2.209,0-4-1.791-4-4v-8c0-2.209,1.791-4,4-4h24
				c2.209,0,4,1.791,4,4V35z"/>
		</g>
		<g>
			<path style="fill:#0C333D;" d="M23,71c0-2.209,1.791-4,4-4h16c2.209,0,4,1.791,4,4v12c0,2.209-1.791,4-4,4H27
				c-2.209,0-4-1.791-4-4V71z"/>
		</g>
		<g>
			<circle style="fill:#0081A1;" cx="76" cy="77" r="10"/>
		</g>
		<g>
			<path style="fill:#E1F5FA;" d="M56,23H44c-2.209,0-4,1.791-4,4v8c0,2.209,1.791,4,4,4h12V23z"/>
		</g>
		<g>
			<path style="fill:#009FC7;" d="M66,77c0,5.523,4.477,10,10,10V67C70.477,67,66,71.478,66,77z"/>
		</g>
		<g>
			<path style="fill:#33899E;" d="M35,67h-8c-2.209,0-4,1.791-4,4v12c0,2.209,1.791,4,4,4h8V67z"/>
		</g>
	</g>
</g>
<g id="R-Blue" style="display:none;">
	<g style="display:inline;">
		<circle style="fill:#81D2EB;" cx="55" cy="55" r="55"/>
	</g>
	<g style="display:inline;">
		<g>
			<path style="fill:#FFFFFF;" d="M72,52h-8.765c-0.093-0.171-0.203-0.334-0.347-0.479l-5.409-5.408
				c-0.145-0.144-0.308-0.254-0.479-0.347V37h-2v8.765c-0.171,0.093-0.334,0.203-0.479,0.347l-5.409,5.408
				c-0.144,0.145-0.254,0.309-0.347,0.479H40c-2.757,0-5,2.243-5,5v13h2V57c0-1.654,1.346-3,3-3h8.765
				c0.093,0.171,0.203,0.334,0.347,0.479l5.409,5.409c0.817,0.816,2.141,0.816,2.958,0l5.409-5.409
				c0.144-0.144,0.254-0.308,0.347-0.479H72c1.654,0,3,1.346,3,3v13h2V57C77,54.243,74.757,52,72,52z"/>
		</g>
		<g>
			<path style="fill:#BBE7F2;" d="M72,35c0,2.209-1.791,4-4,4H44c-2.209,0-4-1.791-4-4v-8c0-2.209,1.791-4,4-4h24
				c2.209,0,4,1.791,4,4V35z"/>
		</g>
		<g>
			<path style="fill:#0C333D;" d="M23,71c0-2.209,1.791-4,4-4h16c2.209,0,4,1.791,4,4v12c0,2.209-1.791,4-4,4H27
				c-2.209,0-4-1.791-4-4V71z"/>
		</g>
		<g>
			<circle style="fill:#0081A1;" cx="76" cy="77" r="10"/>
		</g>
		<g>
			<path style="fill:#E1F5FA;" d="M56,23H44c-2.209,0-4,1.791-4,4v8c0,2.209,1.791,4,4,4h12V23z"/>
		</g>
		<g>
			<path style="fill:#009FC7;" d="M66,77c0,5.523,4.477,10,10,10V67C70.477,67,66,71.478,66,77z"/>
		</g>
		<g>
			<path style="fill:#33899E;" d="M35,67h-8c-2.209,0-4,1.791-4,4v12c0,2.209,1.791,4,4,4h8V67z"/>
		</g>
	</g>
</g>
<g id="Green" style="display:none;">
	<g style="display:inline;">
		<g>
			<path style="fill:#FFFFFF;" d="M72,52h-8.765c-0.093-0.171-0.203-0.334-0.347-0.479l-5.409-5.408
				c-0.145-0.144-0.308-0.254-0.479-0.347V37h-2v8.765c-0.171,0.093-0.334,0.203-0.479,0.347l-5.409,5.408
				c-0.144,0.145-0.254,0.309-0.347,0.479H40c-2.757,0-5,2.243-5,5v13h2V57c0-1.654,1.346-3,3-3h8.765
				c0.093,0.171,0.203,0.334,0.347,0.479l5.409,5.409c0.817,0.816,2.141,0.816,2.958,0l5.409-5.409
				c0.144-0.144,0.254-0.308,0.347-0.479H72c1.654,0,3,1.346,3,3v13h2V57C77,54.243,74.757,52,72,52z"/>
		</g>
		<g>
			<path style="fill:#AAF0E9;" d="M72,35c0,2.209-1.791,4-4,4H44c-2.209,0-4-1.791-4-4v-8c0-2.209,1.791-4,4-4h24
				c2.209,0,4,1.791,4,4V35z"/>
		</g>
		<g>
			<path style="fill:#0A3631;" d="M23,71c0-2.209,1.791-4,4-4h16c2.209,0,4,1.791,4,4v12c0,2.209-1.791,4-4,4H27
				c-2.209,0-4-1.791-4-4V71z"/>
		</g>
		<g>
			<circle style="fill:#009687;" cx="76" cy="77" r="10"/>
		</g>
		<g>
			<path style="fill:#D7FCF9;" d="M56,23H44c-2.209,0-4,1.791-4,4v8c0,2.209,1.791,4,4,4h12V23z"/>
		</g>
		<g>
			<path style="fill:#00B8A5;" d="M66,77c0,5.523,4.477,10,10,10V67C70.477,67,66,71.478,66,77z"/>
		</g>
		<g>
			<path style="fill:#3E948B;" d="M35,67h-8c-2.209,0-4,1.791-4,4v12c0,2.209,1.791,4,4,4h8V67z"/>
		</g>
	</g>
</g>
<g id="R-Green" style="display:none;">
	<g style="display:inline;">
		<circle style="fill:#87E0C8;" cx="55" cy="55" r="55"/>
	</g>
	<g style="display:inline;">
		<g>
			<path style="fill:#FFFFFF;" d="M72,52h-8.765c-0.093-0.171-0.203-0.334-0.347-0.479l-5.409-5.408
				c-0.145-0.144-0.308-0.254-0.479-0.347V37h-2v8.765c-0.171,0.093-0.334,0.203-0.479,0.347l-5.409,5.408
				c-0.144,0.145-0.254,0.309-0.347,0.479H40c-2.757,0-5,2.243-5,5v13h2V57c0-1.654,1.346-3,3-3h8.765
				c0.093,0.171,0.203,0.334,0.347,0.479l5.409,5.409c0.817,0.816,2.141,0.816,2.958,0l5.409-5.409
				c0.144-0.144,0.254-0.308,0.347-0.479H72c1.654,0,3,1.346,3,3v13h2V57C77,54.243,74.757,52,72,52z"/>
		</g>
		<g>
			<path style="fill:#AAF0E9;" d="M72,35c0,2.209-1.791,4-4,4H44c-2.209,0-4-1.791-4-4v-8c0-2.209,1.791-4,4-4h24
				c2.209,0,4,1.791,4,4V35z"/>
		</g>
		<g>
			<path style="fill:#0A3631;" d="M23,71c0-2.209,1.791-4,4-4h16c2.209,0,4,1.791,4,4v12c0,2.209-1.791,4-4,4H27
				c-2.209,0-4-1.791-4-4V71z"/>
		</g>
		<g>
			<circle style="fill:#009687;" cx="76" cy="77" r="10"/>
		</g>
		<g>
			<path style="fill:#D7FCF9;" d="M56,23H44c-2.209,0-4,1.791-4,4v8c0,2.209,1.791,4,4,4h12V23z"/>
		</g>
		<g>
			<path style="fill:#00B8A5;" d="M66,77c0,5.523,4.477,10,10,10V67C70.477,67,66,71.478,66,77z"/>
		</g>
		<g>
			<path style="fill:#3E948B;" d="M35,67h-8c-2.209,0-4,1.791-4,4v12c0,2.209,1.791,4,4,4h8V67z"/>
		</g>
	</g>
</g>
<g id="Red" style="display:none;">
	<g style="display:inline;">
		<g>
			<path style="fill:#FFFFFF;" d="M72,52h-8.765c-0.093-0.171-0.203-0.334-0.347-0.479l-5.409-5.408
				c-0.145-0.144-0.308-0.254-0.479-0.347V37h-2v8.765c-0.171,0.093-0.334,0.203-0.479,0.347l-5.409,5.408
				c-0.144,0.145-0.254,0.309-0.347,0.479H40c-2.757,0-5,2.243-5,5v13h2V57c0-1.654,1.346-3,3-3h8.765
				c0.093,0.171,0.203,0.334,0.347,0.479l5.409,5.409c0.817,0.816,2.141,0.816,2.958,0l5.409-5.409
				c0.144-0.144,0.254-0.308,0.347-0.479H72c1.654,0,3,1.346,3,3v13h2V57C77,54.243,74.757,52,72,52z"/>
		</g>
		<g>
			<path style="fill:#FFD7D4;" d="M72,35c0,2.209-1.791,4-4,4H44c-2.209,0-4-1.791-4-4v-8c0-2.209,1.791-4,4-4h24
				c2.209,0,4,1.791,4,4V35z"/>
		</g>
		<g>
			<path style="fill:#4A1410;" d="M23,71c0-2.209,1.791-4,4-4h16c2.209,0,4,1.791,4,4v12c0,2.209-1.791,4-4,4H27
				c-2.209,0-4-1.791-4-4V71z"/>
		</g>
		<g>
			<circle style="fill:#C23023;" cx="76" cy="77" r="10"/>
		</g>
		<g>
			<path style="fill:#FFEFED;" d="M56,23H44c-2.209,0-4,1.791-4,4v8c0,2.209,1.791,4,4,4h12V23z"/>
		</g>
		<g>
			<path style="fill:#E54B44;" d="M66,77c0,5.523,4.477,10,10,10V67C70.477,67,66,71.478,66,77z"/>
		</g>
		<g>
			<path style="fill:#B84E44;" d="M35,67h-8c-2.209,0-4,1.791-4,4v12c0,2.209,1.791,4,4,4h8V67z"/>
		</g>
	</g>
</g>
<g id="R-Red" style="display:none;">
	<g style="display:inline;">
		<circle style="fill:#FABBAF;" cx="55" cy="55" r="55"/>
	</g>
	<g style="display:inline;">
		<g>
			<path style="fill:#FFFFFF;" d="M72,52h-8.765c-0.093-0.171-0.203-0.334-0.347-0.479l-5.409-5.408
				c-0.145-0.144-0.308-0.254-0.479-0.347V37h-2v8.765c-0.171,0.093-0.334,0.203-0.479,0.347l-5.409,5.408
				c-0.144,0.145-0.254,0.309-0.347,0.479H40c-2.757,0-5,2.243-5,5v13h2V57c0-1.654,1.346-3,3-3h8.765
				c0.093,0.171,0.203,0.334,0.347,0.479l5.409,5.409c0.817,0.816,2.141,0.816,2.958,0l5.409-5.409
				c0.144-0.144,0.254-0.308,0.347-0.479H72c1.654,0,3,1.346,3,3v13h2V57C77,54.243,74.757,52,72,52z"/>
		</g>
		<g>
			<path style="fill:#FFD7D4;" d="M72,35c0,2.209-1.791,4-4,4H44c-2.209,0-4-1.791-4-4v-8c0-2.209,1.791-4,4-4h24
				c2.209,0,4,1.791,4,4V35z"/>
		</g>
		<g>
			<path style="fill:#4A1410;" d="M23,71c0-2.209,1.791-4,4-4h16c2.209,0,4,1.791,4,4v12c0,2.209-1.791,4-4,4H27
				c-2.209,0-4-1.791-4-4V71z"/>
		</g>
		<g>
			<circle style="fill:#C23023;" cx="76" cy="77" r="10"/>
		</g>
		<g>
			<path style="fill:#FFEFED;" d="M56,23H44c-2.209,0-4,1.791-4,4v8c0,2.209,1.791,4,4,4h12V23z"/>
		</g>
		<g>
			<path style="fill:#E54B44;" d="M66,77c0,5.523,4.477,10,10,10V67C70.477,67,66,71.478,66,77z"/>
		</g>
		<g>
			<path style="fill:#B84E44;" d="M35,67h-8c-2.209,0-4,1.791-4,4v12c0,2.209,1.791,4,4,4h8V67z"/>
		</g>
	</g>
</g>
<g id="Yellow" style="display:none;">
	<g style="display:inline;">
		<g>
			<path style="fill:#FFFFFF;" d="M72,52h-8.765c-0.093-0.171-0.203-0.334-0.347-0.479l-5.409-5.408
				c-0.145-0.144-0.308-0.254-0.479-0.347V37h-2v8.765c-0.171,0.093-0.334,0.203-0.479,0.347l-5.409,5.408
				c-0.144,0.145-0.254,0.309-0.347,0.479H40c-2.757,0-5,2.243-5,5v13h2V57c0-1.654,1.346-3,3-3h8.765
				c0.093,0.171,0.203,0.334,0.347,0.479l5.409,5.409c0.817,0.816,2.141,0.816,2.958,0l5.409-5.409
				c0.144-0.144,0.254-0.308,0.347-0.479H72c1.654,0,3,1.346,3,3v13h2V57C77,54.243,74.757,52,72,52z"/>
		</g>
		<g>
			<path style="fill:#FFE9A1;" d="M72,35c0,2.209-1.791,4-4,4H44c-2.209,0-4-1.791-4-4v-8c0-2.209,1.791-4,4-4h24
				c2.209,0,4,1.791,4,4V35z"/>
		</g>
		<g>
			<path style="fill:#3D320C;" d="M23,71c0-2.209,1.791-4,4-4h16c2.209,0,4,1.791,4,4v12c0,2.209-1.791,4-4,4H27
				c-2.209,0-4-1.791-4-4V71z"/>
		</g>
		<g>
			<circle style="fill:#E07000;" cx="76" cy="77" r="10"/>
		</g>
		<g>
			<path style="fill:#FFF5D9;" d="M56,23H44c-2.209,0-4,1.791-4,4v8c0,2.209,1.791,4,4,4h12V23z"/>
		</g>
		<g>
			<path style="fill:#FA9200;" d="M66,77c0,5.523,4.477,10,10,10V67C70.477,67,66,71.478,66,77z"/>
		</g>
		<g>
			<path style="fill:#947615;" d="M35,67h-8c-2.209,0-4,1.791-4,4v12c0,2.209,1.791,4,4,4h8V67z"/>
		</g>
	</g>
</g>
<g id="R-Yellow" style="display:none;">
	<g style="display:inline;">
		<circle style="fill:#FFD75E;" cx="55" cy="55" r="55"/>
	</g>
	<g style="display:inline;">
		<g>
			<path style="fill:#FFFFFF;" d="M72,52h-8.765c-0.093-0.171-0.203-0.334-0.347-0.479l-5.409-5.408
				c-0.145-0.144-0.308-0.254-0.479-0.347V37h-2v8.765c-0.171,0.093-0.334,0.203-0.479,0.347l-5.409,5.408
				c-0.144,0.145-0.254,0.309-0.347,0.479H40c-2.757,0-5,2.243-5,5v13h2V57c0-1.654,1.346-3,3-3h8.765
				c0.093,0.171,0.203,0.334,0.347,0.479l5.409,5.409c0.817,0.816,2.141,0.816,2.958,0l5.409-5.409
				c0.144-0.144,0.254-0.308,0.347-0.479H72c1.654,0,3,1.346,3,3v13h2V57C77,54.243,74.757,52,72,52z"/>
		</g>
		<g>
			<path style="fill:#FFE9A1;" d="M72,35c0,2.209-1.791,4-4,4H44c-2.209,0-4-1.791-4-4v-8c0-2.209,1.791-4,4-4h24
				c2.209,0,4,1.791,4,4V35z"/>
		</g>
		<g>
			<path style="fill:#3D320C;" d="M23,71c0-2.209,1.791-4,4-4h16c2.209,0,4,1.791,4,4v12c0,2.209-1.791,4-4,4H27
				c-2.209,0-4-1.791-4-4V71z"/>
		</g>
		<g>
			<circle style="fill:#E07000;" cx="76" cy="77" r="10"/>
		</g>
		<g>
			<path style="fill:#FFF5D9;" d="M56,23H44c-2.209,0-4,1.791-4,4v8c0,2.209,1.791,4,4,4h12V23z"/>
		</g>
		<g>
			<path style="fill:#FA9200;" d="M66,77c0,5.523,4.477,10,10,10V67C70.477,67,66,71.478,66,77z"/>
		</g>
		<g>
			<path style="fill:#947615;" d="M35,67h-8c-2.209,0-4,1.791-4,4v12c0,2.209,1.791,4,4,4h8V67z"/>
		</g>
	</g>
</g>
</svg>
