<?xml version="1.0" encoding="iso-8859-1"?>
<!-- Generator: Adobe Illustrator 17.1.0, SVG Export Plug-In . SVG Version: 6.00 Build 0)  -->
<!DOCTYPE svg PUBLIC "-//W3C//DTD SVG 1.0//EN" "http://www.w3.org/TR/2001/REC-SVG-20010904/DTD/svg10.dtd">
<svg version="1.0" xmlns="http://www.w3.org/2000/svg" xmlns:xlink="http://www.w3.org/1999/xlink" x="0px" y="0px" width="110px"
	 height="110px" viewBox="0 0 110 110" style="enable-background:new 0 0 110 110;" xml:space="preserve">
<g id="Artboard" style="display:none;">
	<rect x="-203.5" y="-42.5" style="display:inline;fill:#808080;stroke:#000000;stroke-miterlimit:10;" width="1371" height="326"/>
</g>
<g id="R-Multicolor" style="display:none;">
	<circle style="display:inline;fill:#32BEA6;" cx="55" cy="55" r="55"/>
	<g style="display:inline;">
		<path style="fill:#0D9681;" d="M43,83h-8v-6c0-1.105,0.895-2,2-2h4c1.105,0,2,0.895,2,2V83z"/>
		<path style="fill:#0D9681;" d="M55,83h-8V69c0-1.105,0.895-2,2-2h4c1.105,0,2,0.895,2,2V83z"/>
		<path style="fill:#0D9681;" d="M67,83h-8V61c0-1.105,0.895-2,2-2h4c1.105,0,2,0.895,2,2V83z"/>
		<path style="fill:#0D9681;" d="M79,83h-8V53c0-1.105,0.895-2,2-2h4c1.105,0,2,0.895,2,2V83z"/>
		<path style="fill:#F0F1F1;" d="M85,83H27V25c0-1.104-0.896-2-2-2s-2,0.896-2,2v62h62c1.104,0,2-0.896,2-2S86.104,83,85,83z"/>
		<polygon style="fill:#FBE158;" points="67.522,44.165 69.728,26.763 52.326,28.969 57.265,33.908 36,58.529 37.471,60 
			62.365,39.008 		"/>
	</g>
</g>
<g id="Multicolor" style="display:none;">
	<g style="display:inline;">
		<path style="fill:#0D9681;" d="M43,83h-8v-6c0-1.105,0.895-2,2-2h4c1.105,0,2,0.895,2,2V83z"/>
		<path style="fill:#0D9681;" d="M55,83h-8V69c0-1.105,0.895-2,2-2h4c1.105,0,2,0.895,2,2V83z"/>
		<path style="fill:#0D9681;" d="M67,83h-8V61c0-1.105,0.895-2,2-2h4c1.105,0,2,0.895,2,2V83z"/>
		<path style="fill:#0D9681;" d="M79,83h-8V53c0-1.105,0.895-2,2-2h4c1.105,0,2,0.895,2,2V83z"/>
		<path style="fill:#F0F1F1;" d="M85,83H27V25c0-1.104-0.896-2-2-2s-2,0.896-2,2v62h62c1.104,0,2-0.896,2-2S86.104,83,85,83z"/>
		<polygon style="fill:#FBE158;" points="67.522,44.165 69.728,26.763 52.326,28.969 57.265,33.908 36,58.529 37.471,60 
			62.365,39.008 		"/>
	</g>
</g>
<g id="Blue" style="display:none;">
	<g style="display:inline;">
		<g>
			<path style="fill:#E1F5FA;" d="M43,83h-8v-6c0-1.104,0.896-2,2-2h4c1.104,0,2,0.896,2,2V83z"/>
		</g>
		<g>
			<path style="fill:#E1F5FA;" d="M55,83h-8V69c0-1.104,0.896-2,2-2h4c1.104,0,2,0.896,2,2V83z"/>
		</g>
		<g>
			<path style="fill:#E1F5FA;" d="M67,83h-8V61c0-1.104,0.896-2,2-2h4c1.104,0,2,0.896,2,2V83z"/>
		</g>
		<g>
			<path style="fill:#E1F5FA;" d="M79,83h-8V53c0-1.104,0.896-2,2-2h4c1.104,0,2,0.896,2,2V83z"/>
		</g>
		<g>
			<path style="fill:#BBE7F2;" d="M85,83H27V25c0-1.104-0.895-2-2-2c-1.104,0-2,0.896-2,2v62h62c1.104,0,2-0.896,2-2
				S86.104,83,85,83z"/>
		</g>
		<g>
			<polygon style="fill:#0081A1;" points="67.521,44.165 69.728,26.763 52.325,28.969 57.266,33.909 36,58.529 37.471,60 
				62.365,39.008 			"/>
		</g>
	</g>
</g>
<g id="R-Blue" style="display:none;">
	<g style="display:inline;">
		<circle style="fill:#81D2EB;" cx="55" cy="55" r="55"/>
	</g>
	<g style="display:inline;">
		<g>
			<path style="fill:#E1F5FA;" d="M43,83h-8v-6c0-1.104,0.896-2,2-2h4c1.104,0,2,0.896,2,2V83z"/>
		</g>
		<g>
			<path style="fill:#E1F5FA;" d="M55,83h-8V69c0-1.104,0.896-2,2-2h4c1.104,0,2,0.896,2,2V83z"/>
		</g>
		<g>
			<path style="fill:#E1F5FA;" d="M67,83h-8V61c0-1.104,0.896-2,2-2h4c1.104,0,2,0.896,2,2V83z"/>
		</g>
		<g>
			<path style="fill:#E1F5FA;" d="M79,83h-8V53c0-1.104,0.896-2,2-2h4c1.104,0,2,0.896,2,2V83z"/>
		</g>
		<g>
			<path style="fill:#BBE7F2;" d="M85,83H27V25c0-1.104-0.895-2-2-2c-1.104,0-2,0.896-2,2v62h62c1.104,0,2-0.896,2-2
				S86.104,83,85,83z"/>
		</g>
		<g>
			<polygon style="fill:#0081A1;" points="67.521,44.165 69.728,26.763 52.325,28.969 57.266,33.909 36,58.529 37.471,60 
				62.365,39.008 			"/>
		</g>
	</g>
</g>
<g id="Green" style="display:none;">
	<g style="display:inline;">
		<g>
			<path style="fill:#D7FCF9;" d="M43,83h-8v-6c0-1.104,0.896-2,2-2h4c1.104,0,2,0.896,2,2V83z"/>
		</g>
		<g>
			<path style="fill:#D7FCF9;" d="M55,83h-8V69c0-1.104,0.896-2,2-2h4c1.104,0,2,0.896,2,2V83z"/>
		</g>
		<g>
			<path style="fill:#D7FCF9;" d="M67,83h-8V61c0-1.104,0.896-2,2-2h4c1.104,0,2,0.896,2,2V83z"/>
		</g>
		<g>
			<path style="fill:#D7FCF9;" d="M79,83h-8V53c0-1.104,0.896-2,2-2h4c1.104,0,2,0.896,2,2V83z"/>
		</g>
		<g>
			<path style="fill:#AAF0E9;" d="M85,83H27V25c0-1.104-0.895-2-2-2c-1.104,0-2,0.896-2,2v62h62c1.104,0,2-0.896,2-2
				S86.104,83,85,83z"/>
		</g>
		<g>
			<polygon style="fill:#009687;" points="67.521,44.165 69.728,26.763 52.325,28.969 57.266,33.909 36,58.529 37.471,60 
				62.365,39.008 			"/>
		</g>
	</g>
</g>
<g id="R-Green" style="display:none;">
	<g style="display:inline;">
		<circle style="fill:#87E0C8;" cx="55" cy="55" r="55"/>
	</g>
	<g style="display:inline;">
		<g>
			<path style="fill:#D7FCF9;" d="M43,83h-8v-6c0-1.104,0.896-2,2-2h4c1.104,0,2,0.896,2,2V83z"/>
		</g>
		<g>
			<path style="fill:#D7FCF9;" d="M55,83h-8V69c0-1.104,0.896-2,2-2h4c1.104,0,2,0.896,2,2V83z"/>
		</g>
		<g>
			<path style="fill:#D7FCF9;" d="M67,83h-8V61c0-1.104,0.896-2,2-2h4c1.104,0,2,0.896,2,2V83z"/>
		</g>
		<g>
			<path style="fill:#D7FCF9;" d="M79,83h-8V53c0-1.104,0.896-2,2-2h4c1.104,0,2,0.896,2,2V83z"/>
		</g>
		<g>
			<path style="fill:#AAF0E9;" d="M85,83H27V25c0-1.104-0.896-2-2-2s-2,0.896-2,2v62h62c1.104,0,2-0.896,2-2S86.104,83,85,83z"/>
		</g>
		<g>
			<polygon style="fill:#009687;" points="67.521,44.165 69.728,26.763 52.325,28.969 57.266,33.909 36,58.529 37.471,60 
				62.365,39.008 			"/>
		</g>
	</g>
</g>
<g id="Red">
	<g>
		<g>
			<path style="fill:#FFEFED;" d="M43,83h-8v-6c0-1.104,0.896-2,2-2h4c1.104,0,2,0.896,2,2V83z"/>
		</g>
		<g>
			<path style="fill:#FFEFED;" d="M55,83h-8V69c0-1.104,0.896-2,2-2h4c1.104,0,2,0.896,2,2V83z"/>
		</g>
		<g>
			<path style="fill:#FFEFED;" d="M67,83h-8V61c0-1.104,0.896-2,2-2h4c1.104,0,2,0.896,2,2V83z"/>
		</g>
		<g>
			<path style="fill:#FFEFED;" d="M79,83h-8V53c0-1.104,0.896-2,2-2h4c1.104,0,2,0.896,2,2V83z"/>
		</g>
		<g>
			<path style="fill:#FFD7D4;" d="M85,83H27V25c0-1.104-0.896-2-2-2s-2,0.896-2,2v62h62c1.104,0,2-0.896,2-2S86.104,83,85,83z"/>
		</g>
		<g>
			<polygon style="fill:#C23023;" points="67.521,44.165 69.728,26.763 52.325,28.969 57.266,33.909 36,58.529 37.471,60 
				62.365,39.008 			"/>
		</g>
	</g>
</g>
<g id="R-Red" style="display:none;">
	<g style="display:inline;">
		<circle style="fill:#FABBAF;" cx="55" cy="55" r="55"/>
	</g>
	<g style="display:inline;">
		<g>
			<path style="fill:#FFEFED;" d="M43,83h-8v-6c0-1.104,0.896-2,2-2h4c1.104,0,2,0.896,2,2V83z"/>
		</g>
		<g>
			<path style="fill:#FFEFED;" d="M55,83h-8V69c0-1.104,0.896-2,2-2h4c1.104,0,2,0.896,2,2V83z"/>
		</g>
		<g>
			<path style="fill:#FFEFED;" d="M67,83h-8V61c0-1.104,0.896-2,2-2h4c1.104,0,2,0.896,2,2V83z"/>
		</g>
		<g>
			<path style="fill:#FFEFED;" d="M79,83h-8V53c0-1.104,0.896-2,2-2h4c1.104,0,2,0.896,2,2V83z"/>
		</g>
		<g>
			<path style="fill:#FFD7D4;" d="M85,83H27V25c0-1.104-0.895-2-2-2c-1.104,0-2,0.896-2,2v62h62c1.104,0,2-0.896,2-2
				S86.104,83,85,83z"/>
		</g>
		<g>
			<polygon style="fill:#C23023;" points="67.521,44.165 69.728,26.763 52.325,28.969 57.266,33.909 36,58.529 37.471,60 
				62.365,39.008 			"/>
		</g>
	</g>
</g>
<g id="Yellow" style="display:none;">
	<g style="display:inline;">
		<g>
			<path style="fill:#FFF5D9;" d="M43,83h-8v-6c0-1.104,0.896-2,2-2h4c1.104,0,2,0.896,2,2V83z"/>
		</g>
		<g>
			<path style="fill:#FFF5D9;" d="M55,83h-8V69c0-1.104,0.896-2,2-2h4c1.104,0,2,0.896,2,2V83z"/>
		</g>
		<g>
			<path style="fill:#FFF5D9;" d="M67,83h-8V61c0-1.104,0.896-2,2-2h4c1.104,0,2,0.896,2,2V83z"/>
		</g>
		<g>
			<path style="fill:#FFF5D9;" d="M79,83h-8V53c0-1.104,0.896-2,2-2h4c1.104,0,2,0.896,2,2V83z"/>
		</g>
		<g>
			<path style="fill:#FFE9A1;" d="M85,83H27V25c0-1.104-0.895-2-2-2c-1.104,0-2,0.896-2,2v62h62c1.104,0,2-0.896,2-2
				S86.104,83,85,83z"/>
		</g>
		<g>
			<polygon style="fill:#E07000;" points="67.521,44.165 69.728,26.763 52.325,28.969 57.266,33.909 36,58.529 37.471,60 
				62.365,39.008 			"/>
		</g>
	</g>
</g>
<g id="R-Yellow" style="display:none;">
	<g style="display:inline;">
		<circle style="fill:#FFD75E;" cx="55" cy="55" r="55"/>
	</g>
	<g style="display:inline;">
		<g>
			<path style="fill:#FFF5D9;" d="M43,83h-8v-6c0-1.104,0.896-2,2-2h4c1.104,0,2,0.896,2,2V83z"/>
		</g>
		<g>
			<path style="fill:#FFF5D9;" d="M55,83h-8V69c0-1.104,0.896-2,2-2h4c1.104,0,2,0.896,2,2V83z"/>
		</g>
		<g>
			<path style="fill:#FFF5D9;" d="M67,83h-8V61c0-1.104,0.896-2,2-2h4c1.104,0,2,0.896,2,2V83z"/>
		</g>
		<g>
			<path style="fill:#FFF5D9;" d="M79,83h-8V53c0-1.104,0.896-2,2-2h4c1.104,0,2,0.896,2,2V83z"/>
		</g>
		<g>
			<path style="fill:#FFE9A1;" d="M85,83H27V25c0-1.104-0.895-2-2-2c-1.104,0-2,0.896-2,2v62h62c1.104,0,2-0.896,2-2
				S86.104,83,85,83z"/>
		</g>
		<g>
			<polygon style="fill:#E07000;" points="67.521,44.165 69.727,26.763 52.325,28.969 57.266,33.909 36,58.529 37.471,60 
				62.365,39.008 			"/>
		</g>
	</g>
</g>
</svg>
