<?xml version="1.0" encoding="iso-8859-1"?>
<!-- Generator: Adobe Illustrator 17.1.0, SVG Export Plug-In . SVG Version: 6.00 Build 0)  -->
<!DOCTYPE svg PUBLIC "-//W3C//DTD SVG 1.0//EN" "http://www.w3.org/TR/2001/REC-SVG-20010904/DTD/svg10.dtd">
<svg version="1.0" xmlns="http://www.w3.org/2000/svg" xmlns:xlink="http://www.w3.org/1999/xlink" x="0px" y="0px" width="110px"
	 height="110px" viewBox="0 0 110 110" style="enable-background:new 0 0 110 110;" xml:space="preserve">
<g id="Artboard" style="display:none;">
	
		<rect x="-1064.5" y="-164.5" style="display:inline;fill:#808080;stroke:#000000;stroke-miterlimit:10;" width="1326" height="332"/>
</g>
<g id="R-Multicolor" style="display:none;">
	<circle style="display:inline;fill:#E04F5F;" cx="55" cy="55" r="55"/>
	<g style="display:inline;">
		<g>
			<path style="fill:#FACB1B;" d="M51,55v7.08C50.68,62.02,50.34,62,50,62c-3.87,0-7,3.13-7,7s3.13,7,7,7c0.34,0,0.68-0.02,1-0.08
				V87h11.08C62.02,86.68,62,86.34,62,86c0-3.87,3.13-7,7-7s7,3.13,7,7c0,0.34-0.02,0.68-0.08,1H87V55H51z"/>
		</g>
		<g>
			<path style="fill:#40C9E7;" d="M79,39c0,3.87,3.13,7,7,7c0.34,0,0.68-0.02,1-0.08V55H75.92c0.06,0.32,0.08,0.66,0.08,1
				c0,3.87-3.13,7-7,7s-7-3.13-7-7c0-0.34,0.02-0.68,0.08-1H51V23h11.08C62.02,23.32,62,23.66,62,24c0,3.87,3.13,7,7,7s7-3.13,7-7
				c0-0.34-0.02-0.68-0.08-1H87v9.08C86.68,32.02,86.34,32,86,32C82.13,32,79,35.13,79,39z"/>
		</g>
		<g>
			<path style="fill:#F0F1F1;" d="M50,62c0.34,0,0.68,0.02,1,0.08V43h-7.08c0.06-0.32,0.08-0.66,0.08-1c0-3.87-3.13-7-7-7
				s-7,3.13-7,7c0,0.34,0.02,0.68,0.08,1H23v19.08c0.32-0.06,0.66-0.08,1-0.08c3.87,0,7,3.13,7,7s-3.13,7-7,7
				c-0.34,0-0.68-0.02-1-0.08V87h28V75.92C50.68,75.98,50.34,76,50,76c-3.87,0-7-3.13-7-7S46.13,62,50,62z"/>
		</g>
		<g>
			<path style="fill:#6FDAF1;" d="M76,24c0,3.87-3.13,7-7,7s-7-3.13-7-7c0-0.34,0.02-0.68,0.08-1H51v32h0.799l32-32H75.92
				C75.98,23.32,76,23.66,76,24z"/>
		</g>
		<g>
			<path style="fill:#FFFFFF;" d="M51,43h-7.08c0.06-0.32,0.08-0.66,0.08-1c0-3.87-3.13-7-7-7s-7,3.13-7,7c0,0.34,0.02,0.68,0.08,1
				H23v19.08c0.32-0.06,0.66-0.08,1-0.08c3.87,0,7,3.13,7,7s-3.13,7-7,7c-0.34,0-0.68-0.02-1-0.08v7.879l28-28V43z"/>
		</g>
	</g>
</g>
<g id="Multicolor">
	<g>
		<g>
			<path style="fill:#FACB1B;" d="M51,55v7.08C50.68,62.02,50.34,62,50,62c-3.87,0-7,3.13-7,7s3.13,7,7,7c0.34,0,0.68-0.02,1-0.08
				V87h11.08C62.02,86.68,62,86.34,62,86c0-3.87,3.13-7,7-7s7,3.13,7,7c0,0.34-0.02,0.68-0.08,1H87V55H51z"/>
		</g>
		<g>
			<path style="fill:#40C9E7;" d="M79,39c0,3.87,3.13,7,7,7c0.34,0,0.68-0.02,1-0.08V55H75.92c0.06,0.32,0.08,0.66,0.08,1
				c0,3.87-3.13,7-7,7s-7-3.13-7-7c0-0.34,0.02-0.68,0.08-1H51V23h11.08C62.02,23.32,62,23.66,62,24c0,3.87,3.13,7,7,7s7-3.13,7-7
				c0-0.34-0.02-0.68-0.08-1H87v9.08C86.68,32.02,86.34,32,86,32C82.13,32,79,35.13,79,39z"/>
		</g>
		<g>
			<path style="fill:#F0F1F1;" d="M50,62c0.34,0,0.68,0.02,1,0.08V43h-7.08c0.06-0.32,0.08-0.66,0.08-1c0-3.87-3.13-7-7-7
				s-7,3.13-7,7c0,0.34,0.02,0.68,0.08,1H23v19.08c0.32-0.06,0.66-0.08,1-0.08c3.87,0,7,3.13,7,7s-3.13,7-7,7
				c-0.34,0-0.68-0.02-1-0.08V87h28V75.92C50.68,75.98,50.34,76,50,76c-3.87,0-7-3.13-7-7S46.13,62,50,62z"/>
		</g>
		<g>
			<path style="fill:#6FDAF1;" d="M76,24c0,3.87-3.13,7-7,7s-7-3.13-7-7c0-0.34,0.02-0.68,0.08-1H51v32h0.799l32-32H75.92
				C75.98,23.32,76,23.66,76,24z"/>
		</g>
		<g>
			<path style="fill:#FFFFFF;" d="M51,43h-7.08c0.06-0.32,0.08-0.66,0.08-1c0-3.87-3.13-7-7-7s-7,3.13-7,7c0,0.34,0.02,0.68,0.08,1
				H23v19.08c0.32-0.06,0.66-0.08,1-0.08c3.87,0,7,3.13,7,7s-3.13,7-7,7c-0.34,0-0.68-0.02-1-0.08v7.879l28-28V43z"/>
		</g>
	</g>
</g>
<g id="Blue" style="display:none;">
	<g style="display:inline;">
		<g>
			<path style="fill:#0F6175;" d="M51,55v7.08c-0.32-0.06-0.66-0.08-1-0.08c-3.87,0-7,3.13-7,7c0,3.87,3.13,7,7,7
				c0.34,0,0.68-0.021,1-0.08V87h11.08C62.019,86.681,62,86.34,62,86c0-3.87,3.13-7,7-7c3.87,0,7,3.13,7,7c0,0.34-0.02,0.681-0.08,1
				H87V55H51z"/>
		</g>
		<g>
			<path style="fill:#0081A1;" d="M79,39c0,3.87,3.13,7,7,7c0.34,0,0.68-0.021,1-0.08V55H75.92C75.98,55.319,76,55.66,76,56
				c0,3.87-3.13,7-7,7c-3.87,0-7-3.13-7-7c0-0.34,0.019-0.681,0.08-1H51V23h11.08C62.019,23.319,62,23.66,62,24c0,3.87,3.13,7,7,7
				c3.87,0,7-3.13,7-7c0-0.34-0.02-0.681-0.08-1H87v9.08c-0.32-0.06-0.66-0.08-1-0.08C82.13,32,79,35.13,79,39z"/>
		</g>
		<g>
			<path style="fill:#E1F5FA;" d="M50,62c0.34,0,0.68,0.021,1,0.08V43h-7.08C43.98,42.681,44,42.34,44,42c0-3.87-3.13-7-7-7
				c-3.87,0-7,3.13-7,7c0,0.34,0.019,0.681,0.08,1H23v19.08c0.32-0.06,0.66-0.08,1-0.08c3.87,0,7,3.13,7,7c0,3.87-3.13,7-7,7
				c-0.34,0-0.68-0.021-1-0.08V87h28V75.92c-0.32,0.06-0.66,0.08-1,0.08c-3.87,0-7-3.13-7-7C43,65.13,46.13,62,50,62z"/>
		</g>
		<g>
			<path style="fill:#009FC7;" d="M76,24c0,3.87-3.13,7-7,7c-3.87,0-7-3.13-7-7c0-0.34,0.019-0.681,0.08-1H51v32h0.799l32-32H75.92
				C75.98,23.319,76,23.66,76,24z"/>
		</g>
		<g>
			<path style="fill:#FFFFFF;" d="M51,43h-7.08C43.98,42.681,44,42.34,44,42c0-3.87-3.13-7-7-7c-3.87,0-7,3.13-7,7
				c0,0.34,0.019,0.681,0.08,1H23v19.08c0.32-0.06,0.66-0.08,1-0.08c3.87,0,7,3.13,7,7c0,3.87-3.13,7-7,7c-0.34,0-0.68-0.021-1-0.08
				v7.879l28-28V43z"/>
		</g>
	</g>
</g>
<g id="R-Blue" style="display:none;">
	<circle style="display:inline;fill:#81D2EB;" cx="55" cy="55" r="55"/>
	<g style="display:inline;">
		<g>
			<path style="fill:#0F6175;" d="M51,55v7.08c-0.32-0.06-0.66-0.08-1-0.08c-3.87,0-7,3.13-7,7s3.13,7,7,7c0.34,0,0.68-0.021,1-0.08
				V87h11.08C62.019,86.681,62,86.34,62,86c0-3.87,3.13-7,7-7c3.87,0,7,3.13,7,7c0,0.34-0.02,0.681-0.08,1H87V55H51z"/>
		</g>
		<g>
			<path style="fill:#0081A1;" d="M79,39c0,3.87,3.13,7,7,7c0.34,0,0.68-0.021,1-0.08V55H75.92C75.98,55.319,76,55.66,76,56
				c0,3.87-3.13,7-7,7c-3.87,0-7-3.13-7-7c0-0.34,0.02-0.681,0.08-1H51V23h11.08C62.019,23.319,62,23.66,62,24c0,3.87,3.13,7,7,7
				c3.87,0,7-3.13,7-7c0-0.34-0.02-0.681-0.08-1H87v9.08c-0.32-0.06-0.66-0.08-1-0.08C82.13,32,79,35.13,79,39z"/>
		</g>
		<g>
			<path style="fill:#E1F5FA;" d="M50,62c0.34,0,0.68,0.021,1,0.08V43h-7.08C43.98,42.681,44,42.34,44,42c0-3.87-3.13-7-7-7
				s-7,3.13-7,7c0,0.34,0.02,0.681,0.08,1H23v19.08c0.32-0.06,0.66-0.08,1-0.08c3.87,0,7,3.13,7,7s-3.13,7-7,7
				c-0.34,0-0.68-0.021-1-0.08V87h28V75.92c-0.32,0.06-0.66,0.08-1,0.08c-3.87,0-7-3.13-7-7S46.13,62,50,62z"/>
		</g>
		<g>
			<path style="fill:#009FC7;" d="M76,24c0,3.87-3.13,7-7,7c-3.87,0-7-3.13-7-7c0-0.34,0.02-0.681,0.08-1H51v32h0.799l32-32H75.92
				C75.98,23.319,76,23.66,76,24z"/>
		</g>
		<g>
			<path style="fill:#FFFFFF;" d="M51,43h-7.08C43.98,42.681,44,42.34,44,42c0-3.87-3.13-7-7-7s-7,3.13-7,7
				c0,0.34,0.02,0.681,0.08,1H23v19.08c0.32-0.06,0.66-0.08,1-0.08c3.87,0,7,3.13,7,7s-3.13,7-7,7c-0.34,0-0.68-0.021-1-0.08v7.879
				l28-28V43z"/>
		</g>
	</g>
</g>
<g id="Green" style="display:none;">
	<g style="display:inline;">
		<g>
			<path style="fill:#14635B;" d="M51,55v7.08c-0.32-0.06-0.66-0.08-1-0.08c-3.87,0-7,3.13-7,7s3.13,7,7,7c0.34,0,0.68-0.021,1-0.08
				V87h11.08C62.02,86.681,62,86.34,62,86c0-3.87,3.13-7,7-7s7,3.13,7,7c0,0.34-0.02,0.681-0.08,1H87V55H51z"/>
		</g>
		<g>
			<path style="fill:#009687;" d="M79,39c0,3.87,3.13,7,7,7c0.34,0,0.68-0.021,1-0.08V55H75.92C75.98,55.319,76,55.66,76,56
				c0,3.87-3.13,7-7,7s-7-3.13-7-7c0-0.34,0.02-0.681,0.08-1H51V23h11.08C62.02,23.319,62,23.66,62,24c0,3.87,3.13,7,7,7s7-3.13,7-7
				c0-0.34-0.02-0.681-0.08-1H87v9.08c-0.32-0.06-0.66-0.08-1-0.08C82.13,32,79,35.13,79,39z"/>
		</g>
		<g>
			<path style="fill:#D7FCF9;" d="M50,62c0.34,0,0.68,0.021,1,0.08V43h-7.08C43.98,42.681,44,42.34,44,42c0-3.87-3.13-7-7-7
				s-7,3.13-7,7c0,0.34,0.02,0.681,0.08,1H23v19.08c0.32-0.06,0.66-0.08,1-0.08c3.87,0,7,3.13,7,7s-3.13,7-7,7
				c-0.34,0-0.68-0.021-1-0.08V87h28V75.92c-0.32,0.06-0.66,0.08-1,0.08c-3.87,0-7-3.13-7-7S46.13,62,50,62z"/>
		</g>
		<g>
			<path style="fill:#00B8A5;" d="M76,24c0,3.87-3.13,7-7,7s-7-3.13-7-7c0-0.34,0.02-0.681,0.08-1H51v32h0.799l32-32H75.92
				C75.98,23.319,76,23.66,76,24z"/>
		</g>
		<g>
			<path style="fill:#FFFFFF;" d="M51,43h-7.08C43.98,42.681,44,42.34,44,42c0-3.87-3.13-7-7-7s-7,3.13-7,7
				c0,0.34,0.02,0.681,0.08,1H23v19.08c0.32-0.06,0.66-0.08,1-0.08c3.87,0,7,3.13,7,7s-3.13,7-7,7c-0.34,0-0.68-0.021-1-0.08v7.879
				l28-28V43z"/>
		</g>
	</g>
</g>
<g id="R-Green" style="display:none;">
	<circle style="display:inline;fill:#77E0C4;" cx="55" cy="55" r="55"/>
	<g style="display:inline;">
		<g>
			<path style="fill:#14635B;" d="M51,55v7.08c-0.32-0.06-0.66-0.08-1-0.08c-3.87,0-7,3.13-7,7s3.13,7,7,7c0.34,0,0.68-0.021,1-0.08
				V87h11.08C62.019,86.681,62,86.34,62,86c0-3.87,3.13-7,7-7c3.87,0,7,3.13,7,7c0,0.34-0.02,0.681-0.08,1H87V55H51z"/>
		</g>
		<g>
			<path style="fill:#009687;" d="M79,39c0,3.87,3.13,7,7,7c0.34,0,0.68-0.021,1-0.08V55H75.92C75.98,55.319,76,55.66,76,56
				c0,3.87-3.13,7-7,7c-3.87,0-7-3.13-7-7c0-0.34,0.02-0.681,0.08-1H51V23h11.08C62.019,23.319,62,23.66,62,24c0,3.87,3.13,7,7,7
				c3.87,0,7-3.13,7-7c0-0.34-0.02-0.681-0.08-1H87v9.08c-0.32-0.06-0.66-0.08-1-0.08C82.13,32,79,35.13,79,39z"/>
		</g>
		<g>
			<path style="fill:#D7FCF9;" d="M50,62c0.34,0,0.68,0.021,1,0.08V43h-7.08C43.98,42.681,44,42.34,44,42c0-3.87-3.13-7-7-7
				s-7,3.13-7,7c0,0.34,0.02,0.681,0.08,1H23v19.08c0.32-0.06,0.66-0.08,1-0.08c3.87,0,7,3.13,7,7s-3.13,7-7,7
				c-0.34,0-0.68-0.021-1-0.08V87h28V75.92c-0.32,0.06-0.66,0.08-1,0.08c-3.87,0-7-3.13-7-7S46.13,62,50,62z"/>
		</g>
		<g>
			<path style="fill:#00B8A5;" d="M76,24c0,3.87-3.13,7-7,7c-3.87,0-7-3.13-7-7c0-0.34,0.02-0.681,0.08-1H51v32h0.799l32-32H75.92
				C75.98,23.319,76,23.66,76,24z"/>
		</g>
		<g>
			<path style="fill:#FFFFFF;" d="M51,43h-7.08C43.98,42.681,44,42.34,44,42c0-3.87-3.13-7-7-7s-7,3.13-7,7
				c0,0.34,0.02,0.681,0.08,1H23v19.08c0.32-0.06,0.66-0.08,1-0.08c3.87,0,7,3.13,7,7s-3.13,7-7,7c-0.34,0-0.68-0.021-1-0.08v7.879
				l28-28V43z"/>
		</g>
	</g>
</g>
<g id="Red" style="display:none;">
	<g style="display:inline;">
		<g>
			<path style="fill:#7D261E;" d="M51,55v7.08c-0.32-0.06-0.66-0.08-1-0.08c-3.87,0-7,3.13-7,7c0,3.87,3.13,7,7,7
				c0.34,0,0.68-0.021,1-0.08V87h11.08C62.019,86.681,62,86.34,62,86c0-3.87,3.13-7,7-7c3.87,0,7,3.13,7,7c0,0.34-0.02,0.681-0.08,1
				H87V55H51z"/>
		</g>
		<g>
			<path style="fill:#C23023;" d="M79,39c0,3.87,3.13,7,7,7c0.34,0,0.68-0.021,1-0.08V55H75.92C75.98,55.319,76,55.66,76,56
				c0,3.87-3.13,7-7,7c-3.87,0-7-3.13-7-7c0-0.34,0.019-0.681,0.08-1H51V23h11.08C62.019,23.319,62,23.66,62,24c0,3.87,3.13,7,7,7
				c3.87,0,7-3.13,7-7c0-0.34-0.02-0.681-0.08-1H87v9.08c-0.32-0.06-0.66-0.08-1-0.08C82.13,32,79,35.13,79,39z"/>
		</g>
		<g>
			<path style="fill:#FFEFED;" d="M50,62c0.34,0,0.68,0.021,1,0.08V43h-7.08C43.98,42.681,44,42.34,44,42c0-3.87-3.13-7-7-7
				c-3.87,0-7,3.13-7,7c0,0.34,0.019,0.681,0.08,1H23v19.08c0.32-0.06,0.66-0.08,1-0.08c3.87,0,7,3.13,7,7c0,3.87-3.13,7-7,7
				c-0.34,0-0.68-0.021-1-0.08V87h28V75.92c-0.32,0.06-0.66,0.08-1,0.08c-3.87,0-7-3.13-7-7C43,65.13,46.13,62,50,62z"/>
		</g>
		<g>
			<path style="fill:#E54B44;" d="M76,24c0,3.87-3.13,7-7,7c-3.87,0-7-3.13-7-7c0-0.34,0.019-0.681,0.08-1H51v32h0.799l32-32H75.92
				C75.98,23.319,76,23.66,76,24z"/>
		</g>
		<g>
			<path style="fill:#FFFFFF;" d="M51,43h-7.08C43.98,42.681,44,42.34,44,42c0-3.87-3.13-7-7-7c-3.87,0-7,3.13-7,7
				c0,0.34,0.019,0.681,0.08,1H23v19.08c0.32-0.06,0.66-0.08,1-0.08c3.87,0,7,3.13,7,7c0,3.87-3.13,7-7,7c-0.34,0-0.68-0.021-1-0.08
				v7.879l28-28V43z"/>
		</g>
	</g>
</g>
<g id="R-Red" style="display:none;">
	<circle style="display:inline;fill:#FABBAF;" cx="55" cy="55" r="55"/>
	<g style="display:inline;">
		<g>
			<path style="fill:#7D261E;" d="M51,55v7.08c-0.32-0.06-0.66-0.08-1-0.08c-3.87,0-7,3.13-7,7c0,3.87,3.13,7,7,7
				c0.34,0,0.68-0.021,1-0.08V87h11.08C62.019,86.681,62,86.34,62,86c0-3.87,3.13-7,7-7c3.87,0,7,3.13,7,7c0,0.34-0.02,0.681-0.08,1
				H87V55H51z"/>
		</g>
		<g>
			<path style="fill:#C23023;" d="M79,39c0,3.87,3.13,7,7,7c0.34,0,0.68-0.021,1-0.08V55H75.92C75.98,55.319,76,55.66,76,56
				c0,3.87-3.13,7-7,7c-3.87,0-7-3.13-7-7c0-0.34,0.019-0.681,0.08-1H51V23h11.08C62.019,23.319,62,23.66,62,24c0,3.87,3.13,7,7,7
				c3.87,0,7-3.13,7-7c0-0.34-0.02-0.681-0.08-1H87v9.08c-0.32-0.06-0.66-0.08-1-0.08C82.13,32,79,35.13,79,39z"/>
		</g>
		<g>
			<path style="fill:#FFEFED;" d="M50,62c0.34,0,0.68,0.021,1,0.08V43h-7.08C43.98,42.681,44,42.34,44,42c0-3.87-3.13-7-7-7
				c-3.87,0-7,3.13-7,7c0,0.34,0.019,0.681,0.08,1H23v19.08c0.32-0.06,0.66-0.08,1-0.08c3.87,0,7,3.13,7,7c0,3.87-3.13,7-7,7
				c-0.34,0-0.68-0.021-1-0.08V87h28V75.92c-0.32,0.06-0.66,0.08-1,0.08c-3.87,0-7-3.13-7-7C43,65.13,46.13,62,50,62z"/>
		</g>
		<g>
			<path style="fill:#E54B44;" d="M76,24c0,3.87-3.13,7-7,7c-3.87,0-7-3.13-7-7c0-0.34,0.019-0.681,0.08-1H51v32h0.799l32-32H75.92
				C75.98,23.319,76,23.66,76,24z"/>
		</g>
		<g>
			<path style="fill:#FFFFFF;" d="M51,43h-7.08C43.98,42.681,44,42.34,44,42c0-3.87-3.13-7-7-7c-3.87,0-7,3.13-7,7
				c0,0.34,0.019,0.681,0.08,1H23v19.08c0.32-0.06,0.66-0.08,1-0.08c3.87,0,7,3.13,7,7c0,3.87-3.13,7-7,7c-0.34,0-0.68-0.021-1-0.08
				v7.879l28-28V43z"/>
		</g>
	</g>
</g>
<g id="Yellow" style="display:none;">
	<g style="display:inline;">
		<g>
			<path style="fill:#66510D;" d="M51,55v7.08c-0.32-0.06-0.66-0.08-1-0.08c-3.87,0-7,3.13-7,7s3.13,7,7,7c0.34,0,0.68-0.021,1-0.08
				V87h11.08C62.02,86.681,62,86.34,62,86c0-3.87,3.13-7,7-7s7,3.13,7,7c0,0.34-0.02,0.681-0.08,1H87V55H51z"/>
		</g>
		<g>
			<path style="fill:#E07000;" d="M79,39c0,3.87,3.13,7,7,7c0.34,0,0.68-0.021,1-0.08V55H75.92C75.98,55.319,76,55.66,76,56
				c0,3.87-3.13,7-7,7s-7-3.13-7-7c0-0.34,0.02-0.681,0.08-1H51V23h11.08C62.02,23.319,62,23.66,62,24c0,3.87,3.13,7,7,7s7-3.13,7-7
				c0-0.34-0.02-0.681-0.08-1H87v9.08c-0.32-0.06-0.66-0.08-1-0.08C82.13,32,79,35.13,79,39z"/>
		</g>
		<g>
			<path style="fill:#FFF5D9;" d="M50,62c0.34,0,0.68,0.021,1,0.08V43h-7.08C43.98,42.681,44,42.34,44,42c0-3.87-3.13-7-7-7
				s-7,3.13-7,7c0,0.34,0.019,0.681,0.08,1H23v19.08c0.32-0.06,0.66-0.08,1-0.08c3.87,0,7,3.13,7,7s-3.13,7-7,7
				c-0.34,0-0.68-0.021-1-0.08V87h28V75.92c-0.32,0.06-0.66,0.08-1,0.08c-3.87,0-7-3.13-7-7S46.13,62,50,62z"/>
		</g>
		<g>
			<path style="fill:#FA9200;" d="M76,24c0,3.87-3.13,7-7,7s-7-3.13-7-7c0-0.34,0.02-0.681,0.08-1H51v32h0.799l32-32H75.92
				C75.98,23.319,76,23.66,76,24z"/>
		</g>
		<g>
			<path style="fill:#FFFFFF;" d="M51,43h-7.08C43.98,42.681,44,42.34,44,42c0-3.87-3.13-7-7-7s-7,3.13-7,7
				c0,0.34,0.019,0.681,0.08,1H23v19.08c0.32-0.06,0.66-0.08,1-0.08c3.87,0,7,3.13,7,7s-3.13,7-7,7c-0.34,0-0.68-0.021-1-0.08v7.879
				l28-28V43z"/>
		</g>
	</g>
</g>
<g id="R-Yellow" style="display:none;">
	<circle style="display:inline;fill:#FFD75E;" cx="55" cy="55" r="55"/>
	<g style="display:inline;">
		<g>
			<path style="fill:#66510D;" d="M51,55v7.08C50.68,62.02,50.34,62,50,62c-3.87,0-7,3.13-7,7c0,3.87,3.13,7,7,7
				c0.34,0,0.68-0.021,1-0.08V87h11.08C62.019,86.681,62,86.34,62,86c0-3.87,3.13-7,7-7c3.87,0,7,3.13,7,7c0,0.34-0.02,0.681-0.08,1
				H87V55H51z"/>
		</g>
		<g>
			<path style="fill:#E07000;" d="M79,39c0,3.87,3.13,7,7,7c0.34,0,0.68-0.021,1-0.08V55H75.92C75.98,55.319,76,55.66,76,56
				c0,3.87-3.13,7-7,7c-3.87,0-7-3.13-7-7c0-0.34,0.02-0.681,0.08-1H51V23h11.08C62.019,23.319,62,23.66,62,24c0,3.87,3.13,7,7,7
				c3.87,0,7-3.13,7-7c0-0.34-0.02-0.681-0.08-1H87v9.08C86.68,32.02,86.34,32,86,32C82.13,32,79,35.13,79,39z"/>
		</g>
		<g>
			<path style="fill:#FFF5D9;" d="M50,62c0.34,0,0.68,0.021,1,0.08V43h-7.08C43.98,42.681,44,42.34,44,42c0-3.87-3.13-7-7-7
				s-7,3.13-7,7c0,0.34,0.02,0.681,0.08,1H23v19.08c0.32-0.06,0.66-0.08,1-0.08c3.87,0,7,3.13,7,7c0,3.87-3.13,7-7,7
				c-0.34,0-0.68-0.021-1-0.08V87h28V75.92c-0.32,0.06-0.66,0.08-1,0.08c-3.87,0-7-3.13-7-7C43,65.13,46.13,62,50,62z"/>
		</g>
		<g>
			<path style="fill:#FA9200;" d="M76,24c0,3.87-3.13,7-7,7c-3.87,0-7-3.13-7-7c0-0.34,0.02-0.681,0.08-1H51v32h0.799l32-32H75.92
				C75.98,23.319,76,23.66,76,24z"/>
		</g>
		<g>
			<path style="fill:#FFFFFF;" d="M51,43h-7.08C43.98,42.681,44,42.34,44,42c0-3.87-3.13-7-7-7s-7,3.13-7,7
				c0,0.34,0.02,0.681,0.08,1H23v19.08c0.32-0.06,0.66-0.08,1-0.08c3.87,0,7,3.13,7,7c0,3.87-3.13,7-7,7c-0.34,0-0.68-0.021-1-0.08
				v7.879l28-28V43z"/>
		</g>
	</g>
</g>
</svg>
