<?xml version="1.0" encoding="iso-8859-1"?>
<!-- Generator: Adobe Illustrator 17.1.0, SVG Export Plug-In . SVG Version: 6.00 Build 0)  -->
<!DOCTYPE svg PUBLIC "-//W3C//DTD SVG 1.0//EN" "http://www.w3.org/TR/2001/REC-SVG-20010904/DTD/svg10.dtd">
<svg version="1.0" xmlns="http://www.w3.org/2000/svg" xmlns:xlink="http://www.w3.org/1999/xlink" x="0px" y="0px" width="110px"
	 height="110px" viewBox="0 0 110 110" style="enable-background:new 0 0 110 110;" xml:space="preserve">
<g id="Artboard" style="display:none;">
	
		<rect x="-190.5" y="-443.5" style="display:inline;fill:#808080;stroke:#000000;stroke-miterlimit:10;" width="1363" height="720"/>
</g>
<g id="R-Multicolor" style="display:none;">
	<circle style="display:inline;fill:#FABC3D;" cx="55" cy="55" r="55"/>
	<g style="display:inline;">
		<path style="fill:#E2E4E5;" d="M81.43,28.57c-7.03-7.029-18.427-7.029-25.456,0c-4.807,4.807-6.322,11.655-4.555,17.754
			L24.61,76.415c-2.24,2.515-2.13,6.341,0.251,8.723c2.382,2.382,6.208,2.492,8.723,0.251l30.092-26.809
			c6.098,1.767,12.947,0.252,17.754-4.555C88.46,46.996,88.46,35.599,81.43,28.57z"/>
		<path style="fill:#FFFFFF;" d="M24.61,76.415c-2.24,2.515-2.13,6.341,0.251,8.723l31.113-31.113
			c-2.222-2.222-3.738-4.882-4.555-7.702L24.61,76.415z"/>
		<circle style="fill:#3E3E3F;" cx="68.702" cy="41.298" r="18"/>
		<path style="fill:#FA5655;" d="M51.732,61.097c0.781-0.781,0.781-2.047,0-2.828s-2.047-0.781-2.828,0l-5.657,5.657
			c-0.781,0.781-0.781,2.047,0,2.828c0.781,0.781,2.047,0.781,2.828,0L51.732,61.097z"/>
		<path style="fill:#5B5C5F;" d="M51.732,58.268c-0.781-0.781-2.047-0.781-2.828,0l-2.828,2.828l2.828,2.828l2.828-2.828
			C52.513,60.316,52.513,59.049,51.732,58.268z"/>
		<path style="fill:#5B5C5F;" d="M81.43,28.57c-7.03-7.029-18.427-7.029-25.456,0c-7.029,7.029-7.029,18.426,0,25.456
			c0.03,0.03,0.064,0.055,0.094,0.085l25.447-25.447C81.485,28.633,81.461,28.6,81.43,28.57z"/>
		<path style="fill:#E2E4E5;" d="M74.862,58.195c1.925-0.7,3.754-1.73,5.396-3.109c-5.988-1.362-11.675-4.362-16.328-9.015
			s-7.653-10.34-9.015-16.328c-1.378,1.641-2.408,3.47-3.109,5.396c1.843,5.155,4.82,9.993,8.942,14.114
			S69.706,56.351,74.862,58.195z"/>
		<path style="fill:#FFFFFF;" d="M63.929,46.071c-4.653-4.653-7.653-10.34-9.015-16.328c-1.378,1.642-2.408,3.47-3.109,5.396
			c1.844,5.155,4.82,9.992,8.942,14.114c0.03,0.03,0.062,0.057,0.092,0.087l3.183-3.183C63.992,46.127,63.959,46.101,63.929,46.071z
			"/>
	</g>
</g>
<g id="Multicolor">
	<g>
		<path style="fill:#E2E4E5;" d="M81.43,28.57c-7.03-7.029-18.427-7.029-25.456,0c-4.807,4.807-6.322,11.655-4.555,17.754
			L24.61,76.415c-2.24,2.515-2.13,6.341,0.251,8.723c2.382,2.382,6.208,2.492,8.723,0.251l30.092-26.809
			c6.098,1.767,12.947,0.252,17.754-4.555C88.46,46.996,88.46,35.599,81.43,28.57z"/>
		<path style="fill:#FFFFFF;" d="M24.61,76.415c-2.24,2.515-2.13,6.341,0.251,8.723l31.113-31.113
			c-2.222-2.222-3.738-4.882-4.555-7.702L24.61,76.415z"/>
		<circle style="fill:#3E3E3F;" cx="68.702" cy="41.298" r="18"/>
		<path style="fill:#FA5655;" d="M51.732,61.097c0.781-0.781,0.781-2.047,0-2.828s-2.047-0.781-2.828,0l-5.657,5.657
			c-0.781,0.781-0.781,2.047,0,2.828c0.781,0.781,2.047,0.781,2.828,0L51.732,61.097z"/>
		<path style="fill:#5B5C5F;" d="M51.732,58.268c-0.781-0.781-2.047-0.781-2.828,0l-2.828,2.828l2.828,2.828l2.828-2.828
			C52.513,60.316,52.513,59.049,51.732,58.268z"/>
		<path style="fill:#5B5C5F;" d="M81.43,28.57c-7.03-7.029-18.427-7.029-25.456,0c-7.029,7.029-7.029,18.426,0,25.456
			c0.03,0.03,0.064,0.055,0.094,0.085l25.447-25.447C81.485,28.633,81.461,28.6,81.43,28.57z"/>
		<path style="fill:#E2E4E5;" d="M74.862,58.195c1.925-0.7,3.754-1.73,5.396-3.109c-5.988-1.362-11.675-4.362-16.328-9.015
			s-7.653-10.34-9.015-16.328c-1.378,1.641-2.408,3.47-3.109,5.396c1.843,5.155,4.82,9.993,8.942,14.114
			S69.706,56.351,74.862,58.195z"/>
		<path style="fill:#FFFFFF;" d="M63.929,46.071c-4.653-4.653-7.653-10.34-9.015-16.328c-1.378,1.642-2.408,3.47-3.109,5.396
			c1.844,5.155,4.82,9.992,8.942,14.114c0.03,0.03,0.062,0.057,0.092,0.087l3.183-3.183C63.992,46.127,63.959,46.101,63.929,46.071z
			"/>
	</g>
</g>
<g id="Blue" style="display:none;">
	<g style="display:inline;">
		<g>
			<path style="fill:#E1F5FA;" d="M81.43,28.569c-7.029-7.029-18.426-7.029-25.456,0c-4.807,4.807-6.322,11.655-4.555,17.754
				L24.61,76.415c-2.241,2.515-2.13,6.341,0.251,8.723c2.381,2.382,6.208,2.492,8.723,0.251L63.676,58.58
				c6.099,1.767,12.947,0.252,17.754-4.555C88.459,46.996,88.459,35.599,81.43,28.569z"/>
		</g>
		<g>
			<path style="fill:#FFFFFF;" d="M24.61,76.415c-2.241,2.515-2.13,6.341,0.251,8.723l31.112-31.113
				c-2.222-2.222-3.737-4.883-4.555-7.702L24.61,76.415z"/>
		</g>
		<g>
			<circle style="fill:#0C333D;" cx="68.702" cy="41.298" r="18"/>
		</g>
		<g>
			<path style="fill:#009FC7;" d="M51.732,61.096c0.781-0.781,0.781-2.047,0-2.828c-0.781-0.781-2.048-0.781-2.829,0l-5.657,5.657
				c-0.781,0.781-0.781,2.047,0,2.828c0.781,0.781,2.047,0.781,2.828,0L51.732,61.096z"/>
		</g>
		<g>
			<path style="fill:#00B7E5;" d="M51.732,58.268c-0.781-0.781-2.048-0.781-2.829,0l-2.829,2.828l2.829,2.829l2.829-2.829
				C52.513,60.316,52.513,59.049,51.732,58.268z"/>
		</g>
		<g>
			<path style="fill:#0F6175;" d="M81.43,28.569c-7.029-7.029-18.426-7.029-25.456,0c-7.029,7.029-7.029,18.426,0,25.456
				c0.03,0.03,0.064,0.055,0.094,0.085l25.447-25.447C81.485,28.633,81.46,28.6,81.43,28.569z"/>
		</g>
		<g>
			<path style="fill:#E1F5FA;" d="M74.861,58.194c1.926-0.701,3.754-1.73,5.396-3.109c-5.988-1.362-11.675-4.362-16.328-9.015
				c-4.653-4.653-7.653-10.34-9.015-16.328c-1.378,1.641-2.408,3.47-3.109,5.395c1.844,5.155,4.82,9.992,8.942,14.114
				C64.869,53.374,69.706,56.351,74.861,58.194z"/>
		</g>
		<g>
			<path style="fill:#FFFFFF;" d="M63.929,46.07c-4.653-4.653-7.653-10.34-9.015-16.328c-1.378,1.642-2.408,3.47-3.109,5.396
				c1.844,5.155,4.82,9.992,8.942,14.114c0.03,0.03,0.062,0.057,0.092,0.087l3.183-3.183C63.992,46.127,63.959,46.1,63.929,46.07z"
				/>
		</g>
	</g>
</g>
<g id="R-Blue" style="display:none;">
	<g style="display:inline;">
		<circle style="fill:#81D2EB;" cx="55" cy="55" r="55"/>
	</g>
	<g style="display:inline;">
		<g>
			<path style="fill:#E1F5FA;" d="M81.43,28.57c-7.029-7.029-18.426-7.029-25.456,0c-4.807,4.807-6.322,11.655-4.555,17.754
				L24.61,76.415c-2.241,2.515-2.13,6.341,0.251,8.723c2.381,2.382,6.208,2.492,8.723,0.251l30.092-26.809
				c6.099,1.767,12.947,0.252,17.754-4.555C88.459,46.996,88.459,35.599,81.43,28.57z"/>
		</g>
		<g>
			<path style="fill:#FFFFFF;" d="M24.61,76.415c-2.241,2.515-2.13,6.341,0.251,8.723l31.112-31.113
				c-2.222-2.222-3.737-4.883-4.555-7.702L24.61,76.415z"/>
		</g>
		<g>
			<circle style="fill:#0C333D;" cx="68.702" cy="41.298" r="18"/>
		</g>
		<g>
			<path style="fill:#009FC7;" d="M51.732,61.097c0.781-0.781,0.781-2.047,0-2.828c-0.781-0.781-2.048-0.781-2.829,0l-5.657,5.657
				c-0.781,0.781-0.781,2.047,0,2.828c0.781,0.781,2.047,0.781,2.828,0L51.732,61.097z"/>
		</g>
		<g>
			<path style="fill:#00B7E5;" d="M51.732,58.269c-0.781-0.781-2.048-0.781-2.829,0l-2.829,2.828l2.829,2.829l2.829-2.829
				C52.513,60.316,52.513,59.049,51.732,58.269z"/>
		</g>
		<g>
			<path style="fill:#0F6175;" d="M81.43,28.57c-7.029-7.029-18.426-7.029-25.456,0c-7.029,7.029-7.029,18.426,0,25.456
				c0.03,0.03,0.064,0.055,0.094,0.085l25.447-25.447C81.485,28.633,81.46,28.6,81.43,28.57z"/>
		</g>
		<g>
			<path style="fill:#E1F5FA;" d="M74.861,58.195c1.926-0.701,3.754-1.73,5.396-3.109c-5.988-1.362-11.675-4.362-16.328-9.015
				c-4.653-4.653-7.653-10.34-9.015-16.328c-1.378,1.641-2.408,3.47-3.109,5.395c1.844,5.155,4.82,9.992,8.942,14.114
				C64.869,53.375,69.706,56.351,74.861,58.195z"/>
		</g>
		<g>
			<path style="fill:#FFFFFF;" d="M63.929,46.071c-4.653-4.653-7.653-10.34-9.015-16.328c-1.378,1.642-2.408,3.47-3.109,5.396
				c1.844,5.155,4.82,9.992,8.942,14.114c0.03,0.03,0.062,0.057,0.092,0.087l3.183-3.183C63.992,46.127,63.959,46.101,63.929,46.071
				z"/>
		</g>
	</g>
</g>
<g id="Green" style="display:none;">
	<g style="display:inline;">
		<g>
			<path style="fill:#D7FCF9;" d="M81.43,28.57c-7.029-7.029-18.426-7.029-25.456,0c-4.807,4.807-6.322,11.655-4.555,17.754
				L24.61,76.415c-2.241,2.515-2.13,6.341,0.251,8.723c2.381,2.382,6.208,2.492,8.723,0.251l30.092-26.809
				c6.099,1.767,12.947,0.252,17.754-4.555C88.459,46.996,88.459,35.599,81.43,28.57z"/>
		</g>
		<g>
			<path style="fill:#FFFFFF;" d="M24.61,76.415c-2.241,2.515-2.13,6.341,0.251,8.723l31.112-31.113
				c-2.222-2.222-3.737-4.883-4.555-7.702L24.61,76.415z"/>
		</g>
		<g>
			<circle style="fill:#0A3631;" cx="68.702" cy="41.298" r="18"/>
		</g>
		<g>
			<path style="fill:#00B8A5;" d="M51.732,61.097c0.781-0.781,0.781-2.047,0-2.828c-0.781-0.781-2.048-0.781-2.829,0l-5.657,5.657
				c-0.781,0.781-0.781,2.047,0,2.828c0.781,0.781,2.047,0.781,2.828,0L51.732,61.097z"/>
		</g>
		<g>
			<path style="fill:#00D6C1;" d="M51.732,58.269c-0.781-0.781-2.048-0.781-2.829,0l-2.829,2.828l2.829,2.829l2.829-2.829
				C52.513,60.316,52.513,59.049,51.732,58.269z"/>
		</g>
		<g>
			<path style="fill:#14635B;" d="M81.43,28.57c-7.029-7.029-18.426-7.029-25.456,0c-7.029,7.029-7.029,18.426,0,25.456
				c0.03,0.03,0.064,0.055,0.094,0.085l25.447-25.447C81.485,28.633,81.46,28.6,81.43,28.57z"/>
		</g>
		<g>
			<path style="fill:#D7FCF9;" d="M74.861,58.195c1.926-0.701,3.754-1.73,5.396-3.109c-5.988-1.362-11.675-4.362-16.328-9.015
				c-4.653-4.653-7.653-10.34-9.015-16.328c-1.378,1.641-2.408,3.47-3.109,5.395c1.844,5.155,4.82,9.992,8.942,14.114
				C64.869,53.375,69.706,56.351,74.861,58.195z"/>
		</g>
		<g>
			<path style="fill:#FFFFFF;" d="M63.929,46.071c-4.653-4.653-7.653-10.34-9.015-16.328c-1.378,1.642-2.408,3.47-3.109,5.396
				c1.844,5.155,4.82,9.992,8.942,14.114c0.03,0.03,0.062,0.057,0.092,0.087l3.183-3.183C63.992,46.127,63.959,46.101,63.929,46.071
				z"/>
		</g>
	</g>
</g>
<g id="R-Green" style="display:none;">
	<g style="display:inline;">
		<circle style="fill:#87E0C8;" cx="55" cy="55" r="55"/>
	</g>
	<g style="display:inline;">
		<g>
			<path style="fill:#D7FCF9;" d="M81.43,28.57c-7.029-7.029-18.426-7.029-25.456,0c-4.807,4.807-6.322,11.655-4.555,17.754
				L24.61,76.415c-2.241,2.515-2.13,6.341,0.251,8.723c2.381,2.382,6.208,2.492,8.723,0.251l30.092-26.809
				c6.099,1.767,12.947,0.252,17.754-4.555C88.46,46.996,88.46,35.599,81.43,28.57z"/>
		</g>
		<g>
			<path style="fill:#FFFFFF;" d="M24.61,76.415c-2.241,2.515-2.13,6.341,0.251,8.723l31.112-31.113
				c-2.222-2.222-3.737-4.883-4.555-7.702L24.61,76.415z"/>
		</g>
		<g>
			<circle style="fill:#0A3631;" cx="68.702" cy="41.298" r="18"/>
		</g>
		<g>
			<path style="fill:#00B8A5;" d="M51.732,61.097c0.781-0.781,0.781-2.047,0-2.828c-0.781-0.781-2.048-0.781-2.829,0l-5.657,5.657
				c-0.781,0.781-0.781,2.047,0,2.828c0.781,0.781,2.047,0.781,2.828,0L51.732,61.097z"/>
		</g>
		<g>
			<path style="fill:#00D6C1;" d="M51.732,58.269c-0.781-0.781-2.048-0.781-2.829,0l-2.829,2.828l2.829,2.829l2.829-2.829
				C52.513,60.316,52.513,59.049,51.732,58.269z"/>
		</g>
		<g>
			<path style="fill:#14635B;" d="M81.43,28.57c-7.029-7.029-18.426-7.029-25.456,0c-7.029,7.029-7.029,18.426,0,25.456
				c0.03,0.03,0.064,0.055,0.094,0.085l25.447-25.447C81.485,28.633,81.46,28.6,81.43,28.57z"/>
		</g>
		<g>
			<path style="fill:#D7FCF9;" d="M74.861,58.195c1.926-0.701,3.754-1.73,5.396-3.109c-5.988-1.362-11.675-4.362-16.328-9.015
				c-4.653-4.653-7.653-10.34-9.015-16.328c-1.379,1.641-2.408,3.47-3.109,5.395c1.844,5.155,4.82,9.992,8.942,14.114
				C64.869,53.375,69.706,56.351,74.861,58.195z"/>
		</g>
		<g>
			<path style="fill:#FFFFFF;" d="M63.929,46.071c-4.653-4.653-7.653-10.34-9.015-16.328c-1.379,1.642-2.408,3.47-3.109,5.396
				c1.844,5.155,4.82,9.992,8.942,14.114c0.03,0.03,0.062,0.057,0.092,0.087l3.183-3.183C63.992,46.127,63.959,46.101,63.929,46.071
				z"/>
		</g>
	</g>
</g>
<g id="Red" style="display:none;">
	<g style="display:inline;">
		<g>
			<path style="fill:#FFEFED;" d="M81.43,28.57c-7.029-7.029-18.426-7.029-25.456,0c-4.807,4.807-6.322,11.655-4.555,17.754
				L24.61,76.415c-2.241,2.515-2.13,6.341,0.251,8.723c2.381,2.382,6.208,2.492,8.723,0.251l30.092-26.809
				c6.099,1.767,12.947,0.252,17.754-4.555C88.46,46.996,88.46,35.599,81.43,28.57z"/>
		</g>
		<g>
			<path style="fill:#FFFFFF;" d="M24.61,76.415c-2.241,2.515-2.13,6.341,0.251,8.723l31.112-31.113
				c-2.222-2.222-3.737-4.883-4.555-7.702L24.61,76.415z"/>
		</g>
		<g>
			<circle style="fill:#4A1410;" cx="68.702" cy="41.298" r="18"/>
		</g>
		<g>
			<path style="fill:#E54B44;" d="M51.732,61.097c0.781-0.781,0.781-2.047,0-2.828c-0.781-0.781-2.048-0.781-2.829,0l-5.657,5.657
				c-0.781,0.781-0.781,2.047,0,2.828c0.781,0.781,2.047,0.781,2.828,0L51.732,61.097z"/>
		</g>
		<g>
			<path style="fill:#FF6C5E;" d="M51.732,58.269c-0.781-0.781-2.048-0.781-2.829,0l-2.829,2.828l2.829,2.829l2.829-2.829
				C52.513,60.316,52.513,59.049,51.732,58.269z"/>
		</g>
		<g>
			<path style="fill:#7D261E;" d="M81.43,28.57c-7.029-7.029-18.426-7.029-25.456,0c-7.029,7.029-7.029,18.426,0,25.456
				c0.03,0.03,0.064,0.055,0.094,0.085l25.447-25.447C81.485,28.633,81.46,28.6,81.43,28.57z"/>
		</g>
		<g>
			<path style="fill:#FFEFED;" d="M74.861,58.195c1.926-0.701,3.754-1.73,5.396-3.109c-5.988-1.362-11.675-4.362-16.328-9.015
				c-4.653-4.653-7.653-10.34-9.015-16.328c-1.379,1.641-2.408,3.47-3.109,5.395c1.844,5.155,4.82,9.992,8.942,14.114
				C64.869,53.375,69.706,56.351,74.861,58.195z"/>
		</g>
		<g>
			<path style="fill:#FFFFFF;" d="M63.929,46.071c-4.653-4.653-7.653-10.34-9.015-16.328c-1.379,1.642-2.408,3.47-3.109,5.396
				c1.844,5.155,4.82,9.992,8.942,14.114c0.03,0.03,0.062,0.057,0.092,0.087l3.183-3.183C63.992,46.127,63.959,46.101,63.929,46.071
				z"/>
		</g>
	</g>
</g>
<g id="R-Red" style="display:none;">
	<g style="display:inline;">
		<circle style="fill:#FABBAF;" cx="55" cy="55" r="55"/>
	</g>
	<g style="display:inline;">
		<g>
			<path style="fill:#FFEFED;" d="M81.43,28.57c-7.029-7.029-18.426-7.029-25.456,0c-4.807,4.807-6.322,11.655-4.555,17.754
				L24.61,76.415c-2.241,2.515-2.13,6.341,0.251,8.723c2.381,2.382,6.208,2.492,8.723,0.251l30.092-26.809
				c6.099,1.767,12.947,0.252,17.754-4.555C88.459,46.996,88.459,35.599,81.43,28.57z"/>
		</g>
		<g>
			<path style="fill:#FFFFFF;" d="M24.61,76.415c-2.241,2.515-2.13,6.341,0.251,8.723l31.112-31.113
				c-2.222-2.222-3.737-4.883-4.555-7.702L24.61,76.415z"/>
		</g>
		<g>
			<circle style="fill:#4A1410;" cx="68.702" cy="41.298" r="18"/>
		</g>
		<g>
			<path style="fill:#E54B44;" d="M51.732,61.097c0.781-0.781,0.781-2.047,0-2.828c-0.781-0.781-2.048-0.781-2.829,0l-5.657,5.657
				c-0.781,0.781-0.781,2.047,0,2.828c0.781,0.781,2.047,0.781,2.828,0L51.732,61.097z"/>
		</g>
		<g>
			<path style="fill:#FF6C5E;" d="M51.732,58.269c-0.781-0.781-2.048-0.781-2.829,0l-2.829,2.828l2.829,2.829l2.829-2.829
				C52.513,60.316,52.513,59.049,51.732,58.269z"/>
		</g>
		<g>
			<path style="fill:#7D261E;" d="M81.43,28.57c-7.029-7.029-18.426-7.029-25.456,0c-7.029,7.029-7.029,18.426,0,25.456
				c0.03,0.03,0.064,0.055,0.094,0.085l25.447-25.447C81.485,28.633,81.46,28.6,81.43,28.57z"/>
		</g>
		<g>
			<path style="fill:#FFEFED;" d="M74.861,58.195c1.926-0.701,3.754-1.73,5.396-3.109c-5.988-1.362-11.675-4.362-16.328-9.015
				c-4.653-4.653-7.653-10.34-9.015-16.328c-1.378,1.641-2.408,3.47-3.109,5.395c1.844,5.155,4.82,9.992,8.942,14.114
				C64.869,53.375,69.706,56.351,74.861,58.195z"/>
		</g>
		<g>
			<path style="fill:#FFFFFF;" d="M63.929,46.071c-4.653-4.653-7.653-10.34-9.015-16.328c-1.378,1.642-2.408,3.47-3.109,5.396
				c1.844,5.155,4.82,9.992,8.942,14.114c0.03,0.03,0.062,0.057,0.092,0.087l3.183-3.183C63.992,46.127,63.959,46.101,63.929,46.071
				z"/>
		</g>
	</g>
</g>
<g id="Yellow" style="display:none;">
	<g style="display:inline;">
		<g>
			<path style="fill:#FFF5D9;" d="M81.43,28.569c-7.029-7.029-18.426-7.029-25.456,0c-4.807,4.807-6.322,11.655-4.555,17.754
				L24.61,76.415c-2.241,2.515-2.13,6.341,0.251,8.723c2.381,2.382,6.208,2.492,8.723,0.251L63.676,58.58
				c6.099,1.767,12.947,0.252,17.754-4.555C88.46,46.996,88.46,35.599,81.43,28.569z"/>
		</g>
		<g>
			<path style="fill:#FFFFFF;" d="M24.61,76.415c-2.241,2.515-2.13,6.341,0.251,8.723l31.112-31.113
				c-2.222-2.222-3.737-4.883-4.555-7.702L24.61,76.415z"/>
		</g>
		<g>
			<circle style="fill:#3D320C;" cx="68.702" cy="41.298" r="18"/>
		</g>
		<g>
			<path style="fill:#FA9200;" d="M51.732,61.096c0.781-0.781,0.781-2.047,0-2.828c-0.781-0.781-2.048-0.781-2.829,0l-5.657,5.657
				c-0.781,0.781-0.781,2.047,0,2.828c0.781,0.781,2.047,0.781,2.828,0L51.732,61.096z"/>
		</g>
		<g>
			<path style="fill:#FFAA00;" d="M51.732,58.268c-0.781-0.781-2.048-0.781-2.829,0l-2.829,2.828l2.829,2.829l2.829-2.829
				C52.513,60.316,52.513,59.049,51.732,58.268z"/>
		</g>
		<g>
			<path style="fill:#66510D;" d="M81.43,28.569c-7.029-7.029-18.426-7.029-25.456,0c-7.029,7.029-7.029,18.426,0,25.456
				c0.03,0.03,0.064,0.055,0.094,0.085l25.447-25.447C81.485,28.633,81.46,28.6,81.43,28.569z"/>
		</g>
		<g>
			<path style="fill:#FFF5D9;" d="M74.861,58.194c1.926-0.701,3.754-1.73,5.396-3.109c-5.988-1.362-11.675-4.362-16.328-9.015
				c-4.653-4.653-7.653-10.34-9.015-16.328c-1.378,1.641-2.408,3.47-3.109,5.396c1.844,5.155,4.82,9.992,8.942,14.114
				C64.869,53.374,69.706,56.351,74.861,58.194z"/>
		</g>
		<g>
			<path style="fill:#FFFFFF;" d="M63.929,46.07c-4.653-4.653-7.653-10.34-9.015-16.328c-1.378,1.642-2.408,3.47-3.109,5.396
				c1.844,5.155,4.82,9.992,8.942,14.114c0.03,0.03,0.062,0.057,0.092,0.087l3.183-3.183C63.992,46.127,63.959,46.1,63.929,46.07z"
				/>
		</g>
	</g>
</g>
<g id="R-Yellow" style="display:none;">
	<g style="display:inline;">
		<circle style="fill:#FFD75E;" cx="55" cy="55" r="55"/>
	</g>
	<g style="display:inline;">
		<g>
			<path style="fill:#FFF5D9;" d="M81.43,28.57c-7.029-7.029-18.426-7.029-25.456,0c-4.807,4.807-6.322,11.655-4.555,17.754
				L24.61,76.415c-2.241,2.515-2.13,6.341,0.251,8.723c2.381,2.382,6.208,2.492,8.723,0.251l30.092-26.809
				c6.099,1.767,12.947,0.252,17.754-4.555C88.459,46.996,88.459,35.599,81.43,28.57z"/>
		</g>
		<g>
			<path style="fill:#FFFFFF;" d="M24.61,76.415c-2.241,2.515-2.13,6.341,0.251,8.723l31.112-31.113
				c-2.222-2.222-3.737-4.883-4.555-7.702L24.61,76.415z"/>
		</g>
		<g>
			<circle style="fill:#3D320C;" cx="68.702" cy="41.298" r="18"/>
		</g>
		<g>
			<path style="fill:#FA9200;" d="M51.732,61.097c0.781-0.781,0.781-2.047,0-2.828c-0.781-0.781-2.048-0.781-2.829,0l-5.657,5.657
				c-0.781,0.781-0.781,2.047,0,2.828c0.781,0.781,2.047,0.781,2.828,0L51.732,61.097z"/>
		</g>
		<g>
			<path style="fill:#FFAA00;" d="M51.732,58.269c-0.781-0.781-2.048-0.781-2.829,0l-2.829,2.828l2.829,2.829l2.829-2.829
				C52.513,60.316,52.513,59.049,51.732,58.269z"/>
		</g>
		<g>
			<path style="fill:#66510D;" d="M81.43,28.57c-7.029-7.029-18.426-7.029-25.456,0c-7.029,7.029-7.029,18.426,0,25.456
				c0.03,0.03,0.064,0.055,0.094,0.085l25.447-25.447C81.485,28.633,81.46,28.6,81.43,28.57z"/>
		</g>
		<g>
			<path style="fill:#FFF5D9;" d="M74.861,58.195c1.926-0.701,3.754-1.73,5.396-3.109c-5.988-1.362-11.675-4.362-16.328-9.015
				c-4.653-4.653-7.653-10.34-9.015-16.328c-1.378,1.641-2.408,3.47-3.109,5.395c1.844,5.155,4.82,9.992,8.942,14.114
				C64.869,53.375,69.706,56.351,74.861,58.195z"/>
		</g>
		<g>
			<path style="fill:#FFFFFF;" d="M63.929,46.071c-4.653-4.653-7.653-10.34-9.015-16.328c-1.378,1.642-2.408,3.47-3.109,5.396
				c1.844,5.155,4.82,9.992,8.942,14.114c0.03,0.03,0.062,0.057,0.092,0.087l3.183-3.183C63.992,46.127,63.959,46.101,63.929,46.071
				z"/>
		</g>
	</g>
</g>
</svg>
