<?xml version="1.0" encoding="iso-8859-1"?>
<!-- Generator: Adobe Illustrator 17.1.0, SVG Export Plug-In . SVG Version: 6.00 Build 0)  -->
<!DOCTYPE svg PUBLIC "-//W3C//DTD SVG 1.0//EN" "http://www.w3.org/TR/2001/REC-SVG-20010904/DTD/svg10.dtd">
<svg version="1.0" xmlns="http://www.w3.org/2000/svg" xmlns:xlink="http://www.w3.org/1999/xlink" x="0px" y="0px" width="110px"
	 height="110px" viewBox="0 0 110 110" style="enable-background:new 0 0 110 110;" xml:space="preserve">
<g id="Artboard" style="display:none;">
	<rect x="-863" y="-327" style="display:inline;fill:#8C8C8C;" width="1412" height="743"/>
</g>
<g id="R-Multicolor">
	<circle style="fill:#E04F5F;" cx="55" cy="55" r="55"/>
	<g>
		<g>
			<ellipse style="fill:#0484AB;" cx="55.492" cy="55" rx="29.538" ry="30"/>
		</g>
		<path style="fill:#059BBF;" d="M55.492,25c-16.313,0-29.538,13.432-29.538,30c0,8.06,3.135,15.371,8.227,20.761l42.084-42.084
			C70.929,28.313,63.592,25,55.492,25z"/>
		<ellipse style="fill:#6FDAF1;" cx="67.308" cy="63.5" rx="1.969" ry="2"/>
		<g>
			<ellipse style="fill:#9CE5F4;" cx="43.677" cy="40" rx="1.969" ry="2"/>
		</g>
		<ellipse style="fill:#6FDAF1;" cx="71.246" cy="77" rx="1.969" ry="2"/>
		<path style="fill:#6FDAF1;" d="M55.492,54.449l22.161-22.161C71.956,26.555,64.13,23,55.492,23V54.449z"/>
		<ellipse style="fill:#C9F2F8;" cx="65.831" cy="34.5" rx="3.446" ry="3.5"/>
		<g>
			<ellipse style="fill:#9CE5F4;" cx="33.831" cy="61" rx="1.969" ry="2"/>
		</g>
		<path style="fill:#21B2D1;" d="M85.004,54h-5.906C78.586,41.4,68.467,31.282,56,31.013v-6.001C55.831,25.01,55.663,25,55.492,25
			c-0.49,0-0.977,0.014-1.461,0.038v6.013C42.005,31.8,32.385,41.723,31.887,54h-5.908c-0.011,0.333-0.025,0.665-0.025,1
			s0.014,0.667,0.025,1h5.908c0.498,12.277,10.118,22.2,22.144,22.95v6.013C54.515,84.986,55.002,85,55.492,85
			c0.17,0,0.338-0.01,0.508-0.013v-6C68.467,78.718,78.586,68.6,79.098,56h5.91c0.01-0.333,0.023-0.665,0.023-1
			S85.015,54.333,85.004,54z M54.031,76.944C43.091,76.2,34.351,67.174,33.856,56h5.932c0.482,7.862,6.564,14.203,14.243,14.925
			V76.944z M54.031,68.919C47.438,68.21,42.231,62.76,41.758,56h5.926c0.426,3.449,3.018,6.219,6.347,6.856V68.919z M54.031,60.807
			c-2.24-0.582-3.968-2.463-4.357-4.807h4.357V60.807z M54.031,54h-4.357c0.389-2.343,2.117-4.225,4.357-4.807V54z M54.031,47.144
			c-3.33,0.638-5.921,3.408-6.347,6.856h-5.926c0.474-6.76,5.68-12.21,12.273-12.919V47.144z M54.031,39.075
			C46.352,39.797,40.271,46.138,39.788,54h-5.932c0.495-11.174,9.235-20.2,20.175-20.944V39.075z M56,41.026
			C63.035,41.288,68.73,46.918,69.227,54h-5.926c-0.466-3.771-3.523-6.728-7.301-6.974V41.026z M56,49.026
			c2.691,0.234,4.868,2.307,5.311,4.974H56V49.026z M56,56h5.311c-0.443,2.667-2.62,4.74-5.311,4.974V56z M56,62.974
			c3.777-0.246,6.835-3.202,7.301-6.974h5.926C68.73,63.082,63.035,68.712,56,68.974V62.974z M56,76.987v-6.013
			C64.121,70.709,70.694,64.185,71.196,56h5.933C76.62,67.497,67.381,76.719,56,76.987z M71.196,54
			C70.694,45.815,64.121,39.291,56,39.026v-6.013C67.381,33.281,76.62,42.503,77.129,54H71.196z"/>
		<path style="fill:#40C9E7;" d="M38.405,71.536l1.402-1.402c-3.483-3.72-5.708-8.666-5.951-14.134h5.932
			c0.235,3.828,1.804,7.288,4.231,9.922l1.399-1.4C43.34,62.25,41.988,59.283,41.758,56h5.926c0.204,1.647,0.912,3.131,1.948,4.31
			l1.403-1.403c-0.689-0.811-1.177-1.804-1.36-2.907h4.267L56,53.941v-4.915c1.307,0.113,2.486,0.667,3.411,1.504l1.406-1.406
			c-1.286-1.202-2.963-1.978-4.816-2.098v-6c3.498,0.13,6.662,1.589,9.023,3.892l1.401-1.402c-2.718-2.671-6.379-4.358-10.425-4.49
			v-6.013c5.691,0.134,10.847,2.507,14.644,6.285l1.401-1.402C67.892,33.75,62.24,31.148,56,31.013v-6.001
			C55.831,25.01,55.663,25,55.492,25c-0.49,0-0.977,0.014-1.461,0.038v6.013C42.005,31.8,32.385,41.723,31.887,54h-5.908
			c-0.011,0.333-0.025,0.665-0.025,1s0.014,0.667,0.025,1h5.908C32.131,62.014,34.573,67.454,38.405,71.536z M54.031,54h-4.357
			c0.389-2.343,2.117-4.225,4.357-4.807V54z M54.031,47.144c-3.33,0.638-5.921,3.408-6.347,6.856h-5.926
			c0.474-6.76,5.68-12.21,12.273-12.919V47.144z M54.031,33.056v6.02C46.352,39.797,40.271,46.138,39.788,54h-5.932
			C34.351,42.826,43.091,33.8,54.031,33.056z"/>
		<g>
			<g>
				<path style="fill:#FFFFFF;" d="M55.492,87C38.119,87,23,72.645,23,55s15.119-32,32.492-32S87,37.355,87,55S72.866,87,55.492,87z
					 M55.492,25c-16.288,0-29.538,13.458-29.538,30s13.251,30,29.538,30s29.575-13.458,29.538-30
					C84.994,38.422,71.755,24.976,55.492,25z"/>
			</g>
		</g>
	</g>
</g>
<g id="Multicolor" style="display:none;">
	<g style="display:inline;">
		<g>
			<ellipse style="fill:#0484AB;" cx="55.492" cy="55" rx="29.538" ry="30"/>
		</g>
		<path style="fill:#059BBF;" d="M55.492,25c-16.313,0-29.538,13.432-29.538,30c0,8.06,3.135,15.371,8.227,20.761l42.084-42.084
			C70.929,28.313,63.592,25,55.492,25z"/>
		<ellipse style="fill:#6FDAF1;" cx="67.308" cy="63.5" rx="1.969" ry="2"/>
		<g>
			<ellipse style="fill:#9CE5F4;" cx="43.677" cy="40" rx="1.969" ry="2"/>
		</g>
		<ellipse style="fill:#6FDAF1;" cx="71.246" cy="77" rx="1.969" ry="2"/>
		<path style="fill:#6FDAF1;" d="M55.492,54.449l22.161-22.161C71.956,26.555,64.13,23,55.492,23V54.449z"/>
		<ellipse style="fill:#C9F2F8;" cx="65.831" cy="34.5" rx="3.446" ry="3.5"/>
		<g>
			<ellipse style="fill:#9CE5F4;" cx="33.831" cy="61" rx="1.969" ry="2"/>
		</g>
		<path style="fill:#21B2D1;" d="M85.004,54h-5.906C78.586,41.4,68.467,31.282,56,31.013v-6.001C55.831,25.01,55.663,25,55.492,25
			c-0.49,0-0.977,0.014-1.461,0.038v6.013C42.005,31.8,32.385,41.723,31.887,54h-5.908c-0.011,0.333-0.025,0.665-0.025,1
			s0.014,0.667,0.025,1h5.908c0.498,12.277,10.118,22.2,22.144,22.95v6.013C54.515,84.986,55.002,85,55.492,85
			c0.17,0,0.338-0.01,0.508-0.013v-6C68.467,78.718,78.586,68.6,79.098,56h5.91c0.01-0.333,0.023-0.665,0.023-1
			S85.015,54.333,85.004,54z M54.031,76.944C43.091,76.2,34.351,67.174,33.856,56h5.932c0.482,7.862,6.564,14.203,14.243,14.925
			V76.944z M54.031,68.919C47.438,68.21,42.231,62.76,41.758,56h5.926c0.426,3.449,3.018,6.219,6.347,6.856V68.919z M54.031,60.807
			c-2.24-0.582-3.968-2.463-4.357-4.807h4.357V60.807z M54.031,54h-4.357c0.389-2.343,2.117-4.225,4.357-4.807V54z M54.031,47.144
			c-3.33,0.638-5.921,3.408-6.347,6.856h-5.926c0.474-6.76,5.68-12.21,12.273-12.919V47.144z M54.031,39.075
			C46.352,39.797,40.271,46.138,39.788,54h-5.932c0.495-11.174,9.235-20.2,20.175-20.944V39.075z M56,41.026
			C63.035,41.288,68.73,46.918,69.227,54h-5.926c-0.466-3.771-3.523-6.728-7.301-6.974V41.026z M56,49.026
			c2.691,0.234,4.868,2.307,5.311,4.974H56V49.026z M56,56h5.311c-0.443,2.667-2.62,4.74-5.311,4.974V56z M56,62.974
			c3.777-0.246,6.835-3.202,7.301-6.974h5.926C68.73,63.082,63.035,68.712,56,68.974V62.974z M56,76.987v-6.013
			C64.121,70.709,70.694,64.185,71.196,56h5.933C76.62,67.497,67.381,76.719,56,76.987z M71.196,54
			C70.694,45.815,64.121,39.291,56,39.026v-6.013C67.381,33.281,76.62,42.503,77.129,54H71.196z"/>
		<path style="fill:#40C9E7;" d="M38.405,71.536l1.402-1.402c-3.483-3.72-5.708-8.666-5.951-14.134h5.932
			c0.235,3.828,1.804,7.288,4.231,9.922l1.399-1.4C43.34,62.25,41.988,59.283,41.758,56h5.926c0.204,1.647,0.912,3.131,1.948,4.31
			l1.403-1.403c-0.689-0.811-1.177-1.804-1.36-2.907h4.267L56,53.941v-4.915c1.307,0.113,2.486,0.667,3.411,1.504l1.406-1.406
			c-1.286-1.202-2.963-1.978-4.816-2.098v-6c3.498,0.13,6.662,1.589,9.023,3.892l1.401-1.402c-2.718-2.671-6.379-4.358-10.425-4.49
			v-6.013c5.691,0.134,10.847,2.507,14.644,6.285l1.401-1.402C67.892,33.75,62.24,31.148,56,31.013v-6.001
			C55.831,25.01,55.663,25,55.492,25c-0.49,0-0.977,0.014-1.461,0.038v6.013C42.005,31.8,32.385,41.723,31.887,54h-5.908
			c-0.011,0.333-0.025,0.665-0.025,1s0.014,0.667,0.025,1h5.908C32.131,62.014,34.573,67.454,38.405,71.536z M54.031,54h-4.357
			c0.389-2.343,2.117-4.225,4.357-4.807V54z M54.031,47.144c-3.33,0.638-5.921,3.408-6.347,6.856h-5.926
			c0.474-6.76,5.68-12.21,12.273-12.919V47.144z M54.031,33.056v6.02C46.352,39.797,40.271,46.138,39.788,54h-5.932
			C34.351,42.826,43.091,33.8,54.031,33.056z"/>
		<g>
			<g>
				<path style="fill:#FFFFFF;" d="M55.492,87C38.119,87,23,72.645,23,55s15.119-32,32.492-32S87,37.355,87,55S72.866,87,55.492,87z
					 M55.492,25c-16.288,0-29.538,13.458-29.538,30s13.251,30,29.538,30s29.575-13.458,29.538-30
					C84.994,38.422,71.755,24.976,55.492,25z"/>
			</g>
		</g>
	</g>
</g>
<g id="Blue" style="display:none;">
	<g style="display:inline;">
		<g>
			<g>
				<ellipse style="fill:#0081A1;" cx="55.495" cy="55" rx="29.539" ry="30"/>
			</g>
		</g>
		<g>
			<ellipse style="fill:#FFFFFF;" cx="67.31" cy="63.5" rx="1.969" ry="2"/>
		</g>
		<g>
			<g>
				<ellipse style="fill:#FFFFFF;" cx="43.68" cy="40" rx="1.969" ry="2"/>
			</g>
		</g>
		<g>
			<ellipse style="fill:#FFFFFF;" cx="71.249" cy="77" rx="1.969" ry="2"/>
		</g>
		<g>
			<path style="fill:#00B7E5;" d="M55.495,54.449l22.161-22.161C71.958,26.555,64.133,23,55.495,23V54.449z"/>
		</g>
		<g>
			<ellipse style="fill:#FFFFFF;" cx="65.834" cy="34.5" rx="3.446" ry="3.5"/>
		</g>
		<g>
			<g>
				<ellipse style="fill:#FFFFFF;" cx="33.833" cy="61" rx="1.969" ry="2"/>
			</g>
		</g>
		<g>
			<path style="fill:#FFFFFF;" d="M85.007,54h-5.906C78.589,41.4,68.47,31.282,56.003,31.013v-6.001
				C55.833,25.01,55.665,25,55.495,25c-0.49,0-0.977,0.014-1.461,0.038v6.013C42.008,31.8,32.388,41.723,31.89,54h-5.908
				c-0.011,0.333-0.024,0.665-0.024,1s0.014,0.667,0.024,1h5.908c0.498,12.277,10.118,22.2,22.144,22.95v6.013
				C54.518,84.986,55.005,85,55.495,85c0.17,0,0.338-0.01,0.508-0.013v-6C68.47,78.718,78.589,68.599,79.101,56h5.91
				c0.01-0.333,0.023-0.665,0.023-1C85.033,54.664,85.018,54.332,85.007,54z M54.034,76.944C43.094,76.2,34.353,67.174,33.859,56
				h5.932c0.482,7.862,6.564,14.203,14.243,14.925V76.944z M54.034,68.919C47.44,68.21,42.234,62.76,41.761,56h5.926
				c0.426,3.449,3.018,6.219,6.347,6.856V68.919z M54.034,60.806c-2.24-0.582-3.968-2.463-4.357-4.807h4.357V60.806z M54.034,54
				h-4.357c0.389-2.343,2.117-4.225,4.357-4.807V54z M54.034,47.143c-3.33,0.638-5.921,3.408-6.347,6.856h-5.926
				c0.474-6.76,5.68-12.21,12.273-12.919V47.143z M54.034,39.075C46.355,39.797,40.273,46.138,39.791,54h-5.932
				c0.495-11.174,9.235-20.2,20.175-20.944V39.075z M56.003,41.026C63.038,41.288,68.733,46.918,69.23,54h-5.926
				c-0.466-3.771-3.523-6.728-7.301-6.974V41.026z M56.003,49.026c2.691,0.234,4.868,2.306,5.311,4.974h-5.311V49.026z M56.003,56
				h5.311c-0.443,2.667-2.619,4.74-5.311,4.974V56z M56.003,62.973c3.777-0.246,6.835-3.202,7.301-6.974h5.926
				c-0.497,7.082-6.192,12.712-13.227,12.974V62.973z M56.003,76.987v-6.013C64.123,70.708,70.697,64.184,71.199,56h5.933
				C76.622,67.497,67.384,76.719,56.003,76.987z M71.199,54c-0.502-8.185-7.076-14.709-15.196-14.974v-6.013
				c11.381,0.268,20.62,9.49,21.129,20.987H71.199z"/>
		</g>
		<g>
			<g>
				<g>
					<path style="fill:#FFFFFF;" d="M55.495,87c-17.374,0-32.492-14.355-32.492-32c0-17.646,15.119-32,32.492-32
						s31.508,14.354,31.508,32C87.003,72.644,72.869,87,55.495,87z M55.495,25c-16.288,0-29.539,13.458-29.539,30
						c0,16.542,13.251,30,29.539,30S85.07,71.542,85.034,55C84.997,38.422,71.758,24.975,55.495,25z"/>
				</g>
			</g>
		</g>
	</g>
</g>
<g id="R-Blue" style="display:none;">
	<g style="display:inline;">
		<circle style="fill:#81D2EB;" cx="55" cy="55" r="55"/>
	</g>
	<g style="display:inline;">
		<g>
			<g>
				<ellipse style="fill:#0081A1;" cx="55.492" cy="55" rx="29.539" ry="30"/>
			</g>
		</g>
		<g>
			<ellipse style="fill:#FFFFFF;" cx="67.308" cy="63.5" rx="1.969" ry="2"/>
		</g>
		<g>
			<g>
				<ellipse style="fill:#FFFFFF;" cx="43.677" cy="40" rx="1.969" ry="2"/>
			</g>
		</g>
		<g>
			<ellipse style="fill:#FFFFFF;" cx="71.246" cy="77" rx="1.969" ry="2"/>
		</g>
		<g>
			<path style="fill:#00B7E5;" d="M55.492,54.449l22.161-22.161C71.956,26.555,64.13,23,55.492,23V54.449z"/>
		</g>
		<g>
			<ellipse style="fill:#FFFFFF;" cx="65.831" cy="34.5" rx="3.446" ry="3.5"/>
		</g>
		<g>
			<g>
				<ellipse style="fill:#FFFFFF;" cx="33.831" cy="61" rx="1.969" ry="2"/>
			</g>
		</g>
		<g>
			<path style="fill:#FFFFFF;" d="M85.004,54h-5.906C78.586,41.4,68.467,31.282,56,31.013v-6.001C55.831,25.01,55.663,25,55.492,25
				c-0.49,0-0.977,0.014-1.461,0.038v6.013C42.005,31.8,32.385,41.723,31.887,54h-5.908c-0.011,0.333-0.024,0.665-0.024,1
				s0.014,0.667,0.024,1h5.908c0.498,12.277,10.118,22.2,22.144,22.95v6.013C54.515,84.986,55.002,85,55.492,85
				c0.17,0,0.338-0.01,0.508-0.013v-6C68.467,78.718,78.586,68.6,79.098,56h5.91c0.01-0.333,0.023-0.665,0.023-1
				C85.03,54.665,85.015,54.333,85.004,54z M54.031,76.944C43.091,76.2,34.351,67.174,33.856,56h5.932
				c0.482,7.862,6.564,14.203,14.243,14.925V76.944z M54.031,68.919C47.438,68.21,42.231,62.76,41.758,56h5.926
				c0.426,3.449,3.018,6.219,6.347,6.856V68.919z M54.031,60.807c-2.24-0.582-3.968-2.463-4.357-4.807h4.357V60.807z M54.031,54
				h-4.357c0.389-2.343,2.117-4.225,4.357-4.807V54z M54.031,47.144c-3.33,0.638-5.921,3.408-6.347,6.856h-5.926
				c0.474-6.76,5.68-12.21,12.273-12.919V47.144z M54.031,39.075C46.352,39.797,40.271,46.138,39.788,54h-5.932
				c0.495-11.174,9.235-20.2,20.175-20.944V39.075z M56,41.026C63.035,41.288,68.73,46.918,69.227,54h-5.926
				c-0.466-3.771-3.523-6.728-7.301-6.974V41.026z M56,49.026c2.691,0.234,4.868,2.306,5.311,4.974H56V49.026z M56,56h5.311
				c-0.443,2.667-2.619,4.74-5.311,4.974V56z M56,62.974c3.777-0.246,6.835-3.202,7.301-6.974h5.926
				C68.73,63.082,63.035,68.712,56,68.974V62.974z M56,76.987v-6.013C64.121,70.709,70.694,64.185,71.196,56h5.933
				C76.62,67.497,67.381,76.719,56,76.987z M71.196,54C70.694,45.815,64.121,39.291,56,39.026v-6.013
				C67.381,33.281,76.62,42.503,77.129,54H71.196z"/>
		</g>
		<g>
			<g>
				<g>
					<path style="fill:#FFFFFF;" d="M55.492,87C38.119,87,23,72.645,23,55c0-17.646,15.119-32,32.492-32S87,37.354,87,55
						C87,72.645,72.866,87,55.492,87z M55.492,25c-16.288,0-29.539,13.458-29.539,30c0,16.541,13.251,30,29.539,30
						s29.575-13.458,29.539-30C84.994,38.422,71.755,24.976,55.492,25z"/>
				</g>
			</g>
		</g>
	</g>
</g>
<g id="Green" style="display:none;">
	<g style="display:inline;">
		<g>
			<g>
				<ellipse style="fill:#009687;" cx="55.495" cy="55" rx="29.539" ry="30"/>
			</g>
		</g>
		<g>
			<ellipse style="fill:#FFFFFF;" cx="67.31" cy="63.5" rx="1.969" ry="2"/>
		</g>
		<g>
			<g>
				<ellipse style="fill:#FFFFFF;" cx="43.68" cy="40" rx="1.969" ry="2"/>
			</g>
		</g>
		<g>
			<ellipse style="fill:#FFFFFF;" cx="71.249" cy="77" rx="1.969" ry="2"/>
		</g>
		<g>
			<path style="fill:#00D6C1;" d="M55.495,54.449l22.161-22.161C71.958,26.555,64.133,23,55.495,23V54.449z"/>
		</g>
		<g>
			<ellipse style="fill:#FFFFFF;" cx="65.834" cy="34.5" rx="3.446" ry="3.5"/>
		</g>
		<g>
			<g>
				<ellipse style="fill:#FFFFFF;" cx="33.833" cy="61" rx="1.969" ry="2"/>
			</g>
		</g>
		<g>
			<path style="fill:#FFFFFF;" d="M85.007,54h-5.906C78.589,41.4,68.47,31.282,56.003,31.013v-6.001
				C55.833,25.01,55.665,25,55.495,25c-0.49,0-0.977,0.014-1.461,0.038v6.013C42.008,31.8,32.388,41.723,31.89,54h-5.908
				c-0.011,0.333-0.024,0.665-0.024,1s0.014,0.667,0.024,1h5.908c0.498,12.277,10.118,22.2,22.144,22.95v6.013
				C54.518,84.986,55.005,85,55.495,85c0.17,0,0.338-0.01,0.508-0.013v-6C68.47,78.718,78.589,68.6,79.101,56h5.91
				c0.01-0.333,0.023-0.665,0.023-1C85.033,54.665,85.018,54.333,85.007,54z M54.034,76.944C43.094,76.2,34.353,67.174,33.859,56
				h5.932c0.482,7.862,6.564,14.203,14.243,14.925V76.944z M54.034,68.919C47.44,68.21,42.234,62.76,41.761,56h5.926
				c0.426,3.449,3.018,6.219,6.347,6.856V68.919z M54.034,60.807c-2.24-0.582-3.968-2.463-4.357-4.807h4.357V60.807z M54.034,54
				h-4.357c0.389-2.343,2.117-4.225,4.357-4.807V54z M54.034,47.144c-3.33,0.638-5.921,3.408-6.347,6.856h-5.926
				c0.474-6.76,5.68-12.21,12.273-12.919V47.144z M54.034,39.075C46.355,39.797,40.273,46.138,39.791,54h-5.932
				c0.495-11.174,9.235-20.2,20.175-20.944V39.075z M56.003,41.026C63.038,41.288,68.733,46.918,69.23,54h-5.926
				c-0.466-3.771-3.523-6.728-7.301-6.974V41.026z M56.003,49.026c2.691,0.234,4.868,2.306,5.311,4.974h-5.311V49.026z M56.003,56
				h5.311c-0.443,2.667-2.619,4.74-5.311,4.974V56z M56.003,62.974c3.777-0.246,6.835-3.202,7.301-6.974h5.926
				c-0.497,7.082-6.192,12.712-13.227,12.974V62.974z M56.003,76.987v-6.013C64.123,70.709,70.697,64.185,71.199,56h5.933
				C76.622,67.497,67.384,76.719,56.003,76.987z M71.199,54c-0.502-8.185-7.076-14.709-15.196-14.974v-6.013
				c11.381,0.268,20.62,9.49,21.129,20.987H71.199z"/>
		</g>
		<g>
			<g>
				<g>
					<path style="fill:#FFFFFF;" d="M55.495,87c-17.374,0-32.492-14.355-32.492-32c0-17.646,15.119-32,32.492-32
						s31.508,14.354,31.508,32C87.003,72.645,72.869,87,55.495,87z M55.495,25c-16.288,0-29.539,13.458-29.539,30
						c0,16.541,13.251,30,29.539,30S85.07,71.542,85.034,55C84.997,38.422,71.758,24.976,55.495,25z"/>
				</g>
			</g>
		</g>
	</g>
</g>
<g id="R-Green" style="display:none;">
	<g style="display:inline;">
		<circle style="fill:#87E0C8;" cx="55" cy="55" r="55"/>
	</g>
	<g style="display:inline;">
		<g>
			<g>
				<ellipse style="fill:#009687;" cx="55.492" cy="55" rx="29.539" ry="30"/>
			</g>
		</g>
		<g>
			<ellipse style="fill:#FFFFFF;" cx="67.308" cy="63.5" rx="1.969" ry="2"/>
		</g>
		<g>
			<g>
				<ellipse style="fill:#FFFFFF;" cx="43.677" cy="40" rx="1.969" ry="2"/>
			</g>
		</g>
		<g>
			<ellipse style="fill:#FFFFFF;" cx="71.246" cy="77" rx="1.969" ry="2"/>
		</g>
		<g>
			<path style="fill:#00D6C1;" d="M55.492,54.449l22.161-22.161C71.956,26.555,64.13,23,55.492,23V54.449z"/>
		</g>
		<g>
			<ellipse style="fill:#FFFFFF;" cx="65.831" cy="34.5" rx="3.446" ry="3.5"/>
		</g>
		<g>
			<g>
				<ellipse style="fill:#FFFFFF;" cx="33.831" cy="61" rx="1.969" ry="2"/>
			</g>
		</g>
		<g>
			<path style="fill:#FFFFFF;" d="M85.004,54h-5.906C78.586,41.4,68.467,31.282,56,31.013v-6.001C55.831,25.01,55.663,25,55.492,25
				c-0.49,0-0.977,0.014-1.461,0.038v6.013C42.005,31.8,32.385,41.723,31.887,54h-5.908c-0.011,0.333-0.024,0.665-0.024,1
				s0.014,0.667,0.024,1h5.908c0.498,12.277,10.118,22.2,22.144,22.95v6.013C54.515,84.986,55.002,85,55.492,85
				c0.17,0,0.338-0.01,0.508-0.013v-6C68.467,78.718,78.586,68.6,79.098,56h5.91c0.01-0.333,0.023-0.665,0.023-1
				C85.03,54.665,85.015,54.333,85.004,54z M54.031,76.944C43.091,76.2,34.351,67.174,33.856,56h5.932
				c0.482,7.862,6.564,14.203,14.243,14.925V76.944z M54.031,68.919C47.438,68.21,42.231,62.76,41.758,56h5.926
				c0.426,3.449,3.018,6.219,6.347,6.856V68.919z M54.031,60.807c-2.24-0.582-3.968-2.463-4.357-4.807h4.357V60.807z M54.031,54
				h-4.357c0.389-2.343,2.117-4.225,4.357-4.807V54z M54.031,47.144c-3.33,0.638-5.921,3.408-6.347,6.856h-5.926
				c0.474-6.76,5.68-12.21,12.273-12.919V47.144z M54.031,39.075C46.352,39.797,40.271,46.138,39.788,54h-5.932
				c0.495-11.174,9.235-20.2,20.175-20.944V39.075z M56,41.026C63.035,41.288,68.73,46.918,69.227,54h-5.926
				c-0.466-3.771-3.523-6.728-7.301-6.974V41.026z M56,49.026c2.691,0.234,4.868,2.306,5.311,4.974H56V49.026z M56,56h5.311
				c-0.443,2.667-2.619,4.74-5.311,4.974V56z M56,62.974c3.777-0.246,6.835-3.202,7.301-6.974h5.926
				C68.73,63.082,63.035,68.712,56,68.974V62.974z M56,76.987v-6.013C64.121,70.709,70.694,64.185,71.196,56h5.933
				C76.62,67.497,67.381,76.719,56,76.987z M71.196,54C70.694,45.815,64.121,39.291,56,39.026v-6.013
				C67.381,33.281,76.62,42.503,77.129,54H71.196z"/>
		</g>
		<g>
			<g>
				<g>
					<path style="fill:#FFFFFF;" d="M55.492,87C38.119,87,23,72.645,23,55c0-17.646,15.119-32,32.492-32S87,37.354,87,55
						C87,72.645,72.866,87,55.492,87z M55.492,25c-16.288,0-29.539,13.458-29.539,30c0,16.541,13.251,30,29.539,30
						s29.575-13.458,29.539-30C84.994,38.422,71.755,24.976,55.492,25z"/>
				</g>
			</g>
		</g>
	</g>
</g>
<g id="Red" style="display:none;">
	<g style="display:inline;">
		<g>
			<g>
				<ellipse style="fill:#C23023;" cx="55.492" cy="55" rx="29.539" ry="30"/>
			</g>
		</g>
		<g>
			<ellipse style="fill:#FFFFFF;" cx="67.308" cy="63.5" rx="1.969" ry="2"/>
		</g>
		<g>
			<g>
				<ellipse style="fill:#FFFFFF;" cx="43.677" cy="40" rx="1.969" ry="2"/>
			</g>
		</g>
		<g>
			<ellipse style="fill:#FFFFFF;" cx="71.246" cy="77" rx="1.969" ry="2"/>
		</g>
		<g>
			<path style="fill:#FF6C5E;" d="M55.492,54.449l22.161-22.161C71.956,26.555,64.13,23,55.492,23V54.449z"/>
		</g>
		<g>
			<ellipse style="fill:#FFFFFF;" cx="65.831" cy="34.5" rx="3.446" ry="3.5"/>
		</g>
		<g>
			<g>
				<ellipse style="fill:#FFFFFF;" cx="33.831" cy="61" rx="1.969" ry="2"/>
			</g>
		</g>
		<g>
			<path style="fill:#FFFFFF;" d="M85.004,54h-5.906C78.586,41.4,68.467,31.282,56,31.013v-6.001C55.831,25.01,55.663,25,55.492,25
				c-0.49,0-0.977,0.014-1.461,0.038v6.013C42.005,31.8,32.385,41.723,31.887,54h-5.908c-0.011,0.333-0.024,0.665-0.024,1
				s0.014,0.667,0.024,1h5.908c0.498,12.277,10.118,22.2,22.144,22.95v6.013C54.515,84.986,55.002,85,55.492,85
				c0.17,0,0.338-0.01,0.508-0.013v-6C68.467,78.718,78.586,68.599,79.098,56h5.91c0.01-0.333,0.023-0.665,0.023-1
				C85.03,54.664,85.015,54.332,85.004,54z M54.031,76.944C43.091,76.2,34.351,67.174,33.856,56h5.932
				c0.482,7.862,6.564,14.203,14.243,14.925V76.944z M54.031,68.919C47.438,68.21,42.231,62.76,41.758,56h5.926
				c0.426,3.449,3.018,6.219,6.347,6.856V68.919z M54.031,60.806c-2.24-0.582-3.968-2.463-4.357-4.807h4.357V60.806z M54.031,54
				h-4.357c0.389-2.343,2.117-4.225,4.357-4.807V54z M54.031,47.143c-3.33,0.638-5.921,3.408-6.347,6.856h-5.926
				c0.474-6.76,5.68-12.21,12.273-12.919V47.143z M54.031,39.075C46.352,39.797,40.271,46.138,39.788,54h-5.932
				c0.495-11.174,9.235-20.2,20.175-20.944V39.075z M56,41.026C63.035,41.288,68.73,46.918,69.227,54h-5.926
				c-0.466-3.771-3.523-6.728-7.301-6.974V41.026z M56,49.026c2.691,0.234,4.868,2.306,5.311,4.974H56V49.026z M56,56h5.311
				c-0.443,2.667-2.619,4.74-5.311,4.974V56z M56,62.973c3.777-0.246,6.835-3.202,7.301-6.974h5.926
				C68.73,63.081,63.035,68.712,56,68.973V62.973z M56,76.987v-6.013C64.121,70.708,70.694,64.184,71.196,56h5.933
				C76.62,67.497,67.381,76.719,56,76.987z M71.196,54C70.694,45.815,64.121,39.29,56,39.026v-6.013
				C67.381,33.281,76.62,42.503,77.129,54H71.196z"/>
		</g>
		<g>
			<g>
				<g>
					<path style="fill:#FFFFFF;" d="M55.492,87C38.119,87,23,72.644,23,55c0-17.646,15.119-32,32.492-32S87,37.354,87,55
						C87,72.644,72.866,87,55.492,87z M55.492,25c-16.288,0-29.539,13.458-29.539,30c0,16.542,13.251,30,29.539,30
						s29.575-13.458,29.539-30C84.994,38.422,71.755,24.975,55.492,25z"/>
				</g>
			</g>
		</g>
	</g>
</g>
<g id="R-Red" style="display:none;">
	<g style="display:inline;">
		<circle style="fill:#FABBAF;" cx="55" cy="55" r="55"/>
	</g>
	<g style="display:inline;">
		<g>
			<g>
				<ellipse style="fill:#C23023;" cx="55.492" cy="55" rx="29.539" ry="30"/>
			</g>
		</g>
		<g>
			<ellipse style="fill:#FFFFFF;" cx="67.308" cy="63.5" rx="1.969" ry="2"/>
		</g>
		<g>
			<g>
				<ellipse style="fill:#FFFFFF;" cx="43.677" cy="40" rx="1.969" ry="2"/>
			</g>
		</g>
		<g>
			<ellipse style="fill:#FFFFFF;" cx="71.246" cy="77" rx="1.969" ry="2"/>
		</g>
		<g>
			<path style="fill:#FF6C5E;" d="M55.492,54.449l22.161-22.161C71.956,26.555,64.13,23,55.492,23V54.449z"/>
		</g>
		<g>
			<ellipse style="fill:#FFFFFF;" cx="65.831" cy="34.5" rx="3.446" ry="3.5"/>
		</g>
		<g>
			<g>
				<ellipse style="fill:#FFFFFF;" cx="33.831" cy="61" rx="1.969" ry="2"/>
			</g>
		</g>
		<g>
			<path style="fill:#FFFFFF;" d="M85.004,54h-5.906C78.586,41.4,68.467,31.282,56,31.013v-6.001C55.831,25.01,55.663,25,55.492,25
				c-0.49,0-0.977,0.014-1.461,0.038v6.013C42.005,31.8,32.385,41.723,31.887,54h-5.908c-0.011,0.333-0.024,0.665-0.024,1
				s0.014,0.667,0.024,1h5.908c0.498,12.277,10.118,22.2,22.144,22.95v6.013C54.515,84.986,55.002,85,55.492,85
				c0.17,0,0.338-0.01,0.508-0.013v-6C68.467,78.718,78.586,68.6,79.098,56h5.91c0.01-0.333,0.023-0.665,0.023-1
				C85.03,54.665,85.015,54.333,85.004,54z M54.031,76.944C43.091,76.2,34.351,67.174,33.856,56h5.932
				c0.482,7.862,6.564,14.203,14.243,14.925V76.944z M54.031,68.919C47.438,68.21,42.231,62.76,41.758,56h5.926
				c0.426,3.449,3.018,6.219,6.347,6.856V68.919z M54.031,60.807c-2.24-0.582-3.968-2.463-4.357-4.807h4.357V60.807z M54.031,54
				h-4.357c0.389-2.343,2.117-4.225,4.357-4.807V54z M54.031,47.144c-3.33,0.638-5.921,3.408-6.347,6.856h-5.926
				c0.474-6.76,5.68-12.21,12.273-12.919V47.144z M54.031,39.075C46.352,39.797,40.271,46.138,39.788,54h-5.932
				c0.495-11.174,9.235-20.2,20.175-20.944V39.075z M56,41.026C63.035,41.288,68.73,46.918,69.227,54h-5.926
				c-0.466-3.771-3.523-6.728-7.301-6.974V41.026z M56,49.026c2.691,0.234,4.868,2.306,5.311,4.974H56V49.026z M56,56h5.311
				c-0.443,2.667-2.619,4.74-5.311,4.974V56z M56,62.974c3.777-0.246,6.835-3.202,7.301-6.974h5.926
				C68.73,63.082,63.035,68.712,56,68.974V62.974z M56,76.987v-6.013C64.121,70.709,70.694,64.185,71.196,56h5.933
				C76.62,67.497,67.381,76.719,56,76.987z M71.196,54C70.694,45.815,64.121,39.291,56,39.026v-6.013
				C67.381,33.281,76.62,42.503,77.129,54H71.196z"/>
		</g>
		<g>
			<g>
				<g>
					<path style="fill:#FFFFFF;" d="M55.492,87C38.119,87,23,72.645,23,55c0-17.646,15.119-32,32.492-32S87,37.354,87,55
						C87,72.645,72.866,87,55.492,87z M55.492,25c-16.288,0-29.539,13.458-29.539,30c0,16.541,13.251,30,29.539,30
						s29.575-13.458,29.539-30C84.994,38.422,71.755,24.976,55.492,25z"/>
				</g>
			</g>
		</g>
	</g>
</g>
<g id="Yellow" style="display:none;">
	<g style="display:inline;">
		<g>
			<g>
				<ellipse style="fill:#E07000;" cx="55.495" cy="55" rx="29.539" ry="30"/>
			</g>
		</g>
		<g>
			<ellipse style="fill:#FFFFFF;" cx="67.31" cy="63.5" rx="1.969" ry="2"/>
		</g>
		<g>
			<g>
				<ellipse style="fill:#FFFFFF;" cx="43.68" cy="40" rx="1.969" ry="2"/>
			</g>
		</g>
		<g>
			<ellipse style="fill:#FFFFFF;" cx="71.249" cy="77" rx="1.969" ry="2"/>
		</g>
		<g>
			<path style="fill:#FFAA00;" d="M55.495,54.449l22.161-22.161C71.958,26.555,64.133,23,55.495,23V54.449z"/>
		</g>
		<g>
			<ellipse style="fill:#FFFFFF;" cx="65.834" cy="34.5" rx="3.446" ry="3.5"/>
		</g>
		<g>
			<g>
				<ellipse style="fill:#FFFFFF;" cx="33.833" cy="61" rx="1.969" ry="2"/>
			</g>
		</g>
		<g>
			<path style="fill:#FFFFFF;" d="M85.007,54h-5.906C78.589,41.4,68.47,31.282,56.003,31.013v-6.001
				C55.833,25.01,55.665,25,55.495,25c-0.49,0-0.977,0.014-1.461,0.038v6.013C42.008,31.8,32.388,41.723,31.89,54h-5.908
				c-0.011,0.333-0.024,0.665-0.024,1s0.014,0.667,0.024,1h5.908c0.498,12.277,10.118,22.2,22.144,22.95v6.013
				C54.518,84.986,55.005,85,55.495,85c0.17,0,0.338-0.01,0.508-0.013v-6C68.47,78.718,78.589,68.599,79.101,56h5.91
				c0.01-0.333,0.023-0.665,0.023-1C85.033,54.664,85.018,54.332,85.007,54z M54.034,76.944C43.094,76.2,34.353,67.174,33.859,56
				h5.932c0.482,7.862,6.564,14.203,14.243,14.925V76.944z M54.034,68.919C47.44,68.21,42.234,62.76,41.761,56h5.926
				c0.426,3.449,3.018,6.219,6.347,6.856V68.919z M54.034,60.806c-2.24-0.582-3.968-2.463-4.357-4.807h4.357V60.806z M54.034,54
				h-4.357c0.389-2.343,2.117-4.225,4.357-4.807V54z M54.034,47.143c-3.33,0.638-5.921,3.408-6.347,6.856h-5.926
				c0.474-6.76,5.68-12.21,12.273-12.919V47.143z M54.034,39.075C46.355,39.797,40.273,46.138,39.791,54h-5.932
				c0.495-11.174,9.235-20.2,20.175-20.944V39.075z M56.003,41.026C63.038,41.288,68.733,46.918,69.23,54h-5.926
				c-0.466-3.771-3.523-6.728-7.301-6.974V41.026z M56.003,49.026c2.691,0.234,4.868,2.306,5.311,4.974h-5.311V49.026z M56.003,56
				h5.311c-0.443,2.667-2.619,4.74-5.311,4.974V56z M56.003,62.973c3.777-0.246,6.835-3.202,7.301-6.974h5.926
				c-0.497,7.082-6.192,12.712-13.227,12.974V62.973z M56.003,76.987v-6.013C64.123,70.708,70.697,64.184,71.199,56h5.933
				C76.622,67.497,67.384,76.719,56.003,76.987z M71.199,54c-0.502-8.185-7.076-14.709-15.196-14.974v-6.013
				c11.381,0.268,20.62,9.49,21.129,20.987H71.199z"/>
		</g>
		<g>
			<g>
				<g>
					<path style="fill:#FFFFFF;" d="M55.495,87c-17.374,0-32.492-14.355-32.492-32c0-17.646,15.119-32,32.492-32
						s31.508,14.354,31.508,32C87.003,72.644,72.869,87,55.495,87z M55.495,25c-16.288,0-29.539,13.458-29.539,30
						c0,16.542,13.251,30,29.539,30S85.07,71.542,85.034,55C84.997,38.422,71.758,24.975,55.495,25z"/>
				</g>
			</g>
		</g>
	</g>
</g>
<g id="R-Yellow" style="display:none;">
	<g style="display:inline;">
		<circle style="fill:#FFD75E;" cx="55" cy="55" r="55"/>
	</g>
	<g style="display:inline;">
		<g>
			<g>
				<ellipse style="fill:#E07000;" cx="55.492" cy="55" rx="29.539" ry="30"/>
			</g>
		</g>
		<g>
			<ellipse style="fill:#FFFFFF;" cx="67.308" cy="63.5" rx="1.969" ry="2"/>
		</g>
		<g>
			<g>
				<ellipse style="fill:#FFFFFF;" cx="43.677" cy="40" rx="1.969" ry="2"/>
			</g>
		</g>
		<g>
			<ellipse style="fill:#FFFFFF;" cx="71.246" cy="77" rx="1.969" ry="2"/>
		</g>
		<g>
			<path style="fill:#FFAA00;" d="M55.492,54.449l22.161-22.161C71.956,26.555,64.13,23,55.492,23V54.449z"/>
		</g>
		<g>
			<ellipse style="fill:#FFFFFF;" cx="65.831" cy="34.5" rx="3.446" ry="3.5"/>
		</g>
		<g>
			<g>
				<ellipse style="fill:#FFFFFF;" cx="33.831" cy="61" rx="1.969" ry="2"/>
			</g>
		</g>
		<g>
			<path style="fill:#FFFFFF;" d="M85.004,54h-5.906C78.586,41.4,68.467,31.282,56,31.013v-6.001C55.831,25.01,55.663,25,55.492,25
				c-0.49,0-0.977,0.014-1.461,0.038v6.013C42.005,31.8,32.385,41.723,31.887,54h-5.908c-0.011,0.333-0.024,0.665-0.024,1
				s0.014,0.667,0.024,1h5.908c0.498,12.277,10.118,22.2,22.144,22.95v6.013C54.515,84.986,55.002,85,55.492,85
				c0.17,0,0.338-0.01,0.508-0.013v-6C68.467,78.718,78.586,68.6,79.098,56h5.91c0.01-0.333,0.023-0.665,0.023-1
				C85.03,54.665,85.015,54.333,85.004,54z M54.031,76.944C43.091,76.2,34.351,67.174,33.856,56h5.932
				c0.482,7.862,6.564,14.203,14.243,14.925V76.944z M54.031,68.919C47.438,68.21,42.231,62.76,41.758,56h5.926
				c0.426,3.449,3.018,6.219,6.347,6.856V68.919z M54.031,60.807c-2.24-0.582-3.968-2.463-4.357-4.807h4.357V60.807z M54.031,54
				h-4.357c0.389-2.343,2.117-4.225,4.357-4.807V54z M54.031,47.144c-3.33,0.638-5.921,3.408-6.347,6.856h-5.926
				c0.474-6.76,5.68-12.21,12.273-12.919V47.144z M54.031,39.075C46.352,39.797,40.271,46.138,39.788,54h-5.932
				c0.495-11.174,9.235-20.2,20.175-20.944V39.075z M56,41.026C63.035,41.288,68.73,46.918,69.227,54h-5.926
				c-0.466-3.771-3.523-6.728-7.301-6.974V41.026z M56,49.026c2.691,0.234,4.868,2.306,5.311,4.974H56V49.026z M56,56h5.311
				c-0.443,2.667-2.619,4.74-5.311,4.974V56z M56,62.974c3.777-0.246,6.835-3.202,7.301-6.974h5.926
				C68.73,63.082,63.035,68.712,56,68.974V62.974z M56,76.987v-6.013C64.121,70.709,70.694,64.185,71.196,56h5.933
				C76.62,67.497,67.381,76.719,56,76.987z M71.196,54C70.694,45.815,64.121,39.291,56,39.026v-6.013
				C67.381,33.281,76.62,42.503,77.129,54H71.196z"/>
		</g>
		<g>
			<g>
				<g>
					<path style="fill:#FFFFFF;" d="M55.492,87C38.119,87,23,72.645,23,55c0-17.646,15.119-32,32.492-32S87,37.354,87,55
						C87,72.645,72.866,87,55.492,87z M55.492,25c-16.288,0-29.539,13.458-29.539,30c0,16.541,13.251,30,29.539,30
						s29.575-13.458,29.539-30C84.994,38.422,71.755,24.976,55.492,25z"/>
				</g>
			</g>
		</g>
	</g>
</g>
</svg>
