<?xml version="1.0" encoding="iso-8859-1"?>
<!-- Generator: Adobe Illustrator 17.1.0, SVG Export Plug-In . SVG Version: 6.00 Build 0)  -->
<!DOCTYPE svg PUBLIC "-//W3C//DTD SVG 1.0//EN" "http://www.w3.org/TR/2001/REC-SVG-20010904/DTD/svg10.dtd">
<svg version="1.0" xmlns="http://www.w3.org/2000/svg" xmlns:xlink="http://www.w3.org/1999/xlink" x="0px" y="0px" width="110px"
	 height="110px" viewBox="0 0 110 110" style="enable-background:new 0 0 110 110;" xml:space="preserve">
<g id="Artboard">
</g>
<g id="Multicolor">
	<g>
		<circle style="fill:#E04F5F;" cx="55" cy="55" r="55"/>
	</g>
	<g>
		<g>
			<polygon style="fill:#40C9E7;" points="67,68 65,67 45,67 43,68 55,87.003 			"/>
		</g>
		<path style="fill:#F7B4B4;" d="M57.655,68H55h-2.655c-0.856,0-1.671-0.365-2.24-1.004L45,63v4.5c0,0,0,7.5,10,7.5s10-7.5,10-7.5
			V63l-5.105,3.996C59.326,67.635,58.511,68,57.655,68z"/>
		<path style="fill:#FBC8C8;" d="M50.105,66.996L45,63v4.5c0,0,0,7.5,10,7.5v-7h-2.655C51.489,68,50.674,67.635,50.105,66.996z"/>
		<path style="fill:#FFFFFF;" d="M87,46.396c0,0-8.077-18.837-19.997-14.052C68.744,34.957,68.991,38.622,69,43v10l-1.344,3.36
			C74.061,55.998,75,51.396,75,51.396l6,2l-3-7H87z"/>
		<path style="fill:#FBC8C8;" d="M72,47.225c0-1.111-1-2.222-2-2.222s-1,1.111-1,1.111V43c-0.018-9-1.024-15-14-15s-13.982,6-14,15
			v10l4,10l5.105,3.996C50.674,67.635,51.489,68,52.345,68H55h2.655c0.856,0,1.671-0.365,2.24-1.004L65,63l3.207-8.017
			C71.042,54.779,72,50.479,72,47.225z"/>
		<path style="fill:#FFFFFF;" d="M41,53V43c0.009-4.378,0.256-8.043,1.997-10.656C31.077,27.559,23,46.396,23,46.396h9l-3,7l6-2
			c0,0,0.939,4.602,7.344,4.964L41,53z"/>
		<path style="fill:#FBD7D7;" d="M41,43v3.114c0,0,0-1.111-1-1.111s-2,1.111-2,2.222c0,3.253,0.958,7.554,3.793,7.758L45,63
			l5.105,3.996C50.674,67.635,51.489,68,52.345,68H55V28C42.024,28,41.018,34,41,43z"/>
		<path style="fill:#F79392;" d="M55,57.396c0,0-2.41,0-4.939,0C50.259,58.209,51.132,60,55,60s4.741-1.791,4.939-2.604
			C57.41,57.396,55,57.396,55,57.396z"/>
		<path style="fill:#FFFFFF;" d="M55,55.396c-2-3-7-1-9,2c3,0,9,0,9,0s6,0,9,0C62,54.396,57,52.396,55,55.396z"/>
		<path style="fill:#40C9E7;" d="M55.734,38.3c-0.241,0-0.485,0.002-0.734,0.005c-0.248-0.003-0.494-0.005-0.734-0.005
			c-12.311,0-15.357,3.791-15.357,3.791s0.2,8.619,1.893,9.465c1.893,0.947,9.466,0.947,9.466,0.947
			c1.893,0,1.893-4.733,4.732-4.733s2.84,4.733,4.733,4.733c0,0,7.572,0,9.465-0.947c1.693-0.847,1.893-9.465,1.893-9.465
			S68.042,38.3,55.734,38.3z"/>
		<g>
			<path style="fill:#3E3E3F;" d="M55.734,38.3c12.309,0,15.357,3.791,15.357,3.791s-0.2,8.619-1.893,9.465
				c-1.893,0.947-9.465,0.947-9.465,0.947c-1.893,0-1.893-4.733-4.733-4.733c-2.84,0-2.84,4.733-4.733,4.733
				c0,0-7.572,0-9.465-0.947c-1.693-0.847-1.893-9.465-1.893-9.465S41.955,38.3,54.266,38.3c0.24,0,0.486,0.002,0.734,0.005
				C55.249,38.302,55.493,38.3,55.734,38.3 M55.734,36.407c-0.249,0-0.501,0.002-0.757,0.005c-0.21-0.003-0.463-0.005-0.711-0.005
				c-12.847,0-16.463,4.038-16.833,4.498L37,41.444l0.016,0.691c0.447,10.023,2.633,11.216,2.939,11.115
				c2.127,1.063,8.431,1.146,10.312,1.146c2.032,0,2.936-1.847,3.535-3.069c0.446-0.91,0.843-1.663,1.198-1.663
				c0.354,0,0.751,0.753,1.198,1.663c0.599,1.222,1.503,3.069,3.535,3.069c1.881,0,8.185-0.083,10.312-1.146
				c0.671-0.336,2.713-1.356,2.939-11.115L73,41.443l-0.434-0.539C72.196,40.444,68.579,36.407,55.734,36.407L55.734,36.407z"/>
		</g>
		<g>
			<path style="fill:#6FDAF1;" d="M55,38.309c-12.923-0.154-15.972,3.778-16.091,3.786c0,2.84,0.2,8.619,1.893,9.465
				c0.121,0.061,0.267,0.117,0.431,0.17c10.601-6.724,17.3-11.088,20.35-13.091C59.741,38.411,57.568,38.279,55,38.309z"/>
		</g>
		<g>
			<polygon style="fill:#3E3E3F;" points="59,87.003 56.201,76.803 58,75.005 54.981,71.981 51.983,74.979 53.801,76.796 51,87.003 
							"/>
		</g>
		<g>
			<polygon style="fill:#5B5C5F;" points="55,87.003 55,72 54.981,71.981 51.983,74.979 53.801,76.796 51,87.003 			"/>
		</g>
		<g>
			<path style="fill:#FFFFFF;" d="M30.043,73.021c-1.345,0.588-2.428,1.649-3.043,2.982l-4,11h32l-12-19L30.043,73.021z"/>
			<path style="fill:#FFFFFF;" d="M83,76.003c-0.615-1.333-1.698-2.394-3.043-2.982L67,68.003l-12,19h32L83,76.003z"/>
		</g>
		<g>
			<polygon style="fill:#9CE5F4;" points="66.965,68.062 67,68.003 65,67.003 55.015,71.984 60.808,77.81 			"/>
		</g>
		<g>
			<polygon style="fill:#9CE5F4;" points="43.035,68.062 43,68.003 45,67.003 54.985,71.984 49.192,77.81 			"/>
		</g>
		<g>
			<polygon style="fill:#F1F2F2;" points="55,87.003 45,66.003 41,68.003 39,79.003 46,80.003 45,87.003 			"/>
		</g>
		<g>
			<polygon style="fill:#F1F2F2;" points="55,87.003 65,66.003 69,68.003 71,79.003 64,80.003 65,87.003 			"/>
		</g>
		<g>
			<g>
				<rect x="28" y="82.396" style="fill:#E2E4E5;" width="11" height="2"/>
			</g>
			<g>
				<rect x="30" y="79.396" style="fill:#DF2C2C;" width="3" height="3"/>
			</g>
			<g>
				<path style="fill:#FA5655;" d="M33,79.396h-3v-0.5c0-0.825,0.675-1.5,1.5-1.5s1.5,0.675,1.5,1.5V79.396z"/>
			</g>
			<g>
				<rect x="34" y="80.396" style="fill:#F37A10;" width="3" height="2"/>
			</g>
			<g>
				<path style="fill:#F3B607;" d="M37,80.396h-3v-0.5c0-0.825,0.675-1.5,1.5-1.5c0.825,0,1.5,0.675,1.5,1.5V80.396z"/>
			</g>
		</g>
	</g>
</g>
</svg>
