<?xml version="1.0" encoding="iso-8859-1"?>
<!-- Generator: Adobe Illustrator 17.1.0, SVG Export Plug-In . SVG Version: 6.00 Build 0)  -->
<!DOCTYPE svg PUBLIC "-//W3C//DTD SVG 1.0//EN" "http://www.w3.org/TR/2001/REC-SVG-20010904/DTD/svg10.dtd">
<svg version="1.0" xmlns="http://www.w3.org/2000/svg" xmlns:xlink="http://www.w3.org/1999/xlink" x="0px" y="0px" width="110px"
	 height="110px" viewBox="0 0 110 110" style="enable-background:new 0 0 110 110;" xml:space="preserve">
<g id="Artboard" style="display:none;">
	<rect x="-1210" y="-45" style="display:inline;fill:#808080;" width="1347" height="333"/>
</g>
<g id="R-Multicolor" style="display:none;">
	<circle style="display:inline;fill:#FABC3D;" cx="55" cy="55" r="55"/>
	<g style="display:inline;">
		<path style="fill:#84462D;" d="M30.288,73.167l-6.615,8.373c-1.031,1.305-0.86,3.189,0.389,4.288l0.241,0.212
			c1.249,1.098,3.14,1.027,4.302-0.163l7.818-6.762C34.106,77.433,32.04,75.429,30.288,73.167z"/>
		<path style="fill:#84462D;" d="M84.979,81.54l-6.927-8.769c-1.731,2.314-3.789,4.37-6.105,6.099l8.1,7.006
			c1.162,1.19,3.053,1.261,4.302,0.163l0.241-0.212C85.84,84.729,86.011,82.845,84.979,81.54z"/>
		<circle style="fill:#DF2C2C;" cx="54.014" cy="54.818" r="30"/>
		<path style="fill:#FA5655;" d="M54.014,24.818c-16.569,0-30,13.431-30,30c0,8.427,3.479,16.037,9.073,21.487l42.413-42.413
			C70.051,28.297,62.441,24.818,54.014,24.818z"/>
		<circle style="fill:#F0F1F1;" cx="54.014" cy="54.818" r="21.429"/>
		<path style="fill:#FFFFFF;" d="M54.014,33.39c-11.835,0-21.428,9.594-21.428,21.428c0,6.06,2.526,11.521,6.57,15.419
			l30.278-30.278C65.535,35.916,60.074,33.39,54.014,33.39z"/>
		<circle style="fill:#DF2C2C;" cx="54.014" cy="54.818" r="12.857"/>
		<path style="fill:#FA5655;" d="M54.014,41.961c-7.101,0-12.857,5.756-12.857,12.857c0,3.693,1.566,7.013,4.059,9.358L63.372,46.02
			C61.027,43.527,57.707,41.961,54.014,41.961z"/>
		<circle style="fill:#E2E4E5;" cx="54.014" cy="54.818" r="4.286"/>
		<path style="fill:#FFFFFF;" d="M54.014,50.533c-2.367,0-4.286,1.918-4.286,4.286c0,1.344,0.631,2.528,1.598,3.313l6.001-6.001
			C56.542,51.163,55.358,50.533,54.014,50.533z"/>
		<path style="fill:#FFFFFF;" d="M78.616,28.357c0.092-0.096,0.192-0.182,0.299-0.256c0-1.242,0-3.682,0-5.101
			c-1.92,1.92-8.524,6.667-7.87,13.309L78.616,28.357z"/>
		<path style="fill:#FFFFFF;" d="M81.654,30.774c-0.081,0.123-0.172,0.239-0.28,0.341l-7.533,7.172
			c6.272,0.534,10.754-5.694,12.574-7.513C85.101,30.774,82.867,30.774,81.654,30.774z"/>
		<path style="fill:#84462D;" d="M54.645,56.128c-0.402,0.384-1.038,0.376-1.431-0.017c-0.393-0.393-0.401-1.028-0.017-1.431
			l25.419-26.323c0.363-0.381,0.864-0.599,1.389-0.606c0.526-0.006,1.032,0.2,1.404,0.571c0.372,0.372,0.578,0.878,0.571,1.404
			s-0.225,1.027-0.606,1.389L54.645,56.128z"/>
	</g>
</g>
<g id="Multicolor_1_" style="display:none;">
	<g style="display:inline;">
		<path style="fill:#84462D;" d="M30.288,73.167l-6.615,8.373c-1.031,1.305-0.86,3.189,0.389,4.288l0.241,0.212
			c1.249,1.098,3.14,1.027,4.302-0.163l7.818-6.762C34.106,77.433,32.04,75.429,30.288,73.167z"/>
		<path style="fill:#84462D;" d="M84.979,81.54l-6.927-8.769c-1.731,2.314-3.789,4.37-6.105,6.099l8.1,7.006
			c1.162,1.19,3.053,1.261,4.302,0.163l0.241-0.212C85.84,84.729,86.011,82.845,84.979,81.54z"/>
		<circle style="fill:#DF2C2C;" cx="54.014" cy="54.818" r="30"/>
		<path style="fill:#FA5655;" d="M54.014,24.818c-16.569,0-30,13.431-30,30c0,8.427,3.479,16.037,9.073,21.487l42.413-42.413
			C70.051,28.297,62.441,24.818,54.014,24.818z"/>
		<circle style="fill:#F0F1F1;" cx="54.014" cy="54.818" r="21.429"/>
		<path style="fill:#FFFFFF;" d="M54.014,33.39c-11.835,0-21.428,9.594-21.428,21.428c0,6.06,2.526,11.521,6.57,15.419
			l30.278-30.278C65.535,35.916,60.074,33.39,54.014,33.39z"/>
		<circle style="fill:#DF2C2C;" cx="54.014" cy="54.818" r="12.857"/>
		<path style="fill:#FA5655;" d="M54.014,41.961c-7.101,0-12.857,5.756-12.857,12.857c0,3.693,1.566,7.013,4.059,9.358L63.372,46.02
			C61.027,43.527,57.707,41.961,54.014,41.961z"/>
		<circle style="fill:#E2E4E5;" cx="54.014" cy="54.818" r="4.286"/>
		<path style="fill:#FFFFFF;" d="M54.014,50.533c-2.367,0-4.286,1.918-4.286,4.286c0,1.344,0.631,2.528,1.598,3.313l6.001-6.001
			C56.542,51.163,55.358,50.533,54.014,50.533z"/>
		<path style="fill:#FFFFFF;" d="M78.616,28.357c0.092-0.096,0.192-0.182,0.299-0.256c0-1.242,0-3.682,0-5.101
			c-1.92,1.92-8.524,6.667-7.87,13.309L78.616,28.357z"/>
		<path style="fill:#FFFFFF;" d="M81.654,30.774c-0.081,0.123-0.172,0.239-0.28,0.341l-7.533,7.172
			c6.272,0.534,10.754-5.694,12.574-7.513C85.101,30.774,82.867,30.774,81.654,30.774z"/>
		<path style="fill:#84462D;" d="M54.645,56.128c-0.402,0.384-1.038,0.376-1.431-0.017c-0.393-0.393-0.401-1.028-0.017-1.431
			l25.419-26.323c0.363-0.381,0.864-0.599,1.389-0.606c0.526-0.006,1.032,0.2,1.404,0.571c0.372,0.372,0.578,0.878,0.571,1.404
			s-0.225,1.027-0.606,1.389L54.645,56.128z"/>
	</g>
</g>
<g id="Blue" style="display:none;">
	<g style="display:inline;">
		<g>
			<path style="fill:#0C333D;" d="M30.288,73.167l-6.614,8.373c-1.031,1.305-0.86,3.189,0.389,4.288l0.241,0.212
				c1.249,1.099,3.14,1.027,4.302-0.163l7.818-6.762C34.106,77.433,32.04,75.429,30.288,73.167z"/>
		</g>
		<g>
			<path style="fill:#0C333D;" d="M84.979,81.54l-6.928-8.77c-1.731,2.314-3.789,4.37-6.104,6.1l8.1,7.006
				c1.163,1.19,3.053,1.262,4.302,0.163l0.241-0.212C85.84,84.729,86.011,82.845,84.979,81.54z"/>
		</g>
		<g>
			<circle style="fill:#0081A1;" cx="54.014" cy="54.818" r="30"/>
		</g>
		<g>
			<path style="fill:#009FC7;" d="M54.014,24.818c-16.569,0-30,13.431-30,30c0,8.427,3.479,16.037,9.074,21.486l42.413-42.413
				C70.051,28.297,62.441,24.818,54.014,24.818z"/>
		</g>
		<g>
			<circle style="fill:#E1F5FA;" cx="54.014" cy="54.818" r="21.429"/>
		</g>
		<g>
			<path style="fill:#FFFFFF;" d="M54.014,33.39c-11.834,0-21.428,9.594-21.428,21.429c0,6.059,2.525,11.521,6.569,15.419
				l30.278-30.278C65.535,35.916,60.074,33.39,54.014,33.39z"/>
		</g>
		<g>
			<circle style="fill:#0081A1;" cx="54.014" cy="54.818" r="12.857"/>
		</g>
		<g>
			<path style="fill:#009FC7;" d="M54.014,41.961c-7.101,0-12.857,5.756-12.857,12.858c0,3.693,1.566,7.013,4.059,9.358
				L63.372,46.02C61.027,43.527,57.707,41.961,54.014,41.961z"/>
		</g>
		<g>
			<circle style="fill:#FFFFFF;" cx="54.014" cy="54.818" r="4.286"/>
		</g>
		<g>
			<path style="fill:#FFFFFF;" d="M54.014,50.532c-2.367,0-4.286,1.919-4.286,4.286c0,1.344,0.631,2.527,1.599,3.313l6-6.001
				C56.542,51.164,55.357,50.532,54.014,50.532z"/>
		</g>
		<g>
			<path style="fill:#FFFFFF;" d="M78.616,28.357c0.091-0.096,0.192-0.182,0.299-0.256c0-1.242,0-3.682,0-5.101
				c-1.92,1.92-8.523,6.667-7.87,13.309L78.616,28.357z"/>
		</g>
		<g>
			<path style="fill:#FFFFFF;" d="M81.654,30.774c-0.081,0.122-0.172,0.238-0.279,0.341l-7.534,7.172
				c6.272,0.534,10.754-5.694,12.574-7.513C85.101,30.774,82.867,30.774,81.654,30.774z"/>
		</g>
		<g>
			<path style="fill:#0C333D;" d="M54.644,56.128c-0.402,0.384-1.038,0.377-1.431-0.017c-0.393-0.393-0.401-1.028-0.017-1.431
				l25.419-26.323c0.363-0.381,0.864-0.599,1.389-0.606c0.526-0.006,1.032,0.2,1.404,0.571c0.372,0.372,0.578,0.878,0.571,1.404
				c-0.007,0.525-0.225,1.026-0.606,1.389L54.644,56.128z"/>
		</g>
	</g>
</g>
<g id="R-Blue" style="display:none;">
	<g style="display:inline;">
		<circle style="fill:#81D2EB;" cx="55" cy="55" r="55"/>
	</g>
	<g style="display:inline;">
		<g>
			<path style="fill:#0C333D;" d="M30.288,73.167l-6.614,8.373c-1.031,1.305-0.86,3.189,0.389,4.288l0.241,0.212
				c1.249,1.099,3.14,1.027,4.302-0.163l7.818-6.762C34.106,77.433,32.04,75.429,30.288,73.167z"/>
		</g>
		<g>
			<path style="fill:#0C333D;" d="M84.979,81.54l-6.928-8.77c-1.731,2.314-3.789,4.37-6.104,6.1l8.1,7.006
				c1.163,1.19,3.053,1.262,4.302,0.163l0.241-0.212C85.84,84.729,86.011,82.845,84.979,81.54z"/>
		</g>
		<g>
			<circle style="fill:#0081A1;" cx="54.014" cy="54.818" r="30"/>
		</g>
		<g>
			<path style="fill:#009FC7;" d="M54.014,24.818c-16.569,0-30,13.431-30,30c0,8.427,3.479,16.037,9.074,21.486l42.413-42.413
				C70.051,28.297,62.441,24.818,54.014,24.818z"/>
		</g>
		<g>
			<circle style="fill:#E1F5FA;" cx="54.014" cy="54.818" r="21.429"/>
		</g>
		<g>
			<path style="fill:#FFFFFF;" d="M54.014,33.39c-11.834,0-21.428,9.594-21.428,21.429c0,6.059,2.525,11.521,6.569,15.419
				l30.278-30.278C65.535,35.916,60.074,33.39,54.014,33.39z"/>
		</g>
		<g>
			<circle style="fill:#0081A1;" cx="54.014" cy="54.818" r="12.857"/>
		</g>
		<g>
			<path style="fill:#009FC7;" d="M54.014,41.961c-7.101,0-12.857,5.756-12.857,12.858c0,3.693,1.566,7.013,4.059,9.358
				L63.372,46.02C61.027,43.527,57.707,41.961,54.014,41.961z"/>
		</g>
		<g>
			<circle style="fill:#FFFFFF;" cx="54.014" cy="54.818" r="4.286"/>
		</g>
		<g>
			<path style="fill:#FFFFFF;" d="M54.014,50.532c-2.367,0-4.286,1.919-4.286,4.286c0,1.344,0.631,2.527,1.599,3.313l6-6.001
				C56.542,51.164,55.357,50.532,54.014,50.532z"/>
		</g>
		<g>
			<path style="fill:#FFFFFF;" d="M78.616,28.357c0.091-0.096,0.192-0.182,0.299-0.256c0-1.242,0-3.682,0-5.101
				c-1.92,1.92-8.523,6.667-7.87,13.309L78.616,28.357z"/>
		</g>
		<g>
			<path style="fill:#FFFFFF;" d="M81.654,30.774c-0.081,0.122-0.172,0.238-0.279,0.341l-7.534,7.172
				c6.272,0.534,10.754-5.694,12.574-7.513C85.101,30.774,82.867,30.774,81.654,30.774z"/>
		</g>
		<g>
			<path style="fill:#0C333D;" d="M54.644,56.128c-0.402,0.384-1.038,0.377-1.431-0.017c-0.393-0.393-0.401-1.028-0.017-1.431
				l25.419-26.323c0.363-0.381,0.864-0.599,1.389-0.606c0.526-0.006,1.032,0.2,1.404,0.571c0.372,0.372,0.578,0.878,0.571,1.404
				c-0.007,0.525-0.225,1.026-0.606,1.389L54.644,56.128z"/>
		</g>
	</g>
</g>
<g id="Green" style="display:none;">
	<g style="display:inline;">
		<g>
			<path style="fill:#0A3631;" d="M30.288,73.167l-6.614,8.373c-1.031,1.305-0.86,3.189,0.389,4.288l0.241,0.212
				c1.249,1.099,3.14,1.027,4.302-0.163l7.818-6.762C34.106,77.433,32.04,75.429,30.288,73.167z"/>
		</g>
		<g>
			<path style="fill:#0A3631;" d="M84.979,81.54l-6.928-8.77c-1.731,2.314-3.789,4.37-6.104,6.1l8.1,7.006
				c1.163,1.19,3.053,1.262,4.302,0.163l0.241-0.212C85.84,84.729,86.011,82.845,84.979,81.54z"/>
		</g>
		<g>
			<circle style="fill:#009687;" cx="54.014" cy="54.818" r="30"/>
		</g>
		<g>
			<path style="fill:#00B8A5;" d="M54.014,24.818c-16.569,0-30,13.431-30,30c0,8.427,3.479,16.037,9.074,21.486l42.413-42.413
				C70.051,28.297,62.441,24.818,54.014,24.818z"/>
		</g>
		<g>
			<circle style="fill:#D7FCF9;" cx="54.014" cy="54.818" r="21.429"/>
		</g>
		<g>
			<path style="fill:#FFFFFF;" d="M54.014,33.39c-11.834,0-21.428,9.594-21.428,21.429c0,6.059,2.525,11.521,6.569,15.419
				l30.278-30.278C65.535,35.916,60.074,33.39,54.014,33.39z"/>
		</g>
		<g>
			<circle style="fill:#009687;" cx="54.014" cy="54.818" r="12.857"/>
		</g>
		<g>
			<path style="fill:#00B8A5;" d="M54.014,41.961c-7.101,0-12.857,5.756-12.857,12.858c0,3.693,1.566,7.013,4.059,9.358
				L63.372,46.02C61.027,43.527,57.707,41.961,54.014,41.961z"/>
		</g>
		<g>
			<circle style="fill:#FFFFFF;" cx="54.014" cy="54.818" r="4.286"/>
		</g>
		<g>
			<path style="fill:#FFFFFF;" d="M54.014,50.532c-2.367,0-4.286,1.919-4.286,4.286c0,1.344,0.631,2.527,1.599,3.313l6-6.001
				C56.542,51.164,55.357,50.532,54.014,50.532z"/>
		</g>
		<g>
			<path style="fill:#FFFFFF;" d="M78.616,28.357c0.091-0.096,0.192-0.182,0.299-0.256c0-1.242,0-3.682,0-5.101
				c-1.92,1.92-8.523,6.667-7.87,13.309L78.616,28.357z"/>
		</g>
		<g>
			<path style="fill:#FFFFFF;" d="M81.654,30.774c-0.081,0.122-0.172,0.238-0.279,0.341l-7.534,7.172
				c6.271,0.534,10.754-5.694,12.574-7.513C85.101,30.774,82.867,30.774,81.654,30.774z"/>
		</g>
		<g>
			<path style="fill:#0A3631;" d="M54.645,56.128c-0.402,0.384-1.038,0.377-1.431-0.017c-0.393-0.393-0.401-1.028-0.017-1.431
				l25.419-26.323c0.363-0.381,0.864-0.599,1.389-0.606c0.526-0.006,1.032,0.2,1.404,0.571c0.372,0.372,0.578,0.878,0.571,1.404
				c-0.007,0.525-0.225,1.026-0.606,1.389L54.645,56.128z"/>
		</g>
	</g>
</g>
<g id="R-Green" style="display:none;">
	<g style="display:inline;">
		<circle style="fill:#87E0C8;" cx="55" cy="55" r="55"/>
	</g>
	<g style="display:inline;">
		<g>
			<path style="fill:#0A3631;" d="M30.288,73.167l-6.614,8.373c-1.031,1.305-0.86,3.189,0.389,4.288l0.241,0.212
				c1.249,1.099,3.14,1.027,4.302-0.163l7.818-6.762C34.106,77.433,32.04,75.429,30.288,73.167z"/>
		</g>
		<g>
			<path style="fill:#0A3631;" d="M84.979,81.54l-6.928-8.77c-1.731,2.314-3.789,4.37-6.104,6.1l8.1,7.006
				c1.163,1.19,3.053,1.262,4.302,0.163l0.241-0.212C85.84,84.729,86.011,82.845,84.979,81.54z"/>
		</g>
		<g>
			<circle style="fill:#009687;" cx="54.014" cy="54.818" r="30"/>
		</g>
		<g>
			<path style="fill:#00B8A5;" d="M54.014,24.818c-16.569,0-30,13.431-30,30c0,8.427,3.479,16.037,9.074,21.486l42.413-42.413
				C70.051,28.297,62.441,24.818,54.014,24.818z"/>
		</g>
		<g>
			<circle style="fill:#D7FCF9;" cx="54.014" cy="54.818" r="21.429"/>
		</g>
		<g>
			<path style="fill:#FFFFFF;" d="M54.014,33.39c-11.834,0-21.428,9.594-21.428,21.429c0,6.059,2.525,11.521,6.569,15.419
				l30.278-30.278C65.535,35.916,60.074,33.39,54.014,33.39z"/>
		</g>
		<g>
			<circle style="fill:#009687;" cx="54.014" cy="54.818" r="12.857"/>
		</g>
		<g>
			<path style="fill:#00B8A5;" d="M54.014,41.961c-7.101,0-12.857,5.756-12.857,12.858c0,3.693,1.566,7.013,4.059,9.358
				L63.372,46.02C61.027,43.527,57.707,41.961,54.014,41.961z"/>
		</g>
		<g>
			<circle style="fill:#FFFFFF;" cx="54.014" cy="54.818" r="4.286"/>
		</g>
		<g>
			<path style="fill:#FFFFFF;" d="M54.014,50.532c-2.367,0-4.286,1.919-4.286,4.286c0,1.344,0.631,2.527,1.599,3.313l6-6.001
				C56.542,51.164,55.357,50.532,54.014,50.532z"/>
		</g>
		<g>
			<path style="fill:#FFFFFF;" d="M78.616,28.357c0.091-0.096,0.192-0.182,0.299-0.256c0-1.242,0-3.682,0-5.101
				c-1.92,1.92-8.523,6.667-7.87,13.309L78.616,28.357z"/>
		</g>
		<g>
			<path style="fill:#FFFFFF;" d="M81.654,30.774c-0.081,0.122-0.172,0.238-0.279,0.341l-7.534,7.172
				c6.271,0.534,10.754-5.694,12.574-7.513C85.101,30.774,82.867,30.774,81.654,30.774z"/>
		</g>
		<g>
			<path style="fill:#0A3631;" d="M54.645,56.128c-0.402,0.384-1.038,0.377-1.431-0.017c-0.393-0.393-0.401-1.028-0.017-1.431
				l25.419-26.323c0.363-0.381,0.864-0.599,1.389-0.606c0.526-0.006,1.032,0.2,1.404,0.571c0.372,0.372,0.578,0.878,0.571,1.404
				c-0.007,0.525-0.225,1.026-0.606,1.389L54.645,56.128z"/>
		</g>
	</g>
</g>
<g id="Red">
	<g>
		<g>
			<path style="fill:#4A1410;" d="M30.288,73.167l-6.614,8.373c-1.031,1.305-0.86,3.189,0.389,4.288l0.241,0.212
				c1.249,1.099,3.14,1.027,4.302-0.163l7.818-6.762C34.106,77.433,32.04,75.429,30.288,73.167z"/>
		</g>
		<g>
			<path style="fill:#4A1410;" d="M84.979,81.54l-6.928-8.77c-1.731,2.314-3.789,4.37-6.104,6.1l8.1,7.006
				c1.163,1.19,3.053,1.262,4.302,0.163l0.241-0.212C85.84,84.729,86.011,82.845,84.979,81.54z"/>
		</g>
		<g>
			<circle style="fill:#C23023;" cx="54.014" cy="54.818" r="30"/>
		</g>
		<g>
			<path style="fill:#E54B44;" d="M54.014,24.818c-16.569,0-30,13.431-30,30c0,8.427,3.479,16.037,9.074,21.486l42.413-42.413
				C70.051,28.297,62.441,24.818,54.014,24.818z"/>
		</g>
		<g>
			<circle style="fill:#FFEFED;" cx="54.014" cy="54.818" r="21.429"/>
		</g>
		<g>
			<path style="fill:#FFFFFF;" d="M54.014,33.39c-11.834,0-21.428,9.594-21.428,21.429c0,6.059,2.525,11.521,6.569,15.419
				l30.278-30.278C65.535,35.916,60.074,33.39,54.014,33.39z"/>
		</g>
		<g>
			<circle style="fill:#C23023;" cx="54.014" cy="54.818" r="12.857"/>
		</g>
		<g>
			<path style="fill:#E54B44;" d="M54.014,41.961c-7.101,0-12.857,5.756-12.857,12.858c0,3.693,1.566,7.013,4.059,9.358
				L63.372,46.02C61.027,43.527,57.707,41.961,54.014,41.961z"/>
		</g>
		<g>
			<circle style="fill:#FFFFFF;" cx="54.014" cy="54.818" r="4.286"/>
		</g>
		<g>
			<path style="fill:#FFFFFF;" d="M54.014,50.532c-2.367,0-4.286,1.919-4.286,4.286c0,1.344,0.631,2.527,1.599,3.313l6-6.001
				C56.542,51.164,55.357,50.532,54.014,50.532z"/>
		</g>
		<g>
			<path style="fill:#FFFFFF;" d="M78.616,28.357c0.091-0.096,0.192-0.182,0.299-0.256c0-1.242,0-3.682,0-5.101
				c-1.92,1.92-8.523,6.667-7.87,13.309L78.616,28.357z"/>
		</g>
		<g>
			<path style="fill:#FFFFFF;" d="M81.654,30.774c-0.081,0.122-0.172,0.238-0.279,0.341l-7.534,7.172
				c6.271,0.534,10.754-5.694,12.574-7.513C85.101,30.774,82.867,30.774,81.654,30.774z"/>
		</g>
		<g>
			<path style="fill:#4A1410;" d="M54.645,56.128c-0.402,0.384-1.038,0.377-1.431-0.017c-0.393-0.393-0.401-1.028-0.017-1.431
				l25.419-26.323c0.363-0.381,0.864-0.599,1.389-0.606c0.526-0.006,1.032,0.2,1.404,0.571c0.372,0.372,0.578,0.878,0.571,1.404
				c-0.007,0.525-0.225,1.026-0.606,1.389L54.645,56.128z"/>
		</g>
	</g>
</g>
<g id="R-Red" style="display:none;">
	<g style="display:inline;">
		<circle style="fill:#FABBAF;" cx="55" cy="55" r="55"/>
	</g>
	<g style="display:inline;">
		<g>
			<path style="fill:#4A1410;" d="M30.288,73.167l-6.614,8.373c-1.031,1.305-0.86,3.189,0.389,4.288l0.241,0.212
				c1.249,1.099,3.14,1.027,4.302-0.163l7.818-6.762C34.106,77.433,32.04,75.429,30.288,73.167z"/>
		</g>
		<g>
			<path style="fill:#4A1410;" d="M84.979,81.54l-6.928-8.77c-1.731,2.314-3.789,4.37-6.105,6.1l8.1,7.006
				c1.163,1.19,3.053,1.262,4.302,0.163l0.241-0.212C85.84,84.729,86.011,82.845,84.979,81.54z"/>
		</g>
		<g>
			<circle style="fill:#C23023;" cx="54.014" cy="54.818" r="30"/>
		</g>
		<g>
			<path style="fill:#E54B44;" d="M54.014,24.818c-16.569,0-30,13.431-30,30c0,8.427,3.479,16.037,9.074,21.486l42.413-42.413
				C70.051,28.297,62.441,24.818,54.014,24.818z"/>
		</g>
		<g>
			<circle style="fill:#FFEFED;" cx="54.014" cy="54.818" r="21.429"/>
		</g>
		<g>
			<path style="fill:#FFFFFF;" d="M54.014,33.39c-11.834,0-21.428,9.594-21.428,21.429c0,6.059,2.525,11.521,6.569,15.419
				l30.278-30.278C65.535,35.916,60.074,33.39,54.014,33.39z"/>
		</g>
		<g>
			<circle style="fill:#C23023;" cx="54.014" cy="54.818" r="12.857"/>
		</g>
		<g>
			<path style="fill:#E54B44;" d="M54.014,41.961c-7.101,0-12.857,5.756-12.857,12.858c0,3.693,1.565,7.013,4.059,9.358
				L63.372,46.02C61.027,43.527,57.707,41.961,54.014,41.961z"/>
		</g>
		<g>
			<circle style="fill:#FFFFFF;" cx="54.014" cy="54.818" r="4.286"/>
		</g>
		<g>
			<path style="fill:#FFFFFF;" d="M54.014,50.532c-2.367,0-4.286,1.919-4.286,4.286c0,1.344,0.631,2.527,1.599,3.313l6-6.001
				C56.542,51.164,55.357,50.532,54.014,50.532z"/>
		</g>
		<g>
			<path style="fill:#FFFFFF;" d="M78.616,28.357c0.091-0.096,0.192-0.182,0.299-0.256c0-1.242,0-3.682,0-5.101
				c-1.92,1.92-8.523,6.667-7.87,13.309L78.616,28.357z"/>
		</g>
		<g>
			<path style="fill:#FFFFFF;" d="M81.654,30.774c-0.081,0.122-0.172,0.238-0.279,0.341l-7.534,7.172
				c6.271,0.534,10.754-5.694,12.574-7.513C85.101,30.774,82.867,30.774,81.654,30.774z"/>
		</g>
		<g>
			<path style="fill:#4A1410;" d="M54.645,56.128c-0.402,0.384-1.038,0.377-1.431-0.017c-0.393-0.393-0.401-1.028-0.017-1.431
				l25.419-26.323c0.363-0.381,0.864-0.599,1.389-0.606c0.526-0.006,1.032,0.2,1.404,0.571c0.372,0.372,0.578,0.878,0.571,1.404
				c-0.007,0.525-0.225,1.026-0.606,1.389L54.645,56.128z"/>
		</g>
	</g>
</g>
<g id="Yellow" style="display:none;">
	<g style="display:inline;">
		<g>
			<path style="fill:#3D320C;" d="M30.288,73.167l-6.614,8.373c-1.031,1.305-0.86,3.189,0.389,4.288l0.241,0.212
				c1.249,1.099,3.14,1.027,4.302-0.163l7.818-6.762C34.106,77.433,32.04,75.429,30.288,73.167z"/>
		</g>
		<g>
			<path style="fill:#3D320C;" d="M84.979,81.54l-6.928-8.77c-1.731,2.314-3.789,4.37-6.104,6.1l8.1,7.006
				c1.163,1.19,3.053,1.262,4.302,0.163l0.241-0.212C85.84,84.729,86.011,82.845,84.979,81.54z"/>
		</g>
		<g>
			<circle style="fill:#E07000;" cx="54.014" cy="54.818" r="30"/>
		</g>
		<g>
			<path style="fill:#FA9200;" d="M54.014,24.818c-16.569,0-30,13.431-30,30c0,8.427,3.479,16.037,9.074,21.486l42.413-42.413
				C70.051,28.297,62.441,24.818,54.014,24.818z"/>
		</g>
		<g>
			<circle style="fill:#FFF5D9;" cx="54.014" cy="54.818" r="21.429"/>
		</g>
		<g>
			<path style="fill:#FFFFFF;" d="M54.014,33.39c-11.834,0-21.428,9.594-21.428,21.429c0,6.059,2.525,11.521,6.569,15.419
				l30.278-30.278C65.535,35.916,60.074,33.39,54.014,33.39z"/>
		</g>
		<g>
			<circle style="fill:#E07000;" cx="54.014" cy="54.818" r="12.857"/>
		</g>
		<g>
			<path style="fill:#FA9200;" d="M54.014,41.961c-7.101,0-12.857,5.756-12.857,12.858c0,3.693,1.565,7.013,4.059,9.358
				L63.372,46.02C61.027,43.527,57.707,41.961,54.014,41.961z"/>
		</g>
		<g>
			<circle style="fill:#FFFFFF;" cx="54.014" cy="54.818" r="4.286"/>
		</g>
		<g>
			<path style="fill:#FFFFFF;" d="M54.014,50.532c-2.367,0-4.286,1.919-4.286,4.286c0,1.344,0.631,2.527,1.599,3.313l6-6.001
				C56.542,51.164,55.357,50.532,54.014,50.532z"/>
		</g>
		<g>
			<path style="fill:#FFFFFF;" d="M78.616,28.357c0.091-0.096,0.192-0.182,0.299-0.256c0-1.242,0-3.682,0-5.101
				c-1.92,1.92-8.523,6.667-7.87,13.309L78.616,28.357z"/>
		</g>
		<g>
			<path style="fill:#FFFFFF;" d="M81.654,30.774c-0.081,0.122-0.172,0.238-0.279,0.341l-7.534,7.172
				c6.271,0.534,10.754-5.694,12.574-7.513C85.101,30.774,82.867,30.774,81.654,30.774z"/>
		</g>
		<g>
			<path style="fill:#3D320C;" d="M54.645,56.128c-0.402,0.384-1.038,0.377-1.431-0.017c-0.393-0.393-0.401-1.028-0.017-1.431
				l25.419-26.323c0.363-0.381,0.864-0.599,1.389-0.606c0.526-0.006,1.032,0.2,1.404,0.571c0.372,0.372,0.578,0.878,0.571,1.404
				c-0.007,0.525-0.225,1.026-0.606,1.389L54.645,56.128z"/>
		</g>
	</g>
</g>
<g id="R-Yellow" style="display:none;">
	<g style="display:inline;">
		<circle style="fill:#FFD75E;" cx="55" cy="55" r="55"/>
	</g>
	<g style="display:inline;">
		<g>
			<path style="fill:#3D320C;" d="M30.288,73.167l-6.614,8.373c-1.031,1.305-0.86,3.189,0.389,4.288l0.241,0.212
				c1.249,1.099,3.14,1.027,4.302-0.163l7.818-6.762C34.106,77.433,32.04,75.429,30.288,73.167z"/>
		</g>
		<g>
			<path style="fill:#3D320C;" d="M84.979,81.54l-6.928-8.77c-1.731,2.314-3.789,4.37-6.104,6.1l8.1,7.006
				c1.163,1.19,3.053,1.262,4.302,0.163l0.241-0.212C85.84,84.729,86.011,82.845,84.979,81.54z"/>
		</g>
		<g>
			<circle style="fill:#E07000;" cx="54.014" cy="54.818" r="30"/>
		</g>
		<g>
			<path style="fill:#FA9200;" d="M54.014,24.818c-16.569,0-30,13.431-30,30c0,8.427,3.479,16.037,9.074,21.486l42.413-42.413
				C70.051,28.297,62.441,24.818,54.014,24.818z"/>
		</g>
		<g>
			<circle style="fill:#FFF5D9;" cx="54.014" cy="54.818" r="21.429"/>
		</g>
		<g>
			<path style="fill:#FFFFFF;" d="M54.014,33.39c-11.834,0-21.428,9.594-21.428,21.429c0,6.059,2.525,11.521,6.569,15.419
				l30.278-30.278C65.535,35.916,60.074,33.39,54.014,33.39z"/>
		</g>
		<g>
			<circle style="fill:#E07000;" cx="54.014" cy="54.818" r="12.857"/>
		</g>
		<g>
			<path style="fill:#FA9200;" d="M54.014,41.961c-7.101,0-12.857,5.756-12.857,12.858c0,3.693,1.566,7.013,4.059,9.358
				L63.372,46.02C61.027,43.527,57.707,41.961,54.014,41.961z"/>
		</g>
		<g>
			<circle style="fill:#FFFFFF;" cx="54.014" cy="54.818" r="4.286"/>
		</g>
		<g>
			<path style="fill:#FFFFFF;" d="M54.014,50.532c-2.367,0-4.286,1.919-4.286,4.286c0,1.344,0.631,2.527,1.599,3.313l6-6.001
				C56.542,51.164,55.357,50.532,54.014,50.532z"/>
		</g>
		<g>
			<path style="fill:#FFFFFF;" d="M78.616,28.357c0.091-0.096,0.192-0.182,0.299-0.256c0-1.242,0-3.682,0-5.101
				c-1.92,1.92-8.523,6.667-7.87,13.309L78.616,28.357z"/>
		</g>
		<g>
			<path style="fill:#FFFFFF;" d="M81.654,30.774c-0.081,0.122-0.172,0.238-0.279,0.341l-7.534,7.172
				c6.272,0.534,10.754-5.694,12.574-7.513C85.101,30.774,82.867,30.774,81.654,30.774z"/>
		</g>
		<g>
			<path style="fill:#3D320C;" d="M54.644,56.128c-0.402,0.384-1.038,0.377-1.431-0.017c-0.393-0.393-0.401-1.028-0.017-1.431
				l25.419-26.323c0.363-0.381,0.864-0.599,1.389-0.606c0.526-0.006,1.032,0.2,1.404,0.571c0.372,0.372,0.578,0.878,0.571,1.404
				c-0.007,0.525-0.225,1.026-0.606,1.389L54.644,56.128z"/>
		</g>
	</g>
</g>
</svg>
