<?xml version="1.0" encoding="iso-8859-1"?>
<!-- Generator: Adobe Illustrator 17.1.0, SVG Export Plug-In . SVG Version: 6.00 Build 0)  -->
<!DOCTYPE svg PUBLIC "-//W3C//DTD SVG 1.0//EN" "http://www.w3.org/TR/2001/REC-SVG-20010904/DTD/svg10.dtd">
<svg version="1.0" xmlns="http://www.w3.org/2000/svg" xmlns:xlink="http://www.w3.org/1999/xlink" x="0px" y="0px" width="110px"
	 height="110px" viewBox="0 0 110 110" style="enable-background:new 0 0 110 110;" xml:space="preserve">
<g id="Artboard" style="display:none;">
	
		<rect x="-824.5" y="-181.5" style="display:inline;fill:#808080;stroke:#000000;stroke-miterlimit:10;" width="1361" height="341"/>
</g>
<g id="R-Multicolor" style="display:none;">
	<circle style="display:inline;fill:#25B7D3;" cx="55" cy="55" r="55"/>
	<g style="display:inline;">
		<g>
			<path style="fill:#FFFFFF;" d="M77.082,45c0-14-11-22-23-22c-14.912,0-27,12.088-27,27c0,8.468,3.901,16.021,10,20.972V87h28
				v-9.672c4.314,0.028,8.047-0.375,10-2.328c2.5-2.5,2-12,2-12s2.288,0.091,4.082,0.017c0.623-0.026,1.199-0.342,1.556-0.853
				c0.358-0.511,0.223-1.132,0.267-1.754C83.309,55.941,77.082,47.23,77.082,45z"/>
		</g>
		<g>
			<path style="fill:#3E3E3F;" d="M67.482,45.8h-5.358c-0.113-0.319-0.242-0.628-0.386-0.93l3.789-3.789
				c0.625-0.625,0.625-1.638,0-2.263l-2.263-2.263c-0.625-0.625-1.638-0.625-2.263,0l-3.789,3.789
				c-0.302-0.144-0.612-0.273-0.93-0.386V34.6c0-0.884-0.716-1.6-1.6-1.6h-3.2c-0.884,0-1.6,0.716-1.6,1.6v5.358
				c-0.319,0.113-0.629,0.242-0.93,0.386l-3.789-3.789c-0.625-0.625-1.638-0.625-2.263,0l-2.263,2.263
				c-0.625,0.625-0.625,1.638,0,2.263l3.789,3.789c-0.145,0.302-0.273,0.612-0.386,0.93h-5.358c-0.884,0-1.6,0.716-1.6,1.6v3.2
				c0,0.884,0.716,1.6,1.6,1.6h5.358c0.113,0.318,0.242,0.628,0.386,0.93l-3.789,3.789c-0.625,0.625-0.625,1.638,0,2.263
				l2.263,2.263c0.625,0.625,1.638,0.625,2.263,0l3.789-3.789c0.302,0.144,0.612,0.273,0.93,0.386V63.4c0,0.884,0.716,1.6,1.6,1.6
				h3.2c0.884,0,1.6-0.716,1.6-1.6v-5.358c0.319-0.113,0.629-0.242,0.93-0.386l3.789,3.789c0.625,0.625,1.638,0.625,2.263,0
				l2.263-2.263c0.625-0.625,0.625-1.638,0-2.263l-3.789-3.789c0.144-0.302,0.273-0.612,0.386-0.93h5.358c0.884,0,1.6-0.716,1.6-1.6
				v-3.2C69.082,46.516,68.366,45.8,67.482,45.8z M53.082,53.8c-2.651,0-4.8-2.149-4.8-4.8s2.149-4.8,4.8-4.8
				c2.651,0,4.8,2.149,4.8,4.8S55.733,53.8,53.082,53.8z"/>
		</g>
		<g>
			<path style="fill:#5B5C5F;" d="M61.002,36.555l-3.789,3.789c-0.302-0.144-0.612-0.273-0.93-0.386V34.6c0-0.884-0.716-1.6-1.6-1.6
				h-3.2c-0.884,0-1.6,0.716-1.6,1.6v5.358c-0.318,0.113-0.629,0.242-0.93,0.386l-3.789-3.789c-0.625-0.625-1.638-0.625-2.263,0
				l-2.263,2.263c-0.625,0.625-0.625,1.638,0,2.263l3.789,3.789c-0.145,0.302-0.273,0.612-0.386,0.93h-5.358
				c-0.884,0-1.6,0.716-1.6,1.6v3.2c0,0.884,0.716,1.6,1.6,1.6h5.358c0.113,0.319,0.242,0.628,0.386,0.93l-3.789,3.789
				c-0.625,0.625-0.625,1.638,0,2.263l1.266,1.265l7.932-7.932c-0.949-0.877-1.553-2.121-1.553-3.515c0-2.651,2.149-4.8,4.8-4.8
				c1.394,0,2.638,0.604,3.515,1.553l7.932-7.932l-1.265-1.265C62.64,35.93,61.627,35.93,61.002,36.555z"/>
		</g>
	</g>
</g>
<g id="Multicolor">
	<g>
		<g>
			<path style="fill:#FFFFFF;" d="M77.082,45c0-14-11-22-23-22c-14.912,0-27,12.088-27,27c0,8.468,3.901,16.021,10,20.972V87h28
				v-9.672c4.314,0.028,8.047-0.375,10-2.328c2.5-2.5,2-12,2-12s2.288,0.091,4.082,0.017c0.623-0.026,1.199-0.342,1.556-0.853
				c0.358-0.511,0.223-1.132,0.267-1.754C83.309,55.941,77.082,47.23,77.082,45z"/>
		</g>
		<g>
			<path style="fill:#3E3E3F;" d="M67.482,45.8h-5.358c-0.113-0.319-0.242-0.628-0.386-0.93l3.789-3.789
				c0.625-0.625,0.625-1.638,0-2.263l-2.263-2.263c-0.625-0.625-1.638-0.625-2.263,0l-3.789,3.789
				c-0.302-0.144-0.612-0.273-0.93-0.386V34.6c0-0.884-0.716-1.6-1.6-1.6h-3.2c-0.884,0-1.6,0.716-1.6,1.6v5.358
				c-0.319,0.113-0.629,0.242-0.93,0.386l-3.789-3.789c-0.625-0.625-1.638-0.625-2.263,0l-2.263,2.263
				c-0.625,0.625-0.625,1.638,0,2.263l3.789,3.789c-0.145,0.302-0.273,0.612-0.386,0.93h-5.358c-0.884,0-1.6,0.716-1.6,1.6v3.2
				c0,0.884,0.716,1.6,1.6,1.6h5.358c0.113,0.318,0.242,0.628,0.386,0.93l-3.789,3.789c-0.625,0.625-0.625,1.638,0,2.263
				l2.263,2.263c0.625,0.625,1.638,0.625,2.263,0l3.789-3.789c0.302,0.144,0.612,0.273,0.93,0.386V63.4c0,0.884,0.716,1.6,1.6,1.6
				h3.2c0.884,0,1.6-0.716,1.6-1.6v-5.358c0.319-0.113,0.629-0.242,0.93-0.386l3.789,3.789c0.625,0.625,1.638,0.625,2.263,0
				l2.263-2.263c0.625-0.625,0.625-1.638,0-2.263l-3.789-3.789c0.144-0.302,0.273-0.612,0.386-0.93h5.358c0.884,0,1.6-0.716,1.6-1.6
				v-3.2C69.082,46.516,68.366,45.8,67.482,45.8z M53.082,53.8c-2.651,0-4.8-2.149-4.8-4.8s2.149-4.8,4.8-4.8
				c2.651,0,4.8,2.149,4.8,4.8S55.733,53.8,53.082,53.8z"/>
		</g>
		<g>
			<path style="fill:#5B5C5F;" d="M61.002,36.555l-3.789,3.789c-0.302-0.144-0.612-0.273-0.93-0.386V34.6c0-0.884-0.716-1.6-1.6-1.6
				h-3.2c-0.884,0-1.6,0.716-1.6,1.6v5.358c-0.318,0.113-0.629,0.242-0.93,0.386l-3.789-3.789c-0.625-0.625-1.638-0.625-2.263,0
				l-2.263,2.263c-0.625,0.625-0.625,1.638,0,2.263l3.789,3.789c-0.145,0.302-0.273,0.612-0.386,0.93h-5.358
				c-0.884,0-1.6,0.716-1.6,1.6v3.2c0,0.884,0.716,1.6,1.6,1.6h5.358c0.113,0.319,0.242,0.628,0.386,0.93l-3.789,3.789
				c-0.625,0.625-0.625,1.638,0,2.263l1.266,1.265l7.932-7.932c-0.949-0.877-1.553-2.121-1.553-3.515c0-2.651,2.149-4.8,4.8-4.8
				c1.394,0,2.638,0.604,3.515,1.553l7.932-7.932l-1.265-1.265C62.64,35.93,61.627,35.93,61.002,36.555z"/>
		</g>
	</g>
</g>
<g id="Blue" style="display:none;">
	<g style="display:inline;">
		<g>
			<path style="fill:#FFFFFF;" d="M77.082,45c0-14-11-22-23-22c-14.912,0-27,12.088-27,27c0,8.468,3.9,16.021,10,20.972V87h28
				v-9.672c4.315,0.028,8.047-0.375,10-2.328c2.5-2.5,2-12,2-12s2.289,0.091,4.082,0.017c0.623-0.026,1.199-0.342,1.557-0.853
				c0.357-0.511,0.223-1.132,0.268-1.754C83.31,55.941,77.082,47.23,77.082,45z"/>
		</g>
		<g>
			<path style="fill:#0081A1;" d="M67.483,45.8h-5.358c-0.112-0.318-0.241-0.628-0.386-0.93l3.789-3.789
				c0.625-0.625,0.625-1.638,0-2.263l-2.263-2.263c-0.625-0.625-1.638-0.625-2.263,0l-3.789,3.789
				c-0.303-0.144-0.612-0.273-0.931-0.386V34.6c0-0.884-0.716-1.6-1.601-1.6h-3.199c-0.884,0-1.6,0.716-1.6,1.6v5.357
				c-0.319,0.113-0.629,0.242-0.932,0.386l-3.789-3.789c-0.625-0.625-1.637-0.625-2.262,0l-2.264,2.263
				c-0.625,0.625-0.625,1.638,0,2.263l3.789,3.789c-0.145,0.302-0.273,0.612-0.386,0.93h-5.358c-0.883,0-1.6,0.717-1.6,1.6v3.2
				c0,0.884,0.717,1.6,1.6,1.6h5.358c0.112,0.319,0.241,0.629,0.386,0.931l-3.789,3.789c-0.625,0.625-0.625,1.638,0,2.263
				l2.264,2.263c0.625,0.625,1.637,0.625,2.262,0l3.789-3.789c0.303,0.144,0.613,0.273,0.932,0.386V63.4c0,0.884,0.716,1.6,1.6,1.6
				h3.199c0.885,0,1.601-0.716,1.601-1.6v-5.358c0.318-0.113,0.628-0.242,0.931-0.386l3.789,3.789c0.625,0.625,1.638,0.625,2.263,0
				l2.263-2.263c0.625-0.625,0.625-1.638,0-2.263l-3.789-3.789c0.145-0.302,0.273-0.612,0.386-0.931h5.358
				c0.883,0,1.6-0.716,1.6-1.6v-3.2C69.082,46.517,68.366,45.8,67.483,45.8z M53.083,53.8c-2.65,0-4.8-2.149-4.8-4.8
				c0-2.651,2.149-4.8,4.8-4.8c2.651,0,4.801,2.149,4.801,4.8C57.883,51.651,55.734,53.8,53.083,53.8z"/>
		</g>
		<g>
			<path style="fill:#009FC7;" d="M61.002,36.555l-3.789,3.789c-0.303-0.144-0.612-0.273-0.931-0.386V34.6
				c0-0.884-0.716-1.6-1.601-1.6h-3.199c-0.884,0-1.6,0.716-1.6,1.6v5.357c-0.319,0.113-0.629,0.242-0.932,0.386l-3.789-3.789
				c-0.625-0.625-1.637-0.625-2.262,0l-2.264,2.263c-0.625,0.625-0.625,1.638,0,2.263l3.789,3.789
				c-0.145,0.302-0.273,0.612-0.385,0.93h-5.359c-0.883,0-1.6,0.717-1.6,1.6v3.2c0,0.884,0.717,1.6,1.6,1.6h5.359
				c0.111,0.319,0.24,0.629,0.385,0.931l-3.789,3.789c-0.625,0.625-0.625,1.638,0,2.263l1.266,1.265l7.933-7.932
				c-0.949-0.877-1.553-2.122-1.553-3.516c0-2.651,2.149-4.8,4.8-4.8c1.395,0,2.639,0.604,3.516,1.553l7.933-7.933l-1.266-1.265
				C62.64,35.93,61.627,35.93,61.002,36.555z"/>
		</g>
	</g>
</g>
<g id="R-Blue" style="display:none;">
	<circle style="display:inline;fill:#81D2EB;" cx="55" cy="55" r="55"/>
	<g style="display:inline;">
		<g>
			<path style="fill:#FFFFFF;" d="M77.082,45c0-14-11-22-23-22c-14.912,0-27,12.088-27,27c0,8.468,3.9,16.021,10,20.972V87h28
				v-9.672c4.314,0.028,8.047-0.375,10-2.328c2.5-2.5,2-12,2-12s2.289,0.091,4.082,0.017c0.623-0.026,1.199-0.342,1.557-0.853
				c0.357-0.511,0.223-1.132,0.268-1.754C83.31,55.941,77.082,47.23,77.082,45z"/>
		</g>
		<g>
			<path style="fill:#0081A1;" d="M67.482,45.8h-5.358c-0.112-0.318-0.241-0.628-0.386-0.93l3.789-3.789
				c0.625-0.625,0.625-1.638,0-2.263l-2.263-2.263c-0.625-0.625-1.638-0.625-2.263,0l-3.789,3.789
				c-0.303-0.144-0.612-0.273-0.931-0.386V34.6c0-0.884-0.716-1.6-1.601-1.6h-3.199c-0.884,0-1.6,0.716-1.6,1.6v5.357
				c-0.319,0.113-0.629,0.242-0.932,0.386l-3.789-3.789c-0.625-0.625-1.637-0.625-2.262,0l-2.264,2.263
				c-0.625,0.625-0.625,1.638,0,2.263l3.789,3.789c-0.145,0.302-0.274,0.612-0.386,0.93h-5.358c-0.883,0-1.6,0.717-1.6,1.6v3.2
				c0,0.884,0.717,1.6,1.6,1.6h5.358c0.112,0.319,0.241,0.629,0.386,0.931l-3.789,3.789c-0.625,0.625-0.625,1.638,0,2.263
				l2.264,2.263c0.625,0.625,1.637,0.625,2.262,0l3.789-3.789c0.303,0.144,0.613,0.273,0.932,0.386V63.4c0,0.884,0.716,1.6,1.6,1.6
				h3.199c0.885,0,1.601-0.716,1.601-1.6v-5.358c0.318-0.113,0.628-0.242,0.931-0.386l3.789,3.789c0.625,0.625,1.638,0.625,2.263,0
				l2.263-2.263c0.625-0.625,0.625-1.638,0-2.263l-3.789-3.789c0.145-0.302,0.273-0.612,0.386-0.931h5.358
				c0.883,0,1.6-0.716,1.6-1.6v-3.2C69.082,46.517,68.365,45.8,67.482,45.8z M53.082,53.8c-2.65,0-4.8-2.149-4.8-4.8
				c0-2.651,2.149-4.8,4.8-4.8c2.651,0,4.801,2.149,4.801,4.8C57.883,51.651,55.733,53.8,53.082,53.8z"/>
		</g>
		<g>
			<path style="fill:#009FC7;" d="M61.002,36.555l-3.789,3.789c-0.303-0.144-0.612-0.273-0.931-0.386V34.6
				c0-0.884-0.716-1.6-1.601-1.6h-3.199c-0.884,0-1.6,0.716-1.6,1.6v5.357c-0.319,0.113-0.629,0.242-0.932,0.386l-3.789-3.789
				c-0.625-0.625-1.637-0.625-2.262,0l-2.264,2.263c-0.625,0.625-0.625,1.638,0,2.263l3.789,3.789
				c-0.145,0.302-0.274,0.612-0.385,0.93h-5.359c-0.883,0-1.6,0.717-1.6,1.6v3.2c0,0.884,0.717,1.6,1.6,1.6h5.359
				c0.111,0.319,0.24,0.629,0.385,0.931l-3.789,3.789c-0.625,0.625-0.625,1.638,0,2.263l1.266,1.265l7.933-7.932
				c-0.949-0.877-1.553-2.122-1.553-3.516c0-2.651,2.149-4.8,4.8-4.8c1.395,0,2.639,0.604,3.516,1.553l7.933-7.933l-1.266-1.265
				C62.64,35.93,61.627,35.93,61.002,36.555z"/>
		</g>
	</g>
</g>
<g id="Green" style="display:none;">
	<g style="display:inline;">
		<g>
			<path style="fill:#FFFFFF;" d="M77.082,45c0-14-11-22-23-22c-14.912,0-27,12.088-27,27c0,8.468,3.9,16.021,10,20.972V87h28
				v-9.672c4.315,0.028,8.047-0.375,10-2.328c2.5-2.5,2-12,2-12s2.289,0.091,4.082,0.017c0.623-0.026,1.199-0.342,1.557-0.852
				c0.357-0.511,0.223-1.132,0.268-1.754C83.31,55.941,77.082,47.23,77.082,45z"/>
		</g>
		<g>
			<path style="fill:#009687;" d="M67.482,45.8h-5.358c-0.112-0.318-0.241-0.628-0.386-0.93l3.789-3.789
				c0.625-0.625,0.625-1.638,0-2.263l-2.263-2.263c-0.625-0.625-1.638-0.625-2.263,0l-3.789,3.789
				c-0.303-0.144-0.612-0.273-0.931-0.386V34.6c0-0.884-0.716-1.6-1.601-1.6h-3.199c-0.884,0-1.6,0.716-1.6,1.6v5.357
				c-0.319,0.113-0.629,0.242-0.932,0.386l-3.789-3.789c-0.625-0.625-1.637-0.625-2.262,0l-2.264,2.263
				c-0.625,0.625-0.625,1.638,0,2.263l3.789,3.789c-0.145,0.302-0.273,0.612-0.386,0.93h-5.358c-0.883,0-1.6,0.717-1.6,1.6v3.2
				c0,0.884,0.717,1.6,1.6,1.6h5.358c0.112,0.319,0.241,0.629,0.386,0.931l-3.789,3.79c-0.625,0.625-0.625,1.638,0,2.263
				l2.264,2.263c0.625,0.625,1.637,0.625,2.262,0l3.789-3.789c0.303,0.144,0.613,0.273,0.932,0.386V63.4c0,0.884,0.716,1.6,1.6,1.6
				h3.199c0.885,0,1.601-0.716,1.601-1.6v-5.358c0.318-0.113,0.628-0.242,0.931-0.386l3.789,3.789c0.625,0.625,1.638,0.625,2.263,0
				l2.263-2.263c0.625-0.625,0.625-1.638,0-2.263l-3.789-3.789c0.145-0.302,0.273-0.612,0.386-0.931h5.358
				c0.883,0,1.6-0.716,1.6-1.6v-3.2C69.082,46.517,68.365,45.8,67.482,45.8z M53.082,53.8c-2.65,0-4.8-2.149-4.8-4.8
				c0-2.651,2.149-4.8,4.8-4.8c2.651,0,4.801,2.149,4.801,4.8C57.883,51.651,55.733,53.8,53.082,53.8z"/>
		</g>
		<g>
			<path style="fill:#00B8A5;" d="M61.002,36.555l-3.789,3.789c-0.303-0.144-0.612-0.273-0.931-0.386V34.6
				c0-0.884-0.716-1.6-1.601-1.6h-3.199c-0.884,0-1.6,0.716-1.6,1.6v5.357c-0.319,0.113-0.629,0.242-0.932,0.386l-3.789-3.789
				c-0.625-0.625-1.637-0.625-2.262,0l-2.264,2.263c-0.625,0.625-0.625,1.638,0,2.263l3.789,3.789
				c-0.145,0.302-0.273,0.612-0.385,0.93h-5.359c-0.883,0-1.6,0.717-1.6,1.6v3.2c0,0.884,0.717,1.6,1.6,1.6h5.359
				c0.111,0.319,0.24,0.629,0.385,0.931l-3.789,3.789c-0.625,0.625-0.625,1.638,0,2.263l1.266,1.265l7.933-7.932
				c-0.949-0.877-1.553-2.122-1.553-3.516c0-2.651,2.149-4.8,4.8-4.8c1.395,0,2.639,0.604,3.516,1.553l7.933-7.933l-1.266-1.265
				C62.64,35.93,61.627,35.93,61.002,36.555z"/>
		</g>
	</g>
</g>
<g id="R-Green" style="display:none;">
	<circle style="display:inline;fill:#77E0C4;" cx="55" cy="55" r="55"/>
	<g style="display:inline;">
		<g>
			<path style="fill:#FFFFFF;" d="M77.082,45c0-14-11-22-23-22c-14.912,0-27,12.088-27,27c0,8.468,3.9,16.021,10,20.972V87h28
				v-9.672c4.315,0.028,8.047-0.375,10-2.328c2.5-2.5,2-12,2-12s2.289,0.091,4.082,0.017c0.623-0.026,1.199-0.342,1.557-0.852
				c0.357-0.511,0.223-1.132,0.268-1.754C83.31,55.941,77.082,47.23,77.082,45z"/>
		</g>
		<g>
			<path style="fill:#009687;" d="M67.482,45.8h-5.358c-0.112-0.318-0.241-0.628-0.386-0.93l3.789-3.789
				c0.625-0.625,0.625-1.638,0-2.263l-2.263-2.263c-0.625-0.625-1.638-0.625-2.263,0l-3.789,3.789
				c-0.303-0.144-0.612-0.273-0.931-0.386V34.6c0-0.884-0.716-1.6-1.601-1.6h-3.199c-0.884,0-1.6,0.716-1.6,1.6v5.357
				c-0.319,0.113-0.629,0.242-0.932,0.386l-3.789-3.789c-0.625-0.625-1.637-0.625-2.262,0l-2.264,2.263
				c-0.625,0.625-0.625,1.638,0,2.263l3.789,3.789c-0.145,0.302-0.273,0.612-0.386,0.93h-5.358c-0.883,0-1.6,0.717-1.6,1.6v3.2
				c0,0.884,0.717,1.6,1.6,1.6h5.358c0.112,0.319,0.241,0.629,0.386,0.931l-3.789,3.79c-0.625,0.625-0.625,1.638,0,2.263
				l2.264,2.263c0.625,0.625,1.637,0.625,2.262,0l3.789-3.789c0.303,0.144,0.613,0.273,0.932,0.386V63.4c0,0.884,0.716,1.6,1.6,1.6
				h3.199c0.885,0,1.601-0.716,1.601-1.6v-5.358c0.318-0.113,0.628-0.242,0.931-0.386l3.789,3.789c0.625,0.625,1.638,0.625,2.263,0
				l2.263-2.263c0.625-0.625,0.625-1.638,0-2.263l-3.789-3.789c0.145-0.302,0.273-0.612,0.386-0.931h5.358
				c0.883,0,1.6-0.716,1.6-1.6v-3.2C69.082,46.517,68.365,45.8,67.482,45.8z M53.082,53.8c-2.65,0-4.8-2.149-4.8-4.8
				c0-2.651,2.149-4.8,4.8-4.8c2.651,0,4.801,2.149,4.801,4.8C57.883,51.651,55.733,53.8,53.082,53.8z"/>
		</g>
		<g>
			<path style="fill:#00B8A5;" d="M61.002,36.555l-3.789,3.789c-0.303-0.144-0.612-0.273-0.931-0.386V34.6
				c0-0.884-0.716-1.6-1.601-1.6h-3.199c-0.884,0-1.6,0.716-1.6,1.6v5.357c-0.319,0.113-0.629,0.242-0.932,0.386l-3.789-3.789
				c-0.625-0.625-1.637-0.625-2.262,0l-2.264,2.263c-0.625,0.625-0.625,1.638,0,2.263l3.789,3.789
				c-0.145,0.302-0.273,0.612-0.385,0.93h-5.359c-0.883,0-1.6,0.717-1.6,1.6v3.2c0,0.884,0.717,1.6,1.6,1.6h5.359
				c0.111,0.319,0.24,0.629,0.385,0.931l-3.789,3.789c-0.625,0.625-0.625,1.638,0,2.263l1.266,1.265l7.933-7.932
				c-0.949-0.877-1.553-2.122-1.553-3.516c0-2.651,2.149-4.8,4.8-4.8c1.395,0,2.639,0.604,3.516,1.553l7.933-7.933l-1.266-1.265
				C62.64,35.93,61.627,35.93,61.002,36.555z"/>
		</g>
	</g>
</g>
<g id="Red" style="display:none;">
	<g style="display:inline;">
		<g>
			<path style="fill:#FFFFFF;" d="M77.082,45c0-14-11-22-23-22c-14.912,0-27,12.088-27,27c0,8.468,3.9,16.021,10,20.972V87h28
				v-9.672c4.314,0.028,8.047-0.375,10-2.328c2.5-2.5,2-12,2-12s2.289,0.091,4.082,0.017c0.623-0.026,1.199-0.342,1.557-0.852
				c0.357-0.511,0.223-1.132,0.268-1.754C83.31,55.941,77.082,47.23,77.082,45z"/>
		</g>
		<g>
			<path style="fill:#C23023;" d="M67.482,45.8h-5.358c-0.112-0.318-0.241-0.628-0.386-0.93l3.789-3.789
				c0.625-0.625,0.625-1.638,0-2.263l-2.263-2.263c-0.625-0.625-1.638-0.625-2.263,0l-3.789,3.789
				c-0.303-0.144-0.612-0.273-0.931-0.386V34.6c0-0.884-0.716-1.6-1.601-1.6h-3.199c-0.884,0-1.6,0.716-1.6,1.6v5.357
				c-0.319,0.113-0.629,0.242-0.932,0.386l-3.789-3.789c-0.625-0.625-1.637-0.625-2.262,0l-2.264,2.263
				c-0.625,0.625-0.625,1.638,0,2.263l3.789,3.789c-0.145,0.302-0.274,0.612-0.386,0.93h-5.358c-0.883,0-1.6,0.717-1.6,1.6v3.2
				c0,0.884,0.717,1.6,1.6,1.6h5.358c0.112,0.319,0.241,0.629,0.386,0.931l-3.789,3.79c-0.625,0.625-0.625,1.638,0,2.263
				l2.264,2.263c0.625,0.625,1.637,0.625,2.262,0l3.789-3.789c0.303,0.144,0.613,0.273,0.932,0.386V63.4c0,0.884,0.716,1.6,1.6,1.6
				h3.199c0.885,0,1.601-0.716,1.601-1.6v-5.358c0.318-0.113,0.628-0.242,0.931-0.386l3.789,3.789c0.625,0.625,1.638,0.625,2.263,0
				l2.263-2.263c0.625-0.625,0.625-1.638,0-2.263l-3.789-3.789c0.145-0.302,0.273-0.612,0.386-0.931h5.358
				c0.883,0,1.6-0.716,1.6-1.6v-3.2C69.082,46.517,68.365,45.8,67.482,45.8z M53.082,53.8c-2.65,0-4.8-2.149-4.8-4.8
				c0-2.651,2.149-4.8,4.8-4.8c2.651,0,4.801,2.149,4.801,4.8C57.883,51.651,55.733,53.8,53.082,53.8z"/>
		</g>
		<g>
			<path style="fill:#E54B44;" d="M61.002,36.555l-3.789,3.789c-0.303-0.144-0.612-0.273-0.931-0.386V34.6
				c0-0.884-0.716-1.6-1.601-1.6h-3.199c-0.884,0-1.6,0.716-1.6,1.6v5.357c-0.319,0.113-0.629,0.242-0.932,0.386l-3.789-3.789
				c-0.625-0.625-1.637-0.625-2.262,0l-2.264,2.263c-0.625,0.625-0.625,1.638,0,2.263l3.789,3.789
				c-0.145,0.302-0.274,0.612-0.385,0.93h-5.359c-0.883,0-1.6,0.717-1.6,1.6v3.2c0,0.884,0.717,1.6,1.6,1.6h5.359
				c0.111,0.319,0.24,0.629,0.385,0.931l-3.789,3.789c-0.625,0.625-0.625,1.638,0,2.263l1.266,1.265l7.933-7.932
				c-0.949-0.877-1.553-2.122-1.553-3.516c0-2.651,2.149-4.8,4.8-4.8c1.395,0,2.639,0.604,3.516,1.553l7.933-7.933l-1.266-1.265
				C62.64,35.93,61.627,35.93,61.002,36.555z"/>
		</g>
	</g>
</g>
<g id="R-Red" style="display:none;">
	<circle style="display:inline;fill:#FABBAF;" cx="55" cy="55" r="55"/>
	<g style="display:inline;">
		<g>
			<path style="fill:#FFFFFF;" d="M77.082,45c0-14-11-22-23-22c-14.912,0-27,12.088-27,27c0,8.468,3.9,16.022,10,20.972V87h28
				v-9.672c4.314,0.028,8.047-0.374,10-2.328c2.5-2.5,2-12,2-12s2.289,0.091,4.082,0.017c0.623-0.026,1.199-0.342,1.557-0.853
				c0.357-0.511,0.223-1.132,0.268-1.754C83.31,55.941,77.082,47.23,77.082,45z"/>
		</g>
		<g>
			<path style="fill:#C23023;" d="M67.482,45.8h-5.358c-0.112-0.318-0.241-0.628-0.386-0.93l3.789-3.789
				c0.625-0.625,0.625-1.638,0-2.263l-2.263-2.263c-0.625-0.625-1.638-0.625-2.263,0l-3.789,3.788
				c-0.303-0.144-0.612-0.273-0.931-0.386V34.6c0-0.884-0.716-1.6-1.601-1.6h-3.199c-0.884,0-1.6,0.716-1.6,1.6v5.357
				c-0.319,0.113-0.629,0.242-0.932,0.386l-3.789-3.788c-0.625-0.625-1.637-0.625-2.262,0l-2.264,2.263
				c-0.625,0.625-0.625,1.638,0,2.263l3.789,3.789c-0.145,0.302-0.274,0.612-0.386,0.93h-5.358c-0.883,0-1.6,0.717-1.6,1.6v3.2
				c0,0.884,0.717,1.6,1.6,1.6h5.358c0.112,0.319,0.241,0.629,0.386,0.931l-3.789,3.789c-0.625,0.625-0.625,1.638,0,2.263
				l2.264,2.263c0.625,0.625,1.637,0.625,2.262,0l3.789-3.789c0.303,0.144,0.613,0.273,0.932,0.386V63.4c0,0.884,0.716,1.6,1.6,1.6
				h3.199c0.885,0,1.601-0.716,1.601-1.6v-5.358c0.318-0.113,0.628-0.242,0.931-0.386l3.789,3.789c0.625,0.625,1.638,0.625,2.263,0
				l2.263-2.263c0.625-0.625,0.625-1.638,0-2.263l-3.789-3.789c0.145-0.302,0.273-0.612,0.386-0.931h5.358
				c0.883,0,1.6-0.716,1.6-1.6v-3.2C69.082,46.517,68.365,45.8,67.482,45.8z M53.082,53.8c-2.65,0-4.8-2.149-4.8-4.8
				c0-2.651,2.149-4.8,4.8-4.8c2.651,0,4.801,2.149,4.801,4.8C57.883,51.651,55.733,53.8,53.082,53.8z"/>
		</g>
		<g>
			<path style="fill:#E54B44;" d="M61.002,36.555l-3.789,3.788c-0.303-0.144-0.612-0.273-0.931-0.386V34.6
				c0-0.884-0.716-1.6-1.601-1.6h-3.199c-0.884,0-1.6,0.716-1.6,1.6v5.357c-0.319,0.113-0.629,0.242-0.932,0.386l-3.789-3.788
				c-0.625-0.625-1.637-0.625-2.262,0l-2.264,2.263c-0.625,0.625-0.625,1.638,0,2.263l3.789,3.789
				c-0.145,0.302-0.274,0.612-0.385,0.93h-5.359c-0.883,0-1.6,0.717-1.6,1.6v3.2c0,0.884,0.717,1.6,1.6,1.6h5.359
				c0.111,0.319,0.24,0.629,0.385,0.931l-3.789,3.789c-0.625,0.625-0.625,1.638,0,2.263l1.266,1.265l7.933-7.932
				c-0.949-0.877-1.553-2.122-1.553-3.516c0-2.651,2.149-4.8,4.8-4.8c1.395,0,2.639,0.604,3.516,1.553l7.933-7.933l-1.266-1.265
				C62.64,35.93,61.627,35.93,61.002,36.555z"/>
		</g>
	</g>
</g>
<g id="Yellow" style="display:none;">
	<g style="display:inline;">
		<g>
			<path style="fill:#FFFFFF;" d="M77.082,45c0-14-11-22-23-22c-14.912,0-27,12.088-27,27c0,8.468,3.9,16.021,10,20.972V87h28
				v-9.672c4.315,0.028,8.047-0.375,10-2.328c2.5-2.5,2-12,2-12s2.289,0.091,4.082,0.017c0.623-0.026,1.199-0.342,1.557-0.853
				c0.357-0.511,0.223-1.132,0.268-1.754C83.31,55.941,77.082,47.23,77.082,45z"/>
		</g>
		<g>
			<path style="fill:#E07000;" d="M67.483,45.8h-5.358c-0.112-0.318-0.241-0.628-0.386-0.93l3.789-3.789
				c0.625-0.625,0.625-1.638,0-2.263l-2.263-2.263c-0.625-0.625-1.638-0.625-2.263,0l-3.789,3.789
				c-0.303-0.144-0.612-0.273-0.931-0.386V34.6c0-0.884-0.716-1.6-1.601-1.6h-3.199c-0.884,0-1.6,0.716-1.6,1.6v5.357
				c-0.319,0.113-0.629,0.242-0.932,0.386l-3.789-3.789c-0.625-0.625-1.637-0.625-2.262,0l-2.264,2.263
				c-0.625,0.625-0.625,1.638,0,2.263l3.789,3.789c-0.145,0.302-0.273,0.612-0.386,0.93h-5.358c-0.883,0-1.6,0.717-1.6,1.6v3.2
				c0,0.884,0.717,1.6,1.6,1.6h5.358c0.112,0.319,0.241,0.629,0.386,0.931l-3.789,3.789c-0.625,0.625-0.625,1.638,0,2.263
				l2.264,2.263c0.625,0.625,1.637,0.625,2.262,0l3.789-3.789c0.303,0.144,0.613,0.273,0.932,0.386V63.4c0,0.884,0.716,1.6,1.6,1.6
				h3.199c0.885,0,1.601-0.716,1.601-1.6v-5.358c0.318-0.113,0.628-0.242,0.931-0.386l3.789,3.789c0.625,0.625,1.638,0.625,2.263,0
				l2.263-2.263c0.625-0.625,0.625-1.638,0-2.263l-3.789-3.789c0.145-0.302,0.273-0.612,0.386-0.931h5.358
				c0.883,0,1.6-0.716,1.6-1.6v-3.2C69.082,46.517,68.366,45.8,67.483,45.8z M53.083,53.8c-2.65,0-4.8-2.149-4.8-4.8
				c0-2.651,2.149-4.8,4.8-4.8c2.651,0,4.801,2.149,4.801,4.8C57.883,51.651,55.734,53.8,53.083,53.8z"/>
		</g>
		<g>
			<path style="fill:#FA9200;" d="M61.002,36.555l-3.789,3.789c-0.303-0.144-0.612-0.273-0.931-0.386V34.6
				c0-0.884-0.716-1.6-1.601-1.6h-3.199c-0.884,0-1.6,0.716-1.6,1.6v5.357c-0.319,0.113-0.629,0.242-0.932,0.386l-3.789-3.789
				c-0.625-0.625-1.637-0.625-2.262,0l-2.264,2.263c-0.625,0.625-0.625,1.638,0,2.263l3.789,3.789
				c-0.145,0.302-0.273,0.612-0.385,0.93h-5.359c-0.883,0-1.6,0.717-1.6,1.6v3.2c0,0.884,0.717,1.6,1.6,1.6h5.359
				c0.111,0.319,0.24,0.629,0.385,0.931l-3.789,3.789c-0.625,0.625-0.625,1.638,0,2.263l1.266,1.265l7.933-7.932
				c-0.949-0.877-1.553-2.122-1.553-3.516c0-2.651,2.149-4.8,4.8-4.8c1.395,0,2.639,0.604,3.516,1.553l7.933-7.933l-1.266-1.265
				C62.64,35.93,61.627,35.93,61.002,36.555z"/>
		</g>
	</g>
</g>
<g id="R-Yellow" style="display:none;">
	<circle style="display:inline;fill:#FFD75E;" cx="55" cy="55" r="55"/>
	<g style="display:inline;">
		<g>
			<path style="fill:#FFFFFF;" d="M77.082,45c0-14-11-22-23-22c-14.912,0-27,12.088-27,27c0,8.468,3.9,16.022,10,20.972V87h28
				v-9.672c4.314,0.028,8.047-0.374,10-2.328c2.5-2.5,2-12,2-12s2.289,0.091,4.082,0.017c0.623-0.026,1.199-0.342,1.557-0.853
				c0.357-0.511,0.223-1.132,0.268-1.754C83.31,55.941,77.082,47.23,77.082,45z"/>
		</g>
		<g>
			<path style="fill:#E07000;" d="M67.482,45.8h-5.358c-0.112-0.318-0.241-0.628-0.386-0.93l3.789-3.789
				c0.625-0.625,0.625-1.638,0-2.263l-2.263-2.263c-0.625-0.625-1.638-0.625-2.263,0l-3.789,3.788
				c-0.303-0.144-0.612-0.273-0.931-0.386V34.6c0-0.884-0.716-1.6-1.601-1.6h-3.199c-0.884,0-1.6,0.716-1.6,1.6v5.357
				c-0.319,0.113-0.629,0.242-0.932,0.386l-3.789-3.788c-0.625-0.625-1.637-0.625-2.262,0l-2.264,2.263
				c-0.625,0.625-0.625,1.638,0,2.263l3.789,3.789c-0.145,0.302-0.273,0.612-0.386,0.93h-5.358c-0.883,0-1.6,0.717-1.6,1.6v3.2
				c0,0.884,0.717,1.6,1.6,1.6h5.358c0.112,0.319,0.241,0.629,0.386,0.931l-3.789,3.789c-0.625,0.625-0.625,1.638,0,2.263
				l2.264,2.263c0.625,0.625,1.637,0.625,2.262,0l3.789-3.789c0.303,0.144,0.613,0.273,0.932,0.386V63.4c0,0.884,0.716,1.6,1.6,1.6
				h3.199c0.885,0,1.601-0.716,1.601-1.6v-5.358c0.318-0.113,0.628-0.242,0.931-0.386l3.789,3.789c0.625,0.625,1.638,0.625,2.263,0
				l2.263-2.263c0.625-0.625,0.625-1.638,0-2.263l-3.789-3.789c0.145-0.302,0.273-0.612,0.386-0.931h5.358
				c0.883,0,1.6-0.716,1.6-1.6v-3.2C69.082,46.517,68.365,45.8,67.482,45.8z M53.082,53.8c-2.65,0-4.8-2.149-4.8-4.8
				c0-2.651,2.149-4.8,4.8-4.8c2.651,0,4.801,2.149,4.801,4.8C57.883,51.651,55.733,53.8,53.082,53.8z"/>
		</g>
		<g>
			<path style="fill:#FA9200;" d="M61.002,36.555l-3.789,3.788c-0.303-0.144-0.612-0.273-0.931-0.386V34.6
				c0-0.884-0.716-1.6-1.601-1.6h-3.199c-0.884,0-1.6,0.716-1.6,1.6v5.357c-0.319,0.113-0.629,0.242-0.932,0.386l-3.789-3.788
				c-0.625-0.625-1.637-0.625-2.262,0l-2.264,2.263c-0.625,0.625-0.625,1.638,0,2.263l3.789,3.789
				c-0.145,0.302-0.273,0.612-0.385,0.93h-5.359c-0.883,0-1.6,0.717-1.6,1.6v3.2c0,0.884,0.717,1.6,1.6,1.6h5.359
				c0.111,0.319,0.24,0.629,0.385,0.931l-3.789,3.789c-0.625,0.625-0.625,1.638,0,2.263l1.266,1.265l7.933-7.932
				c-0.949-0.877-1.553-2.122-1.553-3.516c0-2.651,2.149-4.8,4.8-4.8c1.395,0,2.639,0.604,3.516,1.553l7.933-7.933l-1.266-1.265
				C62.64,35.93,61.627,35.93,61.002,36.555z"/>
		</g>
	</g>
</g>
</svg>
