<?xml version="1.0" encoding="iso-8859-1"?>
<!-- Generator: Adobe Illustrator 17.1.0, SVG Export Plug-In . SVG Version: 6.00 Build 0)  -->
<!DOCTYPE svg PUBLIC "-//W3C//DTD SVG 1.0//EN" "http://www.w3.org/TR/2001/REC-SVG-20010904/DTD/svg10.dtd">
<svg version="1.0" xmlns="http://www.w3.org/2000/svg" xmlns:xlink="http://www.w3.org/1999/xlink" x="0px" y="0px" width="110px"
	 height="110px" viewBox="0 0 110 110" style="enable-background:new 0 0 110 110;" xml:space="preserve">
<g id="Artboard">
</g>
<g id="Multicolor">
	<circle style="fill:#E04F5F;" cx="55" cy="55" r="55"/>
	<g>
		<path style="fill:#FFFFFF;" d="M79,27.068c4.42,0,8,3.58,8,8v36c0,4.42-3.58,8-8,8H31c-4.42,0-8-3.58-8-8v-36c0-4.42,3.58-8,8-8
			H79z"/>
		<g>
			<path style="fill:#818284;" d="M29.61,47.152c0-1.931,0.66-3.015,1.931-3.015s1.931,1.084,1.931,3.015
				c0,1.939-0.661,3.023-1.931,3.023S29.61,49.092,29.61,47.152z M32.667,47.152c0-1.702-0.415-2.396-1.126-2.396
				c-0.703,0-1.126,0.694-1.126,2.396c0,1.711,0.423,2.405,1.126,2.405C32.252,49.558,32.667,48.863,32.667,47.152z M31.541,46.602
				c0.322,0,0.559,0.246,0.559,0.55c0,0.313-0.237,0.559-0.559,0.559c-0.313,0-0.55-0.246-0.55-0.559
				C30.99,46.848,31.227,46.602,31.541,46.602z"/>
			<path style="fill:#818284;" d="M36.6,45.095l-1.397,0.847l-0.373-0.542l1.863-1.16h0.686v5.208h1.194v0.626h-3.404v-0.626H36.6
				V45.095z"/>
			<path style="fill:#818284;" d="M39.78,47.152c0-1.931,0.66-3.015,1.931-3.015s1.931,1.084,1.931,3.015
				c0,1.939-0.661,3.023-1.931,3.023S39.78,49.092,39.78,47.152z M42.837,47.152c0-1.702-0.415-2.396-1.126-2.396
				c-0.703,0-1.126,0.694-1.126,2.396c0,1.711,0.423,2.405,1.126,2.405C42.422,49.558,42.837,48.863,42.837,47.152z M41.711,46.602
				c0.322,0,0.559,0.246,0.559,0.55c0,0.313-0.237,0.559-0.559,0.559c-0.313,0-0.55-0.246-0.55-0.559
				C41.161,46.848,41.398,46.602,41.711,46.602z"/>
			<path style="fill:#818284;" d="M46.771,45.095l-1.397,0.847l-0.373-0.542l1.863-1.16h0.686v5.208h1.194v0.626H45.34v-0.626h1.431
				V45.095z"/>
			<path style="fill:#818284;" d="M51.856,45.095l-1.397,0.847l-0.373-0.542l1.863-1.16h0.686v5.208h1.194v0.626h-3.404v-0.626
				h1.431V45.095z"/>
			<path style="fill:#818284;" d="M55.036,47.152c0-1.931,0.661-3.015,1.931-3.015s1.931,1.084,1.931,3.015
				c0,1.939-0.661,3.023-1.931,3.023S55.036,49.092,55.036,47.152z M58.093,47.152c0-1.702-0.415-2.396-1.126-2.396
				c-0.703,0-1.126,0.694-1.126,2.396c0,1.711,0.423,2.405,1.126,2.405C57.678,49.558,58.093,48.863,58.093,47.152z M56.967,46.602
				c0.322,0,0.559,0.246,0.559,0.55c0,0.313-0.237,0.559-0.559,0.559c-0.313,0-0.55-0.246-0.55-0.559
				C56.416,46.848,56.653,46.602,56.967,46.602z"/>
			<path style="fill:#818284;" d="M62.026,45.095l-1.397,0.847l-0.373-0.542l1.863-1.16h0.686v5.208H64v0.626h-3.404v-0.626h1.431
				V45.095z"/>
			<path style="fill:#818284;" d="M65.206,47.152c0-1.931,0.661-3.015,1.931-3.015s1.931,1.084,1.931,3.015
				c0,1.939-0.661,3.023-1.931,3.023S65.206,49.092,65.206,47.152z M68.263,47.152c0-1.702-0.415-2.396-1.126-2.396
				c-0.703,0-1.126,0.694-1.126,2.396c0,1.711,0.423,2.405,1.126,2.405C67.848,49.558,68.263,48.863,68.263,47.152z M67.137,46.602
				c0.322,0,0.559,0.246,0.559,0.55c0,0.313-0.237,0.559-0.559,0.559c-0.313,0-0.55-0.246-0.55-0.559
				C66.587,46.848,66.824,46.602,67.137,46.602z"/>
			<path style="fill:#818284;" d="M72.197,45.095L70.8,45.941l-0.373-0.542l1.863-1.16h0.686v5.208h1.194v0.626h-3.404v-0.626h1.431
				V45.095z"/>
			<path style="fill:#818284;" d="M29.61,57.323c0-1.931,0.66-3.015,1.931-3.015s1.931,1.084,1.931,3.015
				c0,1.939-0.661,3.023-1.931,3.023S29.61,59.262,29.61,57.323z M32.667,57.323c0-1.702-0.415-2.396-1.126-2.396
				c-0.703,0-1.126,0.694-1.126,2.396c0,1.711,0.423,2.405,1.126,2.405C32.252,59.728,32.667,59.034,32.667,57.323z M31.541,56.772
				c0.322,0,0.559,0.246,0.559,0.55c0,0.313-0.237,0.559-0.559,0.559c-0.313,0-0.55-0.246-0.55-0.559
				C30.99,57.018,31.227,56.772,31.541,56.772z"/>
			<path style="fill:#818284;" d="M36.6,55.265l-1.397,0.847l-0.373-0.542l1.863-1.16h0.686v5.208h1.194v0.626h-3.404v-0.626H36.6
				V55.265z"/>
			<path style="fill:#818284;" d="M39.78,57.323c0-1.931,0.66-3.015,1.931-3.015s1.931,1.084,1.931,3.015
				c0,1.939-0.661,3.023-1.931,3.023S39.78,59.262,39.78,57.323z M42.837,57.323c0-1.702-0.415-2.396-1.126-2.396
				c-0.703,0-1.126,0.694-1.126,2.396c0,1.711,0.423,2.405,1.126,2.405C42.422,59.728,42.837,59.034,42.837,57.323z M41.711,56.772
				c0.322,0,0.559,0.246,0.559,0.55c0,0.313-0.237,0.559-0.559,0.559c-0.313,0-0.55-0.246-0.55-0.559
				C41.161,57.018,41.398,56.772,41.711,56.772z"/>
			<path style="fill:#818284;" d="M46.771,55.265l-1.397,0.847l-0.373-0.542l1.863-1.16h0.686v5.208h1.194v0.626H45.34v-0.626h1.431
				V55.265z"/>
			<path style="fill:#818284;" d="M49.951,57.323c0-1.931,0.66-3.015,1.931-3.015s1.931,1.084,1.931,3.015
				c0,1.939-0.661,3.023-1.931,3.023S49.951,59.262,49.951,57.323z M53.008,57.323c0-1.702-0.415-2.396-1.126-2.396
				c-0.703,0-1.126,0.694-1.126,2.396c0,1.711,0.423,2.405,1.126,2.405C52.593,59.728,53.008,59.034,53.008,57.323z M51.881,56.772
				c0.322,0,0.559,0.246,0.559,0.55c0,0.313-0.237,0.559-0.559,0.559c-0.313,0-0.55-0.246-0.55-0.559
				C51.331,57.018,51.568,56.772,51.881,56.772z"/>
			<path style="fill:#818284;" d="M55.036,57.323c0-1.931,0.661-3.015,1.931-3.015s1.931,1.084,1.931,3.015
				c0,1.939-0.661,3.023-1.931,3.023S55.036,59.262,55.036,57.323z M58.093,57.323c0-1.702-0.415-2.396-1.126-2.396
				c-0.703,0-1.126,0.694-1.126,2.396c0,1.711,0.423,2.405,1.126,2.405C57.678,59.728,58.093,59.034,58.093,57.323z M56.967,56.772
				c0.322,0,0.559,0.246,0.559,0.55c0,0.313-0.237,0.559-0.559,0.559c-0.313,0-0.55-0.246-0.55-0.559
				C56.416,57.018,56.653,56.772,56.967,56.772z"/>
			<path style="fill:#818284;" d="M62.026,55.265l-1.397,0.847l-0.373-0.542l1.863-1.16h0.686v5.208H64v0.626h-3.404v-0.626h1.431
				V55.265z"/>
			<path style="fill:#818284;" d="M65.206,57.323c0-1.931,0.661-3.015,1.931-3.015s1.931,1.084,1.931,3.015
				c0,1.939-0.661,3.023-1.931,3.023S65.206,59.262,65.206,57.323z M68.263,57.323c0-1.702-0.415-2.396-1.126-2.396
				c-0.703,0-1.126,0.694-1.126,2.396c0,1.711,0.423,2.405,1.126,2.405C67.848,59.728,68.263,59.034,68.263,57.323z M67.137,56.772
				c0.322,0,0.559,0.246,0.559,0.55c0,0.313-0.237,0.559-0.559,0.559c-0.313,0-0.55-0.246-0.55-0.559
				C66.587,57.018,66.824,56.772,67.137,56.772z"/>
			<path style="fill:#818284;" d="M31.515,65.436l-1.397,0.847l-0.373-0.542l1.863-1.16h0.686v5.208h1.194v0.626h-3.404v-0.626
				h1.431V65.436z"/>
			<path style="fill:#818284;" d="M34.695,67.494c0-1.931,0.661-3.015,1.931-3.015s1.931,1.084,1.931,3.015
				c0,1.939-0.661,3.023-1.931,3.023S34.695,69.433,34.695,67.494z M37.752,67.494c0-1.702-0.415-2.396-1.126-2.396
				c-0.703,0-1.126,0.694-1.126,2.396c0,1.711,0.423,2.405,1.126,2.405C37.337,69.899,37.752,69.205,37.752,67.494z M36.626,66.943
				c0.322,0,0.559,0.246,0.559,0.55c0,0.313-0.237,0.559-0.559,0.559c-0.313,0-0.55-0.246-0.55-0.559
				C36.075,67.189,36.312,66.943,36.626,66.943z"/>
			<path style="fill:#818284;" d="M41.686,65.436l-1.397,0.847l-0.373-0.542l1.863-1.16h0.686v5.208h1.194v0.626h-3.404v-0.626
				h1.431V65.436z"/>
			<path style="fill:#818284;" d="M44.865,67.494c0-1.931,0.661-3.015,1.931-3.015s1.931,1.084,1.931,3.015
				c0,1.939-0.661,3.023-1.931,3.023S44.865,69.433,44.865,67.494z M47.923,67.494c0-1.702-0.415-2.396-1.126-2.396
				c-0.703,0-1.126,0.694-1.126,2.396c0,1.711,0.423,2.405,1.126,2.405C47.508,69.899,47.923,69.205,47.923,67.494z M46.796,66.943
				c0.322,0,0.559,0.246,0.559,0.55c0,0.313-0.237,0.559-0.559,0.559c-0.313,0-0.55-0.246-0.55-0.559
				C46.246,67.189,46.483,66.943,46.796,66.943z"/>
			<path style="fill:#818284;" d="M49.951,67.494c0-1.931,0.66-3.015,1.931-3.015s1.931,1.084,1.931,3.015
				c0,1.939-0.661,3.023-1.931,3.023S49.951,69.433,49.951,67.494z M53.008,67.494c0-1.702-0.415-2.396-1.126-2.396
				c-0.703,0-1.126,0.694-1.126,2.396c0,1.711,0.423,2.405,1.126,2.405C52.593,69.899,53.008,69.205,53.008,67.494z M51.881,66.943
				c0.322,0,0.559,0.246,0.559,0.55c0,0.313-0.237,0.559-0.559,0.559c-0.313,0-0.55-0.246-0.55-0.559
				C51.331,67.189,51.568,66.943,51.881,66.943z"/>
			<path style="fill:#818284;" d="M56.941,65.436l-1.397,0.847l-0.373-0.542l1.863-1.16h0.686v5.208h1.194v0.626H55.51v-0.626h1.431
				V65.436z"/>
		</g>
		<path style="fill:#3E3E3F;" d="M79,27H31c-4.418,0-8,3.582-8,8v4h64v-4C87,30.582,83.418,27,79,27z"/>
		<circle style="fill:#FA5655;" cx="32" cy="33.068" r="2"/>
		<circle style="fill:#F3B607;" cx="40" cy="33.068" r="2"/>
		<circle style="fill:#17B198;" cx="48" cy="33.068" r="2"/>
		<path style="fill:#84462D;" d="M59.673,75.021L48.876,85.819c-1.344,1.344-3.522,1.344-4.867,0s-1.344-3.522,0-4.867
			l10.822-10.822C56.029,72.126,57.69,73.805,59.673,75.021z"/>
		<path style="fill:#9C6144;" d="M56.924,72.826L43.973,85.777c-1.308-1.344-1.296-3.492,0.03-4.824l10.828-10.828
			C55.421,71.104,56.127,72.01,56.924,72.826z"/>
		<path style="fill:#FFFFFF;" d="M67.332,77.1c-7.995,0-14.5-6.505-14.5-14.5s6.505-14.5,14.5-14.5s14.5,6.505,14.5,14.5
			S75.327,77.1,67.332,77.1z"/>
		<path style="fill:#CFD3D4;" d="M67.332,48.088c8.012,0,14.512,6.5,14.512,14.512s-6.5,14.512-14.512,14.512
			c-8.041,0-14.512-6.561-14.512-14.512C52.82,54.588,59.32,48.088,67.332,48.088 M67.332,46.1c-9.098,0-16.5,7.402-16.5,16.5
			s7.402,16.5,16.5,16.5s16.5-7.402,16.5-16.5S76.43,46.1,67.332,46.1L67.332,46.1z"/>
		<circle style="fill:#6FDAF1;" cx="67.332" cy="62.6" r="11.558"/>
		<path style="fill:#9CE5F4;" d="M67.332,51.042c-6.383,0-11.558,5.175-11.558,11.558c0,3.158,1.27,6.018,3.323,8.104l16.339-16.339
			C73.35,52.311,70.49,51.042,67.332,51.042z"/>
	</g>
</g>
</svg>
