<?xml version="1.0" encoding="iso-8859-1"?>
<!-- Generator: Adobe Illustrator 17.1.0, SVG Export Plug-In . SVG Version: 6.00 Build 0)  -->
<!DOCTYPE svg PUBLIC "-//W3C//DTD SVG 1.0//EN" "http://www.w3.org/TR/2001/REC-SVG-20010904/DTD/svg10.dtd">
<svg version="1.0" xmlns="http://www.w3.org/2000/svg" xmlns:xlink="http://www.w3.org/1999/xlink" x="0px" y="0px" width="110px"
	 height="110px" viewBox="0 0 110 110" style="enable-background:new 0 0 110 110;" xml:space="preserve">
<g id="Artboard" style="display:none;">
	<rect x="-694.5" y="-41.5" style="display:inline;fill:#808080;stroke:#000000;stroke-miterlimit:10;" width="1352" height="321"/>
</g>
<g id="R-Multicolor" style="display:none;">
	<circle style="display:inline;fill:#E04F5F;" cx="55" cy="55" r="55"/>
	<g style="display:inline;">
		<g>
			<path style="fill:#E2E4E5;" d="M67,39.005c0,6-6,11-12,16s-12,10-12,16c0,12,12,16,12,16c-17.67,0-32-14.33-32-32s14.33-32,32-32
				C55,23.005,67,27.005,67,39.005z"/>
		</g>
		<g>
			<path style="fill:#3E3E3F;" d="M87,55.005c0,17.67-14.33,32-32,32c0,0-12-4-12-16c0-6,6-11,12-16s12-10,12-16c0-12-12-16-12-16
				C72.67,23.005,87,37.335,87,55.005z"/>
		</g>
		<g>
			<path style="fill:#FFFFFF;" d="M55,55.005c6-5,12-10,12-16c0-12-12-16-12-16c-17.67,0-32,14.33-32,32
				c0,9.725,4.347,18.432,11.196,24.302l8.837-8.837C43.378,64.707,49.18,59.854,55,55.005z"/>
		</g>
		<g>
			<circle style="fill:#FFFFFF;" cx="55" cy="71.005" r="6"/>
		</g>
		<g>
			<circle style="fill:#5B5C5F;" cx="55" cy="39.005" r="6"/>
		</g>
		<g>
			<path style="fill:#5B5C5F;" d="M55,55.005c-5.82,4.85-11.622,9.702-11.967,15.464l36.268-36.269
				C73.432,27.351,64.725,23.005,55,23.005c0,0,12,4,12,16C67,45.005,61,50.005,55,55.005z"/>
		</g>
	</g>
</g>
<g id="Multicolor" style="display:none;">
	<g style="display:inline;">
		<g>
			<path style="fill:#E2E4E5;" d="M67,39.005c0,6-6,11-12,16s-12,10-12,16c0,12,12,16,12,16c-17.67,0-32-14.33-32-32s14.33-32,32-32
				C55,23.005,67,27.005,67,39.005z"/>
		</g>
		<g>
			<path style="fill:#3E3E3F;" d="M87,55.005c0,17.67-14.33,32-32,32c0,0-12-4-12-16c0-6,6-11,12-16s12-10,12-16c0-12-12-16-12-16
				C72.67,23.005,87,37.335,87,55.005z"/>
		</g>
		<g>
			<path style="fill:#FFFFFF;" d="M55,55.005c6-5,12-10,12-16c0-12-12-16-12-16c-17.67,0-32,14.33-32,32
				c0,9.725,4.347,18.432,11.196,24.302l8.837-8.837C43.378,64.707,49.18,59.854,55,55.005z"/>
		</g>
		<g>
			<circle style="fill:#FFFFFF;" cx="55" cy="71.005" r="6"/>
		</g>
		<g>
			<circle style="fill:#5B5C5F;" cx="55" cy="39.005" r="6"/>
		</g>
		<g>
			<path style="fill:#5B5C5F;" d="M55,55.005c-5.82,4.85-11.622,9.702-11.967,15.464l36.268-36.269
				C73.432,27.351,64.725,23.005,55,23.005c0,0,12,4,12,16C67,45.005,61,50.005,55,55.005z"/>
		</g>
	</g>
</g>
<g id="Blue">
	<g>
		<g>
			<path style="fill:#E1F5FA;" d="M67,39.021c0,6-6,11-12,16s-12,10-12,16c0,12,12,16,12,16c-17.67,0-32-14.33-32-32s14.33-32,32-32
				C55,23.021,67,27.021,67,39.021z"/>
		</g>
		<g>
			<path style="fill:#0C333D;" d="M87,55.021c0,17.67-14.33,32-32,32c0,0-12-4-12-16c0-6,6-11,12-16s12-10,12-16c0-12-12-16-12-16
				C72.67,23.021,87,37.351,87,55.021z"/>
		</g>
		<g>
			<path style="fill:#FFFFFF;" d="M55,55.021c6-5,12-10,12-16c0-12-12-16-12-16c-17.67,0-32,14.33-32,32
				c0,9.725,4.347,18.432,11.195,24.302l8.838-8.838C43.378,64.723,49.181,59.87,55,55.021z"/>
		</g>
		<g>
			<circle style="fill:#FFFFFF;" cx="55" cy="71.021" r="6"/>
		</g>
		<g>
			<circle style="fill:#0C333D;" cx="55" cy="39.021" r="6"/>
		</g>
		<g>
			<path style="fill:#0F6175;" d="M55,55.021c-5.819,4.85-11.622,9.702-11.967,15.464l36.269-36.268
				C73.432,27.367,64.725,23.021,55,23.021c0,0,12,4,12,16C67,45.021,61,50.021,55,55.021z"/>
		</g>
	</g>
</g>
<g id="R-Blue" style="display:none;">
	<circle style="display:inline;fill:#81D2EB;" cx="55" cy="55" r="55"/>
	<g style="display:inline;">
		<g>
			<path style="fill:#E1F5FA;" d="M67,39.005c0,6-6,11-12,16s-12,10-12,16c0,12,12,16,12,16c-17.67,0-32-14.33-32-32s14.33-32,32-32
				C55,23.005,67,27.005,67,39.005z"/>
		</g>
		<g>
			<path style="fill:#0C333D;" d="M87,55.005c0,17.67-14.33,32-32,32c0,0-12-4-12-16c0-6,6-11,12-16s12-10,12-16c0-12-12-16-12-16
				C72.67,23.005,87,37.335,87,55.005z"/>
		</g>
		<g>
			<path style="fill:#FFFFFF;" d="M55,55.005c6-5,12-10,12-16c0-12-12-16-12-16c-17.67,0-32,14.33-32,32
				c0,9.725,4.347,18.432,11.195,24.302l8.838-8.838C43.378,64.707,49.181,59.854,55,55.005z"/>
		</g>
		<g>
			<circle style="fill:#FFFFFF;" cx="55" cy="71.005" r="6"/>
		</g>
		<g>
			<circle style="fill:#0C333D;" cx="55" cy="39.005" r="6"/>
		</g>
		<g>
			<path style="fill:#0F6175;" d="M55,55.005c-5.819,4.85-11.622,9.702-11.967,15.464L79.302,34.2
				C73.432,27.352,64.725,23.005,55,23.005c0,0,12,4,12,16C67,45.005,61,50.005,55,55.005z"/>
		</g>
	</g>
</g>
<g id="Green" style="display:none;">
	<g style="display:inline;">
		<g>
			<path style="fill:#D7FCF9;" d="M67,39.021c0,6-6,11-12,16s-12,10-12,16c0,12,12,16,12,16c-17.67,0-32-14.33-32-32s14.33-32,32-32
				C55,23.021,67,27.021,67,39.021z"/>
		</g>
		<g>
			<path style="fill:#0A3631;" d="M87,55.021c0,17.67-14.33,32-32,32c0,0-12-4-12-16c0-6,6-11,12-16s12-10,12-16c0-12-12-16-12-16
				C72.67,23.021,87,37.351,87,55.021z"/>
		</g>
		<g>
			<path style="fill:#FFFFFF;" d="M55,55.021c6-5,12-10,12-16c0-12-12-16-12-16c-17.67,0-32,14.33-32,32
				c0,9.725,4.347,18.432,11.195,24.302l8.838-8.838C43.378,64.723,49.181,59.87,55,55.021z"/>
		</g>
		<g>
			<circle style="fill:#FFFFFF;" cx="55" cy="71.021" r="6"/>
		</g>
		<g>
			<circle style="fill:#0A3631;" cx="55" cy="39.021" r="6"/>
		</g>
		<g>
			<path style="fill:#14635B;" d="M55,55.021c-5.819,4.85-11.622,9.702-11.967,15.464l36.269-36.268
				C73.432,27.367,64.725,23.021,55,23.021c0,0,12,4,12,16C67,45.021,61,50.021,55,55.021z"/>
		</g>
	</g>
</g>
<g id="R-Green" style="display:none;">
	<circle style="display:inline;fill:#77E0C4;" cx="55" cy="55" r="55"/>
	<g style="display:inline;">
		<g>
			<path style="fill:#D7FCF9;" d="M67,39.005c0,6-6,11-12,16s-12,10-12,16c0,12,12,16,12,16c-17.67,0-32-14.33-32-32s14.33-32,32-32
				C55,23.005,67,27.005,67,39.005z"/>
		</g>
		<g>
			<path style="fill:#0A3631;" d="M87,55.005c0,17.67-14.33,32-32,32c0,0-12-4-12-16c0-6,6-11,12-16s12-10,12-16c0-12-12-16-12-16
				C72.67,23.005,87,37.335,87,55.005z"/>
		</g>
		<g>
			<path style="fill:#FFFFFF;" d="M55,55.005c6-5,12-10,12-16c0-12-12-16-12-16c-17.67,0-32,14.33-32,32
				c0,9.725,4.347,18.432,11.195,24.302l8.838-8.838C43.378,64.707,49.181,59.854,55,55.005z"/>
		</g>
		<g>
			<circle style="fill:#FFFFFF;" cx="55" cy="71.005" r="6"/>
		</g>
		<g>
			<circle style="fill:#0A3631;" cx="55" cy="39.005" r="6"/>
		</g>
		<g>
			<path style="fill:#14635B;" d="M55,55.005c-5.819,4.85-11.622,9.702-11.967,15.464L79.302,34.2
				C73.432,27.352,64.725,23.005,55,23.005c0,0,12,4,12,16C67,45.005,61,50.005,55,55.005z"/>
		</g>
	</g>
</g>
<g id="Red" style="display:none;">
	<g style="display:inline;">
		<g>
			<path style="fill:#FFEFED;" d="M67,39.021c0,6-6,11-12,16s-12,10-12,16c0,12,12,16,12,16c-17.67,0-32-14.33-32-32s14.33-32,32-32
				C55,23.02,67,27.02,67,39.021z"/>
		</g>
		<g>
			<path style="fill:#4A1410;" d="M87,55.021c0,17.67-14.33,32-32,32c0,0-12-4-12-16c0-6,6-11,12-16s12-10,12-16c0-12-12-16-12-16
				C72.67,23.02,87,37.351,87,55.021z"/>
		</g>
		<g>
			<path style="fill:#FFFFFF;" d="M55,55.021c6-5,12-10,12-16c0-12-12-16-12-16c-17.67,0-32,14.33-32,32
				c0,9.725,4.347,18.432,11.195,24.302l8.838-8.838C43.378,64.723,49.181,59.87,55,55.021z"/>
		</g>
		<g>
			<circle style="fill:#FFFFFF;" cx="55" cy="71.021" r="6"/>
		</g>
		<g>
			<circle style="fill:#4A1410;" cx="55" cy="39.021" r="6"/>
		</g>
		<g>
			<path style="fill:#7D261E;" d="M55,55.021c-5.819,4.85-11.622,9.702-11.967,15.464l36.269-36.269
				C73.432,27.367,64.725,23.02,55,23.02c0,0,12,4,12,16C67,45.021,61,50.021,55,55.021z"/>
		</g>
	</g>
</g>
<g id="R-Red" style="display:none;">
	<circle style="display:inline;fill:#FABBAF;" cx="55" cy="55" r="55"/>
	<g style="display:inline;">
		<g>
			<path style="fill:#FFEFED;" d="M67,39.005c0,6-6,11-12,16s-12,10-12,16c0,12,12,16,12,16c-17.67,0-32-14.33-32-32s14.33-32,32-32
				C55,23.005,67,27.005,67,39.005z"/>
		</g>
		<g>
			<path style="fill:#4A1410;" d="M87,55.005c0,17.67-14.33,32-32,32c0,0-12-4-12-16c0-6,6-11,12-16s12-10,12-16c0-12-12-16-12-16
				C72.67,23.005,87,37.335,87,55.005z"/>
		</g>
		<g>
			<path style="fill:#FFFFFF;" d="M55,55.005c6-5,12-10,12-16c0-12-12-16-12-16c-17.67,0-32,14.33-32,32
				c0,9.725,4.347,18.432,11.195,24.302l8.838-8.838C43.378,64.707,49.181,59.854,55,55.005z"/>
		</g>
		<g>
			<circle style="fill:#FFFFFF;" cx="55" cy="71.005" r="6"/>
		</g>
		<g>
			<circle style="fill:#4A1410;" cx="55" cy="39.005" r="6"/>
		</g>
		<g>
			<path style="fill:#7D261E;" d="M55,55.005c-5.819,4.85-11.622,9.702-11.967,15.464L79.302,34.2
				C73.432,27.352,64.725,23.005,55,23.005c0,0,12,4,12,16C67,45.005,61,50.005,55,55.005z"/>
		</g>
	</g>
</g>
<g id="Yellow" style="display:none;">
	<g style="display:inline;">
		<g>
			<path style="fill:#FFF5D9;" d="M67,39.005c0,6-6,11-12,16s-12,10-12,16c0,12,12,16,12,16c-17.67,0-32-14.33-32-32s14.33-32,32-32
				C55,23.005,67,27.005,67,39.005z"/>
		</g>
		<g>
			<path style="fill:#3D320C;" d="M87,55.005c0,17.67-14.33,32-32,32c0,0-12-4-12-16c0-6,6-11,12-16s12-10,12-16c0-12-12-16-12-16
				C72.67,23.005,87,37.335,87,55.005z"/>
		</g>
		<g>
			<path style="fill:#FFFFFF;" d="M55,55.005c6-5,12-10,12-16c0-12-12-16-12-16c-17.67,0-32,14.33-32,32
				c0,9.725,4.347,18.432,11.195,24.302l8.838-8.838C43.378,64.707,49.181,59.854,55,55.005z"/>
		</g>
		<g>
			<circle style="fill:#FFFFFF;" cx="55" cy="71.005" r="6"/>
		</g>
		<g>
			<circle style="fill:#3D320C;" cx="55" cy="39.005" r="6"/>
		</g>
		<g>
			<path style="fill:#66510D;" d="M55,55.005c-5.819,4.85-11.622,9.702-11.967,15.464L79.302,34.2
				C73.432,27.352,64.725,23.005,55,23.005c0,0,12,4,12,16C67,45.005,61,50.005,55,55.005z"/>
		</g>
	</g>
</g>
<g id="R-Yellow" style="display:none;">
	<circle style="display:inline;fill:#FFD75E;" cx="55" cy="55" r="55"/>
	<g style="display:inline;">
		<g>
			<path style="fill:#FFF5D9;" d="M67,39.005c0,6-6,11-12,16s-12,10-12,16c0,12,12,16,12,16c-17.67,0-32-14.33-32-32s14.33-32,32-32
				C55,23.005,67,27.005,67,39.005z"/>
		</g>
		<g>
			<path style="fill:#3D320C;" d="M87,55.005c0,17.67-14.33,32-32,32c0,0-12-4-12-16c0-6,6-11,12-16s12-10,12-16c0-12-12-16-12-16
				C72.67,23.005,87,37.335,87,55.005z"/>
		</g>
		<g>
			<path style="fill:#FFFFFF;" d="M55,55.005c6-5,12-10,12-16c0-12-12-16-12-16c-17.67,0-32,14.33-32,32
				c0,9.725,4.347,18.432,11.195,24.302l8.838-8.838C43.378,64.707,49.181,59.854,55,55.005z"/>
		</g>
		<g>
			<circle style="fill:#FFFFFF;" cx="55" cy="71.005" r="6"/>
		</g>
		<g>
			<circle style="fill:#3D320C;" cx="55" cy="39.005" r="6"/>
		</g>
		<g>
			<path style="fill:#66510D;" d="M55,55.005c-5.819,4.85-11.622,9.702-11.967,15.464L79.302,34.2
				C73.432,27.352,64.725,23.005,55,23.005c0,0,12,4,12,16C67,45.005,61,50.005,55,55.005z"/>
		</g>
	</g>
</g>
</svg>
